<svg width="48" height="45" viewBox="0 0 48 45" fill="none" xmlns="http://www.w3.org/2000/svg">
<path d="M47.7045 30.7923C47.3954 30.9793 47.0458 31.1257 46.9319 31.5079C45.9398 34.655 44.2402 37.4769 42.9472 40.4532C42.4918 41.5023 41.8819 42.47 41.5159 43.5515C41.4548 43.8497 41.2815 44.113 41.0318 44.287C40.782 44.4611 40.475 44.5326 40.1741 44.4867C27.6182 44.4867 15.0649 44.4867 2.51438 44.4867C1.95063 44.4739 1.39613 44.3408 0.887958 44.0964C0.887958 43.1043 0.806631 42.1447 1.96139 41.4372C2.72581 40.9655 2.92098 39.8677 3.28693 39.0382C4.9784 35.2812 6.88132 31.638 8.524 27.8647C8.63987 27.4743 8.89797 27.1416 9.2473 26.9323C9.59663 26.723 10.0118 26.6524 10.4106 26.7344C11.7362 26.8238 13.0698 26.7344 14.3954 26.7344C16.095 26.7344 17.941 26.3115 19.4535 26.8401C21.1532 27.4419 22.5275 28.9382 24.0075 30.0929C24.666 30.6453 25.4982 30.9476 26.3577 30.9468C30.8222 30.9468 35.303 31.0769 39.7594 30.8899C41.7924 30.8004 43.8255 31.2965 45.8503 30.8329C46.3301 30.7272 46.6636 31.1989 47.0702 31.1664" stroke="white" stroke-miterlimit="10"/>
<path d="M35.7428 24.9776V2.04509C35.7428 0.613844 35.6289 0.5 34.1896 0.5H16.0224C15.6157 0.503526 15.2101 0.544353 14.8108 0.621977C13.7048 0.817147 13.5584 1.10991 13.9162 2.16708C14.0027 2.45441 14.0439 2.75347 14.0382 3.05348C14.0382 4.97266 14.0382 6.89183 14.0382 8.81101C14.0382 9.62422 13.7455 9.94951 12.916 9.93324C11.1432 9.89529 9.37039 9.89529 7.59759 9.93324C7.10755 9.86386 6.62546 9.74673 6.1582 9.58356" stroke="white" stroke-miterlimit="10"/>
<path d="M0.627906 15.2275C0.375811 23.5304 0.587246 31.8414 0.514057 40.1524C0.489371 40.4774 0.53629 40.8039 0.651507 41.1088C0.766724 41.4137 0.94744 41.6896 1.1809 41.9171" stroke="white" stroke-miterlimit="10"/>
<path d="M30.4155 15.8945H10.8984" stroke="white" stroke-miterlimit="10"/>
<path d="M13.4759 1.63086C12.0854 2.06999 11.4836 3.40366 10.5077 4.31446C9.53188 5.22525 8.62921 6.42067 7.59643 7.38026C6.78322 8.19347 6.40914 9.25877 5.62033 10.0557C5.29504 10.381 5.39263 10.8689 5.39263 11.2674V22.8963C5.39263 23.5957 5.39263 24.295 5.39263 25.0025" stroke="white" stroke-miterlimit="10"/>
<path d="M41.1668 15.2275C40.9229 20.3182 41.1262 25.4171 41.0611 30.5159" stroke="white" stroke-miterlimit="10"/>
<path d="M25.4393 21.4889C20.6007 21.3588 15.7702 21.4889 10.9316 21.432" stroke="white" stroke-miterlimit="10"/>
<path d="M30.0905 10.4618C26.6587 10.2585 23.227 10.3642 19.7871 10.4618" stroke="white" stroke-miterlimit="10"/>
</svg>
