<svg width="50" height="38" viewBox="0 0 50 38" fill="none" xmlns="http://www.w3.org/2000/svg">
<path d="M2.87204 8.33398C2.2395 8.87757 1.35986 8.24502 0.5 8.98628V37.5001H49.0575V8.58107C36.8909 8.58107 24.9517 8.58107 13.0223 8.58107C9.7015 8.58107 6.37078 8.8578 3.06971 8.37351" stroke="white" stroke-linecap="round" stroke-linejoin="round"/>
<path d="M37.4839 8.09671C36.6735 5.85316 35.2404 3.88636 34.5189 1.66258C34.0939 0.427148 33.4218 0.506217 32.5422 0.506217C26.8493 0.506217 21.1663 0.506217 15.4735 0.506217C15.0677 0.472943 14.6621 0.573873 14.3193 0.79351C13.9765 1.01315 13.7153 1.33932 13.5758 1.72188C12.5875 3.86659 11.352 5.90258 10.4922 8.12636" stroke="white" stroke-linecap="round" stroke-linejoin="round"/>
<path d="M7.13267 8.09713C7.35999 6.45648 7.02395 5.43848 4.99784 5.43848C2.97173 5.43848 2.64558 6.42683 2.8729 8.09713" stroke="white" stroke-linecap="round" stroke-linejoin="round"/>
<path d="M27.0461 4.53906H20.8887" stroke="white" stroke-linecap="round" stroke-linejoin="round"/>
<path d="M22.787 11.1702C17.3511 12.0103 13.8919 15.1236 12.6367 20.431C12.0513 22.8489 12.293 25.3933 13.3231 27.6577C14.3532 29.9222 16.1124 31.7762 18.3197 32.9237C20.3248 34.1164 22.6546 34.6475 24.9785 34.4417C27.3025 34.2359 29.5026 33.3037 31.267 31.7772C38.3139 25.8472 36.2779 15.7265 28.6874 12.119C26.8895 11.3616 24.9426 11.0236 22.9946 11.1307" stroke="white" stroke-linecap="round" stroke-linejoin="round"/>
<path d="M23.0237 14.2546C21.7125 14.4293 20.459 14.9032 19.3601 15.6396C18.2612 16.376 17.3463 17.3552 16.6862 18.5016C16.0261 19.648 15.6384 20.9308 15.5531 22.2508C15.4678 23.5709 15.6872 24.8929 16.1943 26.1147C16.975 28.0367 18.451 29.5942 20.3283 30.4769C22.2056 31.3597 24.3466 31.5031 26.3248 30.8786C28.1467 30.3241 29.7356 29.1858 30.8466 27.639C31.9575 26.0923 32.5288 24.223 32.4723 22.3195C32.1561 17.5853 28.7759 14.8377 24.6545 14.2644C24.1839 14.2348 23.7118 14.2348 23.2412 14.2644" stroke="white" stroke-linecap="round" stroke-linejoin="round"/>
</svg>
