<svg width="48" height="53" viewBox="0 0 48 53" fill="none" xmlns="http://www.w3.org/2000/svg">
<path d="M0.5 52.5V6.70693C0.502994 5.06167 1.15793 3.48465 2.3213 2.32128C3.48468 1.1579 5.06168 0.502994 6.70694 0.5H40.7658C42.409 0.505984 43.9832 1.16221 45.1441 2.32526C46.305 3.48832 46.9584 5.06363 46.9614 6.70693V52.5" stroke="white" stroke-linecap="round" stroke-linejoin="round"/>
<path d="M0.5 27.6494H46.9613" stroke="white" stroke-linecap="round" stroke-linejoin="round"/>
<mask id="path-3-inside-1_275_5131" fill="white">
<path d="M7.20274 15.8135V11.8279H5.71378V10.5495H10.0754V11.8279H8.59394V15.8135H7.20274ZM10.6564 15.8135V10.5495H12.0476V15.8135H10.6564ZM12.9476 15.8135V10.5495H14.3388V14.5351H16.5046V15.8135H12.9476ZM20.6797 15.9037C20.434 15.9037 20.1934 15.8711 19.9578 15.806C19.7221 15.7358 19.5066 15.6405 19.3111 15.5202C19.1205 15.3999 18.9626 15.2645 18.8373 15.1141C18.712 14.9587 18.6368 14.7958 18.6117 14.6253L19.9954 14.2418C20.0405 14.3671 20.1182 14.4749 20.2285 14.5652C20.3388 14.6504 20.4817 14.698 20.6571 14.708C20.7975 14.713 20.9203 14.6754 21.0256 14.5952C21.1359 14.515 21.1911 14.4097 21.1911 14.2794C21.1911 14.1942 21.1585 14.114 21.0933 14.0388C21.0331 13.9585 20.9354 13.9009 20.8 13.8658L20.0104 13.6628C19.7397 13.5926 19.5066 13.4848 19.3111 13.3394C19.1205 13.194 18.9727 13.016 18.8674 12.8055C18.7671 12.5949 18.717 12.3593 18.717 12.0986C18.717 11.5822 18.8874 11.1812 19.2283 10.8954C19.5743 10.6046 20.058 10.4592 20.6797 10.4592C21.0106 10.4592 21.3013 10.5018 21.552 10.5871C21.8077 10.6723 22.0258 10.8077 22.2063 10.9932C22.3917 11.1736 22.5447 11.4118 22.665 11.7076L21.2888 12.1061C21.2637 12.0058 21.1986 11.9056 21.0933 11.8053C20.993 11.705 20.8552 11.6549 20.6797 11.6549C20.5092 11.6549 20.3764 11.6925 20.2811 11.7677C20.1909 11.8429 20.1458 11.9532 20.1458 12.0986C20.1458 12.1888 20.1834 12.269 20.2586 12.3392C20.3338 12.4044 20.4416 12.4545 20.5819 12.4896L21.3791 12.6927C21.7801 12.7929 22.0935 12.991 22.3191 13.2868C22.5447 13.5775 22.6575 13.9109 22.6575 14.2869C22.6575 14.6328 22.5772 14.9261 22.4168 15.1668C22.2614 15.4074 22.0358 15.5904 21.74 15.7157C21.4442 15.841 21.0908 15.9037 20.6797 15.9037ZM27.0011 15.8135L25.076 10.5495H26.4596L28.475 15.8135H27.0011ZM22.9478 15.8135L24.9632 10.5495H26.3468L24.4217 15.8135H22.9478ZM23.8953 14.9712V13.7455H27.535V14.9712H23.8953ZM28.979 15.8135V10.5495H30.3702V14.5351H32.536V15.8135H28.979ZM35.6397 15.9037C35.0983 15.9037 34.6195 15.7884 34.2034 15.5578C33.7873 15.3222 33.4614 15.0013 33.2258 14.5952C32.9902 14.1841 32.8724 13.7129 32.8724 13.1815C32.8724 12.6501 32.9902 12.1813 33.2258 11.7752C33.4614 11.3641 33.7873 11.0433 34.2034 10.8127C34.6195 10.577 35.0983 10.4592 35.6397 10.4592C35.9957 10.4592 36.309 10.5094 36.5797 10.6096C36.8555 10.7099 37.0936 10.8478 37.2941 11.0232C37.4947 11.1937 37.6651 11.3917 37.8055 11.6173L36.6474 12.3016C36.5772 12.1913 36.487 12.0936 36.3767 12.0084C36.2714 11.9231 36.1536 11.858 36.0233 11.8128C35.8979 11.7627 35.7701 11.7376 35.6397 11.7376C35.379 11.7376 35.1484 11.8003 34.9479 11.9256C34.7474 12.046 34.5894 12.2139 34.4741 12.4295C34.3588 12.645 34.3012 12.8957 34.3012 13.1815C34.3012 13.4622 34.3563 13.7129 34.4666 13.9335C34.5769 14.1541 34.7348 14.327 34.9404 14.4524C35.1509 14.5777 35.3966 14.6404 35.6773 14.6404C35.8779 14.6404 36.0558 14.6053 36.2113 14.5351C36.3667 14.4599 36.4895 14.3571 36.5797 14.2268C36.67 14.0914 36.7151 13.936 36.7151 13.7605L38.0386 13.5124C38.0386 14.0438 37.9358 14.4874 37.7303 14.8434C37.5247 15.1993 37.2415 15.465 36.8805 15.6405C36.5246 15.816 36.111 15.9037 35.6397 15.9037ZM35.542 13.9184V12.8656H38.0386V13.6402L37.249 13.9184H35.542Z"/>
</mask>
<path d="M7.20274 15.8135V11.8279H5.71378V10.5495H10.0754V11.8279H8.59394V15.8135H7.20274ZM10.6564 15.8135V10.5495H12.0476V15.8135H10.6564ZM12.9476 15.8135V10.5495H14.3388V14.5351H16.5046V15.8135H12.9476ZM20.6797 15.9037C20.434 15.9037 20.1934 15.8711 19.9578 15.806C19.7221 15.7358 19.5066 15.6405 19.3111 15.5202C19.1205 15.3999 18.9626 15.2645 18.8373 15.1141C18.712 14.9587 18.6368 14.7958 18.6117 14.6253L19.9954 14.2418C20.0405 14.3671 20.1182 14.4749 20.2285 14.5652C20.3388 14.6504 20.4817 14.698 20.6571 14.708C20.7975 14.713 20.9203 14.6754 21.0256 14.5952C21.1359 14.515 21.1911 14.4097 21.1911 14.2794C21.1911 14.1942 21.1585 14.114 21.0933 14.0388C21.0331 13.9585 20.9354 13.9009 20.8 13.8658L20.0104 13.6628C19.7397 13.5926 19.5066 13.4848 19.3111 13.3394C19.1205 13.194 18.9727 13.016 18.8674 12.8055C18.7671 12.5949 18.717 12.3593 18.717 12.0986C18.717 11.5822 18.8874 11.1812 19.2283 10.8954C19.5743 10.6046 20.058 10.4592 20.6797 10.4592C21.0106 10.4592 21.3013 10.5018 21.552 10.5871C21.8077 10.6723 22.0258 10.8077 22.2063 10.9932C22.3917 11.1736 22.5447 11.4118 22.665 11.7076L21.2888 12.1061C21.2637 12.0058 21.1986 11.9056 21.0933 11.8053C20.993 11.705 20.8552 11.6549 20.6797 11.6549C20.5092 11.6549 20.3764 11.6925 20.2811 11.7677C20.1909 11.8429 20.1458 11.9532 20.1458 12.0986C20.1458 12.1888 20.1834 12.269 20.2586 12.3392C20.3338 12.4044 20.4416 12.4545 20.5819 12.4896L21.3791 12.6927C21.7801 12.7929 22.0935 12.991 22.3191 13.2868C22.5447 13.5775 22.6575 13.9109 22.6575 14.2869C22.6575 14.6328 22.5772 14.9261 22.4168 15.1668C22.2614 15.4074 22.0358 15.5904 21.74 15.7157C21.4442 15.841 21.0908 15.9037 20.6797 15.9037ZM27.0011 15.8135L25.076 10.5495H26.4596L28.475 15.8135H27.0011ZM22.9478 15.8135L24.9632 10.5495H26.3468L24.4217 15.8135H22.9478ZM23.8953 14.9712V13.7455H27.535V14.9712H23.8953ZM28.979 15.8135V10.5495H30.3702V14.5351H32.536V15.8135H28.979ZM35.6397 15.9037C35.0983 15.9037 34.6195 15.7884 34.2034 15.5578C33.7873 15.3222 33.4614 15.0013 33.2258 14.5952C32.9902 14.1841 32.8724 13.7129 32.8724 13.1815C32.8724 12.6501 32.9902 12.1813 33.2258 11.7752C33.4614 11.3641 33.7873 11.0433 34.2034 10.8127C34.6195 10.577 35.0983 10.4592 35.6397 10.4592C35.9957 10.4592 36.309 10.5094 36.5797 10.6096C36.8555 10.7099 37.0936 10.8478 37.2941 11.0232C37.4947 11.1937 37.6651 11.3917 37.8055 11.6173L36.6474 12.3016C36.5772 12.1913 36.487 12.0936 36.3767 12.0084C36.2714 11.9231 36.1536 11.858 36.0233 11.8128C35.8979 11.7627 35.7701 11.7376 35.6397 11.7376C35.379 11.7376 35.1484 11.8003 34.9479 11.9256C34.7474 12.046 34.5894 12.2139 34.4741 12.4295C34.3588 12.645 34.3012 12.8957 34.3012 13.1815C34.3012 13.4622 34.3563 13.7129 34.4666 13.9335C34.5769 14.1541 34.7348 14.327 34.9404 14.4524C35.1509 14.5777 35.3966 14.6404 35.6773 14.6404C35.8779 14.6404 36.0558 14.6053 36.2113 14.5351C36.3667 14.4599 36.4895 14.3571 36.5797 14.2268C36.67 14.0914 36.7151 13.936 36.7151 13.7605L38.0386 13.5124C38.0386 14.0438 37.9358 14.4874 37.7303 14.8434C37.5247 15.1993 37.2415 15.465 36.8805 15.6405C36.5246 15.816 36.111 15.9037 35.6397 15.9037ZM35.542 13.9184V12.8656H38.0386V13.6402L37.249 13.9184H35.542Z" fill="#01351F"/>
<path d="M7.20274 15.8135H6.20274V16.8135H7.20274V15.8135ZM7.20274 11.8279H8.20274V10.8279H7.20274V11.8279ZM5.71378 11.8279H4.71378V12.8279H5.71378V11.8279ZM5.71378 10.5495V9.54948H4.71378V10.5495H5.71378ZM10.0754 10.5495H11.0754V9.54948H10.0754V10.5495ZM10.0754 11.8279V12.8279H11.0754V11.8279H10.0754ZM8.59394 11.8279V10.8279H7.59394V11.8279H8.59394ZM8.59394 15.8135V16.8135H9.59394V15.8135H8.59394ZM7.20274 15.8135H8.20274V11.8279H7.20274H6.20274V15.8135H7.20274ZM7.20274 11.8279V10.8279H5.71378V11.8279V12.8279H7.20274V11.8279ZM5.71378 11.8279H6.71378V10.5495H5.71378H4.71378V11.8279H5.71378ZM5.71378 10.5495V11.5495H10.0754V10.5495V9.54948H5.71378V10.5495ZM10.0754 10.5495H9.07538V11.8279H10.0754H11.0754V10.5495H10.0754ZM10.0754 11.8279V10.8279H8.59394V11.8279V12.8279H10.0754V11.8279ZM8.59394 11.8279H7.59394V15.8135H8.59394H9.59394V11.8279H8.59394ZM8.59394 15.8135V14.8135H7.20274V15.8135V16.8135H8.59394V15.8135ZM10.6564 15.8135H9.65636V16.8135H10.6564V15.8135ZM10.6564 10.5495V9.54948H9.65636V10.5495H10.6564ZM12.0476 10.5495H13.0476V9.54948H12.0476V10.5495ZM12.0476 15.8135V16.8135H13.0476V15.8135H12.0476ZM10.6564 15.8135H11.6564V10.5495H10.6564H9.65636V15.8135H10.6564ZM10.6564 10.5495V11.5495H12.0476V10.5495V9.54948H10.6564V10.5495ZM12.0476 10.5495H11.0476V15.8135H12.0476H13.0476V10.5495H12.0476ZM12.0476 15.8135V14.8135H10.6564V15.8135V16.8135H12.0476V15.8135ZM12.9476 15.8135H11.9476V16.8135H12.9476V15.8135ZM12.9476 10.5495V9.54948H11.9476V10.5495H12.9476ZM14.3388 10.5495H15.3388V9.54948H14.3388V10.5495ZM14.3388 14.5351H13.3388V15.5351H14.3388V14.5351ZM16.5046 14.5351H17.5046V13.5351H16.5046V14.5351ZM16.5046 15.8135V16.8135H17.5046V15.8135H16.5046ZM12.9476 15.8135H13.9476V10.5495H12.9476H11.9476V15.8135H12.9476ZM12.9476 10.5495V11.5495H14.3388V10.5495V9.54948H12.9476V10.5495ZM14.3388 10.5495H13.3388V14.5351H14.3388H15.3388V10.5495H14.3388ZM14.3388 14.5351V15.5351H16.5046V14.5351V13.5351H14.3388V14.5351ZM16.5046 14.5351H15.5046V15.8135H16.5046H17.5046V14.5351H16.5046ZM16.5046 15.8135V14.8135H12.9476V15.8135V16.8135H16.5046V15.8135ZM19.9578 15.806L19.6723 16.7643L19.6817 16.7671L19.6912 16.7698L19.9578 15.806ZM19.3111 15.5202L18.777 16.3657L18.787 16.3719L19.3111 15.5202ZM18.8373 15.1141L18.0589 15.7419L18.0639 15.7481L18.0691 15.7543L18.8373 15.1141ZM18.6117 14.6253L18.3446 13.6616L17.4939 13.8974L17.6223 14.7708L18.6117 14.6253ZM19.9954 14.2418L20.9363 13.9031L20.6221 13.0304L19.7283 13.2781L19.9954 14.2418ZM20.2285 14.5652L19.5953 15.3391L19.606 15.3479L19.617 15.3564L20.2285 14.5652ZM20.6571 14.708L20.6001 15.7064L20.6108 15.707L20.6214 15.7074L20.6571 14.708ZM21.0256 14.5952L20.4374 13.7865L20.4284 13.7931L20.4196 13.7998L21.0256 14.5952ZM21.0933 14.0388L20.2933 14.6388L20.3145 14.667L20.3376 14.6937L21.0933 14.0388ZM20.8 13.8658L21.051 12.8978L21.0491 12.8973L20.8 13.8658ZM20.0104 13.6628L19.7595 14.6308L19.7614 14.6312L20.0104 13.6628ZM19.3111 13.3394L18.7043 14.1344L18.7143 14.1419L19.3111 13.3394ZM18.8674 12.8055L17.9645 13.2354L17.9686 13.2441L17.9729 13.2527L18.8674 12.8055ZM19.2283 10.8954L19.8707 11.6618L19.8718 11.6609L19.2283 10.8954ZM21.552 10.5871L21.2301 11.5339L21.2358 11.5358L21.552 10.5871ZM22.2063 10.9932L21.4895 11.6905L21.4991 11.7003L21.5089 11.7099L22.2063 10.9932ZM22.665 11.7076L22.9432 12.6681L24.0096 12.3592L23.5913 11.3308L22.665 11.7076ZM21.2888 12.1061L20.3187 12.3487L20.5703 13.3553L21.567 13.0666L21.2888 12.1061ZM21.0933 11.8053L20.3862 12.5124L20.3948 12.521L20.4036 12.5295L21.0933 11.8053ZM20.2811 11.7677L19.6615 10.9828L19.6511 10.991L19.6409 10.9995L20.2811 11.7677ZM20.2586 12.3392L19.5763 13.0703L19.5897 13.0829L19.6036 13.0949L20.2586 12.3392ZM20.5819 12.4896L20.8288 11.5206L20.8245 11.5195L20.5819 12.4896ZM21.3791 12.6927L21.1322 13.6617L21.1365 13.6628L21.3791 12.6927ZM22.3191 13.2868L21.5239 13.8932L21.529 13.8998L22.3191 13.2868ZM22.4168 15.1668L21.5848 14.6121L21.5807 14.6181L21.5768 14.6242L22.4168 15.1668ZM21.74 15.7157L22.1302 16.6365L21.74 15.7157ZM20.6797 15.9037V14.9037C20.5237 14.9037 20.3727 14.8832 20.2244 14.8421L19.9578 15.806L19.6912 16.7698C20.0141 16.8591 20.3444 16.9037 20.6797 16.9037V15.9037ZM19.9578 15.806L20.2432 14.8476C20.0856 14.8006 19.9511 14.7399 19.8352 14.6685L19.3111 15.5202L18.787 16.3719C19.0621 16.5412 19.3587 16.6709 19.6723 16.7643L19.9578 15.806ZM19.3111 15.5202L19.845 14.6747C19.7298 14.6019 19.6548 14.533 19.6055 14.4739L18.8373 15.1141L18.0691 15.7543C18.2705 15.996 18.5113 16.1978 18.7771 16.3657L19.3111 15.5202ZM18.8373 15.1141L19.6157 14.4864C19.5989 14.4656 19.5944 14.4553 19.5949 14.4563C19.595 14.4567 19.5962 14.4593 19.5975 14.4637C19.5989 14.4682 19.6002 14.4737 19.6011 14.4798L18.6117 14.6253L17.6223 14.7708C17.6773 15.1444 17.8395 15.4698 18.0589 15.7419L18.8373 15.1141ZM18.6117 14.6253L18.8788 15.589L20.2625 15.2055L19.9954 14.2418L19.7283 13.2781L18.3446 13.6616L18.6117 14.6253ZM19.9954 14.2418L19.0545 14.5805C19.1652 14.888 19.3551 15.1426 19.5953 15.3391L20.2285 14.5652L20.8617 13.7912C20.869 13.7972 20.8831 13.8103 20.8987 13.8318C20.9144 13.8537 20.9273 13.8783 20.9363 13.9031L19.9954 14.2418ZM20.2285 14.5652L19.617 15.3564C19.9242 15.5938 20.2758 15.6879 20.6001 15.7064L20.6571 14.708L20.7142 13.7097C20.7004 13.7089 20.7096 13.7078 20.7346 13.7161C20.7611 13.725 20.7993 13.7425 20.8399 13.7739L20.2285 14.5652ZM20.6571 14.708L20.6214 15.7074C20.9776 15.7201 21.3307 15.62 21.6317 15.3907L21.0256 14.5952L20.4196 13.7998C20.4581 13.7704 20.5067 13.7443 20.5618 13.7274C20.6162 13.7108 20.6623 13.7076 20.6928 13.7087L20.6571 14.708ZM21.0256 14.5952L21.6138 15.404C21.9687 15.1458 22.1911 14.7467 22.1911 14.2794H21.1911H20.1911C20.1911 14.1989 20.2094 14.0961 20.2639 13.9921C20.3175 13.8897 20.3866 13.8235 20.4374 13.7865L21.0256 14.5952ZM21.1911 14.2794H22.1911C22.1911 13.9141 22.0438 13.6086 21.849 13.3838L21.0933 14.0388L20.3376 14.6937C20.3089 14.6606 20.2708 14.6071 20.2401 14.5317C20.2087 14.4542 20.1911 14.3679 20.1911 14.2794H21.1911ZM21.0933 14.0388L21.8933 13.4388C21.6523 13.1174 21.3205 12.9677 21.051 12.8978L20.8 13.8658L20.5491 14.8338C20.5465 14.8331 20.5143 14.8247 20.4669 14.7967C20.4171 14.7673 20.3521 14.7172 20.2933 14.6388L21.0933 14.0388ZM20.8 13.8658L21.0491 12.8973L20.2595 12.6943L20.0104 13.6628L19.7614 14.6312L20.551 14.8343L20.8 13.8658ZM20.0104 13.6628L20.2614 12.6948C20.0972 12.6522 19.9856 12.5948 19.9078 12.5369L19.3111 13.3394L18.7143 14.1419C19.0275 14.3747 19.3822 14.5329 19.7595 14.6308L20.0104 13.6628ZM19.3111 13.3394L19.9177 12.5444C19.8461 12.4898 19.7977 12.43 19.7618 12.3583L18.8674 12.8055L17.9729 13.2527C18.1476 13.6021 18.395 13.8982 18.7044 14.1343L19.3111 13.3394ZM18.8674 12.8055L19.7702 12.3755C19.7411 12.3144 19.717 12.2282 19.717 12.0986H18.717H17.717C17.717 12.4904 17.7931 12.8755 17.9645 13.2354L18.8674 12.8055ZM18.717 12.0986H19.717C19.717 11.825 19.7942 11.7259 19.8707 11.6618L19.2283 10.8954L18.5859 10.129C17.9807 10.6364 17.717 11.3394 17.717 12.0986H18.717ZM19.2283 10.8954L19.8718 11.6609C19.9799 11.57 20.2053 11.4592 20.6797 11.4592V10.4592V9.45924C19.9107 9.45924 19.1686 9.63928 18.5849 10.1299L19.2283 10.8954ZM20.6797 10.4592V11.4592C20.9273 11.4592 21.1053 11.4914 21.2301 11.5338L21.552 10.5871L21.8739 9.6403C21.4974 9.51229 21.0939 9.45924 20.6797 9.45924V10.4592ZM21.552 10.5871L21.2358 11.5358C21.3463 11.5726 21.4252 11.6244 21.4895 11.6905L22.2063 10.9932L22.923 10.2958C22.6263 9.99092 22.2691 9.77202 21.8682 9.63839L21.552 10.5871ZM22.2063 10.9932L21.5089 11.7099C21.5752 11.7743 21.6586 11.8874 21.7387 12.0844L22.665 11.7076L23.5913 11.3308C23.4308 10.9362 23.2083 10.5729 22.9036 10.2764L22.2063 10.9932ZM22.665 11.7076L22.3868 10.747L21.0106 11.1456L21.2888 12.1061L21.567 13.0666L22.9432 12.6681L22.665 11.7076ZM21.2888 12.1061L22.259 11.8636C22.1728 11.5191 21.9721 11.2613 21.7829 11.0812L21.0933 11.8053L20.4036 12.5295C20.4251 12.5499 20.3547 12.4926 20.3187 12.3487L21.2888 12.1061ZM21.0933 11.8053L21.8004 11.0982C21.4702 10.768 21.0536 10.6549 20.6797 10.6549V11.6549V12.6549C20.6731 12.6549 20.6327 12.654 20.573 12.6323C20.5094 12.6092 20.443 12.5692 20.3862 12.5124L21.0933 11.8053ZM20.6797 11.6549V10.6549C20.3736 10.6549 19.9924 10.7216 19.6615 10.9828L20.2811 11.7677L20.9008 12.5526C20.7604 12.6634 20.6449 12.6549 20.6797 12.6549V11.6549ZM20.2811 11.7677L19.6409 10.9995C19.2695 11.309 19.1458 11.7335 19.1458 12.0986H20.1458H21.1458C21.1458 12.128 21.1413 12.1971 21.1052 12.2855C21.0668 12.3793 21.0036 12.4674 20.9213 12.5359L20.2811 11.7677ZM20.1458 12.0986H19.1458C19.1458 12.506 19.3296 12.8401 19.5763 13.0703L20.2586 12.3392L20.9409 11.6082C20.9817 11.6463 21.0361 11.7096 21.0794 11.802C21.1241 11.8973 21.1458 11.9998 21.1458 12.0986H20.1458ZM20.2586 12.3392L19.6036 13.0949C19.8391 13.299 20.1108 13.4026 20.3394 13.4598L20.5819 12.4896L20.8245 11.5195C20.8031 11.5142 20.8031 11.5123 20.8175 11.519C20.8322 11.5258 20.8687 11.5447 20.9135 11.5835L20.2586 12.3392ZM20.5819 12.4896L20.3351 13.4587L21.1322 13.6617L21.3791 12.6927L21.6259 11.7236L20.8288 11.5206L20.5819 12.4896ZM21.3791 12.6927L21.1365 13.6628C21.3435 13.7146 21.4513 13.798 21.5239 13.8932L22.3191 13.2868L23.1142 12.6803C22.7356 12.1839 22.2168 11.8713 21.6216 11.7225L21.3791 12.6927ZM22.3191 13.2868L21.529 13.8998C21.6154 14.0111 21.6575 14.1277 21.6575 14.2869H22.6575H23.6575C23.6575 13.6941 23.474 13.144 23.1091 12.6738L22.3191 13.2868ZM22.6575 14.2869H21.6575C21.6575 14.4747 21.6157 14.5656 21.5848 14.6121L22.4168 15.1668L23.2489 15.7215C23.5388 15.2866 23.6575 14.7909 23.6575 14.2869H22.6575ZM22.4168 15.1668L21.5768 14.6242C21.543 14.6765 21.4844 14.7379 21.3499 14.795L21.74 15.7157L22.1302 16.6365C22.5872 16.4428 22.9798 16.1382 23.2569 15.7093L22.4168 15.1668ZM21.74 15.7157L21.3499 14.795C21.2068 14.8556 20.9927 14.9037 20.6797 14.9037V15.9037V16.9037C21.1889 16.9037 21.6817 16.8265 22.1302 16.6365L21.74 15.7157ZM27.0011 15.8135L26.0619 16.1569L26.302 16.8135H27.0011V15.8135ZM25.076 10.5495V9.54948H23.6455L24.1368 10.8929L25.076 10.5495ZM26.4596 10.5495L27.3935 10.1919L27.1476 9.54948H26.4596V10.5495ZM28.475 15.8135V16.8135H29.9286L29.4089 15.4559L28.475 15.8135ZM22.9478 15.8135L22.0139 15.4559L21.4942 16.8135H22.9478V15.8135ZM24.9632 10.5495V9.54948H24.2752L24.0293 10.1919L24.9632 10.5495ZM26.3468 10.5495L27.286 10.8929L27.7773 9.54948H26.3468V10.5495ZM24.4217 15.8135V16.8135H25.1208L25.3609 16.1569L24.4217 15.8135ZM23.8953 14.9712H22.8953V15.9712H23.8953V14.9712ZM23.8953 13.7455V12.7455H22.8953V13.7455H23.8953ZM27.535 13.7455H28.535V12.7455H27.535V13.7455ZM27.535 14.9712V15.9712H28.535V14.9712H27.535ZM27.0011 15.8135L27.9402 15.47L26.0151 10.206L25.076 10.5495L24.1368 10.8929L26.0619 16.1569L27.0011 15.8135ZM25.076 10.5495V11.5495H26.4596V10.5495V9.54948H25.076V10.5495ZM26.4596 10.5495L25.5257 10.907L27.5411 16.171L28.475 15.8135L29.4089 15.4559L27.3935 10.1919L26.4596 10.5495ZM28.475 15.8135V14.8135H27.0011V15.8135V16.8135H28.475V15.8135ZM22.9478 15.8135L23.8817 16.171L25.8971 10.907L24.9632 10.5495L24.0293 10.1919L22.0139 15.4559L22.9478 15.8135ZM24.9632 10.5495V11.5495H26.3468V10.5495V9.54948H24.9632V10.5495ZM26.3468 10.5495L25.4077 10.206L23.4826 15.47L24.4217 15.8135L25.3609 16.1569L27.286 10.8929L26.3468 10.5495ZM24.4217 15.8135V14.8135H22.9478V15.8135V16.8135H24.4217V15.8135ZM23.8953 14.9712H24.8953V13.7455H23.8953H22.8953V14.9712H23.8953ZM23.8953 13.7455V14.7455H27.535V13.7455V12.7455H23.8953V13.7455ZM27.535 13.7455H26.535V14.9712H27.535H28.535V13.7455H27.535ZM27.535 14.9712V13.9712H23.8953V14.9712V15.9712H27.535V14.9712ZM28.979 15.8135H27.979V16.8135H28.979V15.8135ZM28.979 10.5495V9.54948H27.979V10.5495H28.979ZM30.3702 10.5495H31.3702V9.54948H30.3702V10.5495ZM30.3702 14.5351H29.3702V15.5351H30.3702V14.5351ZM32.536 14.5351H33.536V13.5351H32.536V14.5351ZM32.536 15.8135V16.8135H33.536V15.8135H32.536ZM28.979 15.8135H29.979V10.5495H28.979H27.979V15.8135H28.979ZM28.979 10.5495V11.5495H30.3702V10.5495V9.54948H28.979V10.5495ZM30.3702 10.5495H29.3702V14.5351H30.3702H31.3702V10.5495H30.3702ZM30.3702 14.5351V15.5351H32.536V14.5351V13.5351H30.3702V14.5351ZM32.536 14.5351H31.536V15.8135H32.536H33.536V14.5351H32.536ZM32.536 15.8135V14.8135H28.979V15.8135V16.8135H32.536V15.8135ZM34.2034 15.5578L33.7106 16.428L33.7187 16.4325L34.2034 15.5578ZM33.2258 14.5952L32.3582 15.0925L32.3609 15.0971L33.2258 14.5952ZM33.2258 11.7752L34.0908 12.2771L34.0934 12.2725L33.2258 11.7752ZM34.2034 10.8127L34.6882 11.6874L34.6962 11.6828L34.2034 10.8127ZM36.5797 10.6096L36.2324 11.5474L36.238 11.5494L36.5797 10.6096ZM37.2941 11.0232L36.6356 11.7758L36.641 11.7805L36.6465 11.7852L37.2941 11.0232ZM37.8055 11.6173L38.3142 12.4782L39.1951 11.9577L38.6546 11.089L37.8055 11.6173ZM36.6474 12.3016L35.8038 12.8385L36.3232 13.6548L37.1561 13.1626L36.6474 12.3016ZM36.3767 12.0084L35.7475 12.7856L35.7563 12.7927L35.7652 12.7996L36.3767 12.0084ZM36.0233 11.8128L35.6519 12.7413L35.6738 12.7501L35.6961 12.7578L36.0233 11.8128ZM34.9479 11.9256L35.4624 12.7831L35.4702 12.7785L35.4779 12.7736L34.9479 11.9256ZM34.4741 12.4295L33.5924 11.9578L34.4741 12.4295ZM34.4666 13.9335L35.361 13.4863L35.361 13.4863L34.4666 13.9335ZM34.9404 14.4524L34.4197 15.3062L34.4289 15.3116L34.9404 14.4524ZM36.2113 14.5351L36.6228 15.4464L36.6349 15.441L36.6468 15.4352L36.2113 14.5351ZM36.5797 14.2268L37.4019 14.796L37.4069 14.7888L37.4118 14.7815L36.5797 14.2268ZM36.7151 13.7605L36.5308 12.7776L35.7151 12.9306V13.7605H36.7151ZM38.0386 13.5124H39.0386V12.3074L37.8543 12.5295L38.0386 13.5124ZM37.7303 14.8434L36.8643 14.3433V14.3433L37.7303 14.8434ZM36.8805 15.6405L36.4433 14.7411L36.4384 14.7436L36.8805 15.6405ZM35.542 13.9184H34.542V14.9184H35.542V13.9184ZM35.542 12.8656V11.8656H34.542V12.8656H35.542ZM38.0386 12.8656H39.0386V11.8656H38.0386V12.8656ZM38.0386 13.6402L38.371 14.5834L39.0386 14.3481V13.6402H38.0386ZM37.249 13.9184V14.9184H37.42L37.5814 14.8616L37.249 13.9184ZM35.6397 15.9037V14.9037C35.2442 14.9037 34.9365 14.8208 34.6882 14.6831L34.2034 15.5578L33.7187 16.4325C34.3026 16.7561 34.9524 16.9037 35.6397 16.9037V15.9037ZM34.2034 15.5578L34.6962 14.6876C34.4316 14.5378 34.2355 14.3428 34.0908 14.0934L33.2258 14.5952L32.3609 15.0971C32.6874 15.6598 33.143 16.1065 33.7107 16.428L34.2034 15.5578ZM33.2258 14.5952L34.0934 14.098C33.9547 13.856 33.8724 13.5601 33.8724 13.1815H32.8724H31.8724C31.8724 13.8657 32.0257 14.5123 32.3582 15.0925L33.2258 14.5952ZM32.8724 13.1815H33.8724C33.8724 12.8026 33.9548 12.5115 34.0908 12.2771L33.2258 11.7752L32.3609 11.2734C32.0256 11.8512 31.8724 12.4975 31.8724 13.1815H32.8724ZM33.2258 11.7752L34.0934 12.2725C34.2379 12.0205 34.431 11.8298 34.6882 11.6873L34.2034 10.8127L33.7187 9.93802C33.1436 10.2567 32.685 10.7078 32.3582 11.278L33.2258 11.7752ZM34.2034 10.8127L34.6962 11.6828C34.943 11.5431 35.2478 11.4592 35.6397 11.4592V10.4592V9.45924C34.9488 9.45924 34.2961 9.61102 33.7107 9.9425L34.2034 10.8127ZM35.6397 10.4592V11.4592C35.9038 11.4592 36.0954 11.4966 36.2324 11.5474L36.5797 10.6096L36.927 9.67189C36.5227 9.52211 36.0876 9.45924 35.6397 9.45924V10.4592ZM36.5797 10.6096L36.238 11.5494C36.4092 11.6117 36.5372 11.6897 36.6356 11.7758L37.2941 11.0232L37.9526 10.2707C37.65 10.0059 37.3017 9.80811 36.9215 9.66984L36.5797 10.6096ZM37.2941 11.0232L36.6465 11.7852C36.7674 11.888 36.8702 12.007 36.9564 12.1456L37.8055 11.6173L38.6546 11.089C38.4601 10.7764 38.2219 10.4994 37.9418 10.2613L37.2941 11.0232ZM37.8055 11.6173L37.2968 10.7564L36.1387 11.4407L36.6474 12.3016L37.1561 13.1626L38.3142 12.4782L37.8055 11.6173ZM36.6474 12.3016L37.4911 11.7648C37.3548 11.5506 37.1839 11.3683 36.9881 11.2171L36.3767 12.0084L35.7652 12.7996C35.7901 12.8188 35.7997 12.8321 35.8038 12.8385L36.6474 12.3016ZM36.3767 12.0084L37.0059 11.2311C36.8087 11.0715 36.5883 10.9502 36.3504 10.8679L36.0233 11.8128L35.6961 12.7578C35.7189 12.7657 35.7341 12.7747 35.7475 12.7856L36.3767 12.0084ZM36.0233 11.8128L36.3946 10.8844C36.1555 10.7887 35.9018 10.7376 35.6397 10.7376V11.7376V12.7376C35.6404 12.7376 35.6405 12.7377 35.641 12.7377C35.6415 12.7379 35.645 12.7386 35.6519 12.7413L36.0233 11.8128ZM35.6397 11.7376V10.7376C35.2115 10.7376 34.7934 10.843 34.4179 11.0776L34.9479 11.9256L35.4779 12.7736C35.5035 12.7577 35.5466 12.7376 35.6397 12.7376V11.7376ZM34.9479 11.9256L34.4334 11.0681C34.0706 11.2858 33.7889 11.5904 33.5924 11.9578L34.4741 12.4295L35.3559 12.9011C35.39 12.8375 35.4241 12.8061 35.4624 12.7831L34.9479 11.9256ZM34.4741 12.4295L33.5924 11.9578C33.3873 12.3412 33.3012 12.759 33.3012 13.1815H34.3012H35.3012C35.3012 13.0324 35.3304 12.9489 35.3559 12.9011L34.4741 12.4295ZM34.3012 13.1815H33.3012C33.3012 13.5959 33.3834 14.0031 33.5722 14.3807L34.4666 13.9335L35.361 13.4863C35.3292 13.4226 35.3012 13.3286 35.3012 13.1815H34.3012ZM34.4666 13.9335L33.5722 14.3807C33.7643 14.7649 34.0498 15.0806 34.4198 15.3062L34.9404 14.4524L35.461 13.5986C35.4198 13.5735 35.3895 13.5432 35.361 13.4863L34.4666 13.9335ZM34.9404 14.4524L34.4289 15.3116C34.8156 15.5418 35.2432 15.6404 35.6773 15.6404V14.6404V13.6404C35.5499 13.6404 35.4863 13.6135 35.4519 13.5931L34.9404 14.4524ZM35.6773 14.6404V15.6404C35.9951 15.6404 36.3173 15.5844 36.6228 15.4464L36.2113 14.5351L35.7997 13.6237C35.7944 13.6261 35.7606 13.6404 35.6773 13.6404V14.6404ZM36.2113 14.5351L36.6468 15.4352C36.9433 15.2918 37.2049 15.0806 37.4019 14.796L36.5797 14.2268L35.7575 13.6575C35.7605 13.6533 35.764 13.6489 35.7678 13.6447C35.7716 13.6405 35.7752 13.6371 35.7782 13.6347C35.7845 13.6294 35.7852 13.6303 35.7757 13.6349L36.2113 14.5351ZM36.5797 14.2268L37.4118 14.7815C37.6202 14.4688 37.7151 14.1172 37.7151 13.7605H36.7151H35.7151C35.7151 13.7618 35.715 13.75 35.7209 13.7299C35.7269 13.7091 35.7365 13.6888 35.7477 13.6721L36.5797 14.2268ZM36.7151 13.7605L36.8994 14.7434L38.2229 14.4952L38.0386 13.5124L37.8543 12.5295L36.5308 12.7776L36.7151 13.7605ZM38.0386 13.5124H37.0386C37.0386 13.9184 36.96 14.1777 36.8643 14.3433L37.7303 14.8434L38.5963 15.3435C38.9117 14.7972 39.0386 14.1691 39.0386 13.5124H38.0386ZM37.7303 14.8434L36.8643 14.3433C36.7561 14.5308 36.6202 14.6552 36.4433 14.7411L36.8805 15.6405L37.3177 16.5399C37.8628 16.2749 38.2934 15.8679 38.5963 15.3435L37.7303 14.8434ZM36.8805 15.6405L36.4384 14.7436C36.2434 14.8397 35.9862 14.9037 35.6397 14.9037V15.9037V16.9037C36.2358 16.9037 36.8057 16.7923 37.3227 16.5375L36.8805 15.6405ZM35.542 13.9184H36.542V12.8656H35.542H34.542V13.9184H35.542ZM35.542 12.8656V13.8656H38.0386V12.8656V11.8656H35.542V12.8656ZM38.0386 12.8656H37.0386V13.6402H38.0386H39.0386V12.8656H38.0386ZM38.0386 13.6402L37.7063 12.697L36.9167 12.9753L37.249 13.9184L37.5814 14.8616L38.371 14.5834L38.0386 13.6402ZM37.249 13.9184V12.9184H35.542V13.9184V14.9184H37.249V13.9184Z" fill="white" mask="url(#path-3-inside-1_275_5131)"/>
</svg>
