<svg width="46" height="36" viewBox="0 0 46 36" fill="none" xmlns="http://www.w3.org/2000/svg">
<path d="M15.3 5.5C14.5445 5.5 13.7889 5.5 13.0778 5.5C11.9667 5.5 11.5 6.01897 11.5 7.09076V13.3749C11.5 14.4241 11.7889 14.819 12.7778 14.8528C13.3555 14.8528 13.5778 15.2703 13.8889 15.5861C14.0977 15.9418 14.3732 16.2523 14.7 16.5C15.2778 16.3195 15.5444 15.7667 15.8111 15.3718C15.9318 15.1927 16.1008 15.0527 16.2979 14.9686C16.495 14.8846 16.7118 14.86 16.9222 14.8979H23.0113C23.978 14.8979 24.4446 14.4692 24.478 13.499C24.5669 11.2426 24.3557 8.98615 24.3891 6.82C24.4117 6.55382 24.3335 6.28888 24.1704 6.07923C24.0073 5.86959 23.7716 5.73102 23.5113 5.69179C23.2585 5.60133 22.9887 5.57046 22.7224 5.60153C21.1446 5.8723 19.5668 5.42102 18.0001 5.69179C17.1436 5.74633 16.2838 5.6818 15.4445 5.5" stroke="white" stroke-linecap="round" stroke-linejoin="round"/>
<path d="M6.65131 22.3092C8.03316 20.7293 8.74043 18.668 8.62058 16.5699C8.62058 15.4905 8.19304 14.4553 7.43198 13.692C6.67092 12.9288 5.63869 12.5 4.56239 12.5C3.48609 12.5 2.45386 12.9288 1.6928 13.692C0.931738 14.4553 0.504137 15.4905 0.504137 16.5699C0.473122 17.5871 0.616666 18.602 0.92847 19.5705C1.79886 22.1455 2.71277 22.8438 5.34571 22.5383C6.41782 22.4123 7.49636 22.714 8.34858 23.3785C9.21897 23.9568 9.99145 24.6878 10.8074 25.3534C11.8371 26.2048 13.1537 26.6267 14.4849 26.5318C15.1476 26.4419 15.8221 26.5092 16.4541 26.7282C17.5421 27.1428 17.5421 27.8193 17.4768 28.7359C17.4901 28.9177 17.4669 29.1003 17.4086 29.273C17.3503 29.4456 17.2581 29.6048 17.1374 29.7411C17.0167 29.8774 16.8699 29.9881 16.7059 30.0666C16.5418 30.145 16.3637 30.1897 16.1821 30.198C14.0133 30.7119 11.741 30.5676 9.65418 29.7833C9.27338 29.6197 9.21894 29.2487 9.00135 28.9977" stroke="white" stroke-linecap="round" stroke-linejoin="round"/>
<path d="M43.2953 22.9743C44.2165 22.0787 44.8832 20.9637 45.2295 19.7393C45.5758 18.5149 45.5899 17.2233 45.2702 15.9919C45.0425 14.9878 44.4668 14.0916 43.6407 13.4553C42.8145 12.819 41.7888 12.4817 40.7375 12.5008C39.6113 12.6592 38.5753 13.1923 37.8039 14.0105C37.0325 14.8287 36.5728 15.8819 36.5023 16.9927C36.4714 18.4264 36.7512 19.8502 37.3232 21.1705C38.2392 23.0673 39.9524 23.8121 42.296 23.3816C42.6385 23.3361 42.974 23.2501 43.2953 23.1255" stroke="white" stroke-linecap="round" stroke-linejoin="round"/>
<path d="M33.5 34.5H12.5" stroke="white" stroke-linecap="round" stroke-linejoin="round"/>
<path d="M38.5 22.5C37.4497 23.1707 36.4733 23.9626 35.5889 24.8612C34.9523 25.5404 34.1763 26.056 33.3209 26.3682C32.4654 26.6804 31.5533 26.7809 30.6553 26.6617C30.3907 26.6148 30.1196 26.6292 29.8608 26.7039C29.602 26.7787 29.3617 26.912 29.1567 27.0946C28.9516 27.2772 28.7867 27.5047 28.6733 27.7614C28.5599 28.018 28.5007 28.2976 28.5 28.5808C28.5555 29.1107 28.7951 29.6 29.1723 29.9544C29.5496 30.3089 30.0379 30.5032 30.5429 30.5C31.7686 30.5 32.9944 30.5 34.2201 30.5C35.0373 30.5 35.4969 29.6051 36.263 29.5835" stroke="white" stroke-linecap="round" stroke-linejoin="round"/>
<path d="M43.5 22.5C43.7037 22.6681 43.7963 22.9483 44.0556 23.0491C44.4955 23.2054 44.8737 23.5492 45.1205 24.0168C45.3672 24.4844 45.4659 25.0443 45.3981 25.5931C45.3981 28.5965 45.3981 31.5888 45.3981 34.5586C45.3981 34.8724 45.2685 35.2198 45.5 35.5" stroke="white" stroke-linecap="round" stroke-linejoin="round"/>
<path d="M2.5 22.5C0.671761 23.3584 0.452379 25.1429 0.507226 27.2437C0.589497 29.9883 0.507226 32.7441 0.507226 35.5" stroke="white" stroke-linecap="round" stroke-linejoin="round"/>
<path d="M36.5 29.5C36.5 31.4922 36.5 33.4961 36.5 35.5" stroke="white" stroke-linecap="round" stroke-linejoin="round"/>
<path d="M9.5 30.5C9.5 32.1447 9.5 33.7895 9.5 35.5" stroke="white" stroke-linecap="round" stroke-linejoin="round"/>
<path d="M26.0988 9.05565C27.7813 9.1877 29.4697 9.21493 31.1553 9.1372C31.9688 9.1372 32.6943 9.13719 33.101 10.0807C33.207 10.2454 33.3412 10.3877 33.4967 10.5C33.9804 10.5 34.0903 10.1389 34.2552 9.87101C34.3834 9.63532 34.5699 9.44127 34.7947 9.30987C35.0195 9.17847 35.2738 9.11473 35.5303 9.12555C36.2009 9.12555 36.4867 8.49656 36.4977 7.82098C36.4977 5.79424 36.4977 3.7675 36.4977 1.74077C36.5081 1.57172 36.4836 1.40231 36.4259 1.24432C36.3682 1.08634 36.2787 0.943604 36.1635 0.826055C36.0484 0.708506 35.9105 0.618973 35.7594 0.563712C35.6082 0.508452 35.4475 0.48879 35.2885 0.506091C31.0784 0.506091 26.8572 0.506091 22.6471 0.506091C22.3556 0.506091 22.076 0.628809 21.8698 0.84725C21.6637 1.06569 21.5479 1.36196 21.5479 1.67088C21.4619 2.22236 21.492 2.78713 21.6358 3.32488" stroke="white" stroke-linecap="round" stroke-linejoin="round"/>
</svg>
