<svg width="40" height="45" viewBox="0 0 40 45" fill="none" xmlns="http://www.w3.org/2000/svg">
<path d="M31.2247 9.34783C31.3135 7.78887 31.3135 6.22612 31.2247 4.66716C31.2247 3.65992 31.2247 2.69225 31.2247 1.64552C31.2247 0.598782 31.2247 0.51975 30.0792 0.5H1.87663C0.592899 0.5 0.533649 0.500005 0.533649 1.86273C0.533649 13.7126 0.533649 25.5624 0.533649 37.5307C0.374877 39.0586 0.781607 40.5918 1.67689 41.8401C2.57217 43.0884 3.89392 43.9653 5.39208 44.3048C5.7362 44.3768 6.0873 44.4099 6.43881 44.4036C8.27553 44.5418 10.0925 44.0876 11.9687 44.4036C13.7966 44.5321 15.6313 44.5321 17.4591 44.4036H33.9107C34.9583 44.4036 35.9629 43.9875 36.7037 43.2467C37.4445 42.506 37.8606 41.5012 37.8606 40.4536C37.8606 39.406 37.4445 38.4014 36.7037 37.6607C35.9629 36.9199 34.9583 36.5037 33.9107 36.5037C26.5243 36.5037 19.1379 36.4049 11.7515 36.5037C10.211 36.5037 8.69028 36.3457 7.16955 36.5037" stroke="white" stroke-linecap="round" stroke-linejoin="round"/>
<path d="M21.4486 27.3406C21.3299 26.5168 21.2902 25.6836 21.3301 24.8523C21.3301 24.5363 21.4684 24.398 21.6461 24.2203L36.2214 9.66473C36.2648 9.61983 36.3171 9.58436 36.3748 9.56058C36.4326 9.53679 36.4947 9.52518 36.5571 9.52646C37.4017 10.2031 38.1879 10.9497 38.9074 11.7582C39.2629 12.0939 39.1641 12.4098 38.9074 12.7851C37.5841 14.3453 36.0239 15.6686 34.6217 17.1301C32.5085 19.342 30.336 21.4553 28.1833 23.608C27.0773 24.714 25.9713 25.8397 24.8456 26.926C24.4205 27.2486 23.9247 27.4652 23.3992 27.558C22.8737 27.6507 22.3337 27.6169 21.8239 27.4592C21.491 27.3602 21.1435 27.32 20.7969 27.3406" stroke="white" stroke-linecap="round" stroke-linejoin="round"/>
<path d="M6.77539 11.9951C7.09139 12.2914 7.46663 12.1531 7.82212 12.1531H24.8661" stroke="white" stroke-linecap="round" stroke-linejoin="round"/>
<path d="M20.5003 18.5126C16.2739 18.2756 12.0475 18.5126 7.82104 18.3941C7.50011 18.3554 7.17458 18.3961 6.87305 18.5126" stroke="white" stroke-linecap="round" stroke-linejoin="round"/>
<path d="M31.2246 25.9971C31.3137 26.6524 31.3137 27.3167 31.2246 27.972V36.188" stroke="white" stroke-linecap="round" stroke-linejoin="round"/>
<path d="M6.77539 24.6934C7.09139 24.9699 7.46663 24.8514 7.82212 24.8514C9.93534 24.8514 12.0486 24.8514 14.1618 24.8514" stroke="white" stroke-linecap="round" stroke-linejoin="round"/>
<path d="M10.3086 37.0176C10.4121 37.4511 10.6226 37.8517 10.9208 38.1829C11.3651 38.857 11.6019 39.6466 11.6019 40.454C11.6019 41.2614 11.3651 42.0511 10.9208 42.7253C10.6226 43.0564 10.4121 43.457 10.3086 43.8904" stroke="white" stroke-linecap="round" stroke-linejoin="round"/>
</svg>
