<svg width="41" height="41" viewBox="0 0 41 41" fill="none" xmlns="http://www.w3.org/2000/svg">
<path d="M30.428 17.0436C29.967 12.3391 30.3434 7.63466 30.221 2.99607C30.306 2.24393 30.2388 1.4824 30.0234 0.756754C29.1059 0.498025 28.1445 0.433931 27.2008 0.568578C21.3014 0.568578 15.3926 0.568578 9.49321 0.568578C9.07919 0.518401 8.65917 0.564457 8.26587 0.703174C7.87257 0.841891 7.51659 1.06952 7.22566 1.36833C5.34387 3.41006 3.33036 5.34831 1.33567 7.28654C1.06312 7.51615 0.846773 7.80513 0.703247 8.13133C0.559722 8.45752 0.492827 8.81226 0.507678 9.16833C0.507678 19.217 0.507678 29.2658 0.507678 39.2769C0.480496 39.5202 0.525848 39.7661 0.638009 39.9837C0.750171 40.2013 0.92415 40.381 1.13809 40.5H20.464" stroke="white" stroke-linecap="round" stroke-linejoin="round"/>
<path d="M21.0574 20.3087C17.6723 19.97 14.262 19.97 10.877 20.3087" stroke="white" stroke-linecap="round" stroke-linejoin="round"/>
<path d="M9.45641 4.42578C9.45641 6.05352 9.45641 7.68127 9.45641 9.23374C7.81926 9.89236 6.23856 9.13023 4.75195 9.71359" stroke="white" stroke-linecap="round" stroke-linejoin="round"/>
<path d="M17.1903 25.8038C15.0921 25.9355 12.9657 25.5309 10.877 26.0108" stroke="white" stroke-linecap="round" stroke-linejoin="round"/>
<path d="M34.2947 27.8359C32.7799 29.7177 31.5567 31.8347 29.5903 33.4813C28.7811 32.4275 27.6144 31.9664 26.7676 31.0632" stroke="white" stroke-linecap="round" stroke-linejoin="round"/>
<path d="M16.3718 31.5519C14.5464 31.6837 12.6929 31.2791 10.877 31.7495" stroke="white" stroke-linecap="round" stroke-linejoin="round"/>
<path d="M29.2043 20.9102C26.5698 21.6252 24.1235 22.6978 22.4957 24.9936C19.0991 29.7639 20.6798 37.6674 27.1531 39.8785C33.0808 41.9014 38.6132 38.6366 39.874 33.2923C41.5206 26.2827 36.8067 21.2112 30.2205 20.9102C29.9476 20.9102 29.6747 20.9102 29.4019 20.9102" stroke="white" stroke-linecap="round" stroke-linejoin="round"/>
</svg>
