<svg width="33" height="41" viewBox="0 0 33 41" fill="none" xmlns="http://www.w3.org/2000/svg">
<path d="M28.4184 13.3617V1.70322C28.4184 0.646324 28.2884 0.51626 27.2315 0.5H1.70325C0.662609 0.5 0.5 0.662584 0.5 1.70322V34.5972C0.5 35.5566 0.500008 35.6216 1.52439 35.6216H7.34547C9.57309 35.6216 11.8007 35.5403 14.0283 35.7029" stroke="white" stroke-linecap="round" stroke-linejoin="round"/>
<path d="M32.2711 25.2643C32.2373 23.8783 31.8095 22.5306 31.0378 21.3788C30.2661 20.227 29.1824 19.3188 27.9134 18.7603C26.6634 18.1979 25.2824 17.9913 23.9225 18.1634C22.5626 18.3356 21.2767 18.8797 20.2062 19.7359C19.4416 20.3562 18.8076 21.1221 18.3408 21.9891C17.8741 22.8561 17.584 23.8071 17.4872 24.787C17.3905 25.7669 17.4889 26.7562 17.777 27.6977C18.0651 28.6393 18.5371 29.5144 19.1656 30.2724C19.6566 30.9081 20.2501 31.4576 20.9216 31.8984C21.7832 32.3868 22.7344 32.6965 23.7183 32.8089C25.3866 32.9931 27.0734 32.7176 28.5963 32.0122C29.387 31.5148 30.0632 30.8553 30.5801 30.0772C31.6956 28.7339 32.2747 27.0253 32.2061 25.2805" stroke="white" stroke-linecap="round" stroke-linejoin="round"/>
<path d="M23.2792 14.0449H5.97852" stroke="white" stroke-linecap="round" stroke-linejoin="round"/>
<path d="M23.2799 8.22365C17.8328 8.22365 12.3694 8.22365 6.92233 8.22365C6.64189 8.13509 6.34098 8.13509 6.06055 8.22365" stroke="white" stroke-linecap="round" stroke-linejoin="round"/>
<path d="M14.8897 19.8662H6.92233C6.64591 19.8662 6.33697 19.98 6.06055 19.8662" stroke="white" stroke-linecap="round" stroke-linejoin="round"/>
<path d="M28.8577 32.1914C28.9853 32.551 29.0406 32.9323 29.0203 33.3134C29.0203 35.1995 29.0203 37.0857 29.0203 38.9556C29.0203 39.5247 28.5487 39.9475 28.8252 40.5003" stroke="white" stroke-linecap="round" stroke-linejoin="round"/>
<path d="M20.8886 32.1914C20.7482 32.5195 20.687 32.876 20.7097 33.2321C20.7097 35.167 20.7097 37.1019 20.7097 39.0531C20.698 39.4764 20.793 39.8958 20.9861 40.2726C22.1456 39.8969 23.2419 39.3487 24.2381 38.6466C24.4156 38.5183 24.6289 38.4493 24.8479 38.4493C25.0668 38.4493 25.2802 38.5183 25.4576 38.6466C26.4387 39.3738 27.5392 39.9241 28.7096 40.2726" stroke="white" stroke-linecap="round" stroke-linejoin="round"/>
<path d="M12.841 25.6875H6.92233C6.64189 25.7761 6.34098 25.7761 6.06055 25.6875" stroke="white" stroke-linecap="round" stroke-linejoin="round"/>
<path d="M28.3035 23.54C27.4417 24.5969 26.4173 25.475 25.4743 26.4506C25.1929 26.7932 24.8644 27.0943 24.4987 27.3449C23.6044 27.0035 23.1328 26.1579 22.4824 25.5238" stroke="white" stroke-linecap="round" stroke-linejoin="round"/>
</svg>
