<svg width="43" height="44" viewBox="0 0 43 44" fill="none" xmlns="http://www.w3.org/2000/svg">
<path d="M24.6223 26.0007C25.3331 26.1055 25.6593 26.6998 26.0905 27.1659C27.1181 28.1411 28.4874 28.674 29.9038 28.65C31.3203 28.6261 32.6707 28.0471 33.6648 27.0378C35.9953 24.579 38.3259 22.2019 40.7846 19.9063C41.3036 19.4322 41.7225 18.8589 42.0166 18.2204C42.3106 17.5818 42.4738 16.8909 42.4966 16.1882C42.5194 15.4856 42.4014 14.7855 42.1494 14.1292C41.8973 13.4729 41.5165 12.8738 41.0293 12.367C37.6616 8.87116 34.2824 5.30544 30.6584 2.05433C28.4444 0.061717 26.0905 -0.13639 23.5968 2.17085C21.1031 4.47809 18.5862 7.21648 16.0226 9.6752C15.0433 10.6235 14.4799 11.9214 14.4559 13.2844C14.4319 14.6473 14.9491 15.9643 15.8944 16.9465C18.388 19.4984 20.9283 21.9805 23.4337 24.5091C23.8648 24.9402 24.4591 25.2665 24.5989 25.9657" stroke="white" stroke-linecap="round" stroke-linejoin="round"/>
<path d="M24.4131 26.1399C19.251 31.3137 14.0655 36.4759 8.92669 41.673C8.6608 41.9656 8.33137 42.1933 7.96372 42.3388C7.59608 42.4842 7.2 42.5435 6.80589 42.512C5.17451 42.4653 3.54311 42.4653 1.91173 42.512C0.897945 42.512 0.478457 42.1158 0.501762 41.102C0.501762 39.424 0.501762 37.746 0.501762 36.068C0.489068 35.7543 0.545076 35.4415 0.665842 35.1517C0.786608 34.8619 0.969223 34.6019 1.20093 34.39C6.64275 29.2512 11.7932 23.8327 17.1418 18.6006" stroke="white" stroke-linecap="round" stroke-linejoin="round"/>
<path d="M16.3149 26.8389C13.5881 29.6239 10.64 32.1642 8.06471 35.089C7.56365 35.66 6.89944 36.0329 6.38672 36.6272" stroke="white" stroke-linecap="round" stroke-linejoin="round"/>
<path d="M34.7616 13.9865C34.7265 13.3685 34.4748 12.7827 34.0508 12.3318C32.7573 11.3297 31.8601 10.0013 30.555 8.95254C30.3858 8.76892 30.1804 8.62237 29.9518 8.52212C29.7231 8.42188 29.4762 8.37012 29.2266 8.37012C28.9769 8.37012 28.73 8.42188 28.5013 8.52212C28.2727 8.62237 28.0673 8.76892 27.8982 8.95254C27.6924 9.11298 27.5216 9.31387 27.3964 9.54282C27.2712 9.77177 27.1942 10.0239 27.1702 10.2838C27.1462 10.5436 27.1756 10.8056 27.2567 11.0536C27.3378 11.3016 27.4689 11.5304 27.6418 11.7259C28.7837 13.0524 30.0392 14.2767 31.394 15.3848C31.6259 15.6319 31.9205 15.8114 32.2463 15.9045C32.5721 15.9975 32.9171 16.0006 33.2445 15.9134C33.5719 15.8261 33.8696 15.6518 34.106 15.409C34.3423 15.1662 34.5085 14.8639 34.5868 14.5342C34.7266 14.1846 34.7499 13.9399 35.1694 13.9865" stroke="white" stroke-linecap="round" stroke-linejoin="round"/>
</svg>
