<svg width="127" height="130" viewBox="0 0 127 130" fill="none" xmlns="http://www.w3.org/2000/svg">
<g filter="url(#filter0_d_269_5004)">
<circle cx="57.5" cy="53.5" r="53.5" fill="#042D25"/>
</g>
<path d="M85.0646 32.4161L81.4923 32.7675L82.5639 36.6181L78.6493 37.848L80.0634 41.1862L76.1339 41.9036L77.6223 45.2418L73.8416 46.4571L74.6156 50.0003L71.1922 50.6884L72.2639 54.5391L68.7214 55.2858L69.7633 58.5801L65.8338 60.0442L67.3222 63.3678L63.5565 64.4219L64.4346 67.9212L60.8921 68.6533L61.9638 72.1525C61.5619 72.5918 58.5404 72.0061 58.719 73.1774H58.2129C57.4558 71.6824 56.9148 70.0906 56.6054 68.4483C56.6054 66.135 59.7163 63.5435 58.5701 61.2301C58.0045 60.1028 50.1753 56.2667 50.1902 55.3736L76.8185 30.9666C77.5925 30.4102 77.5776 28.8143 76.4464 28.829L74.4668 30.0588L48.6124 54.0266C47.9575 54.5391 45.2783 53.031 45.7695 52.4454C46.1811 52.4035 46.5651 52.2224 46.8561 51.9329C57.1264 42.2404 67.4711 32.6064 78.0093 23.1921C79.2001 22.1818 83.1296 25.4468 83.6505 26.2521C84.4189 28.2297 84.8951 30.3055 85.0646 32.4161Z" stroke="white" stroke-miterlimit="10"/>
<path d="M57.4233 61.8333C58.0633 62.8912 55.1908 66.5144 55.027 67.8477L57.081 75.0941C54.5063 77.8189 51.7784 80.4025 48.9099 82.8331C42.6291 87.7317 40.1733 75.8042 36.2292 72.9202C33.5799 70.9781 31.1539 72.326 29.0851 70.1376C27.0163 67.9492 28.207 67.3985 30.1418 65.6014C34.6069 61.4855 39.191 57.413 43.79 53.5L57.4233 61.8333ZM40.9473 64.9782C40.4916 65.2268 40.0911 65.5611 39.7692 65.9617C39.4473 66.3622 39.2103 66.821 39.0719 67.3115C38.8785 68.4709 42.9417 75.152 43.8942 75.8767C44.3353 76.2941 44.8984 76.5683 45.506 76.6614C46.1136 76.7545 46.736 76.6621 47.2875 76.3968C47.8389 76.1315 48.2924 75.7063 48.5856 75.1798C48.8788 74.6532 48.9973 74.0512 48.9248 73.4564C47.5179 70.6359 45.8385 67.9523 43.9091 65.4419C43.483 65.1527 42.9954 64.9608 42.4826 64.8805C41.9698 64.8002 41.445 64.8336 40.9473 64.9782Z" stroke="white" stroke-miterlimit="10"/>
<path d="M40.6818 65.4488C41.1795 65.3026 41.7049 65.2682 42.2183 65.3482C42.7318 65.4281 43.2199 65.6204 43.6459 65.9104C45.5672 68.4091 47.2396 71.0802 48.6405 73.8875C48.7128 74.4795 48.5948 75.0787 48.3028 75.6028C48.0108 76.1269 47.5592 76.55 47.0101 76.8141C46.4609 77.0782 45.8412 77.1702 45.2361 77.0775C44.631 76.9848 44.0703 76.7119 43.6311 76.2964C42.6826 75.5752 38.6365 68.9253 38.8292 67.7713C38.9652 67.2843 39.1989 66.8284 39.5169 66.4298C39.8348 66.0312 40.2308 65.6978 40.6818 65.4488Z" stroke="white" stroke-miterlimit="10"/>
<defs>
<filter id="filter0_d_269_5004" x="0.6" y="0" width="125.8" height="129.4" filterUnits="userSpaceOnUse" color-interpolation-filters="sRGB">
<feFlood flood-opacity="0" result="BackgroundImageFix"/>
<feColorMatrix in="SourceAlpha" type="matrix" values="0 0 0 0 0 0 0 0 0 0 0 0 0 0 0 0 0 0 127 0" result="hardAlpha"/>
<feOffset dx="6" dy="13"/>
<feGaussianBlur stdDeviation="4.7"/>
<feComposite in2="hardAlpha" operator="out"/>
<feColorMatrix type="matrix" values="0 0 0 0 0 0 0 0 0 0 0 0 0 0 0 0 0 0 0.83 0"/>
<feBlend mode="normal" in2="BackgroundImageFix" result="effect1_dropShadow_269_5004"/>
<feBlend mode="normal" in="SourceGraphic" in2="effect1_dropShadow_269_5004" result="shape"/>
</filter>
</defs>
</svg>
