<svg width="107" height="107" viewBox="0 0 107 107" fill="none" xmlns="http://www.w3.org/2000/svg">
<circle cx="53.5" cy="53.5" r="53.5" fill="#042D25"/>
<path d="M81.0638 32.4161L77.4915 32.7675L78.5632 36.6181L74.6486 37.848L76.0626 41.1862L72.1331 41.9036L73.6216 45.2418L69.8409 46.4571L70.6149 50.0003L67.1915 50.6884L68.2631 54.5391L64.7207 55.2858L65.7626 58.5801L61.8331 60.0442L63.3215 63.3678L59.5557 64.4219L60.4339 67.9212L56.8914 68.6533L57.9631 72.1525C57.5612 72.5918 54.5397 72.0061 54.7183 73.1774H54.2122C53.4551 71.6824 52.914 70.0906 52.6047 68.4483C52.6047 66.135 55.7155 63.5435 54.5694 61.2301C54.0038 60.1028 46.1746 56.2667 46.1894 55.3736L72.8178 30.9666C73.5918 30.4102 73.5769 28.8143 72.4457 28.829L70.4661 30.0588L44.6117 54.0266C43.9568 54.5391 41.2775 53.031 41.7687 52.4454C42.1803 52.4035 42.5644 52.2224 42.8553 51.9329C53.1256 42.2404 63.4703 32.6064 74.0086 23.1921C75.1993 22.1818 79.1288 25.4468 79.6498 26.2521C80.4182 28.2297 80.8943 30.3055 81.0638 32.4161Z" stroke="white" stroke-miterlimit="10"/>
<path d="M53.4233 61.8333C54.0633 62.8912 51.1908 66.5144 51.027 67.8477L53.081 75.0941C50.5063 77.8189 47.7784 80.4025 44.9099 82.8331C38.6291 87.7317 36.1733 75.8042 32.2292 72.9202C29.5799 70.9781 27.1539 72.326 25.0851 70.1376C23.0163 67.9492 24.207 67.3985 26.1418 65.6014C30.6069 61.4855 35.191 57.413 39.79 53.5L53.4233 61.8333ZM36.9473 64.9782C36.4916 65.2268 36.0911 65.5611 35.7692 65.9617C35.4473 66.3622 35.2103 66.821 35.0719 67.3115C34.8785 68.4709 38.9417 75.152 39.8942 75.8767C40.3353 76.2941 40.8984 76.5683 41.506 76.6614C42.1136 76.7545 42.736 76.6621 43.2875 76.3968C43.8389 76.1315 44.2924 75.7063 44.5856 75.1798C44.8788 74.6532 44.9973 74.0512 44.9248 73.4564C43.5179 70.6359 41.8385 67.9523 39.9091 65.4419C39.483 65.1527 38.9954 64.9608 38.4826 64.8805C37.9698 64.8002 37.445 64.8336 36.9473 64.9782Z" stroke="white" stroke-miterlimit="10"/>
<path d="M36.6815 65.4493C37.1793 65.3031 37.7047 65.2687 38.2181 65.3487C38.7315 65.4286 39.2196 65.6209 39.6457 65.9109C41.5669 68.4096 43.2394 71.0807 44.6403 73.8879C44.7125 74.4799 44.5945 75.0792 44.3025 75.6033C44.0106 76.1273 43.559 76.5505 43.0098 76.8146C42.4607 77.0787 41.8409 77.1707 41.2359 77.078C40.6308 76.9853 40.0701 76.7124 39.6309 76.2969C38.6823 75.5757 34.6363 68.9258 34.8289 67.7718C34.9649 67.2848 35.1987 66.8289 35.5166 66.4302C35.8346 66.0316 36.2305 65.6983 36.6815 65.4493Z" stroke="white" stroke-miterlimit="10"/>
</svg>
