<svg width="107" height="107" viewBox="0 0 107 107" fill="none" xmlns="http://www.w3.org/2000/svg">
<circle cx="53.5" cy="53.5" r="53.5" fill="#042D25"/>
<path d="M37.0565 58.0203C38.6272 60.2622 41.2449 60.1682 43.5136 60.8528C44.5725 61.1605 45.6482 61.407 46.7354 61.5912C48.0778 61.8194 49.1652 61.5106 49.3263 60.2487C49.4326 59.6073 49.2845 58.9496 48.9135 58.4156C48.5425 57.8817 47.9778 57.5135 47.3395 57.3894C45.6072 56.9282 43.9112 56.3404 42.2651 55.6308C41.9832 55.5503 41.7953 55.161 41.6074 54.8119C40.7214 53.0802 39.7548 51.4022 38.8017 49.7107C38.5218 49.1347 38.1086 48.6337 37.5963 48.2493C37.084 47.8649 36.4874 47.6083 35.8561 47.5006C35.2248 47.393 34.5768 47.4375 33.9661 47.6304C33.3554 47.8234 32.7996 48.1591 32.3446 48.6099C30.5055 50.1 29.7806 52.3016 29.002 54.4226C28.3765 56.2463 27.883 58.1126 27.5253 60.0071C27.4813 61.0197 27.6317 62.0313 27.9683 62.9873C28.2905 64.719 28.6664 66.4507 29.0423 68.169C29.1338 68.4657 29.1535 68.7798 29.0998 69.0855C29.0461 69.3913 28.9206 69.6799 28.7335 69.9276C27.2703 71.9144 26.0487 74.022 24.5183 76.0088C24.2303 76.4422 24.056 76.9411 24.0114 77.4595C23.9668 77.978 24.0534 78.4993 24.2633 78.9755C24.467 79.2704 24.7348 79.5154 25.0467 79.6921C25.3586 79.8689 25.7064 79.9727 26.0641 79.996C26.4217 80.0192 26.7801 79.9612 27.1122 79.8263C27.4443 79.6915 27.7416 79.4832 27.9818 79.2172C30.8583 76.5148 33.4002 73.4771 35.553 70.1692" stroke="white" stroke-linecap="round" stroke-linejoin="round"/>
<path d="M48.332 35.332C48.607 37.1607 49.0565 38.9588 49.6745 40.7017C51.2048 46.1385 52.5875 51.629 54.091 57.0793C55.2858 61.4153 56.4134 65.7647 57.5813 70.1008C57.6815 70.7688 57.9291 71.4062 58.3062 71.9667" stroke="white" stroke-linecap="round" stroke-linejoin="round"/>
<path d="M47.6621 34.956C47.9709 34.8486 48.1991 35.2916 48.4004 35.1842C50.8168 33.8418 53.5285 33.6002 56.1059 32.8887C60.7373 31.6268 65.3687 30.4321 69.9866 29.1568C70.5041 29.0275 71.0382 28.9778 71.5706 29.0091C72.2738 30.2764 72.7293 31.6659 72.9131 33.1035C74.0138 37.3187 75.1818 41.5205 76.2825 45.7491C77.625 51.0382 78.9674 56.3408 80.5514 61.6031C81.1421 63.657 81.1555 65.7646 81.6254 67.8185" stroke="white" stroke-linecap="round" stroke-linejoin="round"/>
<path d="M60.1191 32.2305C61.6092 37.8552 63.1799 43.4665 64.6565 49.1047C66.2406 55.1725 67.9589 61.1865 69.4221 67.3214C69.5027 67.6704 69.6906 67.9657 69.7846 68.3148" stroke="white" stroke-linecap="round" stroke-linejoin="round"/>
<path d="M81.9467 67.752C78.7249 69.0004 75.3151 69.5911 72.0262 70.5442C67.8244 71.7658 63.5287 72.6518 59.3672 74.0211" stroke="white" stroke-linecap="round" stroke-linejoin="round"/>
<path d="M35.8075 63.2264C36.2484 63.3559 36.6439 63.6071 36.9486 63.9513C38.291 65.589 39.6334 67.2134 40.9758 68.8108C41.5435 69.5104 41.8601 70.3801 41.8752 71.2809C41.9245 73.2747 42.0813 75.2644 42.3451 77.2412C42.4115 77.5176 42.4187 77.8049 42.3662 78.0842C42.3136 78.3635 42.2025 78.6286 42.0402 78.8619C41.8779 79.0952 41.6681 79.2915 41.4244 79.4379C41.1808 79.5843 40.909 79.6775 40.6268 79.7113C39.0024 79.8455 37.9419 79.0669 37.9419 77.6037C37.8345 75.8317 37.4184 74.0731 37.4452 72.234C37.4121 71.924 37.3012 71.6273 37.1228 71.3715C36.9445 71.1157 36.7045 70.9091 36.425 70.7708C35.9636 70.463 35.6022 70.0272 35.3852 69.5168C35.1681 69.0064 35.105 68.4438 35.2034 67.898C35.3645 66.2871 35.3779 64.6493 35.539 63.0384C35.6649 61.53 35.9899 60.045 36.5055 58.6219C36.7794 58.0775 36.9088 57.472 36.8814 56.8633" stroke="white" stroke-linecap="round" stroke-linejoin="round"/>
<path d="M59.3672 43.9512C60.0455 45.2957 60.499 46.7423 60.7096 48.2335C61.4882 51.1197 62.2937 54.0059 62.9917 56.9055" stroke="white" stroke-linecap="round" stroke-linejoin="round"/>
<path d="M66.4551 42.2734C67.4082 45.2133 68.0794 48.2338 68.9251 51.2005C69.2742 52.4356 69.5695 53.684 69.9319 54.9191" stroke="white" stroke-linecap="round" stroke-linejoin="round"/>
<path d="M81.0734 65.7109C77.7845 66.4627 74.5493 67.4695 71.2603 68.2615C67.4479 69.2012 63.6891 70.3557 59.8632 71.282C59.4124 71.3192 58.9849 71.4977 58.6416 71.7921C57.9703 72.6915 57.0441 72.5573 56.1447 72.517C55.3823 72.4824 54.6357 72.7415 54.0588 73.2411C53.4819 73.7406 53.1185 74.4424 53.0437 75.2018C52.9521 75.609 52.9444 76.0306 53.021 76.4408C53.0976 76.851 53.257 77.2413 53.4893 77.588C53.7217 77.9347 54.0222 78.2304 54.3725 78.4571C54.7229 78.6839 55.1157 78.8369 55.5271 78.9069C57.3394 79.256 59.635 77.8196 59.6752 76.061C59.7209 75.3903 59.6115 74.718 59.3554 74.0964C59.0993 73.4749 58.7035 72.9206 58.1986 72.4767" stroke="white" stroke-linecap="round" stroke-linejoin="round"/>
<path d="M48.4666 46.3672C48.433 46.5717 48.433 46.7802 48.4666 46.9847C49.025 48.343 49.4215 49.7623 49.6479 51.2133C49.9298 52.9719 50.695 54.5694 51.0843 56.2743C51.4736 57.9791 52.0106 59.6572 52.4267 61.362C53.3261 65.0268 54.4269 68.638 55.4069 72.2759" stroke="white" stroke-linecap="round" stroke-linejoin="round"/>
<path d="M68.2956 73.3906C68.2956 73.6457 68.2957 73.8202 67.9332 73.9142C65.3558 74.572 62.8051 75.2566 60.2411 75.9949C60.1162 76.0084 59.9902 76.0084 59.8652 75.9949" stroke="white" stroke-linecap="round" stroke-linejoin="round"/>
<path d="M55.0312 51.1992C55.2072 52.5945 55.6013 53.9535 56.1992 55.2265C57.6058 54.9888 58.9958 54.6615 60.3607 54.2465" stroke="white" stroke-linecap="round" stroke-linejoin="round"/>
<path d="M59.7435 54.1803C59.652 52.7757 59.2727 51.4049 58.6293 50.1531C57.0989 50.0457 55.8639 50.9854 54.4141 51.0659" stroke="white" stroke-linecap="round" stroke-linejoin="round"/>
<path d="M49.5821 52.6895C49.0136 52.8469 48.5224 53.2067 48.2009 53.7013C47.8795 54.1958 47.75 54.7909 47.8369 55.3743C47.8369 56.0321 47.8369 56.7167 47.8369 57.3611" stroke="white" stroke-linecap="round" stroke-linejoin="round"/>
<path d="M36.9235 35.5732C36.102 35.7047 35.3247 36.0336 34.6583 36.5316C33.9919 37.0297 33.4564 37.682 33.0976 38.4325C32.7138 39.221 32.5571 40.1006 32.6448 40.9731C32.7325 41.8455 33.0613 42.6764 33.5943 43.3727C34.1661 44.1414 34.9551 44.7211 35.8596 45.037C36.7642 45.3528 37.7426 45.3903 38.6686 45.1447C39.7066 44.905 40.6356 44.3273 41.3095 43.5023C41.9835 42.6772 42.3642 41.6517 42.3918 40.5867C42.4195 39.5218 42.0925 38.4778 41.4623 37.6189C40.8321 36.76 39.9344 36.1349 38.9102 35.8417C38.3235 35.6039 37.6878 35.5118 37.0577 35.5732" stroke="white" stroke-linecap="round" stroke-linejoin="round"/>
</svg>
