<svg width="127" height="130" viewBox="0 0 127 130" fill="none" xmlns="http://www.w3.org/2000/svg">
<g filter="url(#filter0_d_269_5003)">
<circle cx="57.5" cy="53.5" r="53.5" fill="#042D25"/>
</g>
<path d="M41.0565 58.0193C42.6272 60.2612 45.2449 60.1672 47.5136 60.8519C48.5725 61.1595 49.6482 61.4061 50.7354 61.5902C52.0778 61.8184 53.1652 61.5096 53.3263 60.2478C53.4326 59.6063 53.2845 58.9486 52.9135 58.4147C52.5425 57.8807 51.9778 57.5125 51.3395 57.3884C49.6072 56.9272 47.9112 56.3395 46.2651 55.6298C45.9832 55.5493 45.7953 55.16 45.6074 54.811C44.7214 53.0792 43.7548 51.4012 42.8017 49.7098C42.5218 49.1337 42.1086 48.6327 41.5963 48.2483C41.084 47.8639 40.4874 47.6073 39.8561 47.4997C39.2248 47.392 38.5768 47.4365 37.9661 47.6295C37.3554 47.8224 36.7996 48.1582 36.3446 48.609C34.5055 50.0991 33.7806 52.3006 33.002 54.4217C32.3765 56.2453 31.883 58.1116 31.5253 60.0061C31.4813 61.0187 31.6317 62.0303 31.9683 62.9863C32.2905 64.718 32.6664 66.4497 33.0423 68.168C33.1338 68.4647 33.1535 68.7788 33.0998 69.0845C33.0461 69.3903 32.9206 69.6789 32.7335 69.9266C31.2703 71.9134 30.0487 74.021 28.5183 76.0078C28.2303 76.4412 28.056 76.9401 28.0114 77.4586C27.9668 77.977 28.0534 78.4983 28.2633 78.9745C28.467 79.2694 28.7348 79.5144 29.0467 79.6912C29.3586 79.8679 29.7064 79.9717 30.0641 79.995C30.4217 80.0182 30.7801 79.9602 31.1122 79.8254C31.4443 79.6905 31.7416 79.4822 31.9818 79.2162C34.8583 76.5138 37.4002 73.4762 39.553 70.1683" stroke="white" stroke-linecap="round" stroke-linejoin="round"/>
<path d="M52.3328 35.3315C52.6077 37.1602 53.0573 38.9583 53.6752 40.7012C55.2055 46.138 56.5882 51.6285 58.0917 57.0788C59.2865 61.4148 60.4141 65.7642 61.582 70.1003C61.6822 70.7683 61.9298 71.4058 62.3069 71.9662" stroke="white" stroke-linecap="round" stroke-linejoin="round"/>
<path d="M51.6614 34.956C51.9701 34.8486 52.1983 35.2916 52.3997 35.1842C54.8161 33.8418 57.5278 33.6002 60.1052 32.8887C64.7366 31.6268 69.3679 30.4321 73.9859 29.1568C74.5033 29.0275 75.0375 28.9778 75.5699 29.0091C76.273 30.2764 76.7286 31.6659 76.9123 33.1035C78.0131 37.3187 79.181 41.5205 80.2818 45.7491C81.6242 51.0382 82.9666 56.3408 84.5507 61.6031C85.1414 63.657 85.1548 65.7646 85.6246 67.8185" stroke="white" stroke-linecap="round" stroke-linejoin="round"/>
<path d="M64.1196 32.2314C65.6097 37.8562 67.1804 43.4675 68.657 49.1057C70.2411 55.1734 71.9594 61.1875 73.4226 67.3223C73.5032 67.6714 73.6911 67.9667 73.7851 68.3157" stroke="white" stroke-linecap="round" stroke-linejoin="round"/>
<path d="M85.9472 67.752C82.7254 69.0004 79.3156 69.5911 76.0267 70.5442C71.8249 71.7658 67.5292 72.6518 63.3677 74.0211" stroke="white" stroke-linecap="round" stroke-linejoin="round"/>
<path d="M39.8082 63.2273C40.2492 63.3568 40.6447 63.6081 40.9493 63.9522C42.2917 65.59 43.6341 67.2143 44.9765 68.8118C45.5442 69.5114 45.8609 70.3811 45.876 71.2819C45.9252 73.2757 46.082 75.2653 46.3458 77.2422C46.4122 77.5186 46.4194 77.8058 46.3669 78.0852C46.3144 78.3645 46.2033 78.6295 46.041 78.8629C45.8787 79.0962 45.6688 79.2925 45.4252 79.4389C45.1816 79.5853 44.9097 79.6785 44.6275 79.7123C43.0032 79.8465 41.9427 79.0679 41.9427 77.6047C41.8353 75.8327 41.4191 74.0741 41.446 72.235C41.4128 71.9249 41.3019 71.6283 41.1236 71.3725C40.9452 71.1167 40.7052 70.9101 40.4257 70.7717C39.9643 70.464 39.6029 70.0282 39.3859 69.5178C39.1689 69.0074 39.1057 68.4448 39.2041 67.899C39.3652 66.2881 39.3786 64.6503 39.5397 63.0394C39.6657 61.531 39.9907 60.0459 40.5063 58.6228C40.7801 58.0785 40.9095 57.473 40.8822 56.8643" stroke="white" stroke-linecap="round" stroke-linejoin="round"/>
<path d="M63.3677 43.9507C64.046 45.2952 64.4995 46.7418 64.7101 48.233C65.4887 51.1192 66.2942 54.0054 66.9922 56.9051" stroke="white" stroke-linecap="round" stroke-linejoin="round"/>
<path d="M70.4553 42.2729C71.4084 45.2129 72.0796 48.2333 72.9254 51.2001C73.2744 52.4351 73.5697 53.6835 73.9322 54.9186" stroke="white" stroke-linecap="round" stroke-linejoin="round"/>
<path d="M85.0742 65.7114C81.7852 66.4632 78.55 67.47 75.2611 68.262C71.4486 69.2017 67.6898 70.3562 63.8639 71.2825C63.4131 71.3196 62.9856 71.4982 62.6423 71.7926C61.9711 72.692 61.0448 72.5578 60.1454 72.5175C59.3831 72.4829 58.6365 72.742 58.0595 73.2416C57.4826 73.7411 57.1192 74.4429 57.0444 75.2023C56.9528 75.6095 56.9451 76.031 57.0217 76.4413C57.0984 76.8515 57.2577 77.2418 57.4901 77.5885C57.7224 77.9351 58.0229 78.2309 58.3733 78.4576C58.7236 78.6844 59.1165 78.8374 59.5279 78.9074C61.3402 79.2565 63.6357 77.8201 63.676 76.0615C63.7217 75.3908 63.6122 74.7185 63.3561 74.0969C63.1001 73.4753 62.7042 72.9211 62.1993 72.4772" stroke="white" stroke-linecap="round" stroke-linejoin="round"/>
<path d="M52.4673 46.3667C52.4337 46.5712 52.4337 46.7797 52.4673 46.9842C53.0258 48.3425 53.4223 49.7618 53.6486 51.2128C53.9305 52.9714 54.6957 54.5689 55.085 56.2738C55.4743 57.9786 56.0113 59.6567 56.4274 61.3615C57.3269 65.0264 58.4277 68.6375 59.4076 72.2754" stroke="white" stroke-linecap="round" stroke-linejoin="round"/>
<path d="M72.2949 73.3896C72.2949 73.6447 72.2949 73.8192 71.9325 73.9132C69.355 74.571 66.8044 75.2556 64.2404 75.9939C64.1154 76.0074 63.9894 76.0074 63.8645 75.9939" stroke="white" stroke-linecap="round" stroke-linejoin="round"/>
<path d="M59.0317 51.2002C59.2077 52.5955 59.6018 53.9545 60.1996 55.2275C61.6063 54.9898 62.9963 54.6625 64.3612 54.2475" stroke="white" stroke-linecap="round" stroke-linejoin="round"/>
<path d="M63.7437 54.1794C63.6522 52.7748 63.273 51.404 62.6295 50.1521C61.0991 50.0447 59.8641 50.9844 58.4143 51.0649" stroke="white" stroke-linecap="round" stroke-linejoin="round"/>
<path d="M53.5811 52.6899C53.0126 52.8473 52.5214 53.2072 52.2 53.7018C51.8785 54.1963 51.749 54.7914 51.836 55.3748C51.836 56.0326 51.836 56.7172 51.836 57.3616" stroke="white" stroke-linecap="round" stroke-linejoin="round"/>
<path d="M40.9225 35.5737C40.101 35.7052 39.3237 36.0341 38.6574 36.5321C37.991 37.0301 37.4554 37.6825 37.0966 38.433C36.7129 39.2215 36.5561 40.1011 36.6438 40.9736C36.7315 41.846 37.0603 42.6769 37.5933 43.3731C38.1651 44.1419 38.9542 44.7216 39.8587 45.0375C40.7632 45.3533 41.7416 45.3908 42.6676 45.1451C43.7056 44.9055 44.6346 44.3278 45.3085 43.5028C45.9825 42.6777 46.3632 41.6522 46.3908 40.5872C46.4185 39.5223 46.0916 38.4783 45.4614 37.6194C44.8312 36.7605 43.9334 36.1354 42.9093 35.8422C42.3225 35.6044 41.6869 35.5122 41.0567 35.5737" stroke="white" stroke-linecap="round" stroke-linejoin="round"/>
<defs>
<filter id="filter0_d_269_5003" x="0.6" y="0" width="125.8" height="129.4" filterUnits="userSpaceOnUse" color-interpolation-filters="sRGB">
<feFlood flood-opacity="0" result="BackgroundImageFix"/>
<feColorMatrix in="SourceAlpha" type="matrix" values="0 0 0 0 0 0 0 0 0 0 0 0 0 0 0 0 0 0 127 0" result="hardAlpha"/>
<feOffset dx="6" dy="13"/>
<feGaussianBlur stdDeviation="4.7"/>
<feComposite in2="hardAlpha" operator="out"/>
<feColorMatrix type="matrix" values="0 0 0 0 0 0 0 0 0 0 0 0 0 0 0 0 0 0 0.83 0"/>
<feBlend mode="normal" in2="BackgroundImageFix" result="effect1_dropShadow_269_5003"/>
<feBlend mode="normal" in="SourceGraphic" in2="effect1_dropShadow_269_5003" result="shape"/>
</filter>
</defs>
</svg>
