<svg width="107" height="107" viewBox="0 0 107 107" fill="none" xmlns="http://www.w3.org/2000/svg">
<circle cx="53.5" cy="53.5" r="53.5" fill="#042D25"/>
<path d="M35.9306 30C32.0085 30.9189 30.888 34.6056 31.3586 38.2923C36.6926 41.2395 34.1152 48.1983 34.7204 53.1737C34.8014 53.8619 35.1375 54.4946 35.6625 54.9469C36.1874 55.3992 36.8629 55.6382 37.5554 55.6166C47.6407 56.5131 58.9811 54.9331 69.1784 55.6166C69.5412 55.6331 69.9036 55.5772 70.2446 55.4521C70.5855 55.327 70.8981 55.1352 71.1641 54.888C71.4301 54.6408 71.6442 54.343 71.7939 54.0121C71.9436 53.6812 72.0259 53.3239 72.0359 52.9608C72.585 48.0863 70.1309 41.4076 75.1063 38.3932L75.2184 38.0794C75.5882 34.5944 74.8934 31.3559 71.2963 30.1121L35.9306 30Z" stroke="white" stroke-miterlimit="10"/>
<path d="M70.5566 64.9394C75.151 64.9394 79.6334 61.107 80.9557 56.7815C81.8073 54.0025 81.9194 46.5954 81.5832 43.6258C81.5425 42.9315 81.3021 42.2638 80.8908 41.7029C80.4795 41.1421 79.9149 40.7121 79.2649 40.4646C78.6149 40.2172 77.9072 40.1628 77.2271 40.3082C76.5469 40.4535 75.9233 40.7923 75.4312 41.2838C72.1927 44.5783 77.5155 55.7282 71.0945 57.7452C59.3956 58.115 47.5622 58.003 35.8184 57.7452C30.2155 56.3557 32.692 47.3686 32.1765 43.1776C31.6947 39.3004 25.5539 39.1547 25.1617 43.5922C24.8927 46.6066 24.8703 54.2826 25.8004 56.972C26.6508 59.3389 28.2048 61.389 30.2539 62.8472C32.303 64.3055 34.7492 65.102 37.264 65.1299L34.7203 76.5823L36.6477 76.459L40.9171 65.1859H66.6906L71.173 76.5823H73.0555L70.5566 64.9394Z" stroke="white" stroke-miterlimit="10"/>
<path d="M35.9299 30L71.3068 30.1457C74.9039 31.4007 75.5987 34.628 75.2289 38.1131L75.1168 38.4268C70.1414 41.4076 72.5955 48.0863 72.0464 52.9944C72.0364 53.3575 71.9541 53.7149 71.8045 54.0457C71.6548 54.3766 71.4407 54.6744 71.1747 54.9216C70.9087 55.1689 70.5961 55.3606 70.2551 55.4857C69.9142 55.6108 69.5517 55.6667 69.1889 55.6502C58.9916 54.9667 47.6288 56.5467 37.566 55.6502C36.8696 55.6776 36.1886 55.4412 35.6589 54.9884C35.1291 54.5355 34.7898 53.8995 34.7085 53.2074C34.1146 48.232 36.6919 41.2731 31.3467 38.326C30.8873 34.6056 32.0079 30.9637 35.9299 30Z" stroke="white" stroke-miterlimit="10"/>
<path d="M70.5577 64.9403L73.1014 76.6056H71.2188L66.6916 65.142H40.9181L36.6711 76.4376L34.7437 76.5608L37.2874 65.1084C34.7726 65.0805 32.3265 64.284 30.2774 62.8258C28.2282 61.3676 26.6742 59.3174 25.8238 56.9506C24.8937 54.2611 24.9162 46.5851 25.1851 43.5707C25.5773 39.0884 31.7181 39.2789 32.2 43.1561C32.7154 47.3807 30.2502 56.3678 35.8419 57.7238C47.5632 57.9255 59.3742 58.0375 71.118 57.7238C77.5389 55.7067 72.2386 44.5569 75.4546 41.2623C75.9467 40.7708 76.5704 40.432 77.2505 40.2867C77.9306 40.1414 78.6383 40.1957 79.2883 40.4431C79.9383 40.6906 80.5029 41.1206 80.9142 41.6814C81.3255 42.2423 81.566 42.91 81.6066 43.6044C81.9428 46.5739 81.8308 53.981 80.9791 56.7601C79.6344 61.1079 75.1521 64.8843 70.5577 64.9403Z" stroke="white" stroke-miterlimit="10"/>
</svg>
