<svg width="127" height="130" viewBox="0 0 127 130" fill="none" xmlns="http://www.w3.org/2000/svg">
<g filter="url(#filter0_d_269_5002)">
<circle cx="57.5" cy="53.5" r="53.5" fill="#042D25"/>
</g>
<path d="M39.9308 30C36.0088 30.9189 34.8882 34.6056 35.3588 38.2923C40.6928 41.2395 38.1155 48.1983 38.7206 53.1737C38.8016 53.8619 39.1378 54.4946 39.6627 54.9469C40.1876 55.3992 40.8631 55.6382 41.5557 55.6166C51.641 56.5131 62.9813 54.9331 73.1786 55.6166C73.5414 55.6331 73.9039 55.5772 74.2448 55.4521C74.5858 55.327 74.8984 55.1352 75.1644 54.888C75.4304 54.6408 75.6445 54.343 75.7942 54.0121C75.9438 53.6812 76.0261 53.3239 76.0361 52.9608C76.5852 48.0863 74.1311 41.4076 79.1065 38.3932L79.2186 38.0794C79.5884 34.5944 78.8936 31.3559 75.2966 30.1121L39.9308 30Z" stroke="white" stroke-miterlimit="10"/>
<path d="M74.5566 64.9399C79.151 64.9399 83.6334 61.1075 84.9557 56.782C85.8073 54.003 85.9194 46.5959 85.5832 43.6263C85.5425 42.932 85.3021 42.2643 84.8908 41.7034C84.4795 41.1426 83.9149 40.7125 83.2649 40.4651C82.6149 40.2176 81.9072 40.1633 81.2271 40.3087C80.5469 40.454 79.9233 40.7928 79.4312 41.2843C76.1927 44.5788 81.5155 55.7287 75.0945 57.7457C63.3956 58.1155 51.5622 58.0035 39.8184 57.7457C34.2155 56.3562 36.692 47.3691 36.1765 43.1781C35.6947 39.3009 29.5539 39.1552 29.1617 43.5927C28.8927 46.6071 28.8703 54.2831 29.8004 56.9725C30.6508 59.3394 32.2048 61.3895 34.2539 62.8477C36.303 64.3059 38.7492 65.1025 41.264 65.1304L38.7203 76.5828L40.6477 76.4595L44.9171 65.1864H70.6906L75.173 76.5828H77.0555L74.5566 64.9399Z" stroke="white" stroke-miterlimit="10"/>
<path d="M39.9307 30L75.3076 30.1457C78.9047 31.4007 79.5994 34.628 79.2296 38.1131L79.1176 38.4268C74.1422 41.4076 76.5963 48.0863 76.0472 52.9944C76.0371 53.3575 75.9549 53.7149 75.8052 54.0457C75.6555 54.3766 75.4414 54.6744 75.1754 54.9216C74.9094 55.1689 74.5968 55.3606 74.2558 55.4857C73.9149 55.6108 73.5525 55.6667 73.1897 55.6502C62.9923 54.9667 51.6296 56.5467 41.5667 55.6502C40.8703 55.6776 40.1893 55.4412 39.6596 54.9884C39.1299 54.5355 38.7905 53.8995 38.7092 53.2074C38.1153 48.232 40.6927 41.2731 35.3475 38.326C34.888 34.6056 36.0086 30.9637 39.9307 30Z" stroke="white" stroke-miterlimit="10"/>
<path d="M74.5567 64.9399L77.1004 76.6051H75.2178L70.6907 65.1416H44.9172L40.6701 76.4371L38.7427 76.5603L41.2865 65.1079C38.7716 65.08 36.3255 64.2835 34.2764 62.8253C32.2273 61.3671 30.6732 59.3169 29.8229 56.9501C28.8928 54.2607 28.9152 46.5846 29.1841 43.5703C29.5763 39.0879 35.7171 39.2784 36.199 43.1556C36.7145 47.3803 34.2492 56.3674 39.8409 57.7233C51.5622 57.925 63.3732 58.037 75.117 57.7233C81.5379 55.7062 76.2376 44.5564 79.4537 41.2618C79.9457 40.7704 80.5694 40.4315 81.2495 40.2862C81.9297 40.1409 82.6373 40.1952 83.2873 40.4426C83.9373 40.6901 84.5019 41.1201 84.9133 41.681C85.3246 42.2418 85.565 42.9096 85.6057 43.6039C85.9418 46.5734 85.8298 53.9805 84.9781 56.7596C83.6334 61.1074 79.1511 64.8838 74.5567 64.9399Z" stroke="white" stroke-miterlimit="10"/>
<defs>
<filter id="filter0_d_269_5002" x="0.6" y="0" width="125.8" height="129.4" filterUnits="userSpaceOnUse" color-interpolation-filters="sRGB">
<feFlood flood-opacity="0" result="BackgroundImageFix"/>
<feColorMatrix in="SourceAlpha" type="matrix" values="0 0 0 0 0 0 0 0 0 0 0 0 0 0 0 0 0 0 127 0" result="hardAlpha"/>
<feOffset dx="6" dy="13"/>
<feGaussianBlur stdDeviation="4.7"/>
<feComposite in2="hardAlpha" operator="out"/>
<feColorMatrix type="matrix" values="0 0 0 0 0 0 0 0 0 0 0 0 0 0 0 0 0 0 0.83 0"/>
<feBlend mode="normal" in2="BackgroundImageFix" result="effect1_dropShadow_269_5002"/>
<feBlend mode="normal" in="SourceGraphic" in2="effect1_dropShadow_269_5002" result="shape"/>
</filter>
</defs>
</svg>
