<svg width="127" height="130" viewBox="0 0 127 130" fill="none" xmlns="http://www.w3.org/2000/svg">
<g filter="url(#filter0_d_269_5005)">
<circle cx="57.5" cy="53.5" r="53.5" fill="#042D25"/>
</g>
<path d="M31.0121 43.6259C31.2902 42.6102 35.6794 42.7553 36.6105 42.9608C38.8474 43.4687 37.6745 46.0442 40.7337 46.3827C42.9222 46.6367 49.5847 46.685 49.5121 43.384C49.5121 42.5134 48.3997 42.5255 48.1821 41.8363C47.4687 39.5752 49.3912 38.8739 51.3138 39.1157L51.8095 37.3624L54.2278 37.0964C53.9618 31.4013 47.0696 37.5438 43.9138 35.0771C43.1279 34.3063 42.6511 33.2747 42.5732 32.1767C42.4952 31.0787 42.8215 29.9901 43.4905 29.116C45.7275 26.4438 50.1651 29.515 52.6197 29.2611C53.4056 29.1886 54.7478 27 56.9847 27C59.2216 27 60.6122 29.1886 61.3377 29.2611C63.6351 29.4909 66.6096 27.2539 69.4753 28.3784C72.341 29.5029 72.3893 35.9115 67.4197 35.6334C64.7475 35.5124 59.6932 32.5137 59.7416 37.0723C61.4586 37.0723 62.8249 36.9997 62.6556 39.0915C63.7801 39.0915 64.9288 38.9585 65.6785 39.9863C66.9844 41.7759 64.7354 42.32 64.687 43.2994C64.5177 46.3344 68.6409 46.2739 70.4789 46.7938C76.7181 48.5834 80.406 52.9122 81.4701 59.3086C81.6273 60.2034 81.325 61.3037 81.5668 62.1138C81.8087 62.924 82.909 62.8635 82.9815 64.5321C83.0271 64.8603 83.0047 65.1943 82.9158 65.5134C82.8269 65.8326 82.6734 66.13 82.4648 66.3874C82.2562 66.6448 81.997 66.8565 81.7031 67.0095C81.4093 67.1626 81.0871 67.2536 80.7567 67.2769C78.2496 67.4765 75.7307 67.4765 73.2236 67.2769C72.5664 67.2677 71.936 67.0155 71.4537 66.5689C70.9714 66.1224 70.6716 65.5131 70.6119 64.8586C70.6119 63.19 71.9782 62.924 72.1717 62.1743C72.4981 60.9651 71.1681 57.8939 70.2007 56.9991C66.271 53.3716 64.0945 58.8975 61.6762 60.4089C60.1122 61.4131 58.2745 61.906 56.4179 61.8193C54.5612 61.7326 52.7775 61.0707 51.3138 59.9253C50.2376 59.0547 49.0527 57.2651 47.9403 56.6243C46.453 55.7537 40.9513 55.2458 39.4762 55.923C38.533 56.3583 38.4363 57.906 37.8075 58.5952C36.6951 59.8043 32.2696 59.9494 31 58.7524L31.0121 43.6259Z" stroke="white" stroke-miterlimit="10"/>
<path d="M76.7541 69.9131C78.3865 70.9409 80.7081 73.9154 80.9257 75.8379C81.6633 82.3553 73.3806 82.4278 72.7881 77.5912C72.4012 74.3507 74.6381 72.0412 76.7541 69.9131Z" stroke="white" stroke-miterlimit="10"/>
<defs>
<filter id="filter0_d_269_5005" x="0.6" y="0" width="125.8" height="129.4" filterUnits="userSpaceOnUse" color-interpolation-filters="sRGB">
<feFlood flood-opacity="0" result="BackgroundImageFix"/>
<feColorMatrix in="SourceAlpha" type="matrix" values="0 0 0 0 0 0 0 0 0 0 0 0 0 0 0 0 0 0 127 0" result="hardAlpha"/>
<feOffset dx="6" dy="13"/>
<feGaussianBlur stdDeviation="4.7"/>
<feComposite in2="hardAlpha" operator="out"/>
<feColorMatrix type="matrix" values="0 0 0 0 0 0 0 0 0 0 0 0 0 0 0 0 0 0 0.83 0"/>
<feBlend mode="normal" in2="BackgroundImageFix" result="effect1_dropShadow_269_5005"/>
<feBlend mode="normal" in="SourceGraphic" in2="effect1_dropShadow_269_5005" result="shape"/>
</filter>
</defs>
</svg>
