<svg width="107" height="107" viewBox="0 0 107 107" fill="none" xmlns="http://www.w3.org/2000/svg">
<circle cx="53.5" cy="53.5" r="53.5" fill="#042D25"/>
<path d="M27.0121 43.6259C27.2902 42.6102 31.6794 42.7553 32.6105 42.9608C34.8474 43.4687 33.6745 46.0442 36.7337 46.3827C38.9222 46.6367 45.5847 46.685 45.5121 43.384C45.5121 42.5134 44.3997 42.5255 44.1821 41.8363C43.4687 39.5752 45.3912 38.8739 47.3138 39.1157L47.8095 37.3624L50.2278 37.0964C49.9618 31.4013 43.0696 37.5438 39.9138 35.0771C39.1279 34.3063 38.6511 33.2747 38.5732 32.1767C38.4952 31.0787 38.8215 29.9901 39.4905 29.116C41.7275 26.4438 46.1651 29.515 48.6197 29.2611C49.4056 29.1886 50.7478 27 52.9847 27C55.2216 27 56.6122 29.1886 57.3377 29.2611C59.6351 29.4909 62.6096 27.2539 65.4753 28.3784C68.341 29.5029 68.3893 35.9115 63.4197 35.6334C60.7475 35.5124 55.6932 32.5137 55.7416 37.0723C57.4586 37.0723 58.8249 36.9997 58.6556 39.0915C59.7801 39.0915 60.9288 38.9585 61.6785 39.9863C62.9844 41.7759 60.7354 42.32 60.687 43.2994C60.5177 46.3344 64.6409 46.2739 66.4789 46.7938C72.7181 48.5834 76.406 52.9122 77.4701 59.3086C77.6273 60.2034 77.325 61.3037 77.5668 62.1138C77.8087 62.924 78.909 62.8635 78.9815 64.5321C79.0271 64.8603 79.0047 65.1943 78.9158 65.5134C78.8269 65.8326 78.6734 66.13 78.4648 66.3874C78.2562 66.6448 77.997 66.8565 77.7031 67.0095C77.4093 67.1626 77.0871 67.2536 76.7567 67.2769C74.2496 67.4765 71.7307 67.4765 69.2236 67.2769C68.5664 67.2677 67.936 67.0155 67.4537 66.5689C66.9714 66.1224 66.6716 65.5131 66.6119 64.8586C66.6119 63.19 67.9782 62.924 68.1717 62.1743C68.4981 60.9651 67.1681 57.8939 66.2007 56.9991C62.271 53.3716 60.0945 58.8975 57.6762 60.4089C56.1122 61.4131 54.2745 61.906 52.4179 61.8193C50.5612 61.7326 48.7775 61.0707 47.3138 59.9253C46.2376 59.0547 45.0527 57.2651 43.9403 56.6243C42.453 55.7537 36.9513 55.2458 35.4762 55.923C34.533 56.3583 34.4363 57.906 33.8075 58.5952C32.6951 59.8043 28.2696 59.9494 27 58.7524L27.0121 43.6259Z" stroke="white" stroke-miterlimit="10"/>
<path d="M72.7541 69.9141C74.3865 70.9418 76.7081 73.9164 76.9257 75.8389C77.6633 82.3563 69.3806 82.4288 68.7881 77.5922C68.4012 74.3517 70.6381 72.0422 72.7541 69.9141Z" stroke="white" stroke-miterlimit="10"/>
</svg>
