<svg width="35" height="36" viewBox="0 0 35 36" fill="none" xmlns="http://www.w3.org/2000/svg">
<g clip-path="url(#clip0_2514_2774)">
<path d="M15.4902 6.67002C15.4902 7.10002 14.9902 7.37002 14.6302 7.37002C14.3809 7.39922 14.1293 7.33897 13.9202 7.20002L13.7102 7.04002C13.4753 6.87908 13.1947 6.7984 12.9102 6.81002C12.721 6.81457 12.5347 6.85772 12.3628 6.93682C12.1908 7.01592 12.0368 7.1293 11.9102 7.27002C11.6235 7.63877 11.4686 8.09293 11.4702 8.56002V8.73002C11.495 9.16035 11.6521 9.5725 11.9202 9.91002C12.0468 10.0507 12.2008 10.1641 12.3728 10.2432C12.5447 10.3223 12.731 10.3655 12.9202 10.37C13.2051 10.3846 13.4866 10.3037 13.7202 10.14C13.798 10.0931 13.8716 10.0396 13.9402 9.98002C14.147 9.8359 14.4006 9.77518 14.6502 9.81002C15.0102 9.81002 15.5102 10.07 15.5102 10.5V15.39H20.3702C20.4591 15.3063 20.5127 15.1919 20.5202 15.07C20.5202 14.79 20.5202 14.72 20.5202 14.71C20.4491 14.6293 20.3855 14.5423 20.3302 14.45C20.0995 14.1276 19.9866 13.7358 20.0102 13.34C20.0046 13.0807 20.0534 12.8231 20.1532 12.5837C20.2531 12.3443 20.402 12.1285 20.5902 11.95C21.0323 11.5876 21.5793 11.3772 22.1502 11.35H22.3602C22.9557 11.3604 23.5301 11.5719 23.9902 11.95C24.3312 12.2572 24.5502 12.6769 24.6072 13.1323C24.6641 13.5877 24.5551 14.0484 24.3002 14.43C24.2388 14.5206 24.172 14.6074 24.1002 14.69C24.0797 14.8058 24.0797 14.9243 24.1002 15.04C24.1025 15.164 24.1527 15.2822 24.2402 15.37H26.9802V14.56H29.5702C29.7554 14.5643 29.9374 14.5113 30.0914 14.4083C30.2454 14.3053 30.3638 14.1572 30.4305 13.9844C30.4972 13.8116 30.509 13.6224 30.4642 13.4426C30.4194 13.2629 30.3202 13.1013 30.1802 12.98L25.2502 8.56002L20.8102 4.56002L16.1502 0.350021C15.9632 0.183783 15.7355 0.0699374 15.4902 0.0200195V6.66002V6.67002Z" fill="white"/>
<path d="M10.05 15.36H14.94V10.5C14.8988 10.453 14.848 10.4153 14.7911 10.3894C14.7342 10.3636 14.6725 10.3501 14.61 10.35C14.33 10.35 14.27 10.35 14.26 10.4L14 10.59C13.6722 10.8093 13.2842 10.9211 12.89 10.91C12.6302 10.9071 12.3739 10.8495 12.1379 10.7409C11.9018 10.6324 11.6913 10.4753 11.52 10.28C11.1558 9.8429 10.945 9.2984 10.92 8.73C10.92 8.73 10.92 8.66 10.92 8.63V8.56C10.9332 7.96334 11.1482 7.38876 11.53 6.93C11.7 6.73319 11.9103 6.57512 12.1467 6.46644C12.383 6.35777 12.6399 6.30101 12.9 6.3C13.2942 6.28888 13.6822 6.40071 14.01 6.62L14.27 6.81C14.27 6.81 14.34 6.81 14.62 6.81C14.7439 6.8077 14.8622 6.75753 14.95 6.67V0C14.6966 0.0494206 14.4615 0.166967 14.27 0.34L0.269974 12.95C0.12137 13.0726 0.0154891 13.2391 -0.032428 13.4257C-0.0803451 13.6122 -0.0678275 13.8092 0.00332716 13.9882C0.0744818 14.1672 0.200603 14.319 0.36353 14.4218C0.526457 14.5245 0.717785 14.5729 0.909974 14.56H3.50997V15.39H6.25997C6.68997 15.39 6.95997 15.89 6.95997 16.25C6.9842 16.499 6.92435 16.749 6.78998 16.96L6.61997 17.17C6.46571 17.4075 6.38886 17.687 6.39998 17.97C6.40018 18.16 6.44138 18.3477 6.52077 18.5202C6.60016 18.6928 6.71586 18.8462 6.85997 18.97C7.21184 19.2617 7.65299 19.424 8.10997 19.43H8.28998C8.72113 19.4011 9.13303 19.2405 9.46998 18.97C9.7125 18.7483 9.86866 18.4479 9.91077 18.1221C9.95287 17.7962 9.87819 17.466 9.69998 17.19C9.63997 17.1 9.57998 17.04 9.53998 16.98C9.39832 16.7719 9.33458 16.5205 9.35997 16.27C9.36998 15.86 9.58997 15.36 10.05 15.36Z" fill="white"/>
<path d="M29.5898 34.75L34.0798 24.56L31.5898 23.41C31.4198 23.2973 31.2959 23.1273 31.2408 22.9308C31.1857 22.7344 31.2031 22.5247 31.2898 22.34C31.3684 22.0979 31.5272 21.8898 31.7398 21.75L31.9698 21.63C32.2069 21.473 32.3887 21.2457 32.4898 20.98C32.5666 20.8103 32.6063 20.6262 32.6063 20.44C32.6063 20.2538 32.5666 20.0697 32.4898 19.9C32.2659 19.4924 31.9147 19.1693 31.4898 18.98L31.3798 18.93H31.3198C30.9192 18.7801 30.4811 18.7626 30.0698 18.88C29.8918 18.9358 29.7271 19.0276 29.586 19.1497C29.4449 19.2719 29.3305 19.4217 29.2498 19.59C29.1287 19.8488 29.0903 20.1386 29.1398 20.42C29.154 20.5046 29.1741 20.5882 29.1998 20.67C29.2445 20.9199 29.2021 21.1776 29.0798 21.4C28.9298 21.73 28.4898 22.08 28.0798 21.91L27.9298 21.85L26.9298 21.4L23.5898 19.94L22.1998 23.12L21.6498 24.39C21.6498 24.39 21.7498 24.6 21.8798 24.66C21.9873 24.7198 22.107 24.754 22.2298 24.76C22.3292 24.7199 22.4335 24.6931 22.5398 24.68C22.926 24.6048 23.3262 24.6574 23.6798 24.83C23.9159 24.9359 24.127 25.0904 24.2993 25.2834C24.4716 25.4764 24.6013 25.7035 24.6798 25.95C24.8353 26.5013 24.8037 27.0886 24.5898 27.62V27.71L24.5398 27.81C24.2946 28.3575 23.8669 28.8028 23.3298 29.07C23.094 29.176 22.8384 29.2308 22.5798 29.2308C22.3213 29.2308 22.0657 29.176 21.8298 29.07C21.4601 28.9326 21.1469 28.6757 20.9398 28.34C20.8783 28.2516 20.8248 28.1579 20.7798 28.06C20.7798 28.06 20.7798 27.98 20.4698 27.87C20.3568 27.8287 20.2329 27.8287 20.1198 27.87L18.5898 31.36L27.8898 35.42C28.2044 35.5544 28.5592 35.5595 28.8774 35.4341C29.1956 35.3087 29.4516 35.0629 29.5898 34.75Z" fill="white"/>
<path d="M14.9298 24.61C14.9298 24.18 15.4398 23.91 15.7998 23.91C16.0489 23.8834 16.2997 23.9434 16.5098 24.08C16.5746 24.1398 16.6449 24.1933 16.7198 24.24C16.954 24.4023 17.2351 24.4831 17.5198 24.47C17.7094 24.4679 17.8965 24.4258 18.0688 24.3465C18.2411 24.2673 18.3947 24.1526 18.5198 24.01C18.8061 23.6512 18.9676 23.2088 18.9798 22.75V22.64C18.9798 22.64 18.9798 22.64 18.9798 22.58C18.955 22.1497 18.7979 21.7375 18.5298 21.4C18.3116 21.1521 18.0106 20.992 17.6831 20.9497C17.3556 20.9074 17.0238 20.9857 16.7498 21.17C16.6749 21.2166 16.6046 21.2702 16.5398 21.33C16.333 21.4741 16.0794 21.5348 15.8298 21.5C15.4698 21.5 14.9598 21.24 14.9598 20.81V15.9H10.0798C10.034 15.9401 9.99704 15.9892 9.97123 16.0443C9.94541 16.0994 9.93129 16.1592 9.92977 16.22C9.92977 16.5 9.92977 16.57 9.92977 16.58C10.0016 16.6626 10.0684 16.7494 10.1298 16.84C10.3509 17.1669 10.4629 17.5555 10.4498 17.95C10.4444 18.2094 10.3857 18.4648 10.2773 18.7005C10.1689 18.9362 10.0132 19.1471 9.81977 19.32C9.38045 19.6804 8.83726 19.8907 8.26977 19.92H8.08977C7.49431 19.9096 6.91987 19.6981 6.45977 19.32C6.26578 19.1482 6.11027 18.9373 6.00342 18.7012C5.89658 18.4651 5.84081 18.2091 5.83977 17.95C5.8194 17.5561 5.92825 17.1663 6.14977 16.84C6.21118 16.7494 6.27797 16.6626 6.34977 16.58C6.34977 16.58 6.39977 16.51 6.39977 16.23C6.39011 16.1058 6.337 15.9889 6.24977 15.9H3.50977V27.08C3.50976 27.423 3.64535 27.7522 3.88699 27.9957C4.12862 28.2392 4.45672 28.3774 4.79977 28.38H14.9298V24.61Z" fill="white"/>
</g>
<defs>
<clipPath id="clip0_2514_2774">
<rect width="34.08" height="35.52" fill="white"/>
</clipPath>
</defs>
</svg>
