<svg width="66" height="70" viewBox="0 0 66 70" fill="none" xmlns="http://www.w3.org/2000/svg">
<g clip-path="url(#clip0_2514_3112)">
<path d="M33.6399 28.65H57.2699C60.3799 28.65 63.8699 32.25 64.1099 35.31V61.03C63.8657 62.8473 62.9985 64.5235 61.6563 65.7727C60.3141 67.0219 58.58 67.7667 56.7499 67.88H24.3199C22.2863 67.8261 20.352 66.9888 18.921 65.5429C17.49 64.0969 16.6727 62.1541 16.6399 60.12C16.1999 52.38 16.9899 44.22 16.6399 36.43C16.6623 34.4003 17.4691 32.4579 18.8913 31.0095C20.3135 29.5612 22.2409 28.7193 24.2699 28.66C24.1299 25.11 24.4499 21.43 24.2699 17.9C23.9999 12.44 18.9599 8.75 13.9799 11.73C9.56994 14.37 11.1599 18.29 10.7799 22.43C10.6899 23.35 10.3899 24.02 9.38994 24.13C7.19267 24.285 4.98721 24.285 2.78994 24.13C2.45407 24.1533 2.12087 24.0564 1.84979 23.8568C1.5787 23.6571 1.38738 23.3676 1.30994 23.04C1.21994 17.78 0.879938 13.27 3.83994 8.69C12.2699 -4.31 32.2299 0.809999 33.6399 16.04V28.65ZM36.6399 39.91C35.6993 40.8592 35.1495 42.127 35.0995 43.4624C35.0495 44.7977 35.5029 46.1031 36.3699 47.12C36.6199 47.43 37.3699 47.9 37.3699 48.2L35.1199 56.94C35.1899 57.0596 35.2937 57.1557 35.4183 57.2162C35.5429 57.2768 35.6827 57.299 35.8199 57.28C38.8199 57.07 42.0799 57.54 44.9899 57.28C45.7299 57.22 45.7199 57.01 45.6299 56.28L43.4299 48.01C44.4742 47.2626 45.2179 46.1675 45.5276 44.9213C45.8373 43.6751 45.6928 42.3593 45.1199 41.21C44.7313 40.4745 44.1759 39.8402 43.4981 39.3578C42.8204 38.8754 42.0392 38.5583 41.2169 38.432C40.3947 38.3057 39.5543 38.3735 38.763 38.6302C37.9717 38.8868 37.2515 39.3251 36.6599 39.91H36.6399Z" stroke="#95C11F" stroke-width="2.5" stroke-linecap="round" stroke-linejoin="round"/>
</g>
<defs>
<clipPath id="clip0_2514_3112">
<rect width="65.37" height="69.14" fill="white"/>
</clipPath>
</defs>
</svg>
