<svg width="48" height="48" viewBox="0 0 48 48" fill="none" xmlns="http://www.w3.org/2000/svg">
<path d="M21.2319 37.0946C21.724 37.7277 22.3126 38.2794 22.9761 38.7297C23.2959 39.0313 23.7143 39.2068 24.1536 39.2235C24.5929 39.2402 25.0234 39.097 25.3652 38.8205C27.0185 37.7123 28.8172 36.8402 30.5341 35.85C31.9267 34.979 33.3639 34.1815 34.84 33.4609C36.2026 32.8614 36.2571 30.7357 35.5122 29.7819C34.5871 28.7428 33.5514 27.8076 32.4236 26.993C29.7529 24.6584 27.1184 22.2693 24.4114 19.971C23.9027 19.535 23.3758 19.0626 22.7762 19.3624C22.3995 19.5231 22.08 19.7937 21.8596 20.139C21.6392 20.4842 21.5281 20.8879 21.5408 21.2973C21.5258 21.9679 21.3624 22.6269 21.0624 23.2269C20.7624 23.8269 20.3333 24.353 19.8058 24.7674C19.6401 24.921 19.441 25.0338 19.2242 25.097C19.0073 25.1602 18.7787 25.1719 18.5565 25.1314C18.3344 25.0908 18.1247 24.999 17.9442 24.8633C17.7637 24.7276 17.6172 24.5517 17.5165 24.3495C17.4084 24.1495 17.3792 23.9161 17.4348 23.6955C17.7546 22.7504 17.8111 21.7361 17.5983 20.7613C17.4282 20.0042 17.4772 19.2144 17.7394 18.4841C18.0016 17.7538 18.4662 17.1132 19.079 16.6371C20.1945 15.6235 21.3815 14.6914 22.6309 13.8483C23.7402 13.2433 25.0317 13.0625 26.2645 13.3396C28.6355 13.603 30.9156 14.4478 33.3502 14.3479C34.0405 14.3479 34.6492 14.0482 35.3123 13.9937" stroke="white" stroke-width="1.5" stroke-linecap="round" stroke-linejoin="round"/>
<path d="M39.6465 10.5059C40.3155 11.9119 40.8596 13.374 41.2725 14.8753C42.3444 17.9912 43.4709 21.0888 44.4792 24.2229C44.5515 24.6311 44.6485 25.0346 44.7699 25.4311" stroke="white" stroke-width="1.5" stroke-linecap="round" stroke-linejoin="round"/>
<path d="M3.25391 25.2151C4.22064 25.4111 5.14393 25.7804 5.97914 26.3052C6.88756 26.6958 7.85956 27.0773 8.70438 26.0962C8.8043 25.9872 8.95873 25.9872 9.04049 25.7692C10.3759 22.0447 12.0746 18.5019 13.7097 14.8683C14.4001 13.3694 14.3456 12.2157 13.2555 11.7524C12.2732 11.2358 11.2376 10.8276 10.1669 10.5352C9.18582 11.5889 8.87696 13.0424 8.28649 14.3323C6.74219 17.7207 5.27965 21.1545 3.74443 24.561C3.68653 24.7373 3.65293 24.9207 3.64452 25.1061" stroke="white" stroke-width="1.5" stroke-linecap="round" stroke-linejoin="round"/>
<path d="M39.8905 9.96094C39.2274 10.724 38.2463 10.7603 37.3833 11.0329C35.8571 11.5325 34.7852 12.7952 35.3575 13.8671C36.125 15.5677 36.7656 17.3227 37.2743 19.1177C38.1231 21.1833 38.8184 23.3087 39.3545 25.4766C39.548 25.9308 39.8892 26.3063 40.3229 26.5421C40.7566 26.7779 41.2573 26.8602 41.7437 26.7756C42.5942 26.5426 43.4238 26.2388 44.2236 25.8672C44.4272 25.7572 44.6529 25.6945 44.8841 25.6834C45.1152 25.6724 45.3458 25.7135 45.559 25.8036" stroke="white" stroke-width="1.5" stroke-linecap="round" stroke-linejoin="round"/>
<path d="M14.2646 14.2129C15.491 14.7761 16.7719 15.2122 17.9801 15.8117C18.3694 15.9878 18.7306 16.2205 19.052 16.5021" stroke="white" stroke-width="1.5" stroke-linecap="round" stroke-linejoin="round"/>
<path d="M18.2885 29.6836C16.9895 31.2097 15.4543 32.5178 14.1553 34.044" stroke="white" stroke-width="1.5" stroke-linecap="round" stroke-linejoin="round"/>
<path d="M39.2093 25.6484C37.6577 26.5275 36.1675 27.5108 34.749 28.5917" stroke="white" stroke-width="1.5" stroke-linecap="round" stroke-linejoin="round"/>
<path d="M14.5915 28.2927L13.8284 27.5296C12.7384 26.4758 11.7391 26.5122 10.6672 27.6386C9.59524 28.765 9.48623 29.9823 10.5582 31.0179C12.9019 33.2526 15.3092 35.4146 17.6347 37.6675C17.9059 37.9264 18.2505 38.095 18.6213 38.1503C18.9921 38.2056 19.371 38.1449 19.7059 37.9763C20.1991 37.7762 20.6408 37.4671 20.9979 37.0723C21.355 36.6775 21.6182 36.2071 21.768 35.6962C21.8208 35.4276 21.8079 35.1502 21.7304 34.8876C21.6529 34.6251 21.5131 34.3851 21.3228 34.1883C21.0272 33.7564 20.6187 33.4139 20.1419 33.1981" stroke="white" stroke-width="1.5" stroke-linecap="round" stroke-linejoin="round"/>
<path d="M28.7539 29.573C29.1718 29.573 29.5897 29.473 29.9621 29.8909C31.1612 31.2354 32.6873 32.2528 33.8774 33.6063" stroke="white" stroke-width="1.5" stroke-linecap="round" stroke-linejoin="round"/>
<path d="M16.7628 36.5524C17.5077 35.317 18.725 34.5085 19.6152 33.4002C19.8811 33.0194 20.0312 32.5698 20.0473 32.1056C20.0635 31.6413 19.9449 31.1824 19.706 30.784C19.0157 30.0118 18.2344 29.3487 17.5077 28.622C17.2745 28.4063 16.9989 28.2417 16.6984 28.1387C16.398 28.0358 16.0793 27.9967 15.7629 28.0241C15.4464 28.0515 15.1392 28.1447 14.8608 28.2977C14.5825 28.4507 14.3392 28.6602 14.1466 28.9127C13.2382 29.8211 12.5296 30.784 11.6484 31.6379" stroke="white" stroke-width="1.5" stroke-linecap="round" stroke-linejoin="round"/>
<path d="M27.3359 32.7344C28.4533 33.6428 29.498 34.6784 30.5517 35.6776" stroke="white" stroke-width="1.5" stroke-linecap="round" stroke-linejoin="round"/>
<path d="M24.8291 35.8984C25.9283 36.0165 26.2281 37.1248 27.0093 37.6426" stroke="white" stroke-width="1.5" stroke-linecap="round" stroke-linejoin="round"/>
</svg>
