<svg width="130" height="32" viewBox="0 0 130 32" fill="none" xmlns="http://www.w3.org/2000/svg">
<g clip-path="url(#clip0_1830_4854)">
<path d="M39.7364 6.54988C39.6164 6.37354 39.2438 5.98307 39.7364 5.64928C40.229 5.31549 40.6837 5.21472 40.8037 5.39106L43.2793 8.9998C43.4119 9.18874 43.1277 9.59181 42.6477 9.91301C42.1678 10.2342 41.6941 10.3476 41.5678 10.1586L39.7301 6.54988H39.7364Z" fill="#01351F"/>
<path d="M39.4258 13.5595C39.4258 10.0012 42.3561 7.19226 46.2021 7.19226C50.0481 7.19226 52.9594 10.0075 52.9594 13.5595C52.9594 17.1116 50.0607 19.9205 46.2021 19.9205C42.3434 19.9205 39.4258 17.1368 39.4258 13.5595ZM50.8817 13.5595C50.8993 12.6312 50.6391 11.7187 50.1345 10.9384C49.6298 10.1581 48.9035 9.54544 48.0482 9.17855C47.1929 8.81166 46.2474 8.70718 45.3323 8.87843C44.4172 9.04969 43.5741 9.48891 42.9103 10.1401C42.2466 10.7912 41.7925 11.6248 41.6058 12.5345C41.4191 13.4441 41.5084 14.3886 41.8623 15.2474C42.2162 16.1063 42.8186 16.8405 43.5926 17.3565C44.3667 17.8725 45.2773 18.1468 46.2084 18.1444C46.8187 18.1553 47.4251 18.0447 47.9921 17.8191C48.559 17.5935 49.0752 17.2574 49.5103 16.8305C49.9455 16.4036 50.2909 15.8944 50.5264 15.3327C50.7618 14.7711 50.8826 14.1683 50.8817 13.5595Z" fill="#01351F"/>
<path d="M2.05247 17.7792V18.6735C2.03219 18.931 1.91528 19.1715 1.72506 19.3469C1.53484 19.5223 1.2853 19.6197 1.02623 19.6197C0.767168 19.6197 0.51763 19.5223 0.327409 19.3469C0.137189 19.1715 0.020276 18.931 0 18.6735V3.4198C0.020276 3.16223 0.137189 2.92177 0.327409 2.74638C0.51763 2.57099 0.767168 2.47357 1.02623 2.47357C1.2853 2.47357 1.53484 2.57099 1.72506 2.74638C1.91528 2.92177 2.03219 3.16223 2.05247 3.4198V8.89904C3.33835 7.6603 5.06445 6.98081 6.85208 7.00965C7.71358 6.97141 8.57393 7.1076 9.38121 7.41003C10.1885 7.71245 10.926 8.17482 11.5492 8.76926C12.1724 9.36369 12.6683 10.0779 13.0072 10.8687C13.346 11.6595 13.5207 12.5106 13.5207 13.3706C13.5207 14.2306 13.346 15.0817 13.0072 15.8725C12.6683 16.6633 12.1724 17.3775 11.5492 17.9719C10.926 18.5664 10.1885 19.0287 9.38121 19.3312C8.57393 19.6336 7.71358 19.7698 6.85208 19.7316C5.96164 19.7439 5.07782 19.5773 4.25326 19.2419C3.42869 18.9065 2.68024 18.4091 2.05247 17.7792ZM11.4243 13.3706C11.4245 12.7599 11.3023 12.1554 11.065 11.5924C10.8276 11.0295 10.4799 10.5195 10.0422 10.0924C9.60455 9.66532 9.08572 9.32972 8.51621 9.10533C7.9467 8.88093 7.33798 8.77225 6.72577 8.78567C6.12838 8.76806 5.53338 8.86823 4.9749 9.08045C4.41642 9.29266 3.90543 9.61274 3.47126 10.0223C3.03708 10.4319 2.68826 10.9229 2.44479 11.4672C2.20132 12.0116 2.068 12.5984 2.05247 13.1943V13.5595C2.09045 14.7607 2.60302 15.8981 3.47842 16.7239C4.35383 17.5497 5.5211 17.997 6.72577 17.9681C7.34319 17.9816 7.95706 17.8717 8.53124 17.6449C9.10542 17.4182 9.6283 17.0791 10.0691 16.6477C10.5099 16.2164 10.8596 15.7014 11.0978 15.1332C11.336 14.565 11.4577 13.955 11.4559 13.3391L11.4243 13.3706Z" fill="#01351F"/>
<path d="M14.6133 13.5595C14.6133 10.0012 17.5436 7.19226 21.3896 7.19226C25.2356 7.19226 28.1469 10.0075 28.1469 13.5595C28.1469 17.1116 25.2419 19.9205 21.3896 19.9205C17.5373 19.9205 14.6133 17.1368 14.6133 13.5595ZM26.0629 13.5595C26.0804 12.6312 25.8203 11.7187 25.3156 10.9384C24.811 10.1581 24.0847 9.54544 23.2294 9.17855C22.3741 8.81166 21.4286 8.70718 20.5135 8.87843C19.5984 9.04969 18.7552 9.48891 18.0915 10.1401C17.4278 10.7912 16.9736 11.6248 16.787 12.5345C16.6003 13.4441 16.6896 14.3886 17.0435 15.2474C17.3973 16.1063 17.9997 16.8405 18.7738 17.3565C19.5479 17.8725 20.4585 18.1468 21.3896 18.1444C21.9983 18.1528 22.6027 18.0403 23.1674 17.8136C23.7322 17.5868 24.2461 17.2503 24.6792 16.8236C25.1123 16.397 25.456 15.8887 25.6903 15.3283C25.9246 14.7679 26.0448 14.1667 26.0439 13.5595H26.0629Z" fill="#01351F"/>
<path d="M35.3281 8.22516C35.3281 7.95457 35.4359 7.69506 35.6278 7.50373C35.8196 7.31239 36.0799 7.2049 36.3512 7.2049C36.6225 7.2049 36.8828 7.31239 37.0746 7.50373C37.2665 7.69506 37.3743 7.95457 37.3743 8.22516V18.9317C37.3743 19.2023 37.2665 19.4618 37.0746 19.6532C36.8828 19.8445 36.6225 19.952 36.3512 19.952C36.0799 19.952 35.8196 19.8445 35.6278 19.6532C35.4359 19.4618 35.3281 19.2023 35.3281 18.9317V8.22516Z" fill="#01351F"/>
<path d="M55.0312 11.0781C55.0312 8.07401 57.1406 6.41765 59.7614 6.41765C61.4286 6.41765 62.7422 6.99076 63.4874 8.16849C63.9012 7.58549 64.4583 7.1183 65.1053 6.81172C65.7522 6.50513 66.4672 6.36944 67.1818 6.41765C69.8279 6.41765 71.9373 8.07401 71.9373 11.0781V18.113C71.917 18.3705 71.8001 18.611 71.6098 18.7864C71.4196 18.9618 71.1701 19.0592 70.911 19.0592C70.652 19.0592 70.4024 18.9618 70.2122 18.7864C70.022 18.611 69.9051 18.3705 69.8848 18.113V11.0404C69.8848 9.15097 68.7038 8.18108 67.1882 8.18108C65.6725 8.18108 64.5042 9.15097 64.5042 11.0404V18.1004C64.4839 18.358 64.367 18.5984 64.1768 18.7738C63.9865 18.9492 63.737 19.0466 63.4779 19.0466C63.2189 19.0466 62.9693 18.9492 62.7791 18.7738C62.5889 18.5984 62.472 18.358 62.4517 18.1004V11.0404C62.4517 9.15097 61.2707 8.18108 59.7551 8.18108C58.2394 8.18108 57.0837 9.14467 57.0837 11.0404V18.1004C57.0634 18.358 56.9465 18.5984 56.7563 18.7738C56.5661 18.9492 56.3165 19.0466 56.0575 19.0466C55.7984 19.0466 55.5489 18.9492 55.3587 18.7738C55.1684 18.5984 55.0515 18.358 55.0312 18.1004V11.0781Z" fill="#01351F"/>
<path d="M85.2562 17.225C84.6233 17.8457 83.8732 18.3351 83.0493 18.6648C82.2255 18.9945 81.3442 19.158 80.4566 19.1458C79.6017 19.1727 78.7501 19.0279 77.9523 18.7201C77.1546 18.4124 76.427 17.9479 75.8127 17.3543C75.1984 16.7607 74.71 16.05 74.3765 15.2646C74.043 14.4791 73.8711 13.6348 73.8711 12.7817C73.8711 11.9287 74.043 11.0844 74.3765 10.2989C74.71 9.51343 75.1984 8.80278 75.8127 8.20917C76.427 7.61556 77.1546 7.15109 77.9523 6.84333C78.7501 6.53558 79.6017 6.39081 80.4566 6.41764C82.2489 6.40303 83.9742 7.09579 85.2562 8.34482V7.43161C85.2765 7.17405 85.3934 6.93358 85.5836 6.75819C85.7739 6.5828 86.0234 6.48539 86.2825 6.48539C86.5415 6.48539 86.7911 6.5828 86.9813 6.75819C87.1715 6.93358 87.2884 7.17405 87.3087 7.43161V18.1382C87.2884 18.3957 87.1715 18.6362 86.9813 18.8116C86.7911 18.987 86.5415 19.0844 86.2825 19.0844C86.0234 19.0844 85.7739 18.987 85.5836 18.8116C85.3934 18.6362 85.2765 18.3957 85.2562 18.1382V17.225ZM85.2562 12.9738V12.5897C85.2102 11.3913 84.6951 10.2586 83.8215 9.43451C82.9479 8.61039 81.7853 8.16043 80.5829 8.18107C79.972 8.17442 79.3658 8.28795 78.7989 8.51516C78.232 8.74238 77.7156 9.07881 77.2792 9.50524C76.8428 9.93166 76.495 10.4397 76.2556 11.0003C76.0163 11.5609 75.8901 12.163 75.8844 12.7723C75.9176 13.9742 76.4135 15.1172 77.2691 15.9642C78.1248 16.8113 79.2746 17.2974 80.48 17.3217C81.6854 17.346 82.8539 16.9066 83.7432 16.0948C84.6325 15.2829 85.1743 14.1608 85.2562 12.9612V12.9738Z" fill="#01351F"/>
<path d="M89.0512 7.54499C89.0595 7.3022 89.1637 7.07253 89.3412 6.90615C89.5187 6.73976 89.755 6.65018 89.9985 6.65697H91.3626V4.49677C91.3626 4.22618 91.4704 3.96667 91.6623 3.77533C91.8541 3.58399 92.1144 3.4765 92.3857 3.4765C92.657 3.4765 92.9173 3.58399 93.1091 3.77533C93.301 3.96667 93.4088 4.22618 93.4088 4.49677V6.63178H96.8001C96.9237 6.62141 97.0482 6.63674 97.1656 6.67681C97.2831 6.71689 97.3909 6.78083 97.4822 6.86459C97.5736 6.94836 97.6465 7.05012 97.6964 7.16344C97.7463 7.27677 97.772 7.39918 97.772 7.52294C97.772 7.6467 97.7463 7.76913 97.6964 7.88245C97.6465 7.99577 97.5736 8.09754 97.4822 8.1813C97.3909 8.26506 97.2831 8.329 97.1656 8.36908C97.0482 8.40915 96.9237 8.42449 96.8001 8.41411H93.4088V13.8367C93.4088 16.0724 94.7729 17.2691 96.8001 17.2691C96.9255 17.2586 97.0516 17.2742 97.1706 17.3149C97.2896 17.3556 97.3989 17.4204 97.4915 17.5054C97.5841 17.5903 97.658 17.6935 97.7085 17.8084C97.7591 17.9233 97.7852 18.0474 97.7852 18.1728C97.7852 18.2983 97.7591 18.4224 97.7085 18.5373C97.658 18.6521 97.5841 18.7553 97.4915 18.8403C97.3989 18.9252 97.2896 18.9901 97.1706 19.0307C97.0516 19.0714 96.9255 19.087 96.8001 19.0766C93.6424 19.0766 91.3563 17.0549 91.3563 13.8367V8.41411H89.9985C89.7543 8.41765 89.5182 8.32631 89.3402 8.15942C89.1623 7.99252 89.0564 7.76315 89.0449 7.5198L89.0512 7.54499Z" fill="#01351F"/>
<path d="M97.9238 12.7849C97.9238 9.22655 100.854 6.41765 104.7 6.41765C105.633 6.39558 106.56 6.5679 107.423 6.9236C108.285 7.2793 109.063 7.81056 109.708 8.48339C109.886 8.66565 109.996 8.90375 110.018 9.15727C110.013 9.2846 109.982 9.40965 109.927 9.52459C109.872 9.63952 109.794 9.74187 109.697 9.82522C109.601 9.90858 109.488 9.97115 109.366 10.009C109.244 10.0469 109.115 10.0592 108.988 10.0453C108.657 10.0208 108.347 9.87499 108.117 9.63592C107.484 8.96668 106.665 8.50228 105.765 8.30289C104.864 8.10351 103.925 8.17831 103.068 8.51763C102.211 8.85695 101.475 9.44513 100.957 10.206C100.439 10.9668 100.163 11.8653 100.163 12.7849C100.163 13.7045 100.439 14.603 100.957 15.3638C101.475 16.1247 102.211 16.7129 103.068 17.0522C103.925 17.3915 104.864 17.4663 105.765 17.2669C106.665 17.0675 107.484 16.6031 108.117 15.9339C108.341 15.6835 108.653 15.528 108.988 15.4993C109.117 15.4881 109.246 15.5032 109.369 15.5437C109.491 15.5841 109.604 15.6491 109.7 15.7346C109.797 15.8201 109.875 15.9243 109.929 16.0409C109.984 16.1575 110.014 16.2839 110.018 16.4125C109.987 16.6507 109.878 16.8721 109.708 17.0423C109.067 17.721 108.289 18.2577 107.427 18.6179C106.564 18.9781 105.635 19.1537 104.7 19.1333C100.848 19.1459 97.9238 16.337 97.9238 12.7849Z" fill="#01351F"/>
<path d="M111.238 2.85296C111.259 2.5954 111.375 2.35494 111.566 2.17955C111.756 2.00416 112.005 1.90674 112.265 1.90674C112.524 1.90674 112.773 2.00416 112.963 2.17955C113.154 2.35494 113.27 2.5954 113.291 2.85296V7.89134C113.799 7.4038 114.398 7.02101 115.055 6.76488C115.712 6.50876 116.413 6.38433 117.118 6.39872C120.124 6.39872 122.511 8.46446 122.511 11.9472V18.0941C122.491 18.3516 122.374 18.5921 122.184 18.7675C121.993 18.9429 121.744 19.0403 121.485 19.0403C121.226 19.0403 120.976 18.9429 120.786 18.7675C120.596 18.5921 120.479 18.3516 120.459 18.0941V11.922C120.459 9.44694 118.867 8.19994 116.859 8.19994C114.851 8.19994 113.291 9.42174 113.291 11.922V18.1129C113.27 18.3705 113.154 18.611 112.963 18.7864C112.773 18.9618 112.524 19.0592 112.265 19.0592C112.005 19.0592 111.756 18.9618 111.566 18.7864C111.375 18.611 111.259 18.3705 111.238 18.1129V2.85296Z" fill="#01351F"/>
<path d="M39.4258 25.639C39.4258 22.087 42.3561 19.2781 46.2021 19.2781C50.0481 19.2781 52.9594 22.087 52.9594 25.639C52.9594 29.1911 50.0607 32.0063 46.2021 32.0063C42.3434 32.0063 39.4258 29.1911 39.4258 25.639ZM50.8817 25.639C50.898 24.7109 50.6368 23.799 50.1313 23.0196C49.6259 22.2401 48.8991 21.6284 48.0437 21.2625C47.1883 20.8966 46.243 20.793 45.3283 20.965C44.4136 21.137 43.571 21.5767 42.9079 22.2281C42.2448 22.8796 41.7913 23.7132 41.6052 24.6227C41.4191 25.5322 41.5088 26.4763 41.8628 27.3348C42.2169 28.1933 42.8193 28.9271 43.5933 29.4428C44.3672 29.9585 45.2776 30.2326 46.2084 30.2303C46.8195 30.242 47.4268 30.1318 47.9945 29.9061C48.5623 29.6804 49.0791 29.3438 49.5145 28.916C49.9499 28.4882 50.2952 27.978 50.53 27.4152C50.7647 26.8525 50.8843 26.2485 50.8817 25.639Z" fill="#01351F"/>
<path d="M29.9922 3.6654C30.0125 3.40784 30.1294 3.16737 30.3196 2.99198C30.5098 2.81659 30.7594 2.71918 31.0184 2.71918C31.2775 2.71918 31.527 2.81659 31.7172 2.99198C31.9075 3.16737 32.0244 3.40784 32.0447 3.6654V18.9128C32.0244 19.1704 31.9075 19.4108 31.7172 19.5862C31.527 19.7616 31.2775 19.859 31.0184 19.859C30.7594 19.859 30.5098 19.7616 30.3196 19.5862C30.1294 19.4108 30.0125 19.1704 29.9922 18.9128V3.6654Z" fill="#01351F"/>
<path d="M125.762 8.24403C125.645 8.24249 125.53 8.2122 125.427 8.15586C125.314 8.09918 125.263 7.94173 125.263 7.69611V4.70458H122.289C122.147 4.71242 122.007 4.67248 121.891 4.59121C121.835 4.54337 121.792 4.48298 121.764 4.41506C121.737 4.34714 121.726 4.27366 121.733 4.20074C121.723 4.13259 121.73 4.06313 121.752 3.99792C121.774 3.93271 121.811 3.87355 121.86 3.82519C121.909 3.77683 121.969 3.74061 122.035 3.71942C122.1 3.69824 122.17 3.69269 122.238 3.7032H125.288V0.711663C125.288 0.459744 125.339 0.308589 125.453 0.245609C125.556 0.18767 125.672 0.157227 125.79 0.157227C125.909 0.157227 126.025 0.18767 126.128 0.245609C126.236 0.308589 126.293 0.459744 126.293 0.711663V3.7032H129.292C129.433 3.69753 129.572 3.7349 129.69 3.81026C129.744 3.85905 129.786 3.91977 129.812 3.98757C129.839 4.05537 129.849 4.12837 129.842 4.20074C129.849 4.27314 129.839 4.3463 129.813 4.41418C129.787 4.48207 129.745 4.54274 129.69 4.59121C129.574 4.67248 129.434 4.71242 129.292 4.70458H126.293V7.69611C126.293 7.94173 126.236 8.09918 126.128 8.15586C126.016 8.21716 125.89 8.24759 125.762 8.24403Z" fill="#01351F" stroke="#01351F" stroke-width="0.5" stroke-miterlimit="10"/>
</g>
<defs>
<clipPath id="clip0_1830_4854">
<rect width="130" height="32" fill="white"/>
</clipPath>
</defs>
</svg>
