<svg width="106" height="109" viewBox="0 0 106 109" fill="none" xmlns="http://www.w3.org/2000/svg">
<g clip-path="url(#clip0_398_3569)">
<path d="M65.8517 82.5102L72.2353 66.4947L73.7808 67.0691L78.4508 55.3447V51.0874L81.4074 48.114L83.7592 49.0601V53.2836L80.9034 56.3921L76.2334 68.0827L77.7453 68.6909L72.2353 82.5102H73.68L75.0239 79.1314L78.3836 82.5102H80.1643L78.2156 80.4829L91.453 67.1704C91.4071 66.7859 91.3052 66.4102 91.1506 66.0554C90.7496 64.3185 90.9712 62.495 91.7764 60.9064C92.5816 59.3177 93.9187 58.066 95.5519 57.3719C96.6127 56.8767 97.7756 56.6429 98.9442 56.6899C100.113 56.7369 101.253 57.0634 102.271 57.6422L97.0638 62.9131L103.783 69.6707C102.778 70.6228 101.524 71.268 100.168 71.5312C98.8114 71.7944 97.4088 71.6648 96.1231 71.1574L85.0359 82.3412H86.6486C86.6486 82.3412 86.8502 82.1385 86.9173 82.1385H96.6606V72.7792C98.4982 73.2106 100.424 73.0571 102.171 72.34V82.4764H103.985V91.1599C104.036 91.4959 104.036 91.8376 103.985 92.1735C103.985 95.5523 104.22 98.9311 103.985 102.31C103.829 103.764 103.179 105.12 102.145 106.148C101.11 107.176 99.7546 107.813 98.3069 107.953H55.7725C54.2409 107.821 52.8103 107.13 51.7515 106.009C50.6927 104.888 50.0793 103.416 50.0273 101.871V82.6791H51.7408V72.5427L54.4622 69.8059V68.7247L54.9662 69.2315C54.9662 69.2315 55.7725 68.353 55.9405 68.2517L57.1836 69.5694V82.6115H64.2727V82.8143L65.8517 82.5102Z" fill="#95C11F"/>
<path d="M69.2108 58.6559C68.8128 58.4305 68.397 58.2384 67.9677 58.0815C66.6769 57.4732 65.2139 57.3431 63.8369 57.714C62.46 58.0849 61.2575 58.9331 60.4419 60.1088C60.114 60.5997 59.8856 61.1508 59.7699 61.7306C59.7699 61.9334 60.2067 62.2374 60.3411 62.4064L59.3332 63.4538L68.4045 72.4752L66.7582 76.5973L56.679 66.1906L55.5703 67.2381L54.4951 66.1568L53.7896 66.8664V69.1302L50.1611 72.7455L45.4238 68.1841L49.0524 64.5688C49.7915 64.5688 50.5642 64.5688 51.3034 64.5688L52.0089 63.8593L51.001 62.8118C51.001 62.8118 51.9417 61.9671 51.9753 61.832C52.0089 61.6968 51.505 61.4265 51.5722 61.19L53.924 58.7911C54.1256 58.487 54.5623 59.1627 54.6295 59.1627L55.7047 58.0815L56.343 58.6221C57.4003 57.3267 58.7797 56.3358 60.3411 55.7502C61.593 55.1405 63.0023 54.9366 64.3743 55.1665C65.7464 55.3965 67.0137 56.049 68.0013 57.0341C68.0013 57.2368 69.3116 58.7911 69.1772 58.9262" fill="#95C11F"/>
<path d="M89.7056 63.2511C89.8736 63.2511 89.7056 63.6566 89.7056 63.7579C89.6837 64.7152 89.7968 65.6708 90.0416 66.5961C89.5712 67.1029 89.0672 67.5422 88.5969 68.0152H79.2904V67.6773L77.8457 67.1029L79.3912 63.116L89.7056 63.2511Z" fill="#95C11F"/>
<path d="M73.7803 63.251L73.0748 65.1769L71.4621 64.6363L70.0174 68.1502L65.5154 68.1164L60.7109 63.3523L60.7781 63.251H73.7803Z" fill="#95C11F"/>
<path d="M104.655 68.691L101.732 65.7853L105.63 61.8997C105.995 63.0256 106.097 64.221 105.928 65.3929C105.759 66.5649 105.323 67.682 104.655 68.6573" fill="#95C11F"/>
<path d="M96.7608 66.3596C96.8938 66.3369 97.0305 66.3596 97.1492 66.4241C97.2679 66.4886 97.3618 66.5912 97.4158 66.7154C97.4699 66.8397 97.4811 66.9787 97.4476 67.1101C97.4142 67.2415 97.3379 67.3579 97.2311 67.4408C96.6536 67.6464 96.0571 67.7936 95.4505 67.88C95.2901 67.88 95.1363 67.816 95.0229 67.7019C94.9094 67.5878 94.8457 67.4332 94.8457 67.2719C94.8457 67.1106 94.9094 66.9559 95.0229 66.8418C95.1363 66.7277 95.2901 66.6637 95.4505 66.6637C95.9353 66.5267 96.4294 66.4251 96.9288 66.3596" fill="#95C11F"/>
<path d="M95.2497 64.9404C95.5521 64.9404 95.8208 64.9404 95.9888 65.2107C96.1568 65.481 95.9888 65.9879 95.5521 66.123C95.0582 66.2697 94.5522 66.3715 94.0402 66.4271C93.9072 66.4353 93.7752 66.3991 93.6648 66.3241C93.5543 66.2491 93.4716 66.1395 93.4295 66.0124C93.3873 65.8852 93.3881 65.7477 93.4317 65.621C93.4753 65.4944 93.5593 65.3858 93.6706 65.3121C94.1862 65.1457 94.7143 65.0215 95.2497 64.9404Z" fill="#95C11F"/>
<path d="M98.3057 67.7788C98.4468 67.7632 98.5889 67.798 98.707 67.8772C98.8252 67.9563 98.9118 68.0748 98.9519 68.2117C98.992 68.3487 98.9828 68.4955 98.9261 68.6263C98.8694 68.7572 98.7687 68.8638 98.6416 68.9276C98.1128 69.0871 97.5741 69.2113 97.0289 69.2992C96.5586 69.2992 96.2226 69.1303 96.2562 68.6235C96.2898 68.1167 96.525 68.1504 96.8274 68.0829C97.3099 67.9364 97.8047 67.8346 98.3057 67.7788Z" fill="#95C11F"/>
<path d="M33.9326 66.0892C32.8575 67.3393 34.4365 94.0319 33.9326 98.6946C32.3871 111.635 12.7662 112.48 9.17125 100.823V66.4946C8.86888 65.3459 1.34304 66.4946 0.402314 59.737C-0.276179 52.4773 0.0176181 45.1587 1.27584 37.9776C5.27394 27.8412 19.2169 27.8412 28.1538 28.821C31.7266 29.0687 35.105 30.5487 37.7187 33.0109C40.3323 35.4732 42.0211 38.767 42.4999 42.3362C42.995 47.9566 42.995 53.6099 42.4999 59.2302C42.1262 61.2454 41.0529 63.0615 39.4715 64.3549C37.89 65.6482 35.9033 66.3347 33.8654 66.2919" fill="#95C11F"/>
<path d="M33.731 12.3326C33.7178 14.7688 32.9873 17.1465 31.6318 19.1657C30.2762 21.1849 28.3564 22.755 26.1145 23.6781C23.8726 24.6012 21.409 24.8358 19.0346 24.3523C16.6603 23.8689 14.4815 22.689 12.7732 20.9616C11.0649 19.2342 9.9036 17.0366 9.43585 14.6462C8.96809 12.2558 9.21484 9.77958 10.1449 7.53003C11.075 5.28047 12.6468 3.35835 14.662 2.00619C16.6772 0.654028 19.0454 -0.0675904 21.468 -0.067627C24.7203 -0.067627 27.8395 1.2317 30.1393 3.54451C32.4391 5.85733 33.731 8.99418 33.731 12.265" fill="#95C11F"/>
</g>
<defs>
<clipPath id="clip0_398_3569">
<rect width="106" height="109" fill="white"/>
</clipPath>
</defs>
</svg>
