<svg width="45" height="109" viewBox="0 0 45 109" fill="none" xmlns="http://www.w3.org/2000/svg">
<g clip-path="url(#clip0_398_3580)">
<path d="M35.5558 66.0893C34.4634 67.3056 36.0844 93.9982 35.5558 98.6609C33.9348 111.635 13.3553 112.446 9.58477 100.823V66.4609C9.26762 65.3121 1.37413 66.4609 0.422681 59.7033C-0.17638 55.6488 -0.105908 41.3903 1.33888 37.9439C5.53231 27.8075 20.1212 27.8075 29.53 28.7874C33.2836 29.0276 36.8353 30.5041 39.5838 32.9671C42.3323 35.43 44.1086 38.7279 44.6122 42.3025C45.1135 47.9236 45.1135 53.5755 44.6122 59.1965C44.2209 61.2148 43.0966 63.0349 41.4387 64.3339C39.7808 65.6328 37.6965 66.3266 35.5558 66.292" fill="#95C11F"/>
<path d="M35.3455 12.3326C35.3453 14.7775 34.5873 17.1672 33.1676 19.1981C31.748 21.229 29.7308 22.8095 27.3723 23.7388C25.0138 24.6681 22.4205 24.9043 19.9217 24.4174C17.4229 23.9305 15.1314 22.7425 13.3384 21.0042C11.5453 19.2659 10.3316 17.0558 9.8513 14.6547C9.37104 12.2535 9.64596 9.76973 10.6411 7.51873C11.6363 5.26773 13.3068 3.35114 15.4404 2.01241C17.574 0.673674 20.0745 -0.0267848 22.6242 8.46799e-06C26.0355 8.46799e-06 29.307 1.29932 31.7192 3.61214C34.1313 5.92495 35.4864 9.0618 35.4864 12.3326" fill="#95C11F"/>
</g>
<defs>
<clipPath id="clip0_398_3580">
<rect width="45" height="109" fill="white"/>
</clipPath>
</defs>
</svg>
