<svg width="60" height="60" viewBox="0 0 60 60" fill="none" xmlns="http://www.w3.org/2000/svg">
<path d="M29.8278 56.1984L29.7378 59.6684M27.9778 56.0184L27.7178 59.4784M26.2078 55.8084L25.7678 59.2584M24.5778 55.5384L23.9678 58.9584M23.0578 55.1884L22.0578 58.5284M21.4178 54.7184L20.3078 58.0084M19.9178 54.1484L18.6478 57.3784M18.4078 53.4784L16.9778 56.6484M16.9778 52.7584L15.2478 55.7584M15.5578 51.8984L13.6878 54.8184M14.1978 50.9584L12.1978 53.7884M12.9778 49.9984L10.7178 52.6284M11.7178 48.9084L9.31781 51.4184M10.5478 47.7384L8.03781 50.1384M9.48781 46.5384L6.91781 48.7784M8.57781 45.2584L5.74781 47.2584M7.64781 43.8784L4.72781 45.7584M6.79781 42.4584L3.79781 44.1884M6.08781 41.0684L2.91781 42.5384M5.41781 39.5384L2.13781 40.8384M4.79781 38.0084L1.50781 39.1184M4.32781 36.4284L0.987812 37.4284M3.98781 34.9484L0.557812 35.5384M3.71781 33.2984L0.267813 33.7284M3.54781 31.6584L0.0878124 31.9184M3.47781 30.0084L0.0078125 30.0884M3.50781 28.4484L0.0478115 28.1784M3.64781 26.7984L0.197813 26.3584M3.91781 25.1484L0.467812 24.5384M4.21781 23.5384L0.837812 22.7584M4.65781 21.9484L1.31781 20.9984M5.16781 20.4684L1.91781 19.1884M5.78781 18.9384L2.63781 17.5384M6.52781 17.4884L3.43781 15.9084M7.30781 16.1184L4.37781 14.2484M8.21781 14.7384L5.38781 12.7384M9.20781 13.4284L6.47781 11.2784M10.2678 12.1584L7.64781 9.83842M11.3678 10.9784L8.96781 8.46842M12.5778 9.85842L10.3078 7.23842M13.9178 8.81842L11.7178 6.08842M15.1378 7.89842L13.2678 4.97842M16.5478 7.02843L14.8178 4.02843M17.9978 6.24842L16.4178 3.14842M19.4978 5.53842L18.0678 2.37842M20.9178 4.97842L19.8078 1.68842M22.4878 4.47842L21.4878 1.12842M24.0378 4.06842L23.2578 0.688423M25.6678 3.75842L25.0478 0.338423M27.3078 3.53842L27.0378 0.0684242M28.9178 3.47842V0.00842285M30.6478 3.47842L30.7378 0.00842285M32.2478 3.53842L32.5078 0.0684242M33.7978 3.71842L34.4078 0.298424M35.4078 4.02843L36.1878 0.648424M37.0078 4.43843L38.0078 1.08842M38.6378 4.93843L39.7478 1.64842M40.0578 5.53842L41.4878 2.37842M41.5478 6.23842L43.1378 3.14842M43.0078 7.02843L44.7378 4.02843M44.4078 7.90842L46.2878 4.98842M45.6878 8.82842L47.8278 6.09842M46.9678 9.86843L49.2478 7.24842M48.1878 10.9884L50.5878 8.47842M49.2778 12.1184L51.9178 9.83842M50.3578 13.3784L53.0878 11.2284M51.3478 14.6984L54.1778 12.6984M52.2578 16.0884L55.1778 14.2184M53.0178 17.4484L56.1078 15.8684M53.7478 18.9384L56.9178 17.5384M54.3878 20.5384L57.6178 19.2684M54.9178 21.9384L58.2578 20.9884M55.3278 23.5384L58.7178 22.7584M55.7178 25.1584L59.0878 24.5384M55.9178 26.7784L59.3578 26.3384M56.0578 28.4284L59.5178 28.1584M56.0778 29.9884L59.5578 30.0684M56.0078 31.6384L59.4678 31.8984M55.8378 33.2784L59.2778 33.7084M55.5678 34.8984L58.9878 35.5184M55.2178 36.4284L58.5678 37.4284M54.7478 38.0584L58.0378 39.1684M54.1778 39.5384L57.4178 40.8384M53.5178 41.0784L56.6878 42.5384M52.7978 42.5384L55.7978 44.2684M51.9178 43.8884L54.9178 45.7684M51.0578 45.2584L53.8878 47.2584M50.0578 46.5384L52.6878 48.8184M48.9678 47.8184L51.4778 50.2184M47.7978 48.9884L50.1878 51.4984M46.5578 50.0884L48.8278 52.7084M45.3178 50.9684L47.3178 53.7984M43.9178 51.9084L45.7978 54.8284M42.5078 52.7584L44.2378 55.7584M41.1078 53.4684L42.5478 56.6384M39.5478 54.1384L40.9178 57.3784M38.0978 54.7184L39.2078 58.0084M36.5178 55.1884L37.5178 58.5284M35.0478 55.5284L35.6578 58.9484M33.2978 55.8884L33.7378 59.3284M31.6578 56.0584L31.8478 59.5384" stroke="#95C11F" stroke-width="0.65"/>
</svg>
