<svg width="300" height="298" viewBox="0 0 300 298" fill="none" xmlns="http://www.w3.org/2000/svg">
<path d="M150.139 1.67477C149.322 -0.637474 146.416 -0.477611 145.543 1.67477C143.715 6.1839 144.385 11.6818 144.334 16.5041C144.275 22.012 144.064 27.6039 144.734 33.0755C145.194 36.8182 150.348 36.9254 150.699 33.0755C151.2 27.5923 150.902 22.0103 150.907 16.5041C150.91 11.6209 151.775 6.3108 150.139 1.67477Z" fill="#95C11F"/>
<path d="M173.338 3.5057C172.897 1.09457 170.001 0.802854 168.799 2.79373C166.28 6.96335 166.074 12.4992 165.262 17.2539C164.336 22.6843 163.243 28.1757 163.042 33.6835C162.904 37.4527 167.979 38.3559 168.933 34.6082C170.294 29.27 170.881 23.7111 171.754 18.2741C172.53 13.4485 174.223 8.33785 173.338 3.5057Z" fill="#95C11F"/>
<path d="M195.962 8.9096C195.907 6.46057 193.093 5.72222 191.591 7.50214C188.445 11.2301 187.367 16.6654 185.816 21.2355C184.042 26.455 182.096 31.709 181.029 37.118C180.297 40.8195 185.167 42.499 186.7 38.9441C188.886 33.8828 190.345 28.4821 192.066 23.2479C193.593 18.6052 196.073 13.8192 195.962 8.9096Z" fill="#95C11F"/>
<path d="M217.454 17.7536C217.787 15.326 215.124 14.1608 213.359 15.687C209.665 18.8809 207.742 24.0822 205.486 28.3573C202.911 33.2389 200.16 38.1254 198.251 43.302C196.943 46.8437 201.488 49.2581 203.565 45.9851C206.524 41.3243 208.816 36.217 211.343 31.314C213.585 26.9631 216.789 22.6203 217.454 17.7536Z" fill="#95C11F"/>
<path d="M237.285 29.8208C237.997 27.474 235.55 25.9115 233.568 27.1443C229.414 29.7268 226.693 34.5656 223.792 38.4386C220.479 42.8604 216.989 47.2607 214.286 52.0781C212.437 55.3742 216.543 58.461 219.112 55.5521C222.769 51.4072 225.84 46.7185 229.11 42.2671C232.009 38.3166 235.86 34.5244 237.285 29.8208Z" fill="#95C11F"/>
<path d="M254.971 44.8117C256.044 42.6049 253.875 40.6816 251.721 41.5913C247.21 43.4982 243.76 47.8557 240.282 51.2309C236.31 55.0841 232.17 58.8895 228.738 63.2288C226.391 66.197 229.959 69.8838 232.956 67.4084C237.223 63.8815 240.997 59.7267 244.929 55.8373C248.419 52.3862 252.82 49.2367 254.971 44.8117Z" fill="#95C11F"/>
<path d="M270.066 62.3593C271.475 60.3454 269.637 58.1106 267.365 58.6759C262.609 59.8609 258.512 63.63 254.545 66.4235C250.014 69.6141 245.324 72.7306 241.25 76.4849C238.464 79.0526 241.407 83.247 244.757 81.266C249.529 78.4445 253.912 74.9242 258.409 71.6923C262.398 68.8246 267.243 66.3971 270.066 62.3593Z" fill="#95C11F"/>
<path d="M282.209 82.0335C283.917 80.2618 282.455 77.7699 280.123 77.9759C275.238 78.4093 270.597 81.4961 266.238 83.6419C261.259 86.091 256.133 88.4427 251.517 91.518C248.359 93.6226 250.604 98.2224 254.225 96.7836C259.383 94.7367 264.268 91.94 269.222 89.4448C273.616 87.2298 278.784 85.5834 282.209 82.0335Z" fill="#95C11F"/>
<path d="M291.095 103.344C293.063 101.859 292.012 99.1712 289.675 99.013C284.783 98.6834 279.712 101.014 275.068 102.456C269.763 104.102 264.331 105.632 259.286 107.954C255.834 109.542 257.325 114.432 261.129 113.574C266.546 112.351 271.812 110.345 277.098 108.649C281.786 107.146 287.15 106.321 291.095 103.344Z" fill="#95C11F"/>
<path d="M296.506 125.771C298.683 124.611 298.069 121.791 295.787 121.274C291.007 120.189 285.631 121.705 280.815 122.411C275.317 123.215 269.709 123.882 264.36 125.394C260.701 126.429 261.401 131.49 265.293 131.231C270.837 130.864 276.356 129.698 281.845 128.841C286.712 128.083 292.141 128.1 296.506 125.771Z" fill="#95C11F"/>
<path d="M298.311 148.761C300.645 147.952 300.484 145.073 298.311 144.208C293.761 142.397 288.212 143.061 283.345 143.01C277.786 142.952 272.142 142.741 266.62 143.405C262.842 143.86 262.734 148.967 266.62 149.315C272.154 149.811 277.787 149.516 283.345 149.521C288.273 149.526 293.632 150.383 298.311 148.761Z" fill="#95C11F"/>
<path d="M296.461 171.747C298.894 171.309 299.189 168.441 297.179 167.25C292.971 164.755 287.384 164.55 282.585 163.746C277.105 162.828 271.562 161.745 266.004 161.546C262.2 161.409 261.288 166.437 265.07 167.383C270.458 168.731 276.068 169.313 281.556 170.178C286.426 170.946 291.584 172.624 296.461 171.747Z" fill="#95C11F"/>
<path d="M291.006 194.166C293.478 194.112 294.223 191.323 292.427 189.835C288.664 186.718 283.178 185.65 278.566 184.113C273.298 182.356 267.995 180.428 262.536 179.37C258.802 178.644 257.107 183.47 260.693 184.99C265.802 187.155 271.252 188.6 276.535 190.306C281.221 191.819 286.051 194.276 291.006 194.166Z" fill="#95C11F"/>
<path d="M282.083 215.459C284.533 215.789 285.709 213.15 284.169 211.402C280.945 207.741 275.696 205.836 271.381 203.601C266.454 201.05 261.523 198.324 256.298 196.432C252.723 195.137 250.288 199.639 253.59 201.698C258.294 204.63 263.449 206.901 268.397 209.404C272.788 211.626 277.169 214.8 282.083 215.459Z" fill="#95C11F"/>
<path d="M269.904 235.11C272.273 235.815 273.85 233.391 272.606 231.426C269.999 227.311 265.116 224.617 261.208 221.741C256.746 218.456 252.305 215 247.443 212.322C244.116 210.489 240.999 214.558 243.936 217.103C248.12 220.727 252.852 223.77 257.344 227.01C261.33 229.882 265.157 233.697 269.904 235.11Z" fill="#95C11F"/>
<path d="M254.774 252.63C257.003 253.693 258.942 251.544 258.024 249.41C256.1 244.94 251.702 241.522 248.295 238.076C244.406 234.14 240.566 230.038 236.186 226.638C233.19 224.313 229.47 227.85 231.968 230.818C235.527 235.045 239.721 238.785 243.646 242.681C247.131 246.138 250.308 250.499 254.774 252.63Z" fill="#95C11F"/>
<path d="M237.064 267.589C239.096 268.985 241.352 267.164 240.781 264.913C239.585 260.201 235.781 256.141 232.962 252.211C229.742 247.721 226.596 243.074 222.807 239.038C220.216 236.276 215.982 239.193 217.982 242.512C220.829 247.24 224.382 251.583 227.644 256.039C230.54 259.991 232.99 264.792 237.064 267.589Z" fill="#95C11F"/>
<path d="M217.208 279.62C218.996 281.313 221.511 279.864 221.303 277.553C220.867 272.715 217.75 268.115 215.584 263.797C213.112 258.862 210.739 253.785 207.635 249.211C205.511 246.082 200.87 248.307 202.321 251.894C204.387 257.005 207.209 261.846 209.728 266.752C211.963 271.106 213.625 276.227 217.208 279.62Z" fill="#95C11F"/>
<path d="M195.698 288.424C197.196 290.374 199.909 289.333 200.069 287.017C200.402 282.17 198.05 277.145 196.594 272.544C194.933 267.288 193.389 261.904 191.045 256.907C189.442 253.487 184.505 254.964 185.372 258.733C186.606 264.101 188.63 269.318 190.342 274.556C191.862 279.2 192.695 284.515 195.698 288.424Z" fill="#95C11F"/>
<path d="M173.063 293.785C174.236 295.943 177.08 295.335 177.602 293.073C178.697 288.337 177.167 283.01 176.455 278.239C175.643 272.791 174.969 267.235 173.444 261.935C172.4 258.309 167.291 259.003 167.553 262.859C167.924 268.352 169.099 273.821 169.963 279.258C170.731 284.082 170.715 289.461 173.063 293.785Z" fill="#95C11F"/>
<path d="M149.861 295.573C150.678 297.886 153.583 297.726 154.457 295.573C156.285 291.064 155.614 285.566 155.666 280.744C155.724 275.236 155.937 269.644 155.267 264.173C154.808 260.43 149.653 260.323 149.302 264.173C148.801 269.656 149.099 275.238 149.094 280.744C149.089 285.627 148.224 290.937 149.861 295.573Z" fill="#95C11F"/>
<path d="M126.661 293.743C127.104 296.155 129.998 296.446 131.201 294.455C133.719 290.286 133.925 284.751 134.737 279.995C135.663 274.565 136.756 269.073 136.958 263.566C137.096 259.796 132.021 258.893 131.066 262.641C129.705 267.979 129.118 273.538 128.245 278.975C127.468 283.801 125.775 288.911 126.661 293.743Z" fill="#95C11F"/>
<path d="M104.037 288.338C104.092 290.787 106.906 291.526 108.408 289.746C111.553 286.018 112.631 280.582 114.183 276.012C115.956 270.793 117.902 265.539 118.97 260.13C119.702 256.428 114.832 254.75 113.297 258.304C111.111 263.365 109.652 268.766 107.931 274C106.404 278.643 103.925 283.429 104.037 288.338Z" fill="#95C11F"/>
<path d="M82.5431 279.495C82.2104 281.922 84.8734 283.088 86.6382 281.561C90.3325 278.367 92.2553 273.166 94.5108 268.891C97.0856 264.009 99.8368 259.123 101.746 253.946C103.052 250.405 98.5095 247.992 96.432 251.263C93.4729 255.924 91.1808 261.031 88.6542 265.934C86.4137 270.285 83.2084 274.626 82.5431 279.495Z" fill="#95C11F"/>
<path d="M62.713 267.427C62.0011 269.774 64.4478 271.336 66.4305 270.104C70.5839 267.521 73.3051 262.682 76.206 258.811C79.521 254.389 83.009 249.989 85.712 245.172C87.5616 241.875 83.4548 238.789 80.8866 241.697C77.229 245.842 74.1584 250.531 70.8883 254.983C67.9891 258.931 64.1385 262.723 62.713 267.427Z" fill="#95C11F"/>
<path d="M45.0313 252.437C43.9585 254.644 46.1274 256.567 48.2814 255.657C52.7924 253.75 56.2422 249.393 59.7202 246.018C63.6922 242.165 67.8323 238.359 71.2637 234.02C73.6107 231.052 70.0412 227.365 67.0455 229.84C62.779 233.367 59.005 237.522 55.0728 241.411C51.5832 244.864 47.182 248.012 45.0313 252.437Z" fill="#95C11F"/>
<path d="M29.9337 234.888C28.5248 236.902 30.3627 239.137 32.6348 238.572C37.3903 237.387 41.4872 233.618 45.4542 230.824C49.9851 227.634 54.6757 224.517 58.7492 220.763C61.5369 218.195 58.5929 214.001 55.2429 215.982C50.4708 218.803 46.0879 222.324 41.5903 225.555C37.6016 228.423 32.7563 230.851 29.9337 234.888Z" fill="#95C11F"/>
<path d="M17.7922 215.215C16.0823 216.987 17.546 219.479 19.878 219.273C24.7632 218.841 29.404 215.752 33.7636 213.608C38.7419 211.159 43.8683 208.807 48.4824 205.732C51.6411 203.628 49.3955 199.029 45.7744 200.467C40.6164 202.514 35.7312 205.31 30.7778 207.805C26.3866 210.019 21.2186 211.665 17.7922 215.215Z" fill="#95C11F"/>
<path d="M8.90539 193.902C6.93767 195.387 7.9889 198.075 10.3259 198.233C15.2177 198.563 20.2893 196.233 24.935 194.79C30.2393 193.144 35.6717 191.615 40.7166 189.292C44.168 187.704 42.6777 182.814 38.8737 183.673C33.4562 184.895 28.1901 186.901 22.904 188.597C18.2151 190.102 12.8492 190.927 8.90539 193.902Z" fill="#95C11F"/>
<path d="M3.49536 171.476C1.31806 172.637 1.93184 175.456 4.21393 175.973C8.99435 177.058 14.3702 175.541 19.1855 174.836C24.6845 174.032 30.2916 173.364 35.6409 171.853C39.3002 170.818 38.6 165.757 34.7078 166.015C29.1639 166.383 23.6466 167.548 18.1576 168.405C13.2891 169.165 7.85994 169.149 3.49536 171.476Z" fill="#95C11F"/>
<path d="M1.69028 148.488C-0.643376 149.297 -0.482033 152.176 1.69028 153.041C6.24116 154.853 11.79 154.188 16.6569 154.239C22.2158 154.297 27.8596 154.506 33.3818 153.842C37.1593 153.387 37.2674 148.28 33.3818 147.932C27.8479 147.436 22.2141 147.731 16.6569 147.726C11.7285 147.723 6.36923 146.866 1.69028 148.488Z" fill="#95C11F"/>
<path d="M3.53816 125.502C1.1047 125.939 0.810278 128.808 2.81958 129.999C7.02782 132.494 12.6149 132.699 17.4136 133.503C22.8943 134.421 28.4349 135.504 33.9938 135.703C37.7978 135.84 38.7093 130.812 34.9269 129.866C29.5393 128.518 23.929 127.936 18.4417 127.071C13.5731 126.303 8.41505 124.623 3.53816 125.502Z" fill="#95C11F"/>
<path d="M8.9913 103.085C6.51959 103.139 5.77441 105.928 7.57081 107.416C11.3333 110.532 16.819 111.6 21.4314 113.138C26.7008 114.895 32.0019 116.823 37.461 117.881C41.1951 118.606 42.89 113.781 39.3039 112.261C34.1958 110.096 28.7451 108.65 23.4623 106.945C18.7767 105.43 13.9464 102.974 8.9913 103.085Z" fill="#95C11F"/>
<path d="M17.9168 81.7879C15.4668 81.4583 14.2907 84.0969 15.831 85.8455C19.0545 89.5059 24.304 91.411 28.6187 93.6458C33.5454 96.197 38.4772 98.923 43.7017 100.815C47.2762 102.11 49.7114 97.6078 46.4096 95.5494C41.7057 92.6175 36.5511 90.3464 31.6027 87.843C27.2115 85.623 22.8287 82.4471 17.9168 81.7879Z" fill="#95C11F"/>
<path d="M30.0976 62.1386C27.729 61.4332 26.1522 63.8575 27.3964 65.822C30.0028 69.9373 34.8863 72.6335 38.7935 75.5078C43.2562 78.7924 47.6973 82.2483 52.5593 84.9265C55.8859 86.7591 59.003 82.69 56.0655 80.1454C51.8822 76.5213 47.1501 73.479 42.6574 70.2389C38.6721 67.3663 34.8447 63.551 30.0976 62.1386Z" fill="#95C11F"/>
<path d="M45.2264 44.6186C42.9992 43.5556 41.0581 45.7046 41.9763 47.8389C43.9008 52.3084 48.2986 55.7266 51.7051 59.1727C55.594 63.1083 59.4346 67.2103 63.8141 70.6103C66.8098 72.9357 70.5307 69.4006 68.0324 66.4308C64.4728 62.2035 60.2796 58.464 56.3541 54.568C52.8711 51.1103 49.6941 46.7495 45.2264 44.6186Z" fill="#95C11F"/>
<path d="M62.9382 29.6594C60.9056 28.2635 58.6501 30.0863 59.2207 32.3359C60.4166 37.0477 64.2206 41.107 67.04 45.0376C70.2602 49.527 73.4055 54.1745 77.1946 58.2106C79.7861 60.9712 84.0192 58.0557 82.0199 54.7365C79.1723 50.0098 75.6194 45.6655 72.3576 41.2091C69.4634 37.257 67.0134 32.4562 62.9382 29.6594Z" fill="#95C11F"/>
<path d="M82.7938 17.6284C81.0057 15.9358 78.4907 17.3845 78.6986 19.6951C79.1344 24.5355 82.2515 29.1335 84.4155 33.4531C86.8872 38.3858 89.2608 43.4652 92.3646 48.0386C94.4887 51.1683 99.1294 48.9435 97.6789 45.3556C95.6131 40.2449 92.7904 35.4045 90.2721 30.4965C88.0383 26.1439 86.3766 21.0234 82.7938 17.6284Z" fill="#95C11F"/>
<path d="M104.301 8.82365C102.803 6.87398 100.09 7.91557 99.9303 10.2311C99.5976 15.0781 101.95 20.1031 103.405 24.7062C105.067 29.9619 106.61 35.3461 108.954 40.343C110.557 43.7628 115.492 42.2861 114.626 38.5169C113.392 33.1492 111.369 27.9314 109.656 22.6939C108.139 18.0479 107.305 12.7312 104.301 8.82365Z" fill="#95C11F"/>
<path d="M126.937 3.46344C125.766 1.30612 122.92 1.91427 122.398 4.17542C121.304 8.91198 122.834 14.2385 123.546 19.0097C124.358 24.4582 125.031 30.0139 126.556 35.3141C127.601 38.9398 132.709 38.246 132.448 34.3896C132.077 28.8965 130.901 23.4282 130.036 17.9912C129.271 13.1673 129.286 7.78799 126.937 3.46344Z" fill="#95C11F"/>
</svg>
