<svg width="35" height="35" viewBox="0 0 35 35" fill="none" xmlns="http://www.w3.org/2000/svg">
<path d="M30.2198 30.5699C30.0794 30.4058 29.9742 30.2147 29.9105 30.0083C29.8469 29.8019 29.8262 29.5846 29.8498 29.37C29.8494 28.2875 29.7893 27.2058 29.6698 26.13C29.5165 25.4692 29.5276 24.781 29.7019 24.1255C29.8762 23.47 30.2085 22.8672 30.6698 22.37C32.4502 20.4173 33.441 17.8724 33.4498 15.23C33.5075 13.3827 33.1377 11.5471 32.3693 9.86633C31.6008 8.18552 30.4545 6.70491 29.0198 5.53995C25.6679 2.78147 21.4127 1.36311 17.0762 1.55889C12.7396 1.75466 8.62945 3.55067 5.53979 6.59995C4.20453 7.92119 3.21649 9.55191 2.66345 11.3471C2.11041 13.1423 2.00958 15.0464 2.36987 16.8899C2.73036 18.8711 3.5517 20.7398 4.7677 22.3449C5.98369 23.95 7.56025 25.2466 9.36987 26.13C12.1285 27.6249 15.2336 28.3632 18.3699 28.27C20.1663 28.2287 21.9436 27.8908 23.6299 27.27C23.9009 27.1434 24.2003 27.0898 24.4984 27.1144C24.7965 27.1389 25.0831 27.2408 25.3298 27.41C26.4898 28.13 27.6098 28.92 28.7898 29.6C29.0965 29.7639 29.4426 29.84 29.7898 29.8199" stroke="white" stroke-linecap="round" stroke-linejoin="round"/>
</svg>
