<svg width="65" height="47" viewBox="0 0 65 47" fill="none" xmlns="http://www.w3.org/2000/svg">
<g clip-path="url(#clip0_2514_3057)">
<path d="M63.17 31.52V41.16C63.1713 41.7014 63.0657 42.2378 62.8591 42.7382C62.6525 43.2387 62.3491 43.6934 61.9662 44.0762C61.5834 44.4591 61.1287 44.7625 60.6282 44.9691C60.1278 45.1757 59.5914 45.2813 59.05 45.28H5.38001C4.83776 45.2826 4.30034 45.178 3.79872 44.972C3.29711 44.766 2.84122 44.4628 2.45732 44.0798C2.07341 43.6968 1.76909 43.2417 1.56189 42.7405C1.35468 42.2394 1.24869 41.7023 1.25001 41.16V31.52C2.35825 31.5586 3.46291 31.3736 4.49813 30.9761C5.53335 30.5786 6.47794 29.9768 7.27558 29.2064C8.07322 28.4361 8.70758 27.513 9.14083 26.4922C9.57409 25.4715 9.79737 24.3739 9.79737 23.265C9.79737 22.1561 9.57409 21.0585 9.14083 20.0378C8.70758 19.017 8.07322 18.0939 7.27558 17.3236C6.47794 16.5532 5.53335 15.9514 4.49813 15.5539C3.46291 15.1564 2.35825 14.9714 1.25001 15.01V5.38C1.25001 4.83764 1.35684 4.30059 1.56439 3.79952C1.77194 3.29844 2.07615 2.84316 2.45966 2.45965C2.84317 2.07615 3.29846 1.77193 3.79953 1.56438C4.30061 1.35683 4.83765 1.25 5.38001 1.25H59.05C60.1436 1.25265 61.1915 1.68894 61.9639 2.46318C62.7363 3.23742 63.17 4.28639 63.17 5.38V15.01C61.0304 15.0845 59.0032 15.9868 57.5159 17.5268C56.0286 19.0668 55.1974 21.1241 55.1974 23.265C55.1974 25.4059 56.0286 27.4632 57.5159 29.0032C59.0032 30.5432 61.0304 31.4455 63.17 31.52Z" stroke="#95C11F" stroke-width="2.5" stroke-miterlimit="10"/>
<path d="M19.1402 15.01C19.1402 15.5524 19.247 16.0894 19.4545 16.5905C19.6621 17.0916 19.9663 17.5468 20.3498 17.9303C20.7333 18.3139 21.1886 18.6181 21.6897 18.8256C22.1908 19.0332 22.7278 19.14 23.2702 19.14C23.9494 19.1401 24.6182 18.9727 25.2173 18.6526C25.8163 18.3325 26.3272 17.8696 26.7046 17.3048C27.082 16.7401 27.3143 16.091 27.381 15.4151C27.4476 14.7391 27.3464 14.0571 27.0865 13.4296C26.8266 12.8021 26.4159 12.2483 25.8909 11.8174C25.3658 11.3865 24.7426 11.0918 24.0764 10.9593C23.4102 10.8268 22.7216 10.8607 22.0717 11.0579C21.4217 11.2552 20.8304 11.6096 20.3502 12.09C19.9649 12.4721 19.6594 12.9271 19.4517 13.4284C19.244 13.9297 19.1381 14.4673 19.1402 15.01Z" stroke="#95C11F" stroke-width="2.5" stroke-miterlimit="10"/>
<path d="M39.0898 31.52C39.0898 32.6153 39.525 33.6658 40.2995 34.4404C41.074 35.2149 42.1245 35.65 43.2198 35.65C43.7625 35.6521 44.3001 35.5462 44.8015 35.3385C45.3028 35.1307 45.7577 34.8253 46.1398 34.44C46.6318 33.9645 46.998 33.3741 47.2053 32.7221C47.4127 32.07 47.4548 31.3766 47.3279 30.7042C47.2009 30.0319 46.9089 29.4016 46.4781 28.87C46.0472 28.3384 45.4911 27.9222 44.8596 27.6588C44.228 27.3953 43.541 27.293 42.8601 27.3608C42.1792 27.4286 41.5259 27.6646 40.9587 28.0474C40.3916 28.4303 39.9285 28.948 39.611 29.5541C39.2935 30.1603 39.1316 30.8358 39.1398 31.52H39.0898Z" stroke="#95C11F" stroke-width="2.5" stroke-miterlimit="10"/>
<path d="M42.5301 12.95L21.8901 33.59" stroke="#95C11F" stroke-width="2.5" stroke-miterlimit="10"/>
</g>
<defs>
<clipPath id="clip0_2514_3057">
<rect width="64.42" height="46.54" fill="white"/>
</clipPath>
</defs>
</svg>
