<svg width="60" height="64" viewBox="0 0 60 64" fill="none" xmlns="http://www.w3.org/2000/svg">
<path d="M18.6078 18.6231H5.42788C4.77444 18.604 4.124 18.719 3.51666 18.9608C2.90932 19.2027 2.35794 19.5663 1.8965 20.0294C1.43505 20.4924 1.07334 21.0451 0.833603 21.6532C0.593869 22.2614 0.481191 22.9122 0.502558 23.5656C0.502558 28.0276 0.502558 32.4895 0.502558 36.9343C0.502558 40.1606 1.97845 41.6536 5.2391 41.6708H6.20013" stroke="white" stroke-linecap="round" stroke-linejoin="round"/>
<path d="M54.2516 39.1992C55.7274 38.5814 57.4264 38.753 58.6449 37.1913C60.2409 35.132 59.1597 33.107 58.8851 31.202C58.6105 29.2971 58.1472 27.6153 57.804 25.8134C56.9631 21.5231 54.5777 20.1158 50.9394 19.9099C47.3012 19.704 43.663 19.9099 40.042 19.9099" stroke="white" stroke-linecap="round" stroke-linejoin="round"/>
<path d="M36.3184 44.1425C38.2233 44.1425 40.6259 44.417 41.1408 42.2719C42.2818 38.5099 42.1612 34.478 40.7975 30.791C40.4375 30.0344 39.8552 29.4057 39.1285 28.9886C38.4018 28.5716 37.5651 28.3862 36.7303 28.457C31.7878 28.3197 26.8453 28.2682 21.9029 28.457C21.2673 28.4456 20.6358 28.5596 20.0442 28.7924C19.4527 29.0251 18.9129 29.3721 18.4555 29.8136C17.9981 30.255 17.6322 30.7822 17.3786 31.3651C17.125 31.948 16.9888 32.5751 16.9776 33.2107C16.8918 35.5961 16.9776 38.0159 16.9776 40.4013C16.9641 40.908 17.0572 41.4119 17.2507 41.8804C17.4443 42.3488 17.734 42.7714 18.1012 43.1209C18.4684 43.4703 18.9049 43.7387 19.3824 43.9088C19.8599 44.0788 20.3678 44.1468 20.8732 44.1081C21.3537 44.1081 21.8342 44.1081 22.3148 44.1081" stroke="white" stroke-linecap="round" stroke-linejoin="round"/>
<path d="M6.66309 27.2725V63.5H51.54V51.7617" stroke="white" stroke-linecap="round" stroke-linejoin="round"/>
<path d="M22.7265 35.4922V60.8223C22.8208 61.5154 22.7502 62.221 22.5205 62.8817" stroke="white" stroke-linecap="round" stroke-linejoin="round"/>
<path d="M29.3163 49.9072V60.8218C29.402 61.5151 29.3317 62.2187 29.1104 62.8812" stroke="white" stroke-linecap="round" stroke-linejoin="round"/>
<path d="M35.8032 35.2871C35.9919 39.1312 35.8032 42.9754 35.889 46.8195C35.889 51.4874 35.889 56.1553 35.889 60.8232C35.9895 61.5149 35.9248 62.2206 35.7002 62.8825" stroke="white" stroke-linecap="round" stroke-linejoin="round"/>
<path d="M51.3337 27.9932C52.4835 29.7093 52.2947 31.6314 52.7409 33.4505C53.9422 38.4101 54.3369 43.5242 55.6412 48.4666C55.7297 49.3568 55.7297 50.2536 55.6412 51.1438H36.5234" stroke="white" stroke-linecap="round" stroke-linejoin="round"/>
<path d="M43.7147 51.7617C43.5946 55.4686 43.9721 59.1754 43.5088 62.8823" stroke="white" stroke-linecap="round" stroke-linejoin="round"/>
<path d="M14.4894 49.9072C14.4894 53.5454 14.4894 57.1836 14.4894 60.8218C14.3889 61.5136 14.4536 62.2193 14.6782 62.8812" stroke="white" stroke-linecap="round" stroke-linejoin="round"/>
<path d="M13.6649 0.518073C11.2108 1.44478 9.03133 2.49163 8.65378 5.66647C8.44101 6.7807 8.54721 7.93235 8.96011 8.98889C9.37301 10.0454 10.0758 10.9639 10.9877 11.6386C11.9833 12.4084 13.1972 12.843 14.4552 12.88C15.7131 12.917 16.9504 12.5545 17.9896 11.8446C19.1275 11.1319 19.9782 10.0414 20.3924 8.76419C20.8067 7.487 20.758 6.10475 20.2549 4.85989C19.8765 3.49902 19.0268 2.31695 17.8573 1.52476C16.6879 0.73257 15.275 0.381845 13.8708 0.535224" stroke="white" stroke-linecap="round" stroke-linejoin="round"/>
<path d="M42.4794 2.98828C41.4611 3.26108 40.5363 3.80626 39.8046 4.56521C39.0729 5.32415 38.5618 6.26817 38.3263 7.29578C37.9748 8.72805 38.1889 10.2407 38.924 11.5192C39.6592 12.7977 40.8588 13.7436 42.2735 14.1603C43.7026 14.5497 45.2277 14.3564 46.5146 13.6229C47.8014 12.8894 48.7448 11.6756 49.138 10.2475C49.4155 9.44394 49.5002 8.58636 49.3852 7.74401C49.2703 6.90166 48.9588 6.09814 48.4761 5.39831C47.9934 4.69847 47.353 4.12192 46.6064 3.71521C45.8598 3.30849 45.0281 3.083 44.1784 3.05693H42.7368" stroke="white" stroke-linecap="round" stroke-linejoin="round"/>
<path d="M27.6682 13.2686C24.4934 15.3451 23.7555 16.9582 24.7851 19.5496C25.1413 20.5525 25.8192 21.4093 26.7132 21.9867C27.6072 22.5641 28.667 22.8295 29.7276 22.7416C30.733 22.5961 31.668 22.1412 32.403 21.44C33.138 20.7388 33.6365 19.8262 33.8292 18.8288C34.0866 15.9972 33.3143 14.5728 30.9632 13.4917C29.9545 13.2375 28.909 13.162 27.8742 13.2686" stroke="white" stroke-linecap="round" stroke-linejoin="round"/>
</svg>
