<svg width="19" height="18" viewBox="0 0 19 18" fill="none" xmlns="http://www.w3.org/2000/svg">
<path d="M14.8795 2.35353C16.1721 3.24442 16.8007 5.11563 16.7621 6.75832C16.6939 9.84499 13.8775 12.5541 11.9741 14.4651C11.2715 15.1705 10.4503 16.0249 9.71799 16.6641C9.64091 16.7304 9.55197 16.8264 9.44524 16.7933C9.33851 16.7602 8.54101 15.9488 8.40463 15.8196C6.48647 13.9683 3.25199 11.0041 2.47524 8.28841C2.24494 7.48462 2.17866 6.63343 2.28126 5.79729C2.38387 4.96116 2.65275 4.16129 3.06818 3.45638C4.74323 0.826757 8.01329 1.59511 9.49564 4.01609C10.0917 3.00956 10.9928 2.27698 12.0334 1.95279C12.5078 1.80458 13.0039 1.76368 13.4927 1.83249C13.9814 1.90131 14.4529 2.07845 14.8795 2.35353Z" stroke="white" stroke-linecap="round" stroke-linejoin="round"/>
</svg>
