<svg width="199" height="51" viewBox="0 0 199 51" fill="none" xmlns="http://www.w3.org/2000/svg">
<g clip-path="url(#clip0_285_1183)">
<path d="M176.402 8.11256C176.402 8.63568 175.791 8.9576 175.348 8.96564C175.046 8.99336 174.743 8.91976 174.487 8.7564C174.407 8.68215 174.321 8.61484 174.23 8.5552C173.895 8.33536 173.492 8.24288 173.095 8.29457C172.698 8.34625 172.332 8.53866 172.065 8.83687C171.715 9.27052 171.519 9.80868 171.51 10.366V10.5752C171.539 11.0993 171.734 11.6006 172.065 12.0078C172.212 12.1804 172.395 12.3198 172.6 12.4169C172.805 12.514 173.029 12.5666 173.256 12.5711C173.601 12.582 173.941 12.4865 174.23 12.2975L174.487 12.0963C174.741 11.9294 175.046 11.8555 175.348 11.8871C175.791 11.8871 176.402 12.209 176.402 12.6919V18.6474H182.301C182.359 18.5988 182.405 18.5384 182.437 18.4704C182.469 18.4023 182.486 18.3282 182.486 18.253C182.507 18.1064 182.49 17.957 182.438 17.8184C182.35 17.7197 182.27 17.6148 182.197 17.5045C181.926 17.1103 181.79 16.6386 181.81 16.1605C181.817 15.8402 181.893 15.5251 182.032 15.2364C182.17 14.9477 182.369 14.692 182.615 14.4866C183.148 14.0466 183.808 13.7899 184.498 13.7542H184.756C185.482 13.767 186.183 14.0252 186.744 14.4866C186.979 14.6968 187.168 14.9532 187.299 15.2398C187.431 15.5265 187.502 15.8372 187.508 16.1525C187.52 16.632 187.385 17.1036 187.122 17.5045C187.025 17.6494 186.937 17.746 186.88 17.8184C186.824 17.8908 186.824 17.9069 186.824 18.253C186.828 18.4012 186.888 18.5424 186.993 18.6474H190.333V17.6253H193.487C193.711 17.6262 193.929 17.559 194.114 17.4329C194.299 17.3067 194.44 17.1274 194.521 16.9188C194.601 16.7102 194.616 16.482 194.564 16.2647C194.511 16.0473 194.394 15.851 194.228 15.7018L188.313 10.3579L182.905 5.48087L177.272 0.36236C177.043 0.160234 176.766 0.0214968 176.467 -0.0400391V8.11256H176.402Z" fill="white"/>
<path d="M169.787 18.6713H175.735V12.7721C175.684 12.7166 175.624 12.6717 175.556 12.6399C175.488 12.6081 175.415 12.5902 175.34 12.587C174.994 12.587 174.914 12.6353 174.906 12.6434C174.898 12.6514 174.737 12.7882 174.592 12.8848C174.127 13.1929 173.566 13.3242 173.013 13.2548C172.459 13.1854 171.949 12.92 171.574 12.5066C171.132 11.9715 170.876 11.3081 170.842 10.6153V10.3577C170.852 9.63353 171.111 8.93486 171.574 8.37794C171.783 8.14128 172.039 7.95099 172.326 7.81931C172.613 7.68764 172.924 7.61749 173.24 7.61339C173.72 7.59742 174.193 7.73254 174.592 7.99969C174.701 8.07457 174.805 8.15517 174.906 8.24113C174.906 8.24113 174.994 8.29746 175.332 8.29746C175.481 8.28769 175.621 8.22484 175.726 8.1204V0C175.427 0.0593262 175.149 0.198339 174.922 0.402399L157.941 15.7418C157.775 15.8911 157.658 16.0874 157.605 16.3047C157.553 16.5221 157.568 16.7502 157.648 16.9588C157.729 17.1675 157.871 17.3467 158.055 17.4729C158.24 17.5991 158.458 17.6662 158.682 17.6653H161.828V18.6713H165.184C165.707 18.6713 166.029 19.2829 166.029 19.7175C166.066 20.023 165.992 20.3316 165.82 20.5867C165.749 20.6676 165.685 20.7536 165.627 20.8443C165.431 21.1268 165.334 21.4666 165.353 21.81C165.356 22.0378 165.406 22.2625 165.502 22.4692C165.598 22.6759 165.736 22.86 165.908 23.0091C166.344 23.3556 166.881 23.5506 167.437 23.5645H167.647C168.17 23.5375 168.671 23.346 169.079 23.0172C169.25 22.8689 169.388 22.6862 169.484 22.4809C169.58 22.2757 169.631 22.0525 169.634 21.8261C169.654 21.4801 169.558 21.1375 169.361 20.8523C169.303 20.7617 169.239 20.6756 169.168 20.5948C168.996 20.3396 168.921 20.031 168.958 19.7256C168.95 19.2829 169.272 18.6713 169.787 18.6713Z" fill="white"/>
<path d="M193.576 42.2519L199.008 29.8419L195.942 28.4979C195.735 28.3623 195.584 28.1563 195.518 27.918C195.451 27.6798 195.473 27.4254 195.58 27.2022C195.671 26.9105 195.862 26.66 196.119 26.494L196.401 26.333C196.698 26.1426 196.924 25.8598 197.044 25.5282C197.134 25.3197 197.18 25.0952 197.18 24.8683C197.18 24.6414 197.134 24.4169 197.044 24.2083C196.781 23.7173 196.366 23.3248 195.861 23.0897L195.733 23.0333H195.668C195.175 22.8537 194.638 22.8312 194.131 22.969C193.916 23.0368 193.717 23.1493 193.548 23.299C193.379 23.4488 193.243 23.6325 193.149 23.8381C192.995 24.1467 192.945 24.4965 193.005 24.8361C193.005 24.9729 193.061 25.0695 193.085 25.1499C193.143 25.4512 193.089 25.7633 192.932 26.0272C192.755 26.4296 192.216 26.832 191.741 26.6549L191.556 26.5744L190.309 26.0352L186.285 24.2808L184.587 28.1599L183.919 29.689C183.942 29.7608 183.98 29.8271 184.03 29.8838C184.08 29.9406 184.14 29.9866 184.209 30.019C184.522 30.1558 184.611 30.1477 184.627 30.1397C184.754 30.1012 184.883 30.0717 185.013 30.0512C185.561 29.9528 186.126 30.0548 186.605 30.3385C187.083 30.6222 187.444 31.0687 187.621 31.5964C187.817 32.2629 187.789 32.9756 187.54 33.6245C187.525 33.6585 187.511 33.6934 187.5 33.7291L187.444 33.8579C187.142 34.5181 186.626 35.057 185.979 35.387C185.469 35.6137 184.895 35.6515 184.36 35.4937C183.825 35.3359 183.363 34.9929 183.058 34.5258C182.989 34.4144 182.927 34.2989 182.873 34.1798C182.873 34.1798 182.808 34.0912 182.494 33.9544C182.355 33.9005 182.2 33.9005 182.06 33.9544L180.233 38.1555L191.54 43.0808C191.921 43.2266 192.343 43.222 192.721 43.0681C193.099 42.9142 193.405 42.6225 193.576 42.2519Z" fill="white"/>
<path d="M175.718 29.9305C175.718 29.4074 176.33 29.1257 176.773 29.0774C177.075 29.0497 177.378 29.1233 177.634 29.2867L177.891 29.4879C178.226 29.7077 178.629 29.8002 179.026 29.7485C179.423 29.6968 179.789 29.5044 180.056 29.2062C180.404 28.771 180.599 28.2338 180.611 27.6771V27.4276C180.583 26.9021 180.392 26.3985 180.064 25.987C179.912 25.8179 179.728 25.6815 179.522 25.586C179.316 25.4905 179.092 25.438 178.865 25.4317C178.519 25.4159 178.178 25.5118 177.891 25.7053L177.634 25.9065C177.378 26.0699 177.075 26.1435 176.773 26.1158C176.33 26.1158 175.718 25.7858 175.718 25.311V19.3635H169.82C169.762 19.4121 169.716 19.4725 169.684 19.5405C169.652 19.6086 169.635 19.6827 169.634 19.7579C169.634 20.0959 169.675 20.1764 169.691 20.1925C169.707 20.2085 169.828 20.3615 169.924 20.4983C170.23 20.9636 170.361 21.5225 170.293 22.0752C170.225 22.628 169.963 23.1386 169.554 23.5163C169.019 23.9578 168.356 24.2147 167.663 24.2486H167.405C166.677 24.238 165.975 23.9765 165.418 23.5082C165.181 23.2995 164.992 23.0432 164.861 22.7561C164.731 22.469 164.663 22.1576 164.661 21.8423C164.641 21.3642 164.776 20.8925 165.047 20.4983C165.144 20.3534 165.224 20.2568 165.281 20.1844C165.337 20.112 165.345 20.0878 165.337 19.7498C165.333 19.6016 165.273 19.4605 165.168 19.3555H161.82V32.9565C161.82 33.3834 161.99 33.7928 162.292 34.0947C162.594 34.3966 163.003 34.5661 163.43 34.5661H175.751V29.9868L175.718 29.9305Z" fill="white"/>
<path d="M50.6352 18.4701C50.4823 18.2448 50.0075 17.7458 50.6352 17.3193C51.2629 16.8927 51.8423 16.764 51.9952 16.9893L55.1499 21.6008C55.3189 21.8422 54.9567 22.3573 54.3451 22.7678C53.7335 23.1782 53.1299 23.3231 52.969 23.0816L50.6271 18.4701H50.6352Z" fill="white"/>
<path d="M50.2409 27.4275C50.2409 22.8804 53.975 19.291 58.8759 19.291C63.7769 19.291 67.4868 22.8885 67.4868 27.4275C67.4868 31.9666 63.793 35.556 58.8759 35.556C53.9589 35.556 50.2409 31.9988 50.2409 27.4275ZM64.8392 27.4275C64.8616 26.2412 64.5301 25.0751 63.887 24.0781C63.2439 23.081 62.3183 22.2981 61.2284 21.8292C60.1385 21.3604 58.9337 21.2269 57.7676 21.4457C56.6015 21.6646 55.527 22.2258 54.6813 23.0579C53.8355 23.89 53.2568 24.9552 53.0189 26.1177C52.781 27.2801 52.8948 28.487 53.3458 29.5845C53.7967 30.6819 54.5643 31.6202 55.5507 32.2795C56.5371 32.9389 57.6975 33.2894 58.884 33.2864C59.6617 33.3004 60.4344 33.159 61.1569 32.8707C61.8794 32.5824 62.5371 32.1529 63.0916 31.6074C63.6461 31.0618 64.0863 30.4112 64.3864 29.6935C64.6864 28.9758 64.8404 28.2054 64.8392 27.4275Z" fill="white"/>
<path d="M2.61546 32.8193V33.9621C2.58962 34.2912 2.44064 34.5985 2.19824 34.8226C1.95584 35.0468 1.63785 35.1712 1.30773 35.1712C0.977602 35.1712 0.659612 35.0468 0.417215 34.8226C0.174817 34.5985 0.0258376 34.2912 0 33.9621V14.4699C0.0258376 14.1408 0.174817 13.8335 0.417215 13.6094C0.659612 13.3852 0.977602 13.2607 1.30773 13.2607C1.63785 13.2607 1.95584 13.3852 2.19824 13.6094C2.44064 13.8335 2.58962 14.1408 2.61546 14.4699V21.4716C4.25406 19.8887 6.45363 19.0204 8.7316 19.0572C9.82942 19.0084 10.9258 19.1824 11.9545 19.5689C12.9832 19.9553 13.923 20.5462 14.7171 21.3058C15.5112 22.0654 16.1433 22.978 16.5751 23.9886C17.0068 24.9992 17.2295 26.0867 17.2295 27.1857C17.2295 28.2846 17.0068 29.3722 16.5751 30.3828C16.1433 31.3934 15.5112 32.306 14.7171 33.0656C13.923 33.8252 12.9832 34.4161 11.9545 34.8025C10.9258 35.189 9.82942 35.363 8.7316 35.3141C7.59691 35.3299 6.47067 35.1171 5.41992 34.6885C4.36918 34.2599 3.41542 33.6242 2.61546 32.8193ZM14.558 27.1857C14.5582 26.4053 14.4025 25.6328 14.1001 24.9134C13.7976 24.1941 13.3545 23.5424 12.7968 22.9966C12.2391 22.4508 11.5779 22.022 10.8522 21.7352C10.1265 21.4485 9.35078 21.3096 8.57065 21.3268C7.8094 21.3043 7.05119 21.4323 6.33951 21.7034C5.62784 21.9746 4.97669 22.3836 4.42342 22.907C3.87016 23.4304 3.42565 24.0579 3.1154 24.7535C2.80514 25.449 2.63525 26.199 2.61546 26.9603V27.4271C2.66386 28.962 3.31702 30.4155 4.43255 31.4708C5.54809 32.5261 7.03554 33.0976 8.57065 33.0607C9.35742 33.0779 10.1397 32.9375 10.8714 32.6477C11.603 32.3579 12.2693 31.9247 12.831 31.3735C13.3927 30.8222 13.8384 30.1642 14.1419 29.4381C14.4454 28.712 14.6006 27.9324 14.5983 27.1454L14.558 27.1857Z" fill="white"/>
<path d="M18.6221 27.4275C18.6221 22.8804 22.3561 19.291 27.2571 19.291C32.1581 19.291 35.868 22.8885 35.868 27.4275C35.868 31.9666 32.1661 35.556 27.2571 35.556C22.3481 35.556 18.6221 31.9988 18.6221 27.4275ZM33.2123 27.4275C33.2347 26.2412 32.9032 25.0751 32.2601 24.0781C31.617 23.081 30.6914 22.2981 29.6016 21.8292C28.5117 21.3604 27.3068 21.2269 26.1407 21.4457C24.9746 21.6646 23.9002 22.2258 23.0544 23.0579C22.2086 23.89 21.6299 24.9552 21.392 26.1177C21.1542 27.2801 21.2679 28.487 21.7189 29.5845C22.1698 30.6819 22.9374 31.6202 23.9238 32.2795C24.9102 32.9389 26.0707 33.2894 27.2571 33.2864C28.0328 33.2971 28.8029 33.1534 29.5226 32.8636C30.2423 32.5739 30.8971 32.1439 31.4491 31.5986C32.001 31.0534 32.439 30.4039 32.7376 29.6878C33.0361 28.9717 33.1893 28.2034 33.1881 27.4275H33.2123Z" fill="white"/>
<path d="M45.0181 20.6104C45.0181 20.2646 45.1554 19.933 45.3999 19.6885C45.6444 19.444 45.976 19.3066 46.3218 19.3066C46.6675 19.3066 46.9991 19.444 47.2436 19.6885C47.4881 19.933 47.6255 20.2646 47.6255 20.6104V34.292C47.6255 34.6377 47.4881 34.9694 47.2436 35.2139C46.9991 35.4584 46.6675 35.5957 46.3218 35.5957C45.976 35.5957 45.6444 35.4584 45.3999 35.2139C45.1554 34.9694 45.0181 34.6377 45.0181 34.292V20.6104Z" fill="white"/>
<path d="M70.1264 24.2567C70.1264 20.4178 72.8143 18.3012 76.154 18.3012C78.2786 18.3012 79.9525 19.0336 80.9021 20.5385C81.4294 19.7936 82.1393 19.1965 82.9637 18.8048C83.7881 18.413 84.6993 18.2396 85.6099 18.3012C88.9818 18.3012 91.6697 20.4178 91.6697 24.2567V33.2463C91.6439 33.5754 91.4949 33.8827 91.2525 34.1068C91.0101 34.331 90.6921 34.4554 90.362 34.4554C90.0319 34.4554 89.7139 34.331 89.4715 34.1068C89.2291 33.8827 89.0801 33.5754 89.0543 33.2463V24.2084C89.0543 21.794 87.5494 20.5546 85.618 20.5546C83.6865 20.5546 82.1977 21.794 82.1977 24.2084V33.2302C82.1719 33.5593 82.0229 33.8666 81.7805 34.0907C81.5381 34.3149 81.2201 34.4394 80.89 34.4394C80.5599 34.4394 80.2419 34.3149 79.9995 34.0907C79.7571 33.8666 79.6081 33.5593 79.5823 33.2302V24.2084C79.5823 21.794 78.0774 20.5546 76.146 20.5546C74.2146 20.5546 72.7419 21.786 72.7419 24.2084V33.2302C72.716 33.5593 72.567 33.8666 72.3246 34.0907C72.0823 34.3149 71.7643 34.4394 71.4341 34.4394C71.104 34.4394 70.786 34.3149 70.5436 34.0907C70.3012 33.8666 70.1522 33.5593 70.1264 33.2302V24.2567Z" fill="white"/>
<path d="M108.642 32.1112C107.836 32.9045 106.88 33.5298 105.83 33.9512C104.78 34.3725 103.657 34.5814 102.526 34.5658C101.436 34.6001 100.351 34.4151 99.3347 34.0219C98.3181 33.6286 97.3909 33.0351 96.6082 32.2765C95.8254 31.5179 95.203 30.6098 94.778 29.6061C94.353 28.6023 94.134 27.5234 94.134 26.4334C94.134 25.3433 94.353 24.2644 94.778 23.2607C95.203 22.2569 95.8254 21.3488 96.6082 20.5902C97.3909 19.8317 98.3181 19.2381 99.3347 18.8449C100.351 18.4516 101.436 18.2666 102.526 18.3009C104.81 18.2822 107.008 19.1675 108.642 20.7636V19.5966C108.668 19.2675 108.817 18.9602 109.059 18.7361C109.302 18.5119 109.62 18.3875 109.95 18.3875C110.28 18.3875 110.598 18.5119 110.84 18.7361C111.083 18.9602 111.232 19.2675 111.258 19.5966V33.2782C111.232 33.6073 111.083 33.9146 110.84 34.1387C110.598 34.3628 110.28 34.4873 109.95 34.4873C109.62 34.4873 109.302 34.3628 109.059 34.1387C108.817 33.9146 108.668 33.6073 108.642 33.2782V32.1112ZM108.642 26.6788V26.1879C108.583 24.6566 107.927 23.2092 106.814 22.1561C105.701 21.1029 104.219 20.5279 102.687 20.5543C101.908 20.5458 101.136 20.6909 100.413 20.9813C99.691 21.2716 99.033 21.7015 98.4769 22.2464C97.9208 22.7914 97.4776 23.4406 97.1726 24.1569C96.8676 24.8733 96.7068 25.6427 96.6995 26.4213C96.7418 27.9572 97.3737 29.4178 98.4641 30.5002C99.5545 31.5826 101.02 32.2038 102.556 32.2348C104.092 32.2659 105.581 31.7044 106.714 30.667C107.847 29.6295 108.538 28.1956 108.642 26.6627V26.6788Z" fill="white"/>
<path d="M113.479 19.742C113.489 19.4317 113.622 19.1382 113.848 18.9256C114.074 18.713 114.375 18.5985 114.686 18.6072H116.424V15.8467C116.424 15.501 116.561 15.1693 116.806 14.9248C117.05 14.6803 117.382 14.543 117.728 14.543C118.073 14.543 118.405 14.6803 118.65 14.9248C118.894 15.1693 119.031 15.501 119.031 15.8467V18.575H123.353C123.511 18.5617 123.669 18.5813 123.819 18.6325C123.968 18.6838 124.106 18.7655 124.222 18.8725C124.339 18.9795 124.432 19.1096 124.495 19.2544C124.559 19.3992 124.592 19.5556 124.592 19.7138C124.592 19.8719 124.559 20.0284 124.495 20.1732C124.432 20.318 124.339 20.448 124.222 20.5551C124.106 20.6621 123.968 20.7438 123.819 20.795C123.669 20.8462 123.511 20.8658 123.353 20.8526H119.031V27.7819C119.031 30.6389 120.77 32.168 123.353 32.168C123.513 32.1547 123.674 32.1746 123.825 32.2266C123.977 32.2786 124.116 32.3615 124.234 32.47C124.352 32.5786 124.446 32.7104 124.511 32.8572C124.575 33.004 124.608 33.1626 124.608 33.3229C124.608 33.4832 124.575 33.6418 124.511 33.7886C124.446 33.9354 124.352 34.0673 124.234 34.1758C124.116 34.2844 123.977 34.3672 123.825 34.4192C123.674 34.4712 123.513 34.4911 123.353 34.4778C119.329 34.4778 116.416 31.8944 116.416 27.7819V20.8526H114.686C114.374 20.8571 114.074 20.7404 113.847 20.5271C113.62 20.3138 113.485 20.0207 113.471 19.7098L113.479 19.742Z" fill="white"/>
<path d="M124.785 26.4377C124.785 21.8906 128.519 18.3012 133.42 18.3012C134.609 18.273 135.791 18.4932 136.89 18.9478C137.989 19.4023 138.981 20.0812 139.802 20.941C140.029 21.1739 140.168 21.4781 140.196 21.8021C140.191 21.9648 140.152 22.1246 140.081 22.2715C140.011 22.4184 139.911 22.5491 139.788 22.6557C139.665 22.7622 139.521 22.8421 139.366 22.8905C139.21 22.9389 139.047 22.9547 138.885 22.9369C138.463 22.9056 138.067 22.7193 137.774 22.4137C136.968 21.5585 135.924 20.9651 134.777 20.7103C133.63 20.4555 132.432 20.5511 131.34 20.9847C130.248 21.4183 129.311 22.17 128.651 23.1422C127.991 24.1145 127.638 25.2626 127.638 26.4377C127.638 27.6129 127.991 28.761 128.651 29.7333C129.311 30.7055 130.248 31.4571 131.34 31.8907C132.432 32.3243 133.63 32.4199 134.777 32.1651C135.924 31.9104 136.968 31.3169 137.774 30.4617C138.06 30.1417 138.457 29.9431 138.885 29.9064C139.048 29.8921 139.213 29.9114 139.369 29.9631C139.526 30.0148 139.669 30.0978 139.792 30.2071C139.915 30.3163 140.014 30.4495 140.084 30.5985C140.153 30.7474 140.192 30.909 140.196 31.0734C140.157 31.3778 140.019 31.6607 139.802 31.8782C138.985 32.7454 137.994 33.4313 136.895 33.8916C135.796 34.3518 134.612 34.5762 133.42 34.5501C128.511 34.5662 124.785 30.9768 124.785 26.4377Z" fill="white"/>
<path d="M141.75 13.7463C141.776 13.4171 141.925 13.1098 142.167 12.8857C142.409 12.6616 142.727 12.5371 143.057 12.5371C143.388 12.5371 143.706 12.6616 143.948 12.8857C144.19 13.1098 144.339 13.4171 144.365 13.7463V20.1846C145.013 19.5616 145.777 19.0725 146.614 18.7452C147.45 18.4179 148.344 18.2589 149.242 18.2773C153.073 18.2773 156.115 20.917 156.115 25.3675V33.2223C156.089 33.5515 155.94 33.8588 155.697 34.0829C155.455 34.307 155.137 34.4315 154.807 34.4315C154.477 34.4315 154.159 34.307 153.916 34.0829C153.674 33.8588 153.525 33.5515 153.499 33.2223V25.3353C153.499 22.1725 151.471 20.579 148.912 20.579C146.353 20.579 144.365 22.1403 144.365 25.3353V33.2465C144.339 33.5756 144.19 33.8829 143.948 34.107C143.706 34.3312 143.388 34.4556 143.057 34.4556C142.727 34.4556 142.409 34.3312 142.167 34.107C141.925 33.8829 141.776 33.5756 141.75 33.2465V13.7463Z" fill="white"/>
<path d="M50.2409 42.8638C50.2409 38.3247 53.975 34.7354 58.8759 34.7354C63.7769 34.7354 67.4868 38.3247 67.4868 42.8638C67.4868 47.4029 63.793 51.0003 58.8759 51.0003C53.9589 51.0003 50.2409 47.4029 50.2409 42.8638ZM64.8392 42.8638C64.8599 41.6778 64.5271 40.5125 63.883 39.5165C63.2389 38.5204 62.3128 37.7388 61.2227 37.2712C60.1327 36.8036 58.928 36.6712 57.7625 36.891C56.5969 37.1108 55.5232 37.6727 54.6782 38.5051C53.8332 39.3376 53.2553 40.4028 53.0181 41.565C52.7809 42.7273 52.8952 43.9338 53.3464 45.0308C53.7976 46.1278 54.5653 47.0655 55.5515 47.7245C56.5377 48.3835 57.6979 48.7338 58.884 48.7308C59.6627 48.7458 60.4366 48.605 61.1601 48.3166C61.8836 48.0282 62.5421 47.598 63.0969 47.0514C63.6518 46.5047 64.0917 45.8527 64.3909 45.1335C64.6901 44.4144 64.8425 43.6427 64.8392 42.8638Z" fill="white"/>
<path d="M38.2178 14.7843C38.2437 14.4552 38.3927 14.1479 38.6351 13.9238C38.8774 13.6997 39.1954 13.5752 39.5256 13.5752C39.8557 13.5752 40.1737 13.6997 40.4161 13.9238C40.6585 14.1479 40.8075 14.4552 40.8333 14.7843V34.2685C40.8075 34.5976 40.6585 34.9049 40.4161 35.129C40.1737 35.3532 39.8557 35.4776 39.5256 35.4776C39.1954 35.4776 38.8774 35.3532 38.6351 35.129C38.3927 34.9049 38.2437 34.5976 38.2178 34.2685V14.7843Z" fill="white"/>
</g>
<defs>
<clipPath id="clip0_285_1183">
<rect width="199" height="51" fill="white"/>
</clipPath>
</defs>
</svg>
