<svg width="48" height="48" viewBox="0 0 48 48" fill="none" xmlns="http://www.w3.org/2000/svg">
<path d="M24 28.5C26.4853 28.5 28.5 26.4853 28.5 24C28.5 21.5147 26.4853 19.5 24 19.5C21.5147 19.5 19.5 21.5147 19.5 24C19.5 26.4853 21.5147 28.5 24 28.5Z" stroke="white" stroke-width="2" stroke-miterlimit="10" stroke-linecap="round" stroke-linejoin="round"/>
<path d="M9 25.3201V22.6801C9 21.1201 10.275 19.8301 11.85 19.8301C14.565 19.8301 15.675 17.9101 14.31 15.5551C13.53 14.2051 13.995 12.4501 15.36 11.6701L17.955 10.1851C19.14 9.48015 20.67 9.90015 21.375 11.0851L21.54 11.3701C22.89 13.7251 25.11 13.7251 26.475 11.3701L26.64 11.0851C27.345 9.90015 28.875 9.48015 30.06 10.1851L32.655 11.6701C34.02 12.4501 34.485 14.2051 33.705 15.5551C32.34 17.9101 33.45 19.8301 36.165 19.8301C37.725 19.8301 39.015 21.1051 39.015 22.6801V25.3201C39.015 26.8801 37.74 28.1701 36.165 28.1701C33.45 28.1701 32.34 30.0901 33.705 32.4451C34.485 33.8101 34.02 35.5501 32.655 36.3301L30.06 37.8151C28.875 38.5201 27.345 38.1002 26.64 36.9152L26.475 36.6301C25.125 34.2751 22.905 34.2751 21.54 36.6301L21.375 36.9152C20.67 38.1002 19.14 38.5201 17.955 37.8151L15.36 36.3301C13.995 35.5501 13.53 33.7951 14.31 32.4451C15.675 30.0901 14.565 28.1701 11.85 28.1701C10.275 28.1701 9 26.8801 9 25.3201Z" stroke="white" stroke-width="2" stroke-miterlimit="10" stroke-linecap="round" stroke-linejoin="round"/>
</svg>
