<svg width="48" height="48" viewBox="0 0 48 48" fill="none" xmlns="http://www.w3.org/2000/svg">
<path d="M35.962 25.4181C35.8348 25.7451 35.8026 26.1024 35.8692 26.4474C35.8692 30.153 35.8692 33.8558 35.8692 37.5557C35.9139 37.9739 35.8619 38.3968 35.7174 38.7909H27.3669V29.7499C25.6799 29.7499 24.0942 29.7499 22.5084 29.7499C21.7324 29.7499 20.9564 29.7499 20.1804 29.7499C19.4044 29.7499 19.0501 30.0502 19.0586 30.8908C19.0586 33.1811 19.0586 35.4799 19.0586 37.753C19.0952 38.0797 19.0487 38.4105 18.9236 38.7137C17.6913 38.8027 16.4552 38.8227 15.2207 38.7738C14.0061 38.7738 12.7915 38.7738 11.5768 38.7738C10.843 38.7738 10.5478 38.4821 10.5562 37.7359C10.5562 33.7901 10.5562 29.8528 10.5562 25.907C10.5461 25.7041 10.5863 25.5019 10.6733 25.319C10.7603 25.1361 10.8912 24.9784 11.0539 24.8605C13.1204 23.0764 15.2713 21.4294 17.3378 19.6281C19.0248 18.2042 20.7624 16.8746 22.3988 15.3906C22.5 15.2574 22.6287 15.1482 22.7757 15.0707C22.9227 14.9933 23.0845 14.9494 23.2499 14.942C23.4154 14.9347 23.5804 14.9641 23.7335 15.0282C23.8866 15.0924 24.0241 15.1897 24.1364 15.3134C27.1476 18.024 30.3697 20.4601 33.4147 23.1364C33.9524 23.5411 34.4625 23.9825 34.9414 24.4574C35.2258 24.7524 35.5759 24.9734 35.962 25.1018C36.3481 25.2302 36.7589 25.2622 37.1598 25.1951C38.1045 25.1093 39.0576 25.2551 39.9855 25.1179C40.2385 23.6854 40.2891 22.3987 38.8974 21.4637C37.8009 20.726 36.9152 19.6967 35.8355 18.8904C35.6168 18.7457 35.4434 18.5404 35.3358 18.2987C35.2282 18.0571 35.1909 17.7891 35.2282 17.5265C35.2282 15.648 35.2282 13.7608 35.2282 11.8737C35.2731 11.6786 35.2728 11.4755 35.2274 11.2806C35.182 11.0856 35.0928 10.904 34.9667 10.75C33.5159 10.75 31.8964 10.75 30.201 10.75C30.3275 12.1825 29.6275 13.5807 30.5806 14.8588" stroke="white" stroke-width="1.5" stroke-linecap="round" stroke-linejoin="round"/>
<path d="M23.2164 8.5625C21.5885 9.66046 20.1968 11.0501 18.6701 12.2767C16.0046 14.4212 13.4573 16.72 10.7919 18.8731C9.48448 19.9367 8.26143 21.0776 6.92029 22.1326C6.76852 22.2534 6.65158 22.4135 6.58181 22.5962C6.51204 22.7789 6.49202 22.9773 6.52385 23.1706C6.48485 23.8303 6.52166 24.4924 6.6335 25.1435C7.93247 25.3751 9.26517 25.0662 10.5726 25.3322" stroke="white" stroke-width="1.5" stroke-linecap="round" stroke-linejoin="round"/>
<path d="M23.3168 8.13477C23.224 8.63228 23.6879 8.75237 23.9325 8.94108C25.5773 10.2106 27.1631 11.5659 28.7657 12.8869C29.1117 13.1419 29.4925 13.3442 29.896 13.4873" stroke="white" stroke-width="1.5" stroke-linecap="round" stroke-linejoin="round"/>
</svg>
