<svg width="71" height="65" viewBox="0 0 71 65" fill="none" xmlns="http://www.w3.org/2000/svg">
<path d="M35.9396 37.7497C46.5811 36.7781 62.7978 29.7455 68.6969 43.0011C70.3225 46.1777 70.771 49.8272 69.963 53.303C69.1551 56.7787 67.1428 59.8561 64.2828 61.9901C61.4228 64.124 57.8996 65.1766 54.3378 64.9613C50.7759 64.7461 47.4052 63.2769 44.823 60.814C39.641 56.0716 38.8082 44.898 35.1068 38.8601C31.3129 46.5868 30.4801 59.3103 21.8975 63.3819C6.79117 70.5533 -6.83456 52.3008 3.76067 39.693C11.3716 30.6477 24.581 37.1483 34.274 37.7497C34.5285 36.7781 33.8807 36.6393 33.4643 36.0841C26.6861 27.3164 14.2865 18.8726 22.7303 6.47298C24.3719 4.13183 26.6406 2.30123 29.2757 1.19146C31.9109 0.0816985 34.8057 -0.262212 37.6276 0.199238C40.4494 0.660687 43.0839 1.90878 45.2283 3.80014C47.3727 5.6915 48.9401 8.14942 49.7504 10.8915C52.9892 23.0367 41.538 28.8433 35.9396 37.7497Z" fill="black"/>
</svg>
