<svg width="32" height="29" viewBox="0 0 32 29" fill="none" xmlns="http://www.w3.org/2000/svg">
<path d="M25.0618 3.79211C27.2388 5.22744 28.2974 8.24216 28.2325 10.8887C28.1176 15.8617 23.3741 20.2264 20.1685 23.3051C18.9851 24.4416 17.602 25.8183 16.3687 26.8481C16.2389 26.9548 16.0891 27.1095 15.9093 27.0562C15.7296 27.0028 14.3864 25.6956 14.1567 25.4875C10.9261 22.5047 5.47858 17.7292 4.17037 13.3539C3.7825 12.0589 3.67088 10.6875 3.84368 9.34039C4.01648 7.99329 4.46934 6.70461 5.16901 5.56893C7.99015 1.33231 13.4976 2.57021 15.9942 6.47068C16.9981 4.84905 18.5157 3.66877 20.2684 3.14648C21.0673 2.90769 21.9029 2.8418 22.726 2.95266C23.5492 3.06353 24.3433 3.34893 25.0618 3.79211Z" stroke="white" stroke-linecap="round" stroke-linejoin="round"/>
</svg>
