<svg width="130" height="32" viewBox="0 0 130 32" fill="none" xmlns="http://www.w3.org/2000/svg">
<g clip-path="url(#clip0_1734_3245)">
<path d="M39.7354 6.55013C39.6154 6.37379 39.2428 5.98332 39.7354 5.64952C40.228 5.31573 40.6827 5.21496 40.8027 5.3913L43.2783 9.00004C43.4109 9.18898 43.1267 9.59206 42.6468 9.91325C42.1668 10.2345 41.6931 10.3478 41.5668 10.1589L39.7291 6.55013H39.7354Z" fill="#01351F"/>
<path d="M39.4268 13.5596C39.4268 10.0013 42.3571 7.19238 46.2031 7.19238C50.0491 7.19238 52.9604 10.0076 52.9604 13.5596C52.9604 17.1117 50.0617 19.9206 46.2031 19.9206C42.3444 19.9206 39.4268 17.1369 39.4268 13.5596ZM50.8827 13.5596C50.9002 12.6313 50.6401 11.7188 50.1354 10.9385C49.6308 10.1582 48.9045 9.54556 48.0492 9.17867C47.1939 8.81178 46.2484 8.7073 45.3333 8.87855C44.4182 9.04981 43.575 9.48903 42.9113 10.1402C42.2476 10.7914 41.7934 11.6249 41.6068 12.5346C41.4201 13.4443 41.5094 14.3887 41.8633 15.2476C42.2171 16.1064 42.8195 16.8406 43.5936 17.3566C44.3677 17.8726 45.2783 18.1469 46.2094 18.1446C46.8197 18.1554 47.4261 18.0448 47.993 17.8192C48.56 17.5936 49.0762 17.2575 49.5113 16.8306C49.9465 16.4037 50.2919 15.8945 50.5273 15.3329C50.7628 14.7712 50.8836 14.1684 50.8827 13.5596Z" fill="#01351F"/>
<path d="M2.05247 17.7792V18.6735C2.03219 18.9311 1.91528 19.1716 1.72506 19.347C1.53484 19.5224 1.2853 19.6198 1.02623 19.6198C0.767168 19.6198 0.51763 19.5224 0.327409 19.347C0.137189 19.1716 0.020276 18.9311 0 18.6735V3.41986C0.020276 3.16229 0.137189 2.92183 0.327409 2.74644C0.51763 2.57105 0.767168 2.47363 1.02623 2.47363C1.2853 2.47363 1.53484 2.57105 1.72506 2.74644C1.91528 2.92183 2.03219 3.16229 2.05247 3.41986V8.8991C3.33835 7.66036 5.06445 6.98087 6.85208 7.00971C7.71358 6.97147 8.57393 7.10767 9.38121 7.41009C10.1885 7.71251 10.926 8.17488 11.5492 8.76932C12.1724 9.36375 12.6683 10.0779 13.0072 10.8688C13.346 11.6596 13.5207 12.5107 13.5207 13.3707C13.5207 14.2307 13.346 15.0817 13.0072 15.8726C12.6683 16.6634 12.1724 17.3776 11.5492 17.972C10.926 18.5664 10.1885 19.0288 9.38121 19.3312C8.57393 19.6337 7.71358 19.7699 6.85208 19.7316C5.96164 19.7439 5.07782 19.5774 4.25326 19.242C3.42869 18.9066 2.68024 18.4091 2.05247 17.7792ZM11.4243 13.3707C11.4245 12.76 11.3023 12.1554 11.065 11.5925C10.8276 11.0295 10.4799 10.5196 10.0422 10.0925C9.60455 9.66538 9.08572 9.32978 8.51621 9.10539C7.9467 8.88099 7.33798 8.77231 6.72577 8.78573C6.12838 8.76812 5.53338 8.8683 4.9749 9.08051C4.41642 9.29272 3.90543 9.6128 3.47126 10.0224C3.03708 10.432 2.68826 10.923 2.44479 11.4673C2.20132 12.0116 2.068 12.5985 2.05247 13.1943V13.5596C2.09045 14.7607 2.60302 15.8982 3.47842 16.724C4.35383 17.5498 5.5211 17.997 6.72577 17.9682C7.34319 17.9816 7.95706 17.8717 8.53124 17.645C9.10542 17.4182 9.6283 17.0792 10.0691 16.6478C10.5099 16.2164 10.8596 15.7015 11.0978 15.1333C11.336 14.565 11.4577 13.955 11.4559 13.3392L11.4243 13.3707Z" fill="#01351F"/>
<path d="M14.6133 13.5596C14.6133 10.0013 17.5436 7.19238 21.3896 7.19238C25.2356 7.19238 28.1469 10.0076 28.1469 13.5596C28.1469 17.1117 25.2419 19.9206 21.3896 19.9206C17.5373 19.9206 14.6133 17.1369 14.6133 13.5596ZM26.0629 13.5596C26.0804 12.6313 25.8203 11.7188 25.3156 10.9385C24.811 10.1582 24.0847 9.54556 23.2294 9.17867C22.3741 8.81178 21.4286 8.7073 20.5135 8.87855C19.5984 9.04981 18.7552 9.48903 18.0915 10.1402C17.4278 10.7914 16.9736 11.6249 16.787 12.5346C16.6003 13.4443 16.6896 14.3887 17.0435 15.2476C17.3973 16.1064 17.9997 16.8406 18.7738 17.3566C19.5479 17.8726 20.4585 18.1469 21.3896 18.1446C21.9983 18.1529 22.6027 18.0404 23.1674 17.8137C23.7322 17.5869 24.2461 17.2504 24.6792 16.8238C25.1123 16.3971 25.456 15.8888 25.6903 15.3284C25.9246 14.768 26.0448 14.1668 26.0439 13.5596H26.0629Z" fill="#01351F"/>
<path d="M35.3281 8.22535C35.3281 7.95475 35.4359 7.69525 35.6278 7.50391C35.8196 7.31257 36.0799 7.20508 36.3512 7.20508C36.6225 7.20508 36.8828 7.31257 37.0746 7.50391C37.2665 7.69525 37.3743 7.95475 37.3743 8.22535V18.9319C37.3743 19.2025 37.2665 19.462 37.0746 19.6533C36.8828 19.8447 36.6225 19.9522 36.3512 19.9522C36.0799 19.9522 35.8196 19.8447 35.6278 19.6533C35.4359 19.462 35.3281 19.2025 35.3281 18.9319V8.22535Z" fill="#01351F"/>
<path d="M55.0312 11.0782C55.0312 8.07407 57.1406 6.41771 59.7614 6.41771C61.4286 6.41771 62.7422 6.99083 63.4874 8.16855C63.9012 7.58555 64.4583 7.11836 65.1053 6.81178C65.7522 6.50519 66.4672 6.3695 67.1818 6.41771C69.8279 6.41771 71.9373 8.07407 71.9373 11.0782V18.113C71.917 18.3706 71.8001 18.6111 71.6098 18.7865C71.4196 18.9619 71.1701 19.0593 70.911 19.0593C70.652 19.0593 70.4024 18.9619 70.2122 18.7865C70.022 18.6111 69.9051 18.3706 69.8848 18.113V11.0404C69.8848 9.15103 68.7038 8.18115 67.1882 8.18115C65.6725 8.18115 64.5042 9.15103 64.5042 11.0404V18.1005C64.4839 18.358 64.367 18.5985 64.1768 18.7739C63.9865 18.9493 63.737 19.0467 63.4779 19.0467C63.2189 19.0467 62.9693 18.9493 62.7791 18.7739C62.5889 18.5985 62.472 18.358 62.4517 18.1005V11.0404C62.4517 9.15103 61.2707 8.18115 59.7551 8.18115C58.2394 8.18115 57.0837 9.14473 57.0837 11.0404V18.1005C57.0634 18.358 56.9465 18.5985 56.7563 18.7739C56.5661 18.9493 56.3165 19.0467 56.0575 19.0467C55.7984 19.0467 55.5489 18.9493 55.3587 18.7739C55.1684 18.5985 55.0515 18.358 55.0312 18.1005V11.0782Z" fill="#01351F"/>
<path d="M85.2562 17.2245C84.6233 17.8453 83.8732 18.3347 83.0493 18.6644C82.2255 18.9941 81.3442 19.1576 80.4566 19.1454C79.6017 19.1722 78.7501 19.0275 77.9523 18.7197C77.1546 18.412 76.427 17.9475 75.8127 17.3539C75.1984 16.7603 74.71 16.0496 74.3765 15.2641C74.043 14.4786 73.8711 13.6343 73.8711 12.7813C73.8711 11.9283 74.043 11.084 74.3765 10.2985C74.71 9.51301 75.1984 8.80236 75.8127 8.20875C76.427 7.61513 77.1546 7.15066 77.9523 6.8429C78.7501 6.53515 79.6017 6.39039 80.4566 6.41721C82.2489 6.4026 83.9742 7.09536 85.2562 8.34439V7.43119C85.2765 7.17362 85.3934 6.93315 85.5836 6.75776C85.7739 6.58237 86.0234 6.48496 86.2825 6.48496C86.5415 6.48496 86.7911 6.58237 86.9813 6.75776C87.1715 6.93315 87.2884 7.17362 87.3087 7.43119V18.1377C87.2884 18.3953 87.1715 18.6358 86.9813 18.8112C86.7911 18.9865 86.5415 19.084 86.2825 19.084C86.0234 19.084 85.7739 18.9865 85.5836 18.8112C85.3934 18.6358 85.2765 18.3953 85.2562 18.1377V17.2245ZM85.2562 12.9734V12.5892C85.2102 11.3909 84.6951 10.2582 83.8215 9.43408C82.9479 8.60996 81.7853 8.16 80.5829 8.18065C79.972 8.174 79.3658 8.28752 78.7989 8.51474C78.232 8.74195 77.7156 9.07839 77.2792 9.50481C76.8428 9.93123 76.495 10.4393 76.2556 10.9999C76.0163 11.5605 75.8901 12.1626 75.8844 12.7719C75.9176 13.9738 76.4135 15.1168 77.2691 15.9638C78.1248 16.8109 79.2746 17.297 80.48 17.3213C81.6854 17.3456 82.8539 16.9062 83.7432 16.0943C84.6325 15.2825 85.1743 14.1604 85.2562 12.9608V12.9734Z" fill="#01351F"/>
<path d="M89.0522 7.54505C89.0605 7.30226 89.1647 7.07259 89.3422 6.90621C89.5197 6.73982 89.756 6.65024 89.9995 6.65703H91.3636V4.49683C91.3636 4.22624 91.4714 3.96673 91.6633 3.77539C91.8551 3.58406 92.1153 3.47656 92.3867 3.47656C92.658 3.47656 92.9182 3.58406 93.1101 3.77539C93.302 3.96673 93.4098 4.22624 93.4098 4.49683V6.63184H96.8011C96.9247 6.62147 97.0492 6.6368 97.1666 6.67688C97.284 6.71695 97.3918 6.78089 97.4832 6.86465C97.5746 6.94842 97.6475 7.05018 97.6974 7.1635C97.7473 7.27683 97.773 7.39924 97.773 7.523C97.773 7.64677 97.7473 7.76919 97.6974 7.88251C97.6475 7.99583 97.5746 8.0976 97.4832 8.18136C97.3918 8.26512 97.284 8.32906 97.1666 8.36914C97.0492 8.40921 96.9247 8.42455 96.8011 8.41417H93.4098V13.8367C93.4098 16.0725 94.7739 17.2691 96.8011 17.2691C96.9264 17.2587 97.0526 17.2743 97.1716 17.315C97.2906 17.3556 97.3999 17.4205 97.4925 17.5054C97.5851 17.5904 97.659 17.6936 97.7095 17.8084C97.7601 17.9233 97.7862 18.0474 97.7862 18.1729C97.7862 18.2983 97.7601 18.4224 97.7095 18.5373C97.659 18.6522 97.5851 18.7554 97.4925 18.8403C97.3999 18.9253 97.2906 18.9901 97.1716 19.0308C97.0526 19.0715 96.9264 19.0871 96.8011 19.0766C93.6434 19.0766 91.3573 17.055 91.3573 13.8367V8.41417H89.9995C89.7552 8.41771 89.5192 8.32637 89.3412 8.15948C89.1633 7.99258 89.0573 7.76321 89.0459 7.51986L89.0522 7.54505Z" fill="#01351F"/>
<path d="M97.9248 12.7851C97.9248 9.22679 100.855 6.4179 104.701 6.4179C105.634 6.39582 106.561 6.56814 107.424 6.92384C108.286 7.27954 109.064 7.8108 109.709 8.48363C109.887 8.6659 109.997 8.90399 110.019 9.15751C110.014 9.28484 109.983 9.4099 109.928 9.52483C109.873 9.63977 109.795 9.74211 109.698 9.82547C109.602 9.90882 109.489 9.97139 109.367 10.0093C109.245 10.0471 109.116 10.0595 108.989 10.0455C108.658 10.021 108.348 9.87523 108.118 9.63616C107.485 8.96692 106.666 8.50253 105.766 8.30314C104.865 8.10375 103.926 8.17856 103.069 8.51787C102.212 8.85719 101.476 9.44538 100.958 10.2062C100.44 10.9671 100.164 11.8655 100.164 12.7851C100.164 13.7048 100.44 14.6032 100.958 15.3641C101.476 16.1249 102.212 16.7131 103.069 17.0524C103.926 17.3917 104.865 17.4665 105.766 17.2672C106.666 17.0678 107.485 16.6034 108.118 15.9341C108.342 15.6837 108.654 15.5283 108.989 15.4996C109.118 15.4884 109.247 15.5035 109.37 15.5439C109.492 15.5844 109.605 15.6493 109.701 15.7348C109.798 15.8203 109.876 15.9246 109.93 16.0412C109.985 16.1577 110.015 16.2842 110.019 16.4128C109.988 16.651 109.879 16.8724 109.709 17.0426C109.068 17.7212 108.29 18.258 107.428 18.6182C106.565 18.9784 105.636 19.1539 104.701 19.1335C100.849 19.1461 97.9248 16.3372 97.9248 12.7851Z" fill="#01351F"/>
<path d="M111.237 2.85345C111.258 2.59589 111.374 2.35542 111.565 2.18003C111.755 2.00464 112.004 1.90723 112.264 1.90723C112.523 1.90723 112.772 2.00464 112.962 2.18003C113.153 2.35542 113.269 2.59589 113.29 2.85345V7.89183C113.798 7.40429 114.398 7.0215 115.054 6.76537C115.711 6.50924 116.412 6.38482 117.117 6.39921C120.123 6.39921 122.51 8.46495 122.51 11.9477V18.0945C122.49 18.3521 122.373 18.5926 122.183 18.768C121.992 18.9434 121.743 19.0408 121.484 19.0408C121.225 19.0408 120.975 18.9434 120.785 18.768C120.595 18.5926 120.478 18.3521 120.458 18.0945V11.9225C120.458 9.44742 118.866 8.20043 116.858 8.20043C114.85 8.20043 113.29 9.42223 113.29 11.9225V18.1134C113.269 18.371 113.153 18.6115 112.962 18.7869C112.772 18.9623 112.523 19.0597 112.264 19.0597C112.004 19.0597 111.755 18.9623 111.565 18.7869C111.374 18.6115 111.258 18.371 111.237 18.1134V2.85345Z" fill="#01351F"/>
<path d="M39.4268 25.6393C39.4268 22.0872 42.3571 19.2783 46.2031 19.2783C50.0491 19.2783 52.9604 22.0872 52.9604 25.6393C52.9604 29.1913 50.0617 32.0065 46.2031 32.0065C42.3444 32.0065 39.4268 29.1913 39.4268 25.6393ZM50.8827 25.6393C50.899 24.7112 50.6378 23.7993 50.1323 23.0198C49.6269 22.2403 48.9001 21.6287 48.0447 21.2627C47.1893 20.8968 46.2439 20.7932 45.3293 20.9652C44.4146 21.1372 43.572 21.5769 42.9089 22.2284C42.2458 22.8798 41.7923 23.7134 41.6062 24.6229C41.42 25.5324 41.5097 26.4766 41.8638 27.335C42.2179 28.1935 42.8203 28.9274 43.5942 29.443C44.3682 29.9587 45.2786 30.2329 46.2094 30.2305C46.8205 30.2423 47.4277 30.132 47.9955 29.9064C48.5633 29.6807 49.0801 29.344 49.5155 28.9163C49.9509 28.4885 50.2961 27.9782 50.5309 27.4155C50.7657 26.8527 50.8853 26.2488 50.8827 25.6393Z" fill="#01351F"/>
<path d="M29.9912 3.66497C30.0115 3.40741 30.1284 3.16695 30.3186 2.99156C30.5088 2.81617 30.7584 2.71875 31.0174 2.71875C31.2765 2.71875 31.526 2.81617 31.7163 2.99156C31.9065 3.16695 32.0234 3.40741 32.0437 3.66497V18.9124C32.0234 19.1699 31.9065 19.4104 31.7163 19.5858C31.526 19.7612 31.2765 19.8586 31.0174 19.8586C30.7584 19.8586 30.5088 19.7612 30.3186 19.5858C30.1284 19.4104 30.0115 19.1699 29.9912 18.9124V3.66497Z" fill="#01351F"/>
<path d="M125.762 8.24403C125.645 8.24249 125.53 8.2122 125.427 8.15586C125.314 8.09918 125.263 7.94173 125.263 7.69611V4.70458H122.289C122.147 4.71242 122.007 4.67248 121.891 4.59121C121.835 4.54337 121.792 4.48298 121.764 4.41506C121.737 4.34714 121.726 4.27366 121.733 4.20074C121.723 4.13259 121.73 4.06313 121.752 3.99792C121.774 3.93271 121.811 3.87355 121.86 3.82519C121.909 3.77683 121.969 3.74061 122.035 3.71942C122.1 3.69824 122.17 3.69269 122.238 3.7032H125.288V0.711663C125.288 0.459744 125.339 0.308589 125.453 0.245609C125.556 0.18767 125.672 0.157227 125.79 0.157227C125.909 0.157227 126.025 0.18767 126.128 0.245609C126.236 0.308589 126.293 0.459744 126.293 0.711663V3.7032H129.292C129.433 3.69753 129.572 3.7349 129.69 3.81026C129.744 3.85905 129.786 3.91977 129.812 3.98757C129.839 4.05537 129.849 4.12837 129.842 4.20074C129.849 4.27314 129.839 4.3463 129.813 4.41418C129.787 4.48207 129.745 4.54274 129.69 4.59121C129.574 4.67248 129.434 4.71242 129.292 4.70458H126.293V7.69611C126.293 7.94173 126.236 8.09918 126.128 8.15586C126.016 8.21716 125.89 8.24759 125.762 8.24403Z" fill="#01351F" stroke="#01351F" stroke-width="0.5" stroke-miterlimit="10"/>
</g>
<defs>
<clipPath id="clip0_1734_3245">
<rect width="130" height="32" fill="white"/>
</clipPath>
</defs>
</svg>
