<svg width="39" height="39" viewBox="0 0 39 39" fill="none" xmlns="http://www.w3.org/2000/svg">
<path d="M30.1096 38.5H8.40212C6.30841 38.4932 4.30236 37.6476 2.82188 36.1479C1.3414 34.6481 0.506729 32.616 0.5 30.495V8.49637C0.506739 6.37621 1.34173 4.34497 2.82245 2.84659C4.30318 1.3482 6.30919 0.504544 8.40212 0.5H30.1096C32.204 0.502268 34.2122 1.34492 35.6948 2.84355C37.1774 4.34217 38.0135 6.37472 38.0203 8.49637V30.495C38.0135 32.616 37.1788 34.6481 35.6983 36.1479C34.2179 37.6476 32.2119 38.4932 30.1181 38.5" stroke="white" stroke-linecap="round" stroke-linejoin="round"/>
<path d="M18.1072 11.5985C18.1072 11.9259 17.7329 12.1241 17.4692 12.1241C17.2839 12.1454 17.097 12.0996 16.9418 11.9949C16.8845 11.9447 16.8217 11.9013 16.7547 11.8656C16.5827 11.745 16.3767 11.6845 16.1678 11.6933C16.0293 11.6983 15.8932 11.7314 15.7676 11.7906C15.6419 11.8498 15.5293 11.9339 15.4362 12.0379C15.2276 12.3094 15.1112 12.6419 15.1045 12.9858V13.115C15.1255 13.4299 15.2413 13.7306 15.4362 13.9767C15.5284 14.0811 15.6411 14.165 15.7671 14.2228C15.893 14.2807 16.0295 14.3113 16.1678 14.3128C16.3761 14.3281 16.5834 14.2703 16.7547 14.1491L16.9163 14.0284C17.0699 13.92 17.2581 13.8739 17.4437 13.8992C17.7074 13.8992 18.0816 14.0974 18.0816 14.4162V18.0869H21.6797C21.761 18.0493 21.825 17.9814 21.8583 17.8974C21.8583 17.6819 21.8583 17.6389 21.8583 17.6302C21.8061 17.5673 21.7578 17.5011 21.7137 17.432C21.5243 17.1458 21.4431 16.7999 21.4853 16.458C21.5275 16.116 21.6902 15.801 21.9434 15.5708C22.2686 15.3002 22.6713 15.1431 23.0917 15.1227H23.2533C23.6942 15.1306 24.1196 15.2884 24.4612 15.5708C24.7144 15.801 24.877 16.116 24.9192 16.458C24.9614 16.7999 24.8803 17.1458 24.6909 17.432C24.6468 17.5011 24.5984 17.5673 24.5462 17.6302C24.5462 17.6302 24.5037 17.6819 24.5462 17.8974C24.5484 17.9881 24.585 18.0745 24.6483 18.1386H26.6812V17.5096H28.6036C28.7402 17.5104 28.8737 17.4691 28.9865 17.3911C29.0993 17.313 29.1859 17.2021 29.2349 17.0729C29.2838 16.9438 29.2928 16.8026 29.2606 16.6682C29.2283 16.5338 29.1565 16.4125 29.0545 16.3205L25.4479 13.0289L22.156 10.013L18.7025 6.85926C18.5665 6.73271 18.3988 6.64629 18.2177 6.60938V11.5985" fill="white"/>
<path d="M14.0764 18.121H17.6999V14.4503C17.6683 14.4159 17.6301 14.3883 17.5878 14.3691C17.5454 14.3499 17.4997 14.3394 17.4533 14.3383C17.2491 14.3383 17.1981 14.3383 17.1896 14.3383L17.0024 14.4848C16.7514 14.6547 16.4535 14.7392 16.1518 14.726C15.96 14.7218 15.7711 14.6775 15.5969 14.596C15.4228 14.5144 15.2671 14.3974 15.1396 14.2521C14.8714 13.9193 14.7136 13.5092 14.6888 13.0802V12.9855C14.6963 12.5373 14.8554 12.1054 15.1396 11.7619C15.2671 11.6166 15.4228 11.4995 15.5969 11.418C15.7711 11.3364 15.96 11.2922 16.1518 11.2879C16.4535 11.2748 16.7514 11.3593 17.0024 11.5292L17.1896 11.6757C17.1896 11.6757 17.2491 11.6757 17.4533 11.6757C17.5449 11.6716 17.6322 11.635 17.6999 11.5723V6.5918C17.5113 6.62628 17.3368 6.71618 17.1981 6.8503L6.84619 16.3288C6.7442 16.4208 6.67232 16.542 6.64008 16.6765C6.60784 16.8109 6.61682 16.9521 6.66578 17.0812C6.71474 17.2104 6.80137 17.3213 6.91415 17.3993C7.02693 17.4773 7.16048 17.5187 7.29704 17.5179H9.21942V18.1383H11.2608C11.5756 18.1383 11.7712 18.5174 11.7798 18.7845C11.7959 18.972 11.7511 19.1596 11.6521 19.3188L11.5245 19.4739C11.4115 19.6537 11.3552 19.864 11.3629 20.0771C11.3659 20.2177 11.3977 20.3562 11.4563 20.4837C11.5149 20.6113 11.5989 20.7251 11.7032 20.8181C11.9679 21.0294 12.2934 21.1473 12.6304 21.1542H12.7664C13.0768 21.1308 13.373 21.0137 13.617 20.8181C13.7213 20.7251 13.8053 20.6113 13.8639 20.4837C13.9225 20.3562 13.9543 20.2177 13.9573 20.0771C13.966 19.8654 13.9062 19.6567 13.7872 19.4825C13.753 19.424 13.7131 19.3691 13.6681 19.3188C13.5691 19.1596 13.5243 18.972 13.5405 18.7845C13.5405 18.5174 13.7361 18.1383 14.0509 18.1383" fill="white"/>
<path d="M28.57 32.6747L31.8789 24.9886L30.0161 24.1269C29.8892 24.0435 29.7967 23.9161 29.756 23.7685C29.7152 23.621 29.7291 23.4635 29.7949 23.3255C29.8526 23.1473 29.9661 22.993 30.1181 22.8861L30.2967 22.7913C30.4707 22.6724 30.6066 22.5047 30.688 22.3088C30.7423 22.1808 30.7703 22.043 30.7703 21.9038C30.7703 21.7645 30.7423 21.6267 30.688 21.4988C30.5325 21.1946 30.281 20.9519 29.9735 20.8094H29.8885C29.5844 20.7094 29.2569 20.7094 28.9528 20.8094C28.8208 20.8507 28.6989 20.9196 28.5948 21.0116C28.4908 21.1036 28.407 21.2168 28.3489 21.3437C28.2579 21.5366 28.2282 21.7533 28.2638 21.9641C28.2776 22.0281 28.2946 22.0914 28.3149 22.1537C28.348 22.3401 28.3148 22.5324 28.2212 22.6965C28.1107 22.9464 27.779 23.2135 27.4983 23.0843L27.3792 23.0326L26.6221 22.6965L24.1723 21.6194L23.0836 23.9287L22.6753 24.8852C22.6901 24.9289 22.7135 24.969 22.7442 25.0031C22.775 25.0372 22.8123 25.0645 22.8539 25.0834C22.9312 25.1305 23.0189 25.1572 23.1091 25.1609C23.1839 25.1344 23.2607 25.1142 23.3388 25.1006C23.627 25.051 23.9233 25.09 24.1894 25.2126C24.3654 25.2957 24.5223 25.4154 24.6498 25.5638C24.7773 25.7122 24.8725 25.8862 24.9294 26.0743C25.0484 26.4851 25.0305 26.9242 24.8784 27.3237V27.3926V27.4702C24.6955 27.8776 24.3802 28.2091 23.9852 28.4094C23.8097 28.488 23.62 28.5286 23.4281 28.5286C23.2362 28.5286 23.0464 28.488 22.8709 28.4094C22.599 28.2993 22.3672 28.1067 22.2074 27.858L22.0969 27.6425C22.0331 27.5777 21.954 27.5303 21.8672 27.5047C21.8255 27.4869 21.7806 27.4777 21.7354 27.4777C21.6901 27.4777 21.6453 27.4869 21.6036 27.5047L20.4893 30.0897L27.3792 33.1314C27.4941 33.1828 27.6181 33.2107 27.7437 33.2133C27.8694 33.216 27.9943 33.1935 28.1113 33.147C28.2283 33.1005 28.3351 33.0311 28.4255 32.9426C28.5159 32.8542 28.5881 32.7485 28.638 32.6316" fill="white"/>
<path d="M17.6898 25.0655C17.6898 24.7467 18.0641 24.5399 18.3363 24.5399C18.5184 24.5254 18.7004 24.5707 18.8551 24.6692L19.0167 24.7898C19.1918 24.9105 19.4006 24.9709 19.6122 24.9621C19.7497 24.9584 19.8849 24.9258 20.0093 24.8665C20.1338 24.8072 20.2448 24.7224 20.3352 24.6175C20.5457 24.3498 20.6651 24.0203 20.6754 23.6782V23.5404C20.6543 23.224 20.5352 22.9225 20.3352 22.6787C20.2448 22.5737 20.1338 22.4889 20.0093 22.4296C19.8849 22.3703 19.7497 22.3377 19.6122 22.334C19.4019 22.3262 19.1942 22.3833 19.0167 22.4977L18.8636 22.627C18.7065 22.7272 18.5213 22.7726 18.3363 22.7562C18.0641 22.7562 17.6898 22.5494 17.6898 22.2306V18.5254H14.0918C14.0253 18.5881 13.9856 18.6747 13.9812 18.7667C13.9812 18.9821 13.9812 19.0338 13.9812 19.0338L14.1258 19.232C14.2981 19.4841 14.382 19.7875 14.364 20.0936C14.3625 20.2897 14.3201 20.4832 14.2395 20.6615C14.1588 20.8397 14.0418 20.9986 13.8961 21.1277C13.5731 21.4021 13.1691 21.5598 12.7478 21.5757H12.5947C12.152 21.5696 11.7252 21.4082 11.3868 21.119C11.1336 20.8889 10.971 20.5738 10.9288 20.2319C10.8866 19.8899 10.9677 19.544 11.1571 19.2578C11.1974 19.1888 11.246 19.1251 11.3018 19.0682C11.3192 18.9801 11.3192 18.8893 11.3018 18.8011C11.3012 18.754 11.2911 18.7076 11.272 18.6646C11.253 18.6216 11.2255 18.583 11.1912 18.5512H9.15824V26.944C9.15711 27.0722 9.18121 27.1993 9.22911 27.318C9.27701 27.4366 9.34776 27.5444 9.43724 27.635C9.52672 27.7257 9.63312 27.7974 9.75025 27.8459C9.86738 27.8944 9.99289 27.9188 10.1194 27.9177H17.6218V25.0914L17.6898 25.0655Z" fill="white"/>
</svg>
