<svg width="98" height="127" viewBox="0 0 98 127" fill="none" xmlns="http://www.w3.org/2000/svg">
<g clip-path="url(#clip0_2514_3077)">
<path d="M57.7099 97.69C56.9899 98.53 58.0599 116.69 57.7099 119.91C56.6399 128.73 43.1899 129.3 40.7099 121.37V97.95C40.4999 97.17 35.3499 97.95 34.7099 93.36C34.3299 90.59 34.3699 80.88 35.3099 78.52C38.0599 71.65 47.5999 71.52 53.7899 72.28C58.8899 72.92 62.9099 76.18 63.6399 81.44C63.9749 85.2393 63.9749 89.0607 63.6399 92.86C63.1399 96 60.6499 97.38 57.7099 97.69Z" fill="#95C11F"/>
<path d="M85.9899 82.47C85.3494 83.0751 84.5874 83.537 83.7546 83.8249C82.9219 84.1128 82.0374 84.2202 81.1599 84.14C80.6499 91.3 81.8399 99.36 81.1599 106.41C80.2399 116.24 65.1599 115.9 64.1599 106.41C63.9285 103.748 63.9285 101.072 64.1599 98.41C64.4299 96.98 65.8999 96.03 66.1599 93.9C66.6099 90.2 66.5199 80.16 65.0899 76.96C63.4199 73.24 58.2399 70.79 58.0899 70.31C57.5799 68.31 60.2099 62.63 61.9399 61.22C65.2399 58.53 74.6399 58.62 78.8199 59.22C82.3799 59.7 86.5199 63.37 87.0799 66.95C87.4422 71.2751 87.4589 75.6222 87.1299 79.95C87.0272 80.8898 86.6279 81.7724 85.9899 82.47Z" fill="#95C11F"/>
<path d="M32.5298 111.47C29.3298 114.7 18.8198 114 17.9198 108.18L17.6998 84.18C15.2298 84.4 12.6098 83.27 11.9398 80.69C11.2698 78.11 11.4298 67.69 12.4498 65.18C13.3798 62.88 16.6198 59.8 19.0698 59.3C21.8298 58.73 32.1798 58.93 34.6998 59.93C38.5798 61.49 37.7598 63.39 39.0998 66.54C39.5898 67.71 41.5298 68.54 40.4698 70.19C36.1998 72.14 32.5398 75.69 31.8298 80.56C31.3798 83.66 31.2798 93.5 32.5998 96.03C33.3498 97.47 34.4798 97.55 34.7298 99.41C35.1298 102.62 34.9298 109.01 32.5298 111.47Z" fill="#95C11F"/>
<path d="M14.6601 96.64C0.800097 97.16 7.8701 76.52 6.1901 67.95C6.0401 67.4 1.7901 67.41 0.630098 64.43C-0.159902 62.43 -0.0498997 55.33 0.1401 52.87C0.8601 43.59 7.4401 41.87 15.6601 42.64C14.6601 47.96 14.6601 52.64 18.6601 56.64C12.6601 58.25 9.1701 62.71 8.6601 68.87C8.1501 75.03 7.4301 84.61 14.6601 86.64V96.64Z" fill="#95C11F"/>
<path d="M90.4099 42.64C92.6099 43.09 96.4899 46.64 97.1899 48.86C97.9599 51.29 98.0199 60.66 97.6799 63.41C97.1599 67.66 92.2099 67.06 91.6799 68.46L91.2799 92.05C90.4799 94.81 86.8499 97.63 84.0599 96.35C83.4699 95.52 83.3799 88.27 83.8099 87.35C84.4099 86.07 88.7599 84.95 89.8099 81.04C90.4799 78.45 90.4299 71.19 90.1699 68.36C89.963 65.5968 88.8826 62.9711 87.085 60.8624C85.2873 58.7537 82.8656 57.2715 80.1699 56.63C84.0799 52.63 84.3099 47.87 83.1699 42.63C85.3199 42.94 88.4099 42.28 90.4099 42.64Z" fill="#95C11F"/>
<path d="M73.1602 36.64C68.9802 36.42 64.0101 39.02 62.6501 43.14L56.6501 40.14C57.4901 38.03 59.2202 36.99 59.8102 34.55C61.0402 29.46 59.4602 25.26 55.6602 21.89C57.2769 20.5443 59.2806 19.7491 61.3802 19.62C63.6002 19.42 76.6602 19.19 76.6402 21.89C72.2402 25.87 71.0502 31.07 73.1602 36.64Z" fill="#95C11F"/>
<path d="M41.6602 40.14L36.4102 42.6C33.8102 38.78 29.9202 36.25 25.1602 36.6C26.2702 31.85 26.5602 28.92 23.8802 24.6C23.1402 23.41 21.2802 22.83 21.6902 21.1C25.0502 19.1 39.5602 18.52 41.6902 21.3C42.6902 22.65 39.6302 24.56 38.7802 26.45C36.3802 31.91 38.2102 35.91 41.6602 40.14Z" fill="#95C11F"/>
<path d="M41.3301 52.81C39.9503 54.2885 38.8824 56.0298 38.1901 57.93C31.1201 57.68 36.4601 53.78 37.0501 50.78C37.3601 49.2 36.8601 47.39 37.2601 45.99C37.7401 44.35 41.2601 42.83 42.9101 42.64C46.4401 42.24 55.4001 42.21 58.3101 43.74C62.5601 45.97 60.9001 46.83 61.7801 50.27C62.7001 53.86 66.3201 57.11 60.4401 58.63C59.2001 56.72 58.6501 54.79 56.9301 53.12C54.8223 51.1603 52.0667 50.0455 49.1893 49.9883C46.3118 49.9311 43.5141 50.9356 41.3301 52.81Z" fill="#95C11F"/>
<path d="M48.0401 22.75C59.0401 21.22 60.9301 38.34 50.3601 39.6C38.6301 41 37.1701 24.28 48.0401 22.75Z" fill="#95C11F"/>
<path d="M26.0501 39.28C32.6701 39.05 36.9501 46.98 33.1701 52.41C32.0474 54.1589 30.3182 55.4315 28.3145 55.9834C26.3108 56.5353 24.1739 56.3275 22.314 55.4001C20.4542 54.4726 19.0024 52.8908 18.2376 50.9584C17.4728 49.0259 17.4487 46.8791 18.1701 44.93C18.778 43.3148 19.851 41.916 21.2536 40.9104C22.6561 39.9048 24.3252 39.3374 26.0501 39.28Z" fill="#95C11F"/>
<path d="M47.53 52.76C56.67 51.33 61.41 63.55 53.53 68.25C46.81 72.25 39.21 66.63 40.79 59.01C41.31 56.44 44.94 53.16 47.53 52.76Z" fill="#95C11F"/>
<path d="M72.5302 39.28C82.8602 38.93 84.2502 55.11 73.8902 56.15C61.8802 57.35 61.0702 39.67 72.5302 39.28Z" fill="#95C11F"/>
<path d="M64.02 0.279999C77.31 -2.48 78.39 17.62 65.39 16.69C55.78 15.98 55.39 2.04 64.02 0.279999Z" fill="#95C11F"/>
<path d="M14.0598 22.75C23.3498 22 26.8198 35.4 18.1598 38.89C5.57981 43.97 1.52981 23.75 14.0598 22.75Z" fill="#95C11F"/>
<path d="M82.5302 22.75C91.2802 21.88 95.3902 34.62 87.3202 38.58C74.7402 44.77 69.6502 24.04 82.5302 22.75Z" fill="#95C11F"/>
<path d="M29.5302 0.280001C39.4402 -1.78 44.0802 10.4 36.6302 15.38C29.6302 20.02 20.6302 12.66 24.2202 4.97C25.0902 3.09 27.5302 0.680001 29.5302 0.280001Z" fill="#95C11F"/>
</g>
<defs>
<clipPath id="clip0_2514_3077">
<rect width="97.88" height="126.95" fill="white"/>
</clipPath>
</defs>
</svg>
