<svg width="76" height="76" viewBox="0 0 76 76" fill="none" xmlns="http://www.w3.org/2000/svg">
<g clip-path="url(#clip0_2514_3072)">
<path d="M63.4697 12.8H73.8697C74.3311 12.9702 74.7655 13.2059 75.1597 13.5C76.3297 14.62 75.9797 16.1 75.0497 17.22C72.6497 20.14 69.0497 22.68 66.5197 25.62C63.5197 28.08 57.9597 25.79 54.5197 27.14C46.8997 33.69 39.8297 40.87 32.2697 47.47C31.4797 48.17 29.5797 50 28.5997 50.03C28.0453 49.9977 27.5129 49.8019 27.0698 49.4673C26.6266 49.1327 26.2925 48.6743 26.1097 48.15C25.9726 47.8432 25.9198 47.5055 25.9568 47.1715C25.9937 46.8375 26.1189 46.5194 26.3197 46.25C27.315 44.8986 28.4079 43.6219 29.5897 42.43C35.5897 35.7 42.3897 29.15 48.1497 22.26C48.7566 21.6908 49.1338 20.9187 49.2097 20.09C49.4297 17.47 48.6097 12.27 49.7597 10.18C49.954 9.87899 50.1643 9.58858 50.3897 9.31C53.3097 6.88 55.8397 3.2 58.7297 0.850002C59.0891 0.537908 59.4981 0.287824 59.9397 0.110002C60.395 -0.0354773 60.8843 -0.0354773 61.3397 0.110002C61.8125 0.231722 62.2374 0.493609 62.5587 0.861261C62.8799 1.22891 63.0825 1.68514 63.1397 2.17C63.5297 5.17 62.8797 9.17 63.2697 12.12C63.2997 12.41 63.4197 12.54 63.4697 12.8Z" fill="#95C11F"/>
<path d="M53.7099 38.24C55.7537 43.9695 55.8027 50.2214 53.8491 55.9823C51.8955 61.7432 48.0537 66.6756 42.9464 69.9801C37.8391 73.2846 31.7655 74.7676 25.71 74.1887C19.6544 73.6098 13.9718 71.003 9.58308 66.7907C5.19432 62.5784 2.35663 57.0075 1.52987 50.9808C0.70311 44.9541 1.93574 38.8248 5.028 33.5862C8.12026 28.3477 12.8909 24.3068 18.5669 22.1186C24.2428 19.9304 30.4914 19.723 36.2999 21.53" stroke="#95C11F" stroke-width="2.5" stroke-miterlimit="10"/>
<path d="M42.95 42.07C44.1261 45.3816 44.1488 48.9934 43.0145 52.3195C41.8803 55.6456 39.6555 58.4909 36.7011 60.3939C33.7467 62.2969 30.236 63.1459 26.7386 62.8032C23.2411 62.4605 19.962 60.9461 17.4332 58.5059C14.9045 56.0656 13.2743 52.8425 12.8073 49.3595C12.3402 45.8764 13.0636 42.3377 14.8602 39.3175C16.6568 36.2972 19.4211 33.9725 22.7047 32.7205C25.9883 31.4685 29.5986 31.3626 32.95 32.42" stroke="#95C11F" stroke-width="2.5" stroke-miterlimit="10"/>
</g>
<defs>
<clipPath id="clip0_2514_3072">
<rect width="75.91" height="75.56" fill="white"/>
</clipPath>
</defs>
</svg>
