<svg width="36" height="69" viewBox="0 0 36 69" fill="none" xmlns="http://www.w3.org/2000/svg">
<path d="M34.7497 23.0065L33.2597 34.2165H23.4797L23.3097 34.3865V66.9165L23.0097 67.0965H20.2597C16.6497 66.5565 12.3797 67.3965 8.81973 66.9765C8.63973 66.9765 8.50973 66.9765 8.39973 66.7965V34.2165H1.39973L1.21973 34.0365V23.1265C3.32973 22.7365 5.76973 23.2465 7.83973 23.0165C8.33973 22.9565 8.33973 22.6665 8.37973 22.2365C8.92973 16.3165 6.87973 9.91653 11.6597 5.11653C15.9597 0.856532 21.4697 1.54653 27.0497 1.43653C29.4681 1.24377 31.896 1.20036 34.3197 1.30653C34.4897 1.30653 34.6297 1.30653 34.7297 1.48653V12.5765L34.5497 12.7565H27.0597C26.3967 12.8038 25.7453 12.9557 25.1297 13.2065C24.6755 13.4609 24.2853 13.8157 23.989 14.2437C23.6927 14.6718 23.498 15.1618 23.4197 15.6765V22.8265L23.5997 23.0065H34.7497Z" stroke="#95C11F" stroke-width="2.5" stroke-linecap="round" stroke-linejoin="round"/>
</svg>
