<svg width="87" height="54" viewBox="0 0 87 54" fill="none" xmlns="http://www.w3.org/2000/svg">
<path d="M3.60547 21.9799C11.1255 10.6899 25.1955 2.61986 38.7455 1.45986C47.2348 0.664279 55.7831 2.13963 63.5146 5.73479C71.2461 9.32995 77.883 14.9157 82.7455 21.9199" stroke="#95C11F" stroke-width="2.5" stroke-miterlimit="10"/>
<path d="M3.60517 31.7498C2.69443 30.6219 1.95019 29.3691 1.39518 28.0298C0.735182 26.0298 2.47517 23.7698 3.60517 22.0298" stroke="#95C11F" stroke-width="2.5" stroke-miterlimit="10"/>
<path d="M83.0255 31.2498C68.2755 54.5198 34.5855 59.8199 12.7455 41.5899C9.40085 38.5998 6.34103 35.3056 3.60547 31.7498" stroke="#95C11F" stroke-width="2.5" stroke-miterlimit="10"/>
<path d="M82.7451 21.8799C83.6583 23.008 84.4058 24.2606 84.9651 25.5999C85.5751 27.4899 84.1351 29.5999 82.9651 31.2699" stroke="#95C11F" stroke-width="2.5" stroke-miterlimit="10"/>
<path d="M43.1959 48.6799C55.2689 48.6799 65.0559 38.8928 65.0559 26.8199C65.0559 14.7469 55.2689 4.95985 43.1959 4.95985C31.123 4.95985 21.3359 14.7469 21.3359 26.8199C21.3359 38.8928 31.123 48.6799 43.1959 48.6799Z" stroke="#95C11F" stroke-width="2.5" stroke-miterlimit="10"/>
<path d="M43.1958 39.7799C50.2484 39.7799 55.9658 34.0625 55.9658 27.0099C55.9658 19.9572 50.2484 14.2399 43.1958 14.2399C36.1431 14.2399 30.4258 19.9572 30.4258 27.0099C30.4258 34.0625 36.1431 39.7799 43.1958 39.7799Z" fill="#95C11F"/>
</svg>
