<svg width="69" height="49" viewBox="0 0 69 49" fill="none" xmlns="http://www.w3.org/2000/svg">
<g clip-path="url(#clip0_2514_3051)">
<path d="M62.8719 5.86821L60.774 2.58864C58.5841 -2.44125 62.8074 1.49238 64.2796 3.11374C65.3102 4.24685 66.3131 5.50893 67.2056 6.71573C67.8585 7.49431 68.4405 8.32982 68.9447 9.21225C69.0193 9.52337 68.9723 9.8513 68.8132 10.1288C68.6541 10.4063 68.395 10.6123 68.089 10.7046C65.393 10.7046 62.697 10.9257 59.9919 10.8889C58.9123 10.9058 57.8329 10.8442 56.7622 10.7046C56.4802 10.6075 56.245 10.4076 56.1035 10.1447C55.962 9.88183 55.9245 9.57524 55.9985 9.28595C56.3206 8.36473 58.6485 8.36473 59.679 8.18048C59.8447 8.18048 60.0839 8.09757 59.8631 7.95018C59.6422 7.80278 57.71 7.02895 57.2775 6.87234C42.8132 1.08705 26.5362 1.82403 13.7189 8.7148C9.50473 10.981 4.57288 14.3619 2.67743 18.2587C2.30018 19.051 2.15296 21.0961 0.837181 20.8105C-0.478595 20.5249 0.137886 18.8851 0.340313 18.1942C2.33698 10.9718 13.3785 4.78116 21.3927 2.29385C34.9277 -1.84245 49.9165 -0.340857 62.8719 5.84057" fill="#95C11F"/>
<path d="M21.5767 24.4678C21.5787 25.8207 22.0492 27.1312 22.9079 28.1759C23.7666 29.2206 24.9604 29.935 26.2861 30.1975C27.6118 30.4599 28.9874 30.2541 30.1786 29.6152C31.3698 28.9763 32.3029 27.9437 32.8191 26.6933C33.3353 25.443 33.4027 24.0521 33.0097 22.7576C32.6167 21.4631 31.7876 20.345 30.6638 19.5937C29.5399 18.8424 28.1906 18.5044 26.8458 18.6373C25.5009 18.7701 24.2437 19.3656 23.2881 20.3222C22.7448 20.8668 22.3141 21.5132 22.0204 22.2245C21.7268 22.9358 21.576 23.6981 21.5767 24.4678Z" stroke="#95C11F" stroke-width="2.5" stroke-miterlimit="10"/>
<path d="M39.1421 41.9895C39.1442 43.3425 39.6146 44.6529 40.4733 45.6976C41.332 46.7423 42.5258 47.4567 43.8515 47.7192C45.1772 47.9816 46.5528 47.7759 47.744 47.1369C48.9352 46.498 49.8684 45.4654 50.3846 44.2151C50.9008 42.9647 50.9681 41.5738 50.5751 40.2793C50.1821 38.9848 49.3531 37.8667 48.2292 37.1154C47.1053 36.3641 45.756 36.0261 44.4112 36.159C43.0664 36.2918 41.8091 36.8873 40.8535 37.844C40.3103 38.3885 39.8795 39.0349 39.5859 39.7462C39.2922 40.4575 39.1414 41.2198 39.1421 41.9895Z" stroke="#95C11F" stroke-width="2.5" stroke-miterlimit="10"/>
<path d="M50.8366 18.5535L21.5767 47.8485" stroke="#95C11F" stroke-width="2.5" stroke-miterlimit="10"/>
</g>
<defs>
<clipPath id="clip0_2514_3051">
<rect width="69" height="49" fill="white"/>
</clipPath>
</defs>
</svg>
