<svg width="110" height="120" viewBox="0 0 110 120" fill="none" xmlns="http://www.w3.org/2000/svg">
<g filter="url(#filter0_d_343_4123)">
<path d="M80.8362 21.7004C78.581 25.6161 73.4724 24.6359 71.5087 27.5597C71.0306 28.3172 70.7123 29.1646 70.5735 30.0492C70.4347 30.9338 70.4784 31.8369 70.7019 32.7023C71.9114 33.2667 72.9029 33.7293 73.4565 34.0479L93.2726 43.2941L66.856 99.9092L10.5438 73.6339L20.1543 53.0369C20.735 52.5298 21.4182 52.1552 22.1565 51.9392C25.7509 51.283 25.3848 54.3065 26.4408 56.5212C27.0756 57.9137 28.0845 59.0999 29.3548 59.9474C40.498 66.5847 50.2604 48.1766 41.3196 41.6457C40.389 40.9126 39.3115 40.3897 38.1599 40.1123C37.0083 39.835 35.8097 39.8097 34.6454 40.0383C32.2019 40.5771 29.6742 43.0398 27.9016 39.9568C27.5479 39.2355 27.3528 38.4457 27.3297 37.6408L36.9402 17.0438L57.0939 26.4475C57.3892 26.5853 58.0994 26.9167 59.0628 27.3663C59.6877 27.0996 60.2702 26.7417 60.7914 26.3044C65.5991 22.0384 59.3145 17.6509 61.0453 12.4917C65.2732 -0.129628 87.8854 9.4741 80.8362 21.7004Z" fill="#95C11F"/>
</g>
<defs>
<filter id="filter0_d_343_4123" x="0.643702" y="0.652735" width="108.529" height="119.156" filterUnits="userSpaceOnUse" color-interpolation-filters="sRGB">
<feFlood flood-opacity="0" result="BackgroundImageFix"/>
<feColorMatrix in="SourceAlpha" type="matrix" values="0 0 0 0 0 0 0 0 0 0 0 0 0 0 0 0 0 0 127 0" result="hardAlpha"/>
<feOffset dx="3" dy="7"/>
<feGaussianBlur stdDeviation="6.45"/>
<feComposite in2="hardAlpha" operator="out"/>
<feColorMatrix type="matrix" values="0 0 0 0 0 0 0 0 0 0 0 0 0 0 0 0 0 0 0.62 0"/>
<feBlend mode="normal" in2="BackgroundImageFix" result="effect1_dropShadow_343_4123"/>
<feBlend mode="normal" in="SourceGraphic" in2="effect1_dropShadow_343_4123" result="shape"/>
</filter>
</defs>
</svg>
