<svg width="66" height="70" viewBox="0 0 66 70" fill="none" xmlns="http://www.w3.org/2000/svg">
<path d="M33.6399 28.6305H57.2699C60.3799 28.6305 63.8699 32.2305 64.1099 35.2905V61.0105C63.8657 62.8277 62.9985 64.504 61.6563 65.7532C60.3141 67.0024 58.58 67.7472 56.7499 67.8605H24.3199C22.2863 67.8066 20.352 66.9693 18.921 65.5233C17.49 64.0774 16.6727 62.1346 16.6399 60.1005C16.1999 52.3605 16.9899 44.2005 16.6399 36.4105C16.6623 34.3807 17.4691 32.4383 18.8913 30.99C20.3135 29.5417 22.2409 28.6998 24.2699 28.6405C24.1299 25.0905 24.4499 21.4105 24.2699 17.8805C23.9999 12.4205 18.9599 8.73049 13.9799 11.7105C9.56994 14.3505 11.1599 18.2705 10.7799 22.4105C10.6899 23.3305 10.3899 24.0005 9.38994 24.1105C7.19267 24.2655 4.98721 24.2655 2.78994 24.1105C2.45407 24.1337 2.12087 24.0369 1.84979 23.8372C1.5787 23.6376 1.38738 23.3481 1.30994 23.0205C1.21994 17.7605 0.879938 13.2505 3.83994 8.67048C12.2699 -4.32952 32.2299 0.790483 33.6399 16.0205V28.6305ZM36.6399 39.8905C35.6993 40.8396 35.1495 42.1075 35.0995 43.4429C35.0495 44.7782 35.5029 46.0836 36.3699 47.1005C36.6199 47.4105 37.3699 47.8805 37.3699 48.1805L35.1199 56.9205C35.1899 57.0401 35.2937 57.1362 35.4183 57.1967C35.5429 57.2572 35.6827 57.2794 35.8199 57.2605C38.8199 57.0505 42.0799 57.5205 44.9899 57.2605C45.7299 57.2005 45.7199 56.9905 45.6299 56.2605L43.4299 47.9905C44.4742 47.2431 45.2179 46.148 45.5276 44.9018C45.8373 43.6556 45.6928 42.3398 45.1199 41.1905C44.7313 40.455 44.1759 39.8207 43.4981 39.3383C42.8204 38.8559 42.0392 38.5388 41.2169 38.4125C40.3947 38.2861 39.5543 38.354 38.763 38.6107C37.9717 38.8673 37.2515 39.3056 36.6599 39.8905H36.6399Z" stroke="#95C11F" stroke-width="2.5" stroke-linecap="round" stroke-linejoin="round"/>
</svg>
