<svg width="80" height="63" viewBox="0 0 80 63" fill="none" xmlns="http://www.w3.org/2000/svg">
<g clip-path="url(#clip0_2514_3065)">
<path d="M8.33984 60.81C9.77984 60.66 10.9398 59.81 12.2598 59.3C13.0698 59.01 13.7998 58.52 14.6098 58.19C15.0998 57.99 15.4198 57.68 15.2698 57.07C15.1898 56.71 15.3298 56.51 15.7198 56.3C19.467 54.1926 23.5135 52.6684 27.7198 51.78C30.1577 51.3461 32.637 51.1917 35.1098 51.32C36.8298 51.4 38.5398 51.52 40.2598 51.59C42.5398 51.67 44.8198 51.79 47.0898 51.98C48.4598 52.1 49.8398 52.11 51.2198 52.25C53.5708 52.3585 55.8947 51.71 57.8498 50.4C63.6398 47.1 69.5498 44.04 75.3698 40.79C76.1766 40.395 76.8997 39.8484 77.4998 39.18C78.4998 37.91 78.7598 36.53 77.0298 35.47C75.9896 34.7823 74.7894 34.3749 73.5455 34.2873C72.3016 34.1997 71.0562 34.4348 69.9298 34.97C64.4498 37.44 58.9298 39.81 53.4498 42.26C52.8527 42.5294 52.205 42.6688 51.5498 42.6688C50.8947 42.6688 50.247 42.5294 49.6498 42.26C48.7179 41.8948 47.72 41.7279 46.7198 41.77C43.9398 41.69 41.2198 41.07 38.4798 40.77C35.7398 40.47 33.3198 39.93 30.7098 39.77" stroke="#95C11F" stroke-width="2.5" stroke-miterlimit="10"/>
<path d="M48.6801 41.73C48.8001 41.18 49.3001 40.9 49.6801 40.53C50.0189 40.1532 50.2326 39.6807 50.2917 39.1775C50.3508 38.6742 50.2524 38.165 50.0101 37.72C49.1101 35.48 47.1601 34.47 45.0101 34C42.8601 33.53 40.4001 33.35 38.0901 33C36.0901 32.72 34.1501 32.49 32.2001 32.16C29.2001 31.66 26.3301 31.44 23.4701 32.8C22.4166 33.3156 21.4486 33.9901 20.6001 34.8C17.0721 37.9177 13.1726 40.5879 8.99012 42.75C8.88401 42.8292 8.75168 42.865 8.62012 42.85" stroke="#95C11F" stroke-width="2.5" stroke-miterlimit="10"/>
<path d="M15.2386 56.4016L9.17005 42.6293C8.68457 41.5275 7.39786 41.0279 6.2961 41.5134L2.54418 43.1666C1.44242 43.6521 0.942816 44.9388 1.42829 46.0406L7.49684 59.8128C7.98232 60.9146 9.26903 61.4142 10.3708 60.9287L14.1227 59.2755C15.2245 58.79 15.7241 57.5033 15.2386 56.4016Z" stroke="#95C11F" stroke-width="2.5" stroke-miterlimit="10"/>
<path d="M52.3997 24.27C58.7564 24.27 63.9096 19.1168 63.9096 12.76C63.9096 6.4032 58.7564 1.25 52.3997 1.25C46.0429 1.25 40.8896 6.4032 40.8896 12.76C40.8896 19.1168 46.0429 24.27 52.3997 24.27Z" stroke="#95C11F" stroke-width="2.5" stroke-miterlimit="10"/>
</g>
<defs>
<clipPath id="clip0_2514_3065">
<rect width="79.55" height="62.36" fill="white"/>
</clipPath>
</defs>
</svg>
