<svg xmlns="http://www.w3.org/2000/svg" version="1.1" xmlns:xlink="http://www.w3.org/1999/xlink" width="512" height="512" x="0" y="0" viewBox="0 0 510 510" style="enable-background:new 0 0 512 512" xml:space="preserve" fill-rule="evenodd" class=""><g><path d="M300.375 487.404a239.62 239.62 0 0 1-49.396 14.196l-7.321 1.28c-.912.16-1.844.16-2.756 0l-7.318-1.279C118.465 481.532 33.371 380.496 33.371 263.576V101.118a8 8 0 0 1 4.848-7.353L239.128 7.647a7.998 7.998 0 0 1 6.304 0l200.909 86.118a8 8 0 0 1 4.848 7.353v162.458c0 11.196-.78 22.247-2.292 33.095a67.799 67.799 0 0 1 3.189 20.597v17.334h5.536c10.495 0 19.007 8.556 19.007 19.007v117.376c0 10.496-8.512 19.007-19.007 19.007H309.957c-3.49 0-6.765-.943-9.582-2.588zm134.648-215.196c.11-2.866.166-5.744.166-8.632V106.393L242.28 23.704 49.371 106.393v157.183c0 109.179 79.463 203.522 186.961 222.263l5.948 1.04 5.948-1.04a223.786 223.786 0 0 0 42.914-11.977 19.083 19.083 0 0 1-.217-2.877v-37.794a186.494 186.494 0 0 1-47.188 15.454 7.973 7.973 0 0 1-2.914 0c-88.604-16.416-154.05-94.755-154.05-185.069V136.293a8 8 0 0 1 4.85-7.354L239.13 65.758a8.003 8.003 0 0 1 6.299 0l147.558 63.181a8 8 0 0 1 4.851 7.354v114.115c14.653 3.095 27.611 10.926 37.185 21.8zm1.063 62.394v-17.334c0-28.774-23.522-52.322-52.296-52.322-28.775 0-52.323 23.547-52.323 52.322v17.334H343.1v-17.334c0-22.346 18.376-40.715 40.69-40.715 22.313 0 40.689 18.369 40.689 40.715v17.334zm-120.619-1.875v-15.459c0-36.922 29.69-67.252 66.371-68.295V141.57L242.281 81.815l-139.508 59.754v122.007c0 36.272 11.538 70.433 31.341 98.617 18.038-20.945 42.052-36.595 69.393-44.299-22.313-13.296-37.312-37.682-37.312-65.453 0-41.915 34.169-76.12 76.085-76.12 41.955 0 76.121 34.206 76.121 76.12 0 27.772-15 52.16-37.326 65.456a141.943 141.943 0 0 1 34.392 14.83zm-24.542 82.498v-61.616c0-5.044 1.991-9.648 5.232-13.062-16.349-7.688-34.61-11.985-53.877-11.985-39.568 0-74.898 18.146-98.137 46.57 24.712 28.971 58.901 49.882 98.138 57.505a170.588 170.588 0 0 0 48.644-17.412zm68.175-80.623h49.379v-17.334c0-13.562-11.147-24.715-24.689-24.715-13.543 0-24.69 11.153-24.69 24.715zm-116.82-22.04c33.136 0 60.121-27.016 60.121-60.121 0-33.104-26.985-60.12-60.121-60.12-33.103 0-60.085 27.017-60.085 60.12 0 33.104 26.982 60.121 60.085 60.121zm67.677 38.04c-1.665 0-3.032 1.349-3.032 3.007v117.376c0 1.665 1.367 3.007 3.032 3.007h147.665a3.008 3.008 0 0 0 3.007-3.007V353.609a3.012 3.012 0 0 0-3.007-3.007zm73.833 11.812c16.266 0 29.452 13.211 29.452 29.478 0 8.925-3.94 16.908-10.19 22.308v28.718c0 10.614-8.692 19.262-19.262 19.262-10.615 0-19.263-8.648-19.263-19.262v-28.716c-6.256-5.4-10.215-13.385-10.215-22.31 0-16.264 13.214-29.478 29.478-29.478zm0 16c-7.437 0-13.478 6.042-13.478 13.478 0 4.857 2.567 9.103 6.414 11.476a8.001 8.001 0 0 1 3.801 6.809v32.741a3.267 3.267 0 0 0 3.263 3.262 3.272 3.272 0 0 0 3.262-3.262v-32.741a8.001 8.001 0 0 1 3.801-6.809 13.442 13.442 0 0 0 6.389-11.476c0-7.434-6.019-13.478-13.452-13.478z" fill="#000000" opacity="1" data-original="#000000" class=""></path></g></svg>