<svg width="40" height="79" viewBox="0 0 40 79" fill="none" xmlns="http://www.w3.org/2000/svg">
<g clip-path="url(#clip0_403_3804)">
<mask id="path-1-inside-1_403_3804" fill="white">
<path d="M31.6764 51.2866C30.6867 52.0892 32.13 69.3256 31.6764 72.4095C30.2331 80.8587 11.9238 81.3234 8.58363 73.8037V51.54C8.29497 50.7796 1.28466 51.54 0.336208 47.3154C-0.306355 42.6167 -0.0259486 37.8337 1.16095 33.2475C4.91353 26.7416 17.6558 26.6149 26.2744 27.3331C33.2022 27.9245 38.6455 31.0085 39.6764 35.9935C40.1507 39.5821 40.1507 43.2199 39.6764 46.8085C39.0166 49.7657 35.5527 51.0331 31.429 51.371"/>
</mask>
<path d="M31.6764 72.4095L33.6479 72.7463L33.6517 72.7235L33.6551 72.7006L31.6764 72.4095ZM8.58363 73.8037H6.58363V74.2279L6.75583 74.6155L8.58363 73.8037ZM8.58363 51.54H10.5836V51.1732L10.4534 50.8302L8.58363 51.54ZM0.336208 47.3154L-1.64535 47.5864L-1.63383 47.6706L-1.61522 47.7535L0.336208 47.3154ZM1.16095 33.2475L-0.571512 32.2482L-0.707211 32.4835L-0.775257 32.7464L1.16095 33.2475ZM26.2744 27.3331L26.4445 25.3403L26.4404 25.34L26.2744 27.3331ZM39.6764 35.9935L41.6592 35.7315L41.6497 35.6595L41.635 35.5885L39.6764 35.9935ZM39.6764 46.8085L41.6284 47.244L41.6476 47.1579L41.6592 47.0705L39.6764 46.8085ZM31.6764 51.2866L30.4166 49.7332C30.0504 50.0302 29.8644 50.3791 29.779 50.5617C29.6818 50.7694 29.621 50.9694 29.5811 51.125C29.5011 51.4367 29.4534 51.7777 29.421 52.0966C29.3552 52.7464 29.3283 53.573 29.3227 54.4796C29.3114 56.3062 29.3867 58.6735 29.4768 61.0678C29.5677 63.483 29.6737 65.9269 29.7293 67.9753C29.7871 70.1016 29.7801 71.558 29.6977 72.1185L31.6764 72.4095L33.6551 72.7006C33.7995 71.7191 33.7822 69.8644 33.7279 67.8666C33.6714 65.7906 33.5635 63.2971 33.474 60.9174C33.3836 58.5167 33.312 56.2317 33.3226 54.5043C33.328 53.634 33.3542 52.9582 33.4007 52.4997C33.4245 52.2645 33.4477 52.1498 33.4555 52.1193C33.4595 52.1039 33.4468 52.1612 33.4023 52.2564C33.3695 52.3264 33.2406 52.5931 32.9362 52.8399L31.6764 51.2866ZM31.6764 72.4095L29.705 72.0728C29.4742 73.4239 28.5625 74.594 26.945 75.5082C25.3123 76.4308 23.1097 76.9911 20.7517 77.097C18.4002 77.2026 16.0434 76.8491 14.1397 76.089C12.2175 75.3215 10.9615 74.2302 10.4114 72.9918L8.58363 73.8037L6.75583 74.6155C7.87583 77.137 10.1611 78.8075 12.6565 79.8038C15.1703 80.8075 18.1073 81.2197 20.9311 81.093C23.7483 80.9665 26.6024 80.2963 28.913 78.9905C31.2387 77.6762 33.157 75.6198 33.6479 72.7463L31.6764 72.4095ZM8.58363 73.8037H10.5836V51.54H8.58363H6.58363V73.8037H8.58363ZM8.58363 51.54L10.4534 50.8302C10.1886 50.1327 9.65568 49.7926 9.42059 49.6628C9.15158 49.5143 8.88675 49.4316 8.71082 49.3837C8.35361 49.2865 7.93605 49.2228 7.589 49.1733C6.81138 49.0623 5.99998 48.9694 5.15016 48.7764C3.30874 48.3583 2.47987 47.7336 2.28763 46.8773L0.336208 47.3154L-1.61522 47.7535C-0.859 51.1219 2.29151 52.2292 4.26452 52.6772C5.32192 52.9172 6.3765 53.0408 7.02413 53.1332C7.38972 53.1853 7.5746 53.22 7.65973 53.2432C7.70496 53.2555 7.62127 53.2386 7.48713 53.1645C7.38691 53.1092 6.94253 52.8523 6.71382 52.2498L8.58363 51.54ZM0.336208 47.3154L2.31777 47.0444C1.71042 42.6032 1.97554 38.0826 3.09716 33.7486L1.16095 33.2475L-0.775257 32.7464C-2.02744 37.5849 -2.32313 42.6301 -1.64535 47.5864L0.336208 47.3154ZM1.16095 33.2475L2.89342 34.2468C4.28786 31.8292 7.58624 30.2939 12.2081 29.5563C16.7064 28.8384 21.861 28.9722 26.1083 29.3262L26.2744 27.3331L26.4404 25.34C22.0691 24.9757 16.5434 24.8138 11.5777 25.6063C6.73567 26.379 1.78662 28.1599 -0.571512 32.2482L1.16095 33.2475ZM26.2744 27.3331L26.1042 29.3258C32.77 29.8949 36.9665 32.7652 37.7179 36.3985L39.6764 35.9935L41.635 35.5885C40.3245 29.2518 33.6344 25.9541 26.4445 25.3403L26.2744 27.3331ZM39.6764 35.9935L37.6937 36.2555C38.145 39.6702 38.145 43.1318 37.6937 46.5464L39.6764 46.8085L41.6592 47.0705C42.1564 43.308 42.1564 39.494 41.6592 35.7315L39.6764 35.9935ZM39.6764 46.8085L37.7244 46.373C37.5644 47.0899 37.0666 47.7309 35.9604 48.2816C34.8179 48.8503 33.2054 49.2187 31.2656 49.3777L31.429 51.371L31.5924 53.3644C33.7763 53.1854 35.9576 52.7512 37.743 51.8624C39.5646 50.9556 41.1286 49.4843 41.6284 47.244L39.6764 46.8085Z" fill="white" mask="url(#path-1-inside-1_403_3804)"/>
<path d="M20.0889 1C22.8452 1.00005 25.4936 2.12155 27.4502 4.12598C29.4076 6.13126 30.5117 8.85607 30.5117 11.7021C30.5117 13.8241 29.8973 15.8966 28.749 17.6572C27.6009 19.4176 25.9711 20.7857 24.0693 21.5928C22.1678 22.3997 20.0765 22.6102 18.0596 22.1992C16.0427 21.7881 14.1867 20.7731 12.7275 19.2783C11.2681 17.7832 10.2712 15.8754 9.86719 13.7949C9.46319 11.7142 9.67101 9.55718 10.4629 7.59863C11.2547 5.64037 12.5939 3.96994 14.3076 2.79688C16.021 1.62412 18.0331 1 20.0889 1Z" stroke="white" stroke-width="2"/>
</g>
<defs>
<clipPath id="clip0_403_3804">
<rect width="40" height="79" fill="white"/>
</clipPath>
</defs>
</svg>
