<svg width="46" height="43" viewBox="0 0 46 43" fill="none" xmlns="http://www.w3.org/2000/svg">
<g clip-path="url(#clip0_1830_4843)">
<path d="M23.4101 10.07C23.4101 10.71 22.6501 11.07 22.1001 11.07C21.7238 11.1144 21.344 11.0222 21.0301 10.81L20.7101 10.56C20.2916 10.292 19.7917 10.1811 19.2991 10.2471C18.8066 10.313 18.3534 10.5514 18.0201 10.92C17.5896 11.4614 17.3473 12.1285 17.3301 12.82V13.08C17.3691 13.7307 17.6103 14.353 18.0201 14.86C18.2044 15.0726 18.4314 15.244 18.6864 15.3629C18.9415 15.4818 19.2187 15.5455 19.5001 15.55C19.93 15.5741 20.3557 15.4544 20.7101 15.21C20.8227 15.1382 20.9296 15.058 21.0301 14.97C21.344 14.7578 21.7238 14.6655 22.1001 14.71C22.6501 14.71 23.4101 15.11 23.4101 15.71V23.1H30.7501C30.8876 22.9728 30.9701 22.797 30.9801 22.61C30.9801 22.19 30.9201 22.09 30.9101 22.08C30.8008 21.9574 30.7006 21.827 30.6101 21.69C30.2272 21.1119 30.0641 20.4159 30.1503 19.7279C30.2366 19.04 30.5664 18.4057 31.0801 17.94C31.74 17.3896 32.5617 17.07 33.4201 17.03H33.7501C34.6503 17.051 35.517 17.3752 36.2101 17.95C36.7238 18.4157 37.0536 19.0499 37.1398 19.7379C37.2261 20.4259 37.063 21.122 36.6801 21.7C36.59 21.8342 36.4897 21.9612 36.3801 22.08C36.3139 22.2518 36.2899 22.437 36.3101 22.62C36.3116 22.7123 36.3318 22.8034 36.3697 22.8876C36.4075 22.9719 36.4621 23.0475 36.5301 23.11H40.6701V22H44.5901C44.8677 21.9981 45.1382 21.9125 45.3664 21.7544C45.5946 21.5964 45.7698 21.3732 45.8692 21.114C45.9685 20.8548 45.9874 20.5716 45.9234 20.3015C45.8593 20.0314 45.7153 19.787 45.5101 19.6L38.1601 12.97L31.4501 6.90999L24.4501 0.549988C24.1686 0.29518 23.8228 0.122266 23.4501 0.0499878V10.1L23.4101 10.07Z" fill="#95C11F"/>
<path d="M15.1901 23.2H22.5801V15.87C22.5193 15.7992 22.4442 15.7421 22.3597 15.7025C22.2753 15.6628 22.1834 15.6415 22.0901 15.64C21.9079 15.6145 21.7222 15.6352 21.5501 15.7C21.4274 15.8093 21.2971 15.9095 21.1601 16C20.6702 16.3369 20.0841 16.5054 19.4901 16.48C19.0921 16.4714 18.7006 16.3776 18.3418 16.2051C17.9831 16.0327 17.6653 15.7854 17.4101 15.48C16.8576 14.8174 16.5379 13.9918 16.5 13.13V12.82C16.516 11.9176 16.8367 11.0471 17.4101 10.35C17.6712 10.0578 17.9899 9.8227 18.346 9.65924C18.7022 9.49578 19.0883 9.40752 19.4801 9.39999C20.0758 9.38541 20.6619 9.55287 21.1601 9.88C21.3401 10 21.4601 10.11 21.5501 10.18C21.6401 10.25 21.6701 10.25 22.0901 10.25C22.2742 10.2453 22.4496 10.1701 22.5801 10.04V0C22.2059 0.0741505 21.8597 0.250701 21.5801 0.509995L0.47005 19.56C0.26487 19.747 0.120843 19.9915 0.0567814 20.2616C-0.00728008 20.5317 0.0116067 20.8148 0.110965 21.074C0.210324 21.3332 0.385538 21.5564 0.613727 21.7144C0.841917 21.8725 1.11247 21.9581 1.39005 21.96H5.31006V23.2H9.47005C10.1201 23.2 10.47 23.96 10.53 24.51C10.5664 24.8872 10.471 25.2652 10.2601 25.58C10.1745 25.6823 10.0943 25.7892 10.0201 25.9C9.74689 26.3161 9.63198 26.8163 9.6962 27.3099C9.76042 27.8035 9.99952 28.2577 10.3701 28.59C10.9089 29.0251 11.5776 29.268 12.2701 29.28H12.5401C13.1877 29.2409 13.8068 28.9996 14.3101 28.59C14.5245 28.4066 14.6978 28.18 14.8184 27.9249C14.9391 27.6698 15.0044 27.3921 15.0101 27.11C15.0236 26.6813 14.9049 26.2589 14.6701 25.9C14.5701 25.76 14.4901 25.67 14.4201 25.58C14.2127 25.2639 14.1208 24.886 14.1601 24.51C14.1501 24 14.5501 23.2 15.1901 23.2Z" fill="#95C11F"/>
<path d="M40.8692 40.79L40.7292 23.91H36.5692C35.9292 23.91 35.5192 23.16 35.5092 22.61C35.4662 22.2351 35.5546 21.857 35.7592 21.54C35.8292 21.45 35.9092 21.36 36.0092 21.22C36.2447 20.8585 36.3569 20.4305 36.3292 20C36.3221 19.7196 36.2562 19.4438 36.1356 19.1905C36.015 18.9373 35.8425 18.7122 35.6292 18.53C35.0865 18.103 34.4196 17.8643 33.7292 17.85H33.4592C32.8107 17.8933 32.1919 18.138 31.6892 18.55C31.32 18.8837 31.0834 19.3394 31.0228 19.8335C30.9622 20.3275 31.0816 20.8268 31.3592 21.24C31.4307 21.3553 31.5146 21.4626 31.6092 21.56C31.8157 21.8767 31.9107 22.2532 31.8792 22.63C31.8792 23.18 31.4792 23.94 30.8792 23.95H28.8992L23.4492 24V29.25V31.33C23.5096 31.4012 23.5846 31.4587 23.6691 31.4984C23.7537 31.5381 23.8458 31.5591 23.9392 31.56C24.1222 31.5802 24.3074 31.5562 24.4792 31.49L24.8592 31.18C25.3517 30.8477 25.9352 30.6765 26.5292 30.69C26.9218 30.6899 27.31 30.7727 27.6685 30.933C28.0269 31.0932 28.3475 31.3273 28.6092 31.62C29.1708 32.2787 29.4979 33.1053 29.5392 33.97C29.5442 34.0165 29.5442 34.0634 29.5392 34.11V34.28C29.5345 35.181 29.2203 36.053 28.6492 36.75C28.3942 37.0532 28.0779 37.299 27.7212 37.4713C27.3644 37.6437 26.9752 37.7386 26.5792 37.75C25.9831 37.7791 25.3937 37.6141 24.8992 37.28L24.5092 36.99C24.5092 36.99 24.3992 36.92 23.9792 36.92C23.7943 36.9303 23.6198 37.0087 23.4892 37.14V42.83L38.8192 42.71C39.3447 42.7235 39.8543 42.5297 40.238 42.1704C40.6216 41.8111 40.8484 41.3152 40.8692 40.79Z" fill="#95C11F"/>
<path d="M22.5708 37.19C22.5708 36.54 23.3308 36.19 23.8708 36.19C24.2503 36.144 24.6338 36.2363 24.9508 36.45C25.0492 36.5405 25.1564 36.6209 25.2708 36.69C25.6218 36.9337 26.0441 37.0534 26.4708 37.03C26.7538 37.027 27.033 36.9639 27.2899 36.845C27.5467 36.726 27.7754 36.5539 27.9608 36.34C28.3913 35.7986 28.6336 35.1315 28.6508 34.44V34.27C28.6508 34.27 28.6508 34.21 28.6508 34.18C28.6153 33.5303 28.3775 32.9079 27.9708 32.4C27.7865 32.1873 27.5594 32.016 27.3044 31.8971C27.0494 31.7782 26.7721 31.7144 26.4908 31.71C26.0609 31.6859 25.6352 31.8055 25.2808 32.05C25.1682 32.1218 25.0612 32.202 24.9608 32.29C24.6438 32.5037 24.2603 32.596 23.8808 32.55C23.3408 32.55 22.5808 32.15 22.5808 31.55V24H15.2508C15.1818 24.0623 15.126 24.1377 15.0865 24.2219C15.047 24.306 15.0247 24.3971 15.0208 24.49C15.0208 24.92 15.0808 25.02 15.0908 25.03C15.1008 25.04 15.2708 25.24 15.3908 25.42C15.7737 25.9981 15.9368 26.6941 15.8505 27.3821C15.7643 28.07 15.4345 28.7043 14.9208 29.17C14.2582 29.7224 13.4326 30.0421 12.5708 30.08H12.2508C11.3509 30.0665 10.4828 29.7454 9.79079 29.17C9.2771 28.7043 8.94725 28.07 8.86102 27.3821C8.7748 26.6941 8.93791 25.9981 9.32079 25.42C9.41383 25.2848 9.51398 25.1546 9.62079 25.03C9.62079 25.03 9.69078 24.92 9.69078 24.5C9.67864 24.3156 9.60055 24.1416 9.47078 24.01H5.30078V40.92C5.31383 41.4417 5.53029 41.9377 5.90396 42.302C6.27763 42.6663 6.7789 42.8702 7.30078 42.87H22.6108V37.18L22.5708 37.19Z" fill="#95C11F"/>
</g>
<defs>
<clipPath id="clip0_1830_4843">
<rect width="45.96" height="42.88" fill="white"/>
</clipPath>
</defs>
</svg>
