<svg width="35" height="36" viewBox="0 0 35 36" fill="none" xmlns="http://www.w3.org/2000/svg">
<g clip-path="url(#clip0_354_2963)">
<path d="M25.6212 12.0602C28.4123 12.0602 30.6749 9.76836 30.6749 6.94123C30.6749 4.1141 28.4123 1.82227 25.6212 1.82227C22.83 1.82227 20.5674 4.1141 20.5674 6.94123C20.5674 9.76836 22.83 12.0602 25.6212 12.0602Z" stroke="white" stroke-linecap="round" stroke-linejoin="round"/>
<path d="M25.6212 33.1774C28.4123 33.1774 30.6749 30.8855 30.6749 28.0584C30.6749 25.2313 28.4123 22.9395 25.6212 22.9395C22.83 22.9395 20.5674 25.2313 20.5674 28.0584C20.5674 30.8855 22.83 33.1774 25.6212 33.1774Z" stroke="white" stroke-linecap="round" stroke-linejoin="round"/>
<path d="M8.37312 22.1305C11.1642 22.1305 13.4269 19.8387 13.4269 17.0115C13.4269 14.1844 11.1642 11.8926 8.37312 11.8926C5.58199 11.8926 3.31934 14.1844 3.31934 17.0115C3.31934 19.8387 5.58199 22.1305 8.37312 22.1305Z" stroke="white" stroke-linecap="round" stroke-linejoin="round"/>
<path d="M12.8975 14.0836L20.9503 9.38477" stroke="white" stroke-linecap="round" stroke-linejoin="round"/>
<path d="M12.4375 20.0566L21.0902 25.7961" stroke="white" stroke-linecap="round" stroke-linejoin="round"/>
</g>
<defs>
<clipPath id="clip0_354_2963">
<rect width="35" height="35" fill="white" transform="translate(0 0.5)"/>
</clipPath>
</defs>
</svg>
