<svg width="83" height="96" viewBox="0 0 83 96" fill="none" xmlns="http://www.w3.org/2000/svg">
<path d="M65.3474 32.6407C73.0695 32.6407 79.3295 26.1697 79.3295 18.1872C79.3295 10.2047 73.0695 3.73364 65.3474 3.73364C57.6252 3.73364 51.3652 10.2047 51.3652 18.1872C51.3652 26.1697 57.6252 32.6407 65.3474 32.6407Z" stroke="#075835" stroke-width="3" stroke-linecap="round" stroke-linejoin="round"/>
<path d="M65.3474 92.2659C73.0695 92.2659 79.3295 85.7948 79.3295 77.8123C79.3295 69.8298 73.0695 63.3588 65.3474 63.3588C57.6252 63.3588 51.3652 69.8298 51.3652 77.8123C51.3652 85.7948 57.6252 92.2659 65.3474 92.2659Z" stroke="#075835" stroke-width="3" stroke-linecap="round" stroke-linejoin="round"/>
<path d="M17.6345 61.0743C25.3566 61.0743 31.6166 54.6033 31.6166 46.6208C31.6166 38.6383 25.3566 32.1672 17.6345 32.1672C9.91236 32.1672 3.65234 38.6383 3.65234 46.6208C3.65234 54.6033 9.91236 61.0743 17.6345 61.0743Z" stroke="#075835" stroke-width="3" stroke-linecap="round" stroke-linejoin="round"/>
<path d="M30.1484 38.3538L52.428 25.0864" stroke="#075835" stroke-width="3" stroke-linecap="round" stroke-linejoin="round"/>
<path d="M28.877 55.2188L52.8161 71.4242" stroke="#075835" stroke-width="3" stroke-linecap="round" stroke-linejoin="round"/>
</svg>
