<svg width="28" height="28" viewBox="0 0 28 28" fill="none" xmlns="http://www.w3.org/2000/svg">
<path d="M15.9958 4.08885L18.0463 8.18982C18.3259 8.7607 19.0716 9.30827 19.7007 9.41313L23.4172 10.0306C25.7939 10.4267 26.3531 12.151 24.6405 13.852L21.7512 16.7413C21.2618 17.2306 20.9939 18.1743 21.1453 18.85L21.9725 22.4267C22.625 25.2578 21.122 26.3529 18.6172 24.8733L15.1337 22.8112C14.5046 22.4384 13.4677 22.4384 12.8269 22.8112L9.3434 24.8733C6.8502 26.3529 5.33564 25.2461 5.98806 22.4267L6.81525 18.85C6.9667 18.1743 6.69874 17.2306 6.20942 16.7413L3.3201 13.852C1.61913 12.151 2.1667 10.4267 4.5434 10.0306L8.25991 9.41313C8.87738 9.30827 9.62301 8.7607 9.90263 8.18982L11.9531 4.08885C13.0716 1.86361 14.889 1.86361 15.9958 4.08885Z" stroke="white" stroke-width="1.5" stroke-linecap="round" stroke-linejoin="round"/>
</svg>
