<svg width="28" height="30" viewBox="0 0 28 30" fill="none" xmlns="http://www.w3.org/2000/svg">
<path d="M27.0927 1.04708C27.1187 0.772163 26.9169 0.528222 26.642 0.502221L22.162 0.0785112C21.8871 0.0525102 21.6432 0.254295 21.6171 0.529211C21.5911 0.804126 21.7929 1.04807 22.0679 1.07407L26.0501 1.4507L25.6734 5.43293C25.6474 5.70784 25.8492 5.95179 26.1241 5.97779C26.3991 6.00379 26.643 5.802 26.669 5.52709L27.0927 1.04708ZM18.398 7.27527L18.6817 7.68699C18.6886 7.68226 18.6953 7.67735 18.7019 7.67229L18.398 7.27527ZM13.1782 11.4674L12.8369 11.102C12.7253 11.2063 12.6674 11.3558 12.6799 11.508C12.6923 11.6603 12.7735 11.7985 12.9006 11.8833L13.1782 11.4674ZM20.3763 15.3472L20.6731 15.7495C20.808 15.65 20.884 15.4896 20.8756 15.3221C20.8672 15.1547 20.7755 15.0027 20.6314 14.9171L20.3763 15.3472ZM0.929144 28.5938C0.704809 28.7548 0.653486 29.0672 0.81451 29.2916C0.975534 29.5159 1.28793 29.5672 1.51226 29.4062L1.2207 29L0.929144 28.5938ZM26.5949 1L26.2762 0.614728C23.6406 2.79494 20.8475 4.7703 18.0941 6.87826L18.398 7.27527L18.7019 7.67229C21.4131 5.59673 24.261 3.57952 26.9136 1.38527L26.5949 1ZM18.398 7.27527L18.1143 6.86355C16.238 8.15644 14.4738 9.57323 12.8369 11.102L13.1782 11.4674L13.5195 11.8329C15.1197 10.3383 16.8453 8.9524 18.6817 7.68699L18.398 7.27527ZM13.1782 11.4674L12.9006 11.8833C14.0415 12.645 15.2523 13.2627 16.467 13.865C17.689 14.471 18.9122 15.0601 20.1212 15.7772L20.3763 15.3472L20.6314 14.9171C19.3822 14.1761 18.1179 13.5675 16.9112 12.9691C15.6971 12.3671 14.538 11.7741 13.4558 11.0516L13.1782 11.4674ZM20.3763 15.3472L20.0794 14.9448C13.7145 19.6399 7.28073 24.0347 0.929144 28.5938L1.2207 29L1.51226 29.4062C7.83311 24.8692 14.3068 20.4456 20.6731 15.7495L20.3763 15.3472Z" fill="white"/>
</svg>
