<svg width="60" height="60" viewBox="0 0 60 60" fill="none" xmlns="http://www.w3.org/2000/svg">
<g clip-path="url(#clip0_2514_2785)">
<path d="M29.8298 56.22L29.7398 59.69M27.9798 56.04L27.7198 59.5M26.2098 55.83L25.7698 59.28M24.5798 55.56L23.9698 58.98M23.0598 55.21L22.0598 58.55M21.4198 54.74L20.3098 58.03M19.9198 54.17L18.6498 57.4M18.4098 53.5L16.9798 56.67M16.9798 52.78L15.2498 55.78M15.5598 51.92L13.6898 54.84M14.1998 50.98L12.1998 53.81M12.9798 50.02L10.7198 52.65M11.7198 48.93L9.31977 51.44M10.5498 47.76L8.03976 50.16M9.48977 46.56L6.91977 48.8M8.57977 45.28L5.74977 47.28M7.64977 43.9L4.72977 45.78M6.79977 42.48L3.79977 44.21M6.08976 41.09L2.91977 42.56M5.41977 39.56L2.13977 40.86M4.79977 38.03L1.50977 39.14M4.32977 36.45L0.989765 37.45M3.98977 34.97L0.559765 35.56M3.71976 33.32L0.269766 33.75M3.54977 31.68L0.0897655 31.94M3.47977 30.03L0.00976562 30.11M3.50977 28.47L0.0497646 28.2M3.64977 26.82L0.199766 26.38M3.91977 25.17L0.469765 24.56M4.21976 23.56L0.839766 22.78M4.65977 21.97L1.31977 21.02M5.16977 20.49L1.91977 19.21M5.78976 18.96L2.63977 17.56M6.52977 17.51L3.43977 15.93M7.30976 16.14L4.37976 14.27M8.21976 14.76L5.38977 12.76M9.20977 13.45L6.47977 11.3M10.2698 12.18L7.64977 9.86M11.3698 11L8.96976 8.49M12.5798 9.88L10.3098 7.26M13.9198 8.84L11.7198 6.11M15.1398 7.92L13.2698 5M16.5498 7.05L14.8198 4.05M17.9998 6.27L16.4198 3.17M19.4998 5.56L18.0698 2.4M20.9198 5L19.8098 1.71M22.4898 4.5L21.4898 1.15M24.0398 4.09L23.2598 0.709999M25.6698 3.78L25.0498 0.359999M27.3098 3.56L27.0398 0.0900002M28.9198 3.5V0.0299988M30.6498 3.5L30.7398 0.0299988M32.2498 3.56L32.5098 0.0900002M33.7998 3.74L34.4098 0.32M35.4098 4.05L36.1898 0.67M37.0098 4.46L38.0098 1.11M38.6398 4.96L39.7498 1.67M40.0598 5.56L41.4898 2.4M41.5498 6.26L43.1398 3.17M43.0098 7.05L44.7398 4.05M44.4098 7.93L46.2898 5.01M45.6898 8.85L47.8298 6.12M46.9698 9.89L49.2498 7.27M48.1898 11.01L50.5898 8.5M49.2798 12.14L51.9198 9.86M50.3598 13.4L53.0898 11.25M51.3498 14.72L54.1798 12.72M52.2598 16.11L55.1798 14.24M53.0198 17.47L56.1098 15.89M53.7498 18.96L56.9198 17.56M54.3898 20.56L57.6198 19.29M54.9198 21.96L58.2598 21.01M55.3298 23.56L58.7198 22.78M55.7198 25.18L59.0898 24.56M55.9198 26.8L59.3598 26.36M56.0598 28.45L59.5198 28.18M56.0798 30.01L59.5598 30.09M56.0098 31.66L59.4698 31.92M55.8398 33.3L59.2798 33.73M55.5698 34.92L58.9898 35.54M55.2198 36.45L58.5698 37.45M54.7498 38.08L58.0398 39.19M54.1798 39.56L57.4198 40.86M53.5198 41.1L56.6898 42.56M52.7998 42.56L55.7998 44.29M51.9198 43.91L54.9198 45.79M51.0598 45.28L53.8898 47.28M50.0598 46.56L52.6898 48.84M48.9698 47.84L51.4798 50.24M47.7998 49.01L50.1898 51.52M46.5598 50.11L48.8298 52.73M45.3198 50.99L47.3198 53.82M43.9198 51.93L45.7998 54.85M42.5098 52.78L44.2398 55.78M41.1098 53.49L42.5498 56.66M39.5498 54.16L40.9198 57.4M38.0998 54.74L39.2098 58.03M36.5198 55.21L37.5198 58.55M35.0498 55.55L35.6598 58.97M33.2998 55.91L33.7398 59.35M31.6598 56.08L31.8498 59.56" stroke="#95C11F" stroke-width="0.65"/>
</g>
<defs>
<clipPath id="clip0_2514_2785">
<rect width="59.55" height="59.7" fill="white"/>
</clipPath>
</defs>
</svg>
