<svg width="66" height="66" viewBox="0 0 66 66" fill="none" xmlns="http://www.w3.org/2000/svg">
<g clip-path="url(#clip0_3243_2827)">
<path d="M61.6107 56.4501C61.9495 55.5278 62.1517 54.5609 62.2107 53.5801C62.2324 52.4443 62.0249 51.3158 61.6005 50.262C61.1761 49.2083 60.5436 48.2509 59.7408 47.4472C58.938 46.6434 57.9814 46.0098 56.9281 45.5842C55.8748 45.1586 54.7466 44.9497 53.6107 44.9701C51.6857 44.9818 49.8201 45.6382 48.312 46.8346C46.8038 48.031 45.7401 49.6982 45.2907 51.5701C44.3408 50.9884 43.2445 50.6901 42.1307 50.7101C40.6092 50.7128 39.1507 51.3183 38.0749 52.3942C36.999 53.4701 36.3934 54.9286 36.3907 56.4501H14.8407C13.7349 56.5034 12.6919 56.9803 11.9281 57.7818C11.1643 58.5833 10.7383 59.648 10.7383 60.7551C10.7383 61.8623 11.1643 62.927 11.9281 63.7285C12.6919 64.53 13.7349 65.0068 14.8407 65.0601H60.7507C61.8833 65.0297 62.9609 64.5655 63.7611 63.7635C64.5613 62.9614 65.0229 61.8827 65.0507 60.7501C65.1133 59.7342 64.7959 58.7314 64.1601 57.9366C63.5243 57.1419 62.6156 56.612 61.6107 56.4501Z" stroke="white" stroke-width="2" stroke-linecap="round" stroke-linejoin="round"/>
<path d="M8.61 35.54C8.61 35.54 9.21 50.03 0.5 57.33" stroke="white" stroke-width="2" stroke-linecap="round" stroke-linejoin="round"/>
<path d="M19.8594 35.5V46.98" stroke="white" stroke-width="2" stroke-linecap="round" stroke-linejoin="round"/>
<path d="M32.7695 35.5V46.98" stroke="white" stroke-width="2" stroke-linecap="round" stroke-linejoin="round"/>
<path d="M45.7598 35.5V39.66" stroke="white" stroke-width="2" stroke-linecap="round" stroke-linejoin="round"/>
<path d="M58.7402 35.5V46.6" stroke="white" stroke-width="2" stroke-linecap="round" stroke-linejoin="round"/>
<path d="M2.78906 0.5L16.0191 24.01" stroke="white" stroke-width="2" stroke-linecap="round" stroke-linejoin="round"/>
<path d="M22.8809 0.5L30.0509 13.41H40.6709C42.6856 13.4502 44.6578 13.9971 46.4054 15.0002C48.1531 16.0034 49.62 17.4305 50.6709 19.15L53.2809 24.03" stroke="white" stroke-width="2" stroke-linecap="round" stroke-linejoin="round"/>
<path d="M41.2095 24.3302L43.7895 28.6402C44.3199 29.6294 44.4356 30.7889 44.1112 31.8635C43.7867 32.938 43.0487 33.8397 42.0595 34.3702C41.0702 34.9006 39.9107 35.0163 38.8362 34.6919C37.7616 34.3674 36.8599 33.6294 36.3295 32.6402L31.4495 24.0402H6.20945C4.72987 24.102 3.33142 24.7332 2.30637 25.802C1.28132 26.8707 0.708984 28.2943 0.708984 29.7752C0.708984 31.256 1.28132 32.6796 2.30637 33.7484C3.33142 34.8171 4.72987 35.4484 6.20945 35.5102H59.3095C60.0827 35.5425 60.8546 35.418 61.5785 35.1444C62.3025 34.8707 62.9636 34.4535 63.5222 33.9178C64.0808 33.382 64.5252 32.7389 64.8288 32.027C65.1325 31.3151 65.289 30.5491 65.289 29.7752C65.289 29.0012 65.1325 28.2352 64.8288 27.5233C64.5252 26.8114 64.0808 26.1683 63.5222 25.6325C62.9636 25.0968 62.3025 24.6796 61.5785 24.4059C60.8546 24.1323 60.0827 24.0079 59.3095 24.0402H41.2095V24.3302Z" stroke="white" stroke-width="2" stroke-linecap="round" stroke-linejoin="round"/>
</g>
<defs>
<clipPath id="clip0_3243_2827">
<rect width="65.56" height="65.56" fill="white"/>
</clipPath>
</defs>
</svg>
