<svg width="47" height="54" viewBox="0 0 47 54" fill="none" xmlns="http://www.w3.org/2000/svg">
<g clip-path="url(#clip0_269_5078)">
<path d="M29.2321 53.6248C26.2114 53.6248 23.1906 53.6248 20.1699 53.6248C18.3024 53.6248 17.1938 52.8082 17.1938 51.4177C17.1938 50.0272 18.1536 49.1223 19.969 49.0561C22.2457 48.9752 24.5373 48.9825 26.814 49.0561C28.8973 49.115 29.4776 48.5485 29.6116 46.4738C29.7529 44.2667 29.6785 41.9346 30.4374 39.9261C31.2997 37.7304 32.6004 35.7287 34.2617 34.0406C36.064 32.2236 37.3662 29.981 38.0446 27.526C38.7231 25.071 38.7551 22.4852 38.1377 20.0144C37.5203 17.5437 36.274 15.2702 34.5173 13.4102C32.7606 11.5501 30.5519 10.1653 28.1012 9.38745C20.3113 6.80516 12.3577 10.6161 9.29228 18.5027C7.00068 24.4398 8.54825 29.8471 12.8115 34.3716C15.2891 36.9834 16.8516 39.8158 17.0152 43.3765C17.0599 44.3771 17.4765 44.7008 18.5033 44.6861C22.082 44.6199 25.6608 44.6861 29.2321 44.6861" stroke="white" stroke-width="2" stroke-linecap="round" stroke-linejoin="round"/>
<path d="M30.3487 27.4558C31.6954 29.6629 31.621 29.6114 30.1925 31.1343C29.4484 31.9583 28.9351 31.8258 28.1092 31.3109C26.4947 30.3029 25.9813 30.5752 25.5498 32.5762C25.3861 33.3634 25.081 33.8637 24.2626 33.6651C23.4442 33.4664 22.0305 34.4008 21.4651 32.7749C20.6541 30.3544 20.535 30.3471 18.489 31.4653C18.2951 31.5617 18.081 31.612 17.864 31.612C17.647 31.612 17.4329 31.5617 17.239 31.4653C16.1527 30.4942 14.7168 29.6629 16.2197 27.7869C16.8521 26.9923 15.989 25.9182 14.9846 25.8741C13.3998 25.8005 13.5412 24.822 13.4966 23.8068C13.4519 22.7915 13.7347 22.0485 14.9846 21.7615C16.5173 21.3937 16.7033 20.8493 15.8998 19.4294C15.7584 19.2489 15.6556 19.0419 15.5977 18.8209C15.5397 18.5999 15.5277 18.3696 15.5625 18.144C15.5973 17.9183 15.6781 17.702 15.8 17.5081C15.922 17.3143 16.0825 17.1469 16.2718 17.0163C17.0828 16.2806 17.678 15.7509 18.9056 16.4425C20.4532 17.3179 20.9591 17.0457 21.4353 15.1991C21.785 13.8528 22.6555 13.919 23.6674 13.9117C23.8906 13.8729 24.1195 13.8812 24.3392 13.9361C24.5589 13.991 24.7643 14.0912 24.9421 14.2302C25.1199 14.3691 25.2659 14.5437 25.3706 14.7424C25.4753 14.941 25.5364 15.1594 25.5498 15.3831C25.8474 16.9354 26.2938 17.2002 27.7223 16.4572C29.1508 15.7141 30.0288 16.3689 30.8695 17.237C31.7103 18.1051 31.4648 18.7599 30.743 19.6354C30.0213 20.5108 30.557 21.607 31.8144 21.7395C33.5852 21.9234 33.3025 23.1667 33.4587 24.182C33.6819 25.4106 32.6626 25.6166 31.8219 26.0359C31.2754 26.3903 30.7756 26.8104 30.3338 27.2866" stroke="white" stroke-width="2" stroke-linecap="round" stroke-linejoin="round"/>
<path d="M23.5195 0.368164V4.39241" stroke="white" stroke-width="2" stroke-linecap="round" stroke-linejoin="round"/>
<path d="M46.6283 23.4316H42.9082" stroke="white" stroke-width="2" stroke-linecap="round" stroke-linejoin="round"/>
<path d="M39.783 7.18066L37.0078 9.74088" stroke="white" stroke-width="2" stroke-linecap="round" stroke-linejoin="round"/>
<path d="M3.33352 23.4316H0.357422" stroke="white" stroke-width="2" stroke-linecap="round" stroke-linejoin="round"/>
<path d="M6.66602 7.18066L9.44123 9.55696" stroke="white" stroke-width="2" stroke-linecap="round" stroke-linejoin="round"/>
<path d="M37.3789 37.5205L39.7821 39.551" stroke="white" stroke-width="2" stroke-linecap="round" stroke-linejoin="round"/>
<path d="M22.774 20.1359C19.7979 21.4013 18.9274 23.2773 20.1848 25.6242C20.5685 26.2824 21.1452 26.81 21.8387 27.1371C22.5322 27.4642 23.3098 27.5754 24.0686 27.456C24.8658 27.2481 25.579 26.8026 26.1114 26.18C26.6438 25.5575 26.9697 24.7881 27.0447 23.9762C27.0661 23.1702 26.8264 22.3786 26.3606 21.7168C25.8948 21.0551 25.2273 20.5578 24.4555 20.2977C23.9644 20.2007 23.4673 20.1368 22.9674 20.1064" stroke="white" stroke-width="2" stroke-linecap="round" stroke-linejoin="round"/>
<path d="M7.15059 36.7041L4.69531 38.3373" stroke="white" stroke-width="2" stroke-linecap="round" stroke-linejoin="round"/>
</g>
<defs>
<clipPath id="clip0_269_5078">
<rect width="47" height="54" fill="white"/>
</clipPath>
</defs>
</svg>
