<svg width="54" height="54" viewBox="0 0 54 54" fill="none" xmlns="http://www.w3.org/2000/svg">
<path d="M48.3225 39.2197H23.0416C21.8247 39.2197 20.6576 39.7032 19.7971 40.5637C18.9365 41.4242 18.4531 42.5913 18.4531 43.8082V48.4114C18.4531 49.6284 18.9365 50.7955 19.7971 51.656C20.6576 52.5165 21.8247 52.9999 23.0416 52.9999H48.3225C49.5408 52.9999 50.7094 52.517 51.5723 51.6569C52.4351 50.7968 52.9218 49.6297 52.9257 48.4114V43.7494C52.9064 42.5413 52.4129 41.3893 51.5517 40.5419C50.6905 39.6944 49.5307 39.2196 48.3225 39.2197Z" stroke="white" stroke-width="2" stroke-linecap="round" stroke-linejoin="round"/>
<path d="M49.4704 39.2925V28.8066C49.4722 28.3561 49.3847 27.9097 49.2131 27.4933C49.0415 27.0768 48.789 26.6984 48.4704 26.3799C47.8224 25.7329 46.9449 25.3681 46.0291 25.3652H42.573C41.6627 25.3575 40.7918 24.9925 40.148 24.3487C39.5043 23.705 39.1393 22.8341 39.1316 21.9238V18.4677C39.1239 17.5574 38.7589 16.6865 38.1152 16.0428C37.4715 15.3991 36.6006 15.034 35.6903 15.0264H25.3955C24.4827 15.0302 23.608 15.3935 22.9611 16.0377C22.3142 16.6818 21.9472 17.5549 21.9395 18.4677V39.2925" stroke="white" stroke-width="2" stroke-linecap="round" stroke-linejoin="round"/>
<path d="M15.7914 24.9831L2.55532 10.2763C1.54315 9.24077 0.983809 7.84553 1.00036 6.39755C1.01691 4.94958 1.60798 3.56749 2.64355 2.55532C3.67913 1.54315 5.07436 0.983809 6.52234 1.00036C7.97031 1.01691 9.35241 1.60798 10.3646 2.64355L24.3066 15.1884" stroke="white" stroke-width="2" stroke-linecap="round" stroke-linejoin="round"/>
<path d="M13.3052 35.7031C13.7625 35.7142 14.1986 35.8981 14.5258 36.2179C14.6849 36.3757 14.811 36.5636 14.8969 36.7706C14.9827 36.9777 15.0266 37.1997 15.0259 37.4238C15.0689 38.3554 14.9226 39.2861 14.5957 40.1595C14.2689 41.033 13.7683 41.8311 13.1243 42.5056C12.4803 43.1801 11.7061 43.7169 10.8487 44.0837C9.99125 44.4506 9.06833 44.6397 8.13573 44.6397C7.20314 44.6397 6.28026 44.4506 5.42283 44.0837C4.5654 43.7169 3.79126 43.1801 3.14721 42.5056C2.50317 41.8311 2.00262 41.033 1.67578 40.1595C1.34894 39.2861 1.20258 38.3554 1.24563 37.4238V35.7031H13.3052Z" stroke="white" stroke-width="2" stroke-linecap="round" stroke-linejoin="round"/>
<path d="M1.2168 6.86523V35.7051" stroke="white" stroke-width="2" stroke-linecap="round" stroke-linejoin="round"/>
<path d="M9.83594 18.3643L8.11523 35.7035" stroke="white" stroke-width="2" stroke-linecap="round" stroke-linejoin="round"/>
<path d="M21.8945 28.8066H30.8068C31.2596 28.8095 31.7085 28.7226 32.1276 28.5509C32.5466 28.3793 32.9275 28.1263 33.2481 27.8065L39.1308 21.9238" stroke="white" stroke-width="2" stroke-linecap="round" stroke-linejoin="round"/>
<path d="M27.0702 46.9253C26.9478 46.9413 26.8234 46.9311 26.7053 46.8952C26.5871 46.8593 26.478 46.7986 26.3852 46.7172C26.2924 46.6357 26.2181 46.5354 26.1671 46.4229C26.1162 46.3105 26.0898 46.1884 26.0898 46.065C26.0898 45.9415 26.1162 45.8194 26.1671 45.707C26.2181 45.5945 26.2924 45.4942 26.3852 45.4128C26.478 45.3313 26.5871 45.2706 26.7053 45.2347C26.8234 45.1989 26.9478 45.1886 27.0702 45.2046" stroke="white" stroke-width="2" stroke-linecap="round" stroke-linejoin="round"/>
<path d="M27.0723 46.9248C27.2811 46.8974 27.4728 46.7951 27.6117 46.6368C27.7506 46.4785 27.8273 46.275 27.8273 46.0644C27.8273 45.8538 27.7506 45.6504 27.6117 45.4921C27.4728 45.3338 27.2811 45.2315 27.0723 45.2041" stroke="white" stroke-width="2" stroke-linecap="round" stroke-linejoin="round"/>
<path d="M35.6894 46.9253C35.567 46.9413 35.4426 46.9311 35.3244 46.8952C35.2063 46.8593 35.0972 46.7986 35.0044 46.7172C34.9116 46.6357 34.8372 46.5354 34.7863 46.4229C34.7353 46.3105 34.709 46.1884 34.709 46.065C34.709 45.9415 34.7353 45.8194 34.7863 45.707C34.8372 45.5945 34.9116 45.4942 35.0044 45.4128C35.0972 45.3313 35.2063 45.2706 35.3244 45.2347C35.4426 45.1989 35.567 45.1886 35.6894 45.2046" stroke="white" stroke-width="2" stroke-linecap="round" stroke-linejoin="round"/>
<path d="M35.6895 46.9248C35.8983 46.8974 36.09 46.7951 36.2289 46.6368C36.3678 46.4785 36.4444 46.275 36.4444 46.0644C36.4444 45.8538 36.3678 45.6504 36.2289 45.4921C36.09 45.3338 35.8983 45.2315 35.6895 45.2041" stroke="white" stroke-width="2" stroke-linecap="round" stroke-linejoin="round"/>
<path d="M44.3077 46.9248C44.0989 46.8974 43.9072 46.7951 43.7683 46.6368C43.6293 46.4785 43.5527 46.275 43.5527 46.0644C43.5527 45.8538 43.6293 45.6504 43.7683 45.4921C43.9072 45.3338 44.0989 45.2315 44.3077 45.2041" stroke="white" stroke-width="2" stroke-linecap="round" stroke-linejoin="round"/>
<path d="M44.3086 46.9253C44.431 46.9413 44.5555 46.9311 44.6736 46.8952C44.7917 46.8593 44.9009 46.7986 44.9937 46.7172C45.0865 46.6357 45.1608 46.5354 45.2117 46.4229C45.2627 46.3105 45.289 46.1884 45.289 46.065C45.289 45.9415 45.2627 45.8194 45.2117 45.707C45.1608 45.5945 45.0865 45.4942 44.9937 45.4128C44.9009 45.3313 44.7917 45.2706 44.6736 45.2347C44.5555 45.1989 44.431 45.1886 44.3086 45.2046" stroke="white" stroke-width="2" stroke-linecap="round" stroke-linejoin="round"/>
</svg>
