<svg width="68" height="70" viewBox="0 0 68 70" fill="none" xmlns="http://www.w3.org/2000/svg">
<path d="M31.8652 43.3301V65.9201" stroke="white" stroke-width="2" stroke-linecap="round" stroke-linejoin="round"/>
<path d="M6.04492 65.9201V43.3301" stroke="white" stroke-width="2" stroke-linecap="round" stroke-linejoin="round"/>
<path d="M1.74414 46.5506L18.9541 33.6406L36.1741 46.5506" stroke="white" stroke-width="2" stroke-linecap="round" stroke-linejoin="round"/>
<path d="M61.9954 48.7003C61.9954 50.9838 61.0883 53.1738 59.4736 54.7885C57.8589 56.4032 55.6689 57.3103 53.3854 57.3103C51.1019 57.3103 48.9119 56.4032 47.2972 54.7885C45.6825 53.1738 44.7754 50.9838 44.7754 48.7003C44.7754 35.7903 53.3854 18.5703 53.3854 18.5703C53.3854 18.5703 61.9954 35.7903 61.9954 48.7003Z" stroke="white" stroke-width="2" stroke-linecap="round" stroke-linejoin="round"/>
<path d="M53.3848 57.3105V65.9205" stroke="white" stroke-width="2" stroke-linecap="round" stroke-linejoin="round"/>
<path d="M1.74414 65.9199H66.2941" stroke="white" stroke-width="2" stroke-linecap="round" stroke-linejoin="round"/>
<path d="M14.6543 65.9198V57.3098C14.6543 56.1693 15.1073 55.0756 15.9137 54.2692C16.7201 53.4628 17.8139 53.0098 18.9543 53.0098C20.0947 53.0098 21.1884 53.4628 21.9949 54.2692C22.8013 55.0756 23.2543 56.1693 23.2543 57.3098V65.9198" stroke="white" stroke-width="2" stroke-linecap="round" stroke-linejoin="round"/>
<path d="M23.254 18.5698C24.1231 18.604 24.9901 18.4623 25.8031 18.1534C26.6161 17.8444 27.3583 17.3744 27.9853 16.7717C28.6122 16.1689 29.111 15.4457 29.4518 14.6455C29.7925 13.8453 29.9681 12.9845 29.9681 12.1148C29.9681 11.245 29.7925 10.3843 29.4518 9.58404C29.111 8.78383 28.6122 8.06065 27.9853 7.45788C27.3583 6.8551 26.6161 6.38513 25.8031 6.07616C24.9901 5.76718 24.1231 5.62555 23.254 5.65976C22.3709 5.67718 21.501 5.8772 20.699 6.24721C19.8971 6.61723 19.1803 7.14924 18.594 7.80976C18.158 6.27531 17.3067 4.89108 16.134 3.80976C14.9519 2.72579 13.4917 1.99182 11.9165 1.68985C10.3413 1.38788 8.71317 1.52981 7.21399 2.09976C5.71486 2.67465 4.40633 3.65726 3.43621 4.93662C2.46609 6.21598 1.87302 7.74111 1.72399 9.33976C1.57642 10.9386 1.87831 12.5468 2.59565 13.9832C3.31298 15.4197 4.41724 16.6272 5.78399 17.4698C7.14952 18.3088 8.7213 18.7519 10.324 18.7498L23.254 18.5698Z" stroke="white" stroke-width="2" stroke-linecap="round" stroke-linejoin="round"/>
</svg>
