<svg width="81" height="50" viewBox="0 0 81 50" fill="none" xmlns="http://www.w3.org/2000/svg">
<path d="M45 26.7009V49H21.4288C19.9842 48.9956 18.5999 48.4513 17.5777 47.4856C17.075 47.0104 16.6768 46.4457 16.406 45.8241C16.1353 45.2026 15.9973 44.5365 16 43.8642V1" stroke="white" stroke-width="2" stroke-linecap="round" stroke-linejoin="round"/>
<path d="M70 22V43.7742C69.9888 45.1604 69.4564 46.4862 68.5181 47.4643C67.5799 48.4424 66.3113 48.9942 64.9872 49H45" stroke="white" stroke-width="2" stroke-linecap="round" stroke-linejoin="round"/>
<path d="M42.9432 1L49.6757 20.454C49.8645 20.9152 50.2027 21.3065 50.6407 21.5705C51.063 21.8494 51.5638 21.9992 52.0769 22H78.0642C78.3834 21.9919 78.6971 21.9186 78.9843 21.7853C79.2613 21.6385 79.4994 21.4328 79.68 21.184C79.8598 20.9361 79.9682 20.6473 79.9942 20.3466C80.0173 20.0402 79.9713 19.7327 79.8595 19.4448L73.3066 1H12.4901L1.26933 19.273C1.09277 19.5434 0.999409 19.856 1.00001 20.1748C0.998804 20.5005 1.09205 20.8201 1.26933 21.0981C1.45335 21.3689 1.6988 21.5964 1.98744 21.7638C2.28414 21.9167 2.61546 21.9978 2.95245 22H15.9012" stroke="white" stroke-width="2" stroke-linecap="round" stroke-linejoin="round"/>
</svg>
