<svg width="66" height="55" viewBox="0 0 66 55" fill="none" xmlns="http://www.w3.org/2000/svg">
<g clip-path="url(#clip0_394_1347)">
<path d="M14.9291 29.3999L18.5091 36.3999H24.6091C24.9621 36.3869 25.3107 36.481 25.6091 36.6699C25.8885 36.8566 26.1074 37.1207 26.2391 37.4299C26.3703 37.7381 26.4052 38.0788 26.3391 38.4072C26.2731 38.7356 26.1093 39.0363 25.8691 39.2699L20.2191 44.8199L23.3091 51.9499C23.4416 52.2659 23.4731 52.6152 23.3991 52.9499C23.3207 53.2948 23.1354 53.6061 22.8697 53.8395C22.6039 54.073 22.2713 54.2166 21.9191 54.2499C21.5708 54.2866 21.2199 54.2094 20.9191 54.0299L13.4191 49.8199L5.90913 54.0299C5.60835 54.2094 5.25749 54.2866 4.90913 54.2499C4.55344 54.2206 4.21632 54.0788 3.94662 53.8451C3.67692 53.6113 3.48866 53.2978 3.40914 52.9499C3.33519 52.6152 3.36663 52.2659 3.49914 51.9499L6.59914 44.8199L1.00914 39.3099C0.760861 39.0782 0.592751 38.7735 0.529135 38.4399C0.479458 38.1939 0.485868 37.9398 0.547888 37.6966C0.609908 37.4534 0.725943 37.2273 0.887367 37.0352C1.04879 36.843 1.25145 36.6897 1.48029 36.5866C1.70912 36.4836 1.95824 36.4334 2.20914 36.4399H8.30914L11.8891 29.4399C12.039 29.1668 12.2558 28.9363 12.5191 28.7699C12.7196 28.6488 12.9428 28.5701 13.1748 28.5383C13.4069 28.5066 13.6429 28.5226 13.8686 28.5853C14.0942 28.648 14.3047 28.7562 14.487 28.9031C14.6694 29.0501 14.8198 29.2327 14.9291 29.4399V29.3999Z" stroke="#01351F" stroke-width="2" stroke-linecap="round" stroke-linejoin="round"/>
<path d="M34.2999 1.42977L37.8799 8.47977H43.9699C44.324 8.4564 44.6757 8.55138 44.9699 8.74977C45.251 8.93172 45.4709 9.19396 45.6011 9.50246C45.7313 9.81096 45.7657 10.1515 45.6999 10.4798C45.6273 10.8101 45.4606 11.1122 45.2199 11.3498L39.6299 16.8498L42.6899 23.9498C42.8148 24.2679 42.8426 24.6159 42.7699 24.9498C42.7065 25.3363 42.5124 25.6893 42.2199 25.9498C41.9386 26.1891 41.5883 26.3327 41.2199 26.3598C40.8719 26.3903 40.523 26.3135 40.2199 26.1398L32.7199 21.9198L25.2199 26.1398C24.9169 26.3135 24.5679 26.3903 24.2199 26.3598C23.8866 26.313 23.5739 26.1706 23.3199 25.9498C23.0555 25.715 22.8703 25.4041 22.7899 25.0598C22.7172 24.7259 22.7451 24.3779 22.8699 24.0598L25.9699 16.9298L20.3699 11.4098C20.1303 11.1769 19.9665 10.8772 19.8999 10.5498C19.8524 10.3048 19.86 10.0524 19.9222 9.81076C19.9844 9.56913 20.0997 9.34439 20.2596 9.15287C20.4195 8.96135 20.6201 8.80785 20.8467 8.70353C21.0734 8.59921 21.3204 8.54669 21.5699 8.54977H27.6699L31.2599 1.54977C31.4043 1.27229 31.6228 1.04031 31.8911 0.879643C32.1595 0.718981 32.4672 0.635944 32.7799 0.639775C33.0953 0.639593 33.4042 0.729823 33.6699 0.899776C33.9204 1.02181 34.1368 1.20388 34.2999 1.42977Z" stroke="#01351F" stroke-width="2" stroke-linecap="round" stroke-linejoin="round"/>
<path d="M50.6296 29.4003L47.0495 36.4003H40.9496C40.5966 36.3874 40.248 36.4815 39.9496 36.6703C39.6686 36.8549 39.4491 37.119 39.3191 37.429C39.1891 37.7389 39.1544 38.0806 39.2195 38.4103C39.29 38.7385 39.4572 39.038 39.6996 39.2703L45.2995 44.7903L42.2195 51.9503C42.0919 52.2676 42.0606 52.6154 42.1296 52.9503C42.1909 53.2075 42.3113 53.4468 42.4814 53.6493C42.6514 53.8517 42.8663 54.0117 43.109 54.1166C43.3517 54.2214 43.6155 54.2682 43.8795 54.2533C44.1434 54.2383 44.4003 54.162 44.6296 54.0303L52.1296 49.8203L59.6296 54.0303C59.8585 54.1706 60.1178 54.2539 60.3856 54.2733C60.6534 54.2927 60.922 54.2476 61.1688 54.1418C61.4156 54.0361 61.6334 53.8727 61.8041 53.6654C61.9747 53.458 62.0932 53.2129 62.1495 52.9503C62.2222 52.6164 62.1944 52.2684 62.0695 51.9503L58.9595 44.8203L64.5595 39.3103C64.8078 39.0786 64.9759 38.7739 65.0395 38.4403C65.0892 38.1943 65.0828 37.9403 65.0208 37.6971C64.9588 37.4539 64.8427 37.2278 64.6813 37.0356C64.5199 36.8435 64.3172 36.6901 64.0884 36.5871C63.8596 36.484 63.6104 36.4339 63.3595 36.4403H57.2195L53.6395 29.4403C53.4858 29.1668 53.2657 28.9364 52.9995 28.7703C52.7302 28.6108 52.4225 28.5279 52.1095 28.5303C51.7998 28.5282 51.4953 28.6112 51.2295 28.7703C50.9828 28.9302 50.7772 29.1461 50.6296 29.4003Z" stroke="#01351F" stroke-width="2" stroke-linecap="round" stroke-linejoin="round"/>
</g>
<defs>
<clipPath id="clip0_394_1347">
<rect width="65.58" height="54.79" fill="white"/>
</clipPath>
</defs>
</svg>
