<svg width="55" height="54" viewBox="0 0 55 54" fill="none" xmlns="http://www.w3.org/2000/svg">
<path d="M53.0894 9.61816C54.3243 12.6916 53.6001 15.5422 51.8451 18.1142C49.0595 22.144 45.0204 23.2304 40.4056 22.6083C40.0748 22.5241 39.7277 22.5277 39.3987 22.6189C39.0697 22.7101 38.7702 22.8857 38.53 23.1283C33.6645 28.0031 28.8361 32.9057 23.9056 37.7062C22.9771 38.6348 23.3021 39.5633 23.4507 40.334C24.2585 44.5402 22.68 47.7622 19.5972 50.4271C18.5382 51.4144 17.2667 52.1454 15.8807 52.564C14.4947 52.9825 13.0311 53.0774 11.6026 52.8413C10.3955 52.637 9.31842 52.0056 8.11133 52.7577" stroke="white" stroke-width="2" stroke-miterlimit="10"/>
<path d="M40.3871 28.2158C42.1142 29.2186 41.4735 30.7971 41.0092 32.0135C40.7738 32.4915 40.7222 33.0394 40.8642 33.553C41.0063 34.0666 41.3322 34.5101 41.7799 34.7991C44.7884 37.4083 47.6761 40.1474 50.666 42.7752C52.2445 44.1587 53.7022 45.4865 53.6094 47.8357C53.5793 48.8297 53.2662 49.7944 52.707 50.6168C52.1479 51.4391 51.3657 52.0849 50.4524 52.4783C49.6192 52.8889 48.6828 53.0428 47.762 52.9205C46.8413 52.7982 45.9775 52.4051 45.2805 51.7912C43.589 50.2457 42.0355 48.5555 40.6378 46.74C39.0192 45.1004 37.4911 43.3738 36.0602 41.5681C35.0573 40.101 33.7295 39.5068 32.0768 40.3703C30.7211 41.076 29.8947 40.4539 29.1055 39.4418" stroke="white" stroke-width="2" stroke-miterlimit="10"/>
<path d="M45.6139 1.96692C42.4847 0.0077231 39.4763 1.39123 36.9878 2.89546C35.375 3.87741 34.0608 5.28105 33.187 6.95499C32.3132 8.62893 31.913 10.5097 32.0295 12.3943C32.0654 12.872 32.1494 13.3449 32.2802 13.8057C32.4419 14.2526 32.4727 14.7363 32.3691 15.2001C32.2655 15.6639 32.0317 16.0886 31.6952 16.4242C26.7988 21.2339 21.958 26.0964 17.173 31.0114C16.9513 31.2961 16.6514 31.5101 16.3101 31.6272C15.9687 31.7443 15.6007 31.7594 15.2509 31.6706C9.42901 29.9621 3.77426 34.252 2.57646 38.8203C2.0472 40.8352 1.44366 42.943 2.90145 44.9022" stroke="white" stroke-width="2" stroke-miterlimit="10"/>
<path d="M47.6946 1.44727C47.1308 1.5008 46.5866 1.68258 46.1038 1.9787C45.621 2.27482 45.2123 2.67744 44.909 3.15576C44.1544 4.24327 43.2109 5.18672 42.1234 5.94136C41.7113 6.26447 41.3987 6.6972 41.2213 7.1899C41.0439 7.6826 41.009 8.21532 41.1206 8.72695C41.2042 9.8319 41.4177 10.9183 41.5106 12.0325C41.6313 13.4625 43.1077 13.2953 44.0733 13.5553C45.039 13.8153 45.8097 13.5553 46.6918 13.9082C47.0389 14 47.4052 13.9892 47.7463 13.8772C48.0875 13.7651 48.3888 13.5565 48.6138 13.2768C49.9602 11.9582 51.0094 10.3426 52.7365 9.39549C53.4236 9.01479 53.0151 7.96555 53.4515 7.34344" stroke="white" stroke-width="2" stroke-miterlimit="10"/>
<path d="M10.1528 51.8477C11.2574 50.4607 12.502 49.1912 13.867 48.0593C14.2137 47.7617 14.4735 47.376 14.619 46.9428C14.7645 46.5097 14.7901 46.0453 14.6933 45.5987C14.5633 44.5495 14.4241 43.5095 14.3034 42.4696C14.1827 41.4296 13.7648 40.3896 12.2699 40.7053C11.8706 40.7982 11.3414 40.4639 11.0535 40.4546C9.38215 40.3618 7.60865 39.8697 6.31799 41.736C5.5284 42.9484 4.4664 43.9596 3.2167 44.6887C2.18603 45.2459 2.84528 46.3694 2.19531 46.9822" stroke="white" stroke-width="2" stroke-miterlimit="10"/>
<path d="M16.0684 7.34325C14.7963 7.1204 14.1371 7.77966 13.7285 9.20031L23.1903 18.662" stroke="white" stroke-width="2" stroke-miterlimit="10"/>
<path d="M8.06323 15.3565C7.84967 14.0937 8.49964 13.4252 9.92029 13.0166L19.3634 22.4783" stroke="white" stroke-width="2" stroke-miterlimit="10"/>
<path d="M8.24006 13.7873C5.7516 11.2524 4.33093 7.97471 2.19531 5.14269C3.01619 4.06252 3.93298 3.05872 4.93449 2.14353C5.02324 2.02497 5.13548 1.92599 5.26421 1.85277C5.39295 1.77954 5.53541 1.73366 5.68267 1.71797C5.82994 1.70229 5.97885 1.71714 6.12012 1.7616C6.26139 1.80607 6.39196 1.87919 6.5037 1.97639C9.18715 3.83346 12.1956 5.16126 14.4984 7.54758" stroke="white" stroke-width="2" stroke-miterlimit="10"/>
<path d="M41.3145 40.5566L47.5727 46.8057" stroke="white" stroke-width="2" stroke-miterlimit="10"/>
</svg>
