<svg width="68" height="58" viewBox="0 0 68 58" fill="none" xmlns="http://www.w3.org/2000/svg">
<g clip-path="url(#clip0_3243_2838)">
<path d="M14.9291 30.3999L18.5091 37.3999H24.6091C24.9621 37.3869 25.3107 37.481 25.6091 37.6699C25.8885 37.8566 26.1074 38.1207 26.2391 38.4299C26.3703 38.7381 26.4052 39.0788 26.3391 39.4072C26.2731 39.7356 26.1093 40.0363 25.8691 40.2699L20.2191 45.8199L23.3091 52.9499C23.4416 53.2659 23.4731 53.6152 23.3991 53.9499C23.3207 54.2948 23.1354 54.6061 22.8697 54.8395C22.6039 55.073 22.2713 55.2166 21.9191 55.2499C21.5708 55.2866 21.2199 55.2094 20.9191 55.0299L13.4191 50.8199L5.90913 55.0299C5.60835 55.2094 5.25749 55.2866 4.90913 55.2499C4.55344 55.2206 4.21632 55.0788 3.94662 54.8451C3.67692 54.6113 3.48866 54.2978 3.40914 53.9499C3.33519 53.6152 3.36663 53.2659 3.49914 52.9499L6.59914 45.8199L1.00914 40.3099C0.760861 40.0782 0.592751 39.7735 0.529135 39.4399C0.479458 39.1939 0.485868 38.9398 0.547888 38.6966C0.609908 38.4534 0.725943 38.2273 0.887367 38.0352C1.04879 37.843 1.25145 37.6897 1.48029 37.5866C1.70912 37.4836 1.95824 37.4334 2.20914 37.4399H8.30914L11.8891 30.4399C12.039 30.1668 12.2558 29.9363 12.5191 29.7699C12.7196 29.6488 12.9428 29.5701 13.1748 29.5383C13.4069 29.5066 13.6429 29.5226 13.8686 29.5853C14.0942 29.648 14.3047 29.7562 14.487 29.9031C14.6694 30.0501 14.8198 30.2327 14.9291 30.4399V30.3999Z" stroke="white" stroke-width="2" stroke-linecap="round" stroke-linejoin="round"/>
<path d="M34.2999 2.42977L37.8799 9.47977H43.9699C44.324 9.4564 44.6757 9.55138 44.9699 9.74977C45.251 9.93172 45.4709 10.194 45.6011 10.5025C45.7313 10.811 45.7657 11.1515 45.6999 11.4798C45.6273 11.8101 45.4606 12.1122 45.2199 12.3498L39.6299 17.8498L42.6899 24.9498C42.8148 25.2679 42.8426 25.6159 42.7699 25.9498C42.7065 26.3363 42.5124 26.6893 42.2199 26.9498C41.9386 27.1891 41.5883 27.3327 41.2199 27.3598C40.8719 27.3903 40.523 27.3135 40.2199 27.1398L32.7199 22.9198L25.2199 27.1398C24.9169 27.3135 24.5679 27.3903 24.2199 27.3598C23.8866 27.313 23.5739 27.1706 23.3199 26.9498C23.0555 26.715 22.8703 26.4041 22.7899 26.0598C22.7172 25.7259 22.7451 25.3779 22.8699 25.0598L25.9699 17.9298L20.3699 12.4098C20.1303 12.1769 19.9665 11.8772 19.8999 11.5498C19.8524 11.3048 19.86 11.0524 19.9222 10.8108C19.9844 10.5691 20.0997 10.3444 20.2596 10.1529C20.4195 9.96135 20.6201 9.80785 20.8467 9.70353C21.0734 9.59921 21.3204 9.54669 21.5699 9.54977H27.6699L31.2599 2.54977C31.4043 2.27229 31.6228 2.04031 31.8911 1.87964C32.1595 1.71898 32.4672 1.63594 32.7799 1.63978C33.0953 1.63959 33.4042 1.72982 33.6699 1.89978C33.9204 2.02181 34.1368 2.20388 34.2999 2.42977Z" stroke="white" stroke-width="2" stroke-linecap="round" stroke-linejoin="round"/>
<path d="M50.6296 30.4003L47.0495 37.4003H40.9496C40.5966 37.3874 40.248 37.4815 39.9496 37.6703C39.6686 37.8549 39.4491 38.119 39.3191 38.429C39.1891 38.7389 39.1544 39.0806 39.2195 39.4103C39.29 39.7385 39.4572 40.038 39.6996 40.2703L45.2995 45.7903L42.2195 52.9503C42.0919 53.2676 42.0606 53.6154 42.1296 53.9503C42.1909 54.2075 42.3113 54.4468 42.4814 54.6493C42.6514 54.8517 42.8663 55.0117 43.109 55.1166C43.3517 55.2214 43.6155 55.2682 43.8795 55.2533C44.1434 55.2383 44.4003 55.162 44.6296 55.0303L52.1296 50.8203L59.6296 55.0303C59.8585 55.1706 60.1178 55.2539 60.3856 55.2733C60.6534 55.2927 60.922 55.2476 61.1688 55.1418C61.4156 55.0361 61.6334 54.8727 61.8041 54.6654C61.9747 54.458 62.0932 54.2129 62.1495 53.9503C62.2222 53.6164 62.1944 53.2684 62.0695 52.9503L58.9595 45.8203L64.5595 40.3103C64.8078 40.0786 64.9759 39.7739 65.0395 39.4403C65.0892 39.1943 65.0828 38.9403 65.0208 38.6971C64.9588 38.4539 64.8427 38.2278 64.6813 38.0356C64.5199 37.8435 64.3172 37.6901 64.0884 37.5871C63.8596 37.484 63.6104 37.4339 63.3595 37.4403H57.2195L53.6395 30.4403C53.4858 30.1668 53.2657 29.9364 52.9995 29.7703C52.7302 29.6108 52.4225 29.5279 52.1095 29.5303C51.7998 29.5282 51.4953 29.6112 51.2295 29.7703C50.9828 29.9302 50.7772 30.1461 50.6296 30.4003Z" stroke="white" stroke-width="2" stroke-linecap="round" stroke-linejoin="round"/>
</g>
<defs>
<clipPath id="clip0_3243_2838">
<rect width="68" height="58" fill="white"/>
</clipPath>
</defs>
</svg>
