<svg width="56" height="54" viewBox="0 0 56 54" fill="none" xmlns="http://www.w3.org/2000/svg">
<path d="M4.86328 1C5.83415 1.84951 6.67168 2.84025 7.34776 3.93896C9.11588 7.26356 10.3626 10.8401 11.0442 14.5435C11.5613 17.4724 11.7392 20.4512 11.5744 23.4209C11.5744 24.1784 11.3926 28.2384 11.4078 28.9959" stroke="white" stroke-width="2" stroke-linecap="round" stroke-linejoin="round"/>
<path d="M2.77344 20.1338C4.39441 21.8002 9.59062 22.285 11.5903 23.4212" stroke="white" stroke-width="2" stroke-linecap="round" stroke-linejoin="round"/>
<path d="M2.34766 13.1338C3.86258 14.9366 9.31632 15.4365 11.3615 16.6181" stroke="white" stroke-width="2" stroke-linecap="round" stroke-linejoin="round"/>
<path d="M1.48438 6.5293C2.92356 8.04422 7.87738 8.28662 9.665 9.30162" stroke="white" stroke-width="2" stroke-linecap="round" stroke-linejoin="round"/>
<path d="M16.1046 4.15137C13.9978 5.80696 11.7865 7.32504 9.48438 8.69615" stroke="white" stroke-width="2" stroke-linecap="round" stroke-linejoin="round"/>
<path d="M17.8766 11.3008C15.7776 12.9599 13.5711 14.4781 11.2715 15.8456" stroke="white" stroke-width="2" stroke-linecap="round" stroke-linejoin="round"/>
<path d="M19.2094 18.6797C18.4671 19.8462 11.9529 21.6186 11.6348 22.0883" stroke="white" stroke-width="2" stroke-linecap="round" stroke-linejoin="round"/>
<path d="M3.37842 29.0557H17.5733C17.8842 29.0537 18.1924 29.1135 18.4801 29.2315C18.7677 29.3496 19.029 29.5236 19.2489 29.7434C19.4688 29.9633 19.6427 30.2246 19.7608 30.5122C19.8789 30.7999 19.9386 31.1081 19.9366 31.419V43.2506C19.9386 43.8726 19.8178 44.4888 19.5812 45.064C19.3445 45.6392 18.9967 46.1621 18.5576 46.6026C18.1185 47.0431 17.5967 47.3926 17.0223 47.6311C16.4479 47.8696 15.832 47.9923 15.21 47.9923H5.74173C4.48538 47.9883 3.2816 47.4875 2.39322 46.5991C1.50484 45.7107 1.00399 44.5069 1 43.2506V31.419C1.00341 30.7889 1.25359 30.1852 1.69688 29.7374C2.14529 29.2969 2.74984 29.0518 3.37842 29.0557Z" stroke="white" stroke-width="2" stroke-linecap="round" stroke-linejoin="round"/>
<path d="M5.74219 47.9932L4.56055 53.0076" stroke="white" stroke-width="2" stroke-linecap="round" stroke-linejoin="round"/>
<path d="M15.2109 47.9932L16.3926 53.0076" stroke="white" stroke-width="2" stroke-linecap="round" stroke-linejoin="round"/>
<path d="M28.2227 47.4023L27.041 53.0076" stroke="white" stroke-width="2" stroke-linecap="round" stroke-linejoin="round"/>
<path d="M50.7207 47.4023L51.9024 53.0076" stroke="white" stroke-width="2" stroke-linecap="round" stroke-linejoin="round"/>
<path d="M24.6778 14.3001V13.9365C24.6765 13.6263 24.7375 13.3189 24.8572 13.0326C24.9769 12.7464 25.1528 12.4871 25.3746 12.2701C25.8168 11.8277 26.4155 11.5774 27.041 11.5732H51.901C52.5266 11.5772 53.1254 11.8275 53.5677 12.2698C54.0101 12.7122 54.2603 13.311 54.2643 13.9365V44.7199C54.2564 45.3428 54.0043 45.9377 53.5624 46.3768C53.1205 46.8159 52.524 47.0641 51.901 47.068H27.041" stroke="white" stroke-width="2" stroke-linecap="round" stroke-linejoin="round"/>
<path d="M27.041 23.4062H54.3097" stroke="white" stroke-width="2" stroke-linecap="round" stroke-linejoin="round"/>
<path d="M27.041 35.252H54.3097" stroke="white" stroke-width="2" stroke-linecap="round" stroke-linejoin="round"/>
<path d="M37.6914 17.4971H41.2515" stroke="white" stroke-width="2" stroke-linecap="round" stroke-linejoin="round"/>
<path d="M37.6914 29.3301H41.2515" stroke="white" stroke-width="2" stroke-linecap="round" stroke-linejoin="round"/>
<path d="M37.6914 41.1602H41.2515" stroke="white" stroke-width="2" stroke-linecap="round" stroke-linejoin="round"/>
</svg>
