<svg width="43" height="57" viewBox="0 0 43 57" fill="none" xmlns="http://www.w3.org/2000/svg">
<path d="M32.0519 43.8698C25.1411 43.263 18.219 43.7687 11.2969 43.6001" stroke="white" stroke-width="2" stroke-linecap="round" stroke-linejoin="round"/>
<path d="M32.0519 35.7903C25.1411 36.3971 18.219 35.8914 11.2969 36.0599" stroke="white" stroke-width="2" stroke-linecap="round" stroke-linejoin="round"/>
<path d="M31.7485 27.9692H11.2969" stroke="white" stroke-width="2" stroke-linecap="round" stroke-linejoin="round"/>
<path d="M13.4551 7.48398C13.4551 13.4172 13.455 13.4172 6.98242 13.4172" stroke="white" stroke-width="2" stroke-linecap="round" stroke-linejoin="round"/>
<path d="M11.8384 1.01118C8.26502 3.98903 5.26466 7.56251 1.83732 10.6864C1.49928 11.0465 1.25248 11.4823 1.11758 11.9574C0.98267 12.4325 0.963512 12.9331 1.06188 13.4171C1.06188 26.2574 1.06188 39.1053 1.06188 51.9606C1.06188 55.3318 1.062 55.3317 4.55677 55.4441C8.05153 55.5565 11.7485 55.4441 15.3444 55.4441H38.493C39.4983 55.5821 40.5222 55.4503 41.4596 55.0621V1H12.0744" stroke="white" stroke-width="2" stroke-linecap="round" stroke-linejoin="round"/>
</svg>
