<svg width="62" height="57" viewBox="0 0 62 57" fill="none" xmlns="http://www.w3.org/2000/svg">
<path d="M24.3838 17.0779C23.4391 19.2106 21.8665 21.0044 19.8759 22.2201L22.5326 35.9326H14.2537L11.8883 23.6428C9.58542 23.2472 7.45798 22.1586 5.79 20.5223C4.12201 18.886 2.99283 16.7798 2.55323 14.4849C2.11362 12.19 2.38451 9.81565 3.3297 7.67875C4.2749 5.54184 5.84943 3.74411 7.84311 2.52552L9.55718 11.0958L14.3223 14.3354L17.5447 9.57032L15.8307 1C17.5522 1.29439 19.184 1.97757 20.6018 2.99758C22.0196 4.01759 23.186 5.34755 24.0124 6.88626C24.8388 8.42498 25.3033 10.1319 25.3707 11.8772C25.438 13.6225 25.1064 15.3601 24.401 16.9579L24.3838 17.0779Z" stroke="#165933" stroke-width="1.5" stroke-linecap="round" stroke-linejoin="round"/>
<path d="M43.1184 2.66309C42.3128 6.26262 38.0791 8.66231 32.2684 7.37676L31.1371 12.519L58.3051 18.5525L60.9447 6.674L43.1184 2.66309Z" stroke="#165933" stroke-width="1.5" stroke-linecap="round" stroke-linejoin="round"/>
<path d="M37.7191 35.9327L42.3814 14.9697L50.1118 16.6838L45.6038 35.9327H37.7191Z" stroke="#165933" stroke-width="1.5" stroke-linecap="round" stroke-linejoin="round"/>
<path d="M61.1333 53.6389V35.9326H0.86676V53.5875C0.86676 54.283 1.14306 54.9501 1.63488 55.4419C2.1267 55.9337 2.79374 56.21 3.48928 56.21H58.5107C59.1961 56.2058 59.853 55.9351 60.3424 55.4553C60.8319 54.9755 61.1155 54.3241 61.1333 53.6389Z" stroke="#165933" stroke-width="1.5" stroke-linecap="round" stroke-linejoin="round"/>
<path d="M34.9252 39.9264C34.9252 40.9674 34.5117 41.9658 33.7756 42.7019C33.0395 43.438 32.0411 43.8516 31 43.8516C29.959 43.8516 28.9606 43.438 28.2245 42.7019C27.4884 41.9658 27.0748 40.9674 27.0748 39.9264V35.9326H34.9252V39.9264Z" stroke="#165933" stroke-width="1.5" stroke-linecap="round" stroke-linejoin="round"/>
</svg>
