<svg width="33" height="64" viewBox="0 0 33 64" fill="none" xmlns="http://www.w3.org/2000/svg">
<path d="M26.0795 41.3014C25.263 41.9478 26.4538 55.8286 26.0455 58.2441C24.8548 64.9804 9.74923 65.4226 6.99349 59.3668V41.5055C6.75534 40.8931 0.971653 41.5055 0.257202 38.0013C-0.185077 35.892 -0.116993 28.4753 0.937673 26.6722C4.03363 21.4329 14.7164 21.3307 21.6567 21.9091C27.3724 22.3854 31.8972 24.869 32.7137 28.8836C33.088 30.6527 33.122 35.858 32.7137 37.5931C32.1694 39.9746 29.3796 41.0292 26.0795 41.2673" fill="white"/>
<path d="M25.9435 9.42391C25.9435 14.6292 21.7249 18.8478 16.5196 18.8478C11.3143 18.8478 7.0957 14.6292 7.0957 9.42391C7.0957 4.21863 11.3143 0 16.5196 0C21.7249 0 25.9435 4.21863 25.9435 9.42391Z" fill="white"/>
</svg>
