<svg width="42" height="44" viewBox="0 0 42 44" fill="none" xmlns="http://www.w3.org/2000/svg">
<path d="M18.8275 8.1526C18.8275 8.67572 18.2159 8.99763 17.7732 9.00568C17.471 9.0334 17.168 8.95979 16.9122 8.79644C16.8322 8.72219 16.746 8.65488 16.6546 8.59524C16.3198 8.3754 15.9172 8.28292 15.52 8.33461C15.1228 8.38629 14.7573 8.5787 14.4899 8.87691C14.1397 9.31056 13.9442 9.84871 13.9346 10.406V10.6153C13.9644 11.1393 14.1587 11.6406 14.4899 12.0478C14.6374 12.2204 14.8198 12.3599 15.0251 12.457C15.2303 12.5541 15.4538 12.6066 15.6809 12.6112C16.0258 12.622 16.3658 12.5265 16.6546 12.3375L16.9122 12.1363C17.1665 11.9694 17.4707 11.8955 17.7732 11.9271C18.2159 11.9271 18.8275 12.249 18.8275 12.7319V18.6874H24.7263C24.7837 18.6388 24.83 18.5785 24.8619 18.5104C24.8938 18.4424 24.9107 18.3682 24.9114 18.2931C24.9319 18.1464 24.9153 17.997 24.8631 17.8585C24.7752 17.7598 24.6945 17.6549 24.6217 17.5446C24.3506 17.1504 24.215 16.6786 24.2354 16.2006C24.2424 15.8803 24.3178 15.5652 24.4566 15.2765C24.5954 14.9877 24.7944 14.7321 25.0402 14.5266C25.573 14.0867 26.2333 13.8299 26.9233 13.7942H27.1808C27.9071 13.8071 28.6076 14.0652 29.1686 14.5266C29.4037 14.7368 29.5929 14.9932 29.7245 15.2799C29.856 15.5665 29.927 15.8772 29.9331 16.1925C29.9448 16.672 29.8101 17.1437 29.5468 17.5446C29.4503 17.6894 29.3617 17.786 29.3054 17.8585C29.2491 17.9309 29.2491 17.947 29.2491 18.2931C29.2529 18.4413 29.3134 18.5824 29.4181 18.6874H32.7578V17.6653H35.9124C36.136 17.6662 36.3545 17.5991 36.5391 17.4729C36.7236 17.3467 36.8654 17.1675 36.9457 16.9588C37.026 16.7502 37.041 16.5221 36.9887 16.3047C36.9364 16.0874 36.8192 15.8911 36.6528 15.7418L30.7379 10.398L25.3299 5.52091L19.6966 0.402399C19.4681 0.200274 19.1907 0.0615358 18.8919 0V8.1526H18.8275Z" fill="white"/>
<path d="M12.2125 18.7113H18.1597V12.8122C18.1095 12.7567 18.0488 12.7117 17.9811 12.68C17.9134 12.6482 17.84 12.6302 17.7653 12.6271C17.4193 12.6271 17.3388 12.6754 17.3308 12.6834C17.3227 12.6915 17.1617 12.8283 17.0169 12.9248C16.5517 13.233 15.9915 13.3642 15.4379 13.2949C14.8843 13.2255 14.3738 12.96 13.9991 12.5466C13.5576 12.0115 13.3007 11.3482 13.2667 10.6553V10.3978C13.2776 9.67357 13.536 8.9749 13.9991 8.41798C14.208 8.18132 14.4642 7.99103 14.7511 7.85935C15.038 7.72767 15.3493 7.65753 15.6649 7.65343C16.1449 7.63746 16.6178 7.77258 17.0169 8.03973C17.1257 8.11461 17.2305 8.1952 17.3308 8.28117C17.3308 8.28117 17.4193 8.3375 17.7573 8.3375C17.9057 8.32772 18.0457 8.26488 18.1516 8.16044V0.0400391C17.852 0.0993653 17.574 0.238378 17.3468 0.442438L0.366493 15.7819C0.200059 15.9311 0.0829184 16.1274 0.0306093 16.3448C-0.0216997 16.5621 -0.00670524 16.7902 0.0736002 16.9989C0.153906 17.2075 0.295728 17.3868 0.480264 17.513C0.664799 17.6391 0.883327 17.7062 1.10687 17.7053H4.25348V18.7113H7.60929C8.13239 18.7113 8.4543 19.323 8.4543 19.7576C8.49132 20.063 8.41703 20.3716 8.24506 20.6268C8.17426 20.7076 8.1097 20.7937 8.05192 20.8843C7.85579 21.1668 7.75948 21.5066 7.77829 21.85C7.78072 22.0778 7.83149 22.3025 7.92721 22.5092C8.02294 22.716 8.16143 22.9 8.33357 23.0492C8.76929 23.3957 9.30612 23.5906 9.86263 23.6045H10.0718C10.5951 23.5775 11.0964 23.386 11.5043 23.0572C11.6754 22.9089 11.8134 22.7262 11.909 22.5209C12.0047 22.3157 12.056 22.0926 12.0596 21.8661C12.079 21.5202 11.9827 21.1776 11.786 20.8923C11.7282 20.8017 11.6636 20.7156 11.5928 20.6348C11.4209 20.3797 11.3466 20.0711 11.3836 19.7656C11.3756 19.323 11.6975 18.7113 12.2125 18.7113Z" fill="white"/>
<path d="M36.001 42.2919L41.4331 29.882L38.367 28.5379C38.1601 28.4024 38.0093 28.1963 37.9427 27.9581C37.8761 27.7198 37.8982 27.4654 38.0049 27.2422C38.0966 26.9505 38.2873 26.7 38.5441 26.534L38.8257 26.373C39.1227 26.1826 39.3489 25.8998 39.4695 25.5682C39.559 25.3597 39.6051 25.1352 39.6051 24.9083C39.6051 24.6814 39.559 24.4569 39.4695 24.2484C39.2066 23.7574 38.7915 23.3648 38.2865 23.1297L38.1578 23.0734H38.0934C37.6 22.8937 37.063 22.8712 36.5563 23.009C36.3408 23.0768 36.1421 23.1893 35.9729 23.3391C35.8037 23.4888 35.668 23.6725 35.5745 23.8782C35.4206 24.1867 35.3698 24.5365 35.4297 24.8761C35.4297 25.0129 35.486 25.1095 35.5102 25.19C35.5681 25.4913 35.5137 25.8033 35.3572 26.0672C35.1802 26.4696 34.641 26.872 34.1662 26.695L33.9811 26.6145L32.7337 26.0753L28.71 24.3208L27.0119 28.1999L26.344 29.729C26.3673 29.8008 26.405 29.8671 26.4548 29.9239C26.5046 29.9806 26.5655 30.0266 26.6337 30.059C26.9476 30.1958 27.0361 30.1878 27.0522 30.1797C27.1787 30.1413 27.3078 30.1117 27.4385 30.0912C27.9862 29.9928 28.551 30.0948 29.0297 30.3785C29.5085 30.6622 29.8691 31.1087 30.0459 31.6364C30.2426 32.3029 30.2143 33.0157 29.9654 33.6645C29.9498 33.6985 29.9364 33.7334 29.9251 33.7691L29.8688 33.8979C29.567 34.5582 29.0508 35.0971 28.4041 35.427C27.8943 35.6537 27.3204 35.6915 26.7852 35.5338C26.2499 35.376 25.7883 35.0329 25.4829 34.5659C25.414 34.4545 25.3522 34.3389 25.2978 34.2198C25.2978 34.2198 25.2334 34.1313 24.9196 33.9945C24.7797 33.9405 24.6248 33.9405 24.485 33.9945L22.6582 38.1955L33.965 43.1209C34.3462 43.2666 34.7686 43.2621 35.1466 43.1082C35.5246 42.9543 35.83 42.6625 36.001 42.2919Z" fill="white"/>
<path d="M18.1435 29.9705C18.1435 29.4474 18.7551 29.1657 19.1977 29.1175C19.5 29.0897 19.8029 29.1633 20.0588 29.3267L20.3163 29.5279C20.6512 29.7477 21.0538 29.8402 21.451 29.7885C21.8482 29.7369 22.2137 29.5444 22.4811 29.2462C22.8286 28.8111 23.0237 28.2739 23.0364 27.7171V27.4676C23.0084 26.9422 22.8171 26.4385 22.4892 26.027C22.3374 25.858 22.1529 25.7215 21.9467 25.626C21.7406 25.5306 21.5172 25.4781 21.2901 25.4717C20.9445 25.4559 20.6031 25.5519 20.3163 25.7454L20.0588 25.9466C19.8029 26.1099 19.5 26.1835 19.1977 26.1558C18.7551 26.1558 18.1435 25.8258 18.1435 25.351V19.4036H12.2446C12.1873 19.4521 12.141 19.5125 12.1091 19.5805C12.0772 19.6486 12.0602 19.7227 12.0595 19.7979C12.0595 20.1359 12.0998 20.2164 12.1159 20.2325C12.132 20.2486 12.2527 20.4015 12.3493 20.5383C12.6551 21.0037 12.7858 21.5625 12.718 22.1153C12.6502 22.668 12.3883 23.1787 11.9791 23.5563C11.444 23.9978 10.7807 24.2547 10.0879 24.2887H9.83037C9.10231 24.2781 8.40022 24.0165 7.84262 23.5483C7.60626 23.3396 7.41667 23.0833 7.28631 22.7962C7.15594 22.5091 7.08773 22.1976 7.08615 21.8823C7.06569 21.4043 7.20128 20.9325 7.47244 20.5383C7.56901 20.3935 7.64947 20.2969 7.7058 20.2244C7.76213 20.152 7.77019 20.1279 7.76214 19.7899C7.75834 19.6416 7.69786 19.5005 7.59315 19.3955H4.24536V32.9966C4.24536 33.4235 4.41493 33.8329 4.71678 34.1347C5.01862 34.4366 5.428 34.6062 5.85487 34.6062H18.1757V30.0269L18.1435 29.9705Z" fill="white"/>
</svg>
