<svg width="169" height="43" viewBox="0 0 169 43" fill="none" xmlns="http://www.w3.org/2000/svg">
<g clip-path="url(#clip0_764_14203)">
<path d="M149.808 6.8386C149.808 7.27966 149.288 7.55108 148.912 7.55787C148.656 7.58124 148.398 7.51918 148.181 7.38145C148.113 7.31885 148.04 7.2621 147.962 7.21181C147.678 7.02645 147.336 6.94848 146.999 6.99206C146.661 7.03564 146.351 7.19787 146.124 7.4493C145.827 7.81493 145.661 8.26866 145.652 8.73856V8.91498C145.678 9.35682 145.843 9.77947 146.124 10.1228C146.249 10.2683 146.404 10.3859 146.578 10.4678C146.753 10.5496 146.943 10.5939 147.135 10.5978C147.428 10.607 147.717 10.5264 147.962 10.3671L148.181 10.1974C148.397 10.0567 148.655 9.9944 148.912 10.021C149.288 10.021 149.808 10.2924 149.808 10.6996V15.7209H154.817C154.866 15.6799 154.905 15.629 154.932 15.5717C154.959 15.5143 154.974 15.4518 154.974 15.3884C154.992 15.2648 154.978 15.1388 154.933 15.022C154.859 14.9388 154.79 14.8503 154.728 14.7573C154.498 14.4249 154.383 14.0272 154.4 13.6242C154.406 13.3541 154.47 13.0884 154.588 12.845C154.706 12.6016 154.875 12.386 155.084 12.2128C155.536 11.8418 156.097 11.6253 156.683 11.5953H156.902C157.518 11.6061 158.113 11.8237 158.59 12.2128C158.789 12.39 158.95 12.6062 159.062 12.8479C159.174 13.0895 159.234 13.3515 159.239 13.6174C159.249 14.0216 159.135 14.4193 158.911 14.7573C158.829 14.8795 158.754 14.9609 158.706 15.022C158.658 15.083 158.658 15.0966 158.658 15.3884C158.661 15.5134 158.713 15.6324 158.802 15.7209H161.638V14.8591H164.317C164.507 14.8599 164.692 14.8033 164.849 14.6969C165.006 14.5905 165.126 14.4394 165.194 14.2635C165.263 14.0876 165.275 13.8952 165.231 13.712C165.187 13.5287 165.087 13.3632 164.946 13.2374L159.922 8.73177L155.33 4.61973L150.546 0.304121C150.352 0.133702 150.116 0.0167269 149.862 -0.0351562V6.8386H149.808Z" fill="white"/>
<path d="M144.192 15.7425H149.242V10.7687C149.2 10.7219 149.148 10.684 149.091 10.6572C149.033 10.6304 148.971 10.6152 148.907 10.6126C148.614 10.6126 148.545 10.6533 148.538 10.6601C148.532 10.6669 148.395 10.7822 148.272 10.8637C147.877 11.1235 147.401 11.2341 146.931 11.1756C146.461 11.1171 146.027 10.8933 145.709 10.5447C145.334 10.0936 145.116 9.53432 145.087 8.95014V8.73299C145.096 8.12239 145.316 7.53332 145.709 7.06376C145.886 6.86422 146.104 6.70378 146.348 6.59276C146.591 6.48173 146.856 6.42259 147.124 6.41913C147.531 6.40567 147.933 6.51959 148.272 6.74483C148.364 6.80797 148.453 6.87592 148.538 6.9484C148.538 6.9484 148.614 6.9959 148.901 6.9959C149.027 6.98766 149.146 6.93467 149.235 6.84661V0C148.981 0.0500201 148.745 0.167227 148.552 0.339277L134.132 13.2725C133.99 13.3984 133.891 13.5639 133.846 13.7471C133.802 13.9304 133.815 14.1227 133.883 14.2986C133.951 14.4745 134.071 14.6257 134.228 14.7321C134.385 14.8384 134.57 14.895 134.76 14.8943H137.433V15.7425H140.282C140.727 15.7425 141 16.2582 141 16.6246C141.032 16.8821 140.968 17.1423 140.822 17.3574C140.762 17.4256 140.707 17.4982 140.658 17.5746C140.492 17.8128 140.41 18.0993 140.426 18.3888C140.428 18.5809 140.471 18.7703 140.552 18.9446C140.634 19.1189 140.751 19.2741 140.898 19.3999C141.268 19.692 141.723 19.8564 142.196 19.8681H142.374C142.818 19.8453 143.244 19.6839 143.59 19.4067C143.736 19.2816 143.853 19.1275 143.934 18.9545C144.015 18.7814 144.059 18.5933 144.062 18.4024C144.078 18.1107 143.997 17.8218 143.83 17.5814C143.78 17.505 143.726 17.4324 143.665 17.3642C143.519 17.1491 143.456 16.8889 143.488 16.6314C143.481 16.2582 143.754 15.7425 144.192 15.7425Z" fill="white"/>
<path d="M164.394 35.6243L169.007 25.161L166.403 24.0278C166.227 23.9135 166.099 23.7398 166.043 23.5389C165.986 23.338 166.005 23.1235 166.096 22.9353C166.174 22.6894 166.335 22.4781 166.554 22.3382L166.793 22.2025C167.045 22.0419 167.237 21.8035 167.339 21.5239C167.415 21.3481 167.455 21.1588 167.455 20.9675C167.455 20.7762 167.415 20.5869 167.339 20.4111C167.116 19.9971 166.764 19.6661 166.335 19.4679L166.225 19.4204H166.171C165.752 19.2689 165.296 19.25 164.865 19.3661C164.682 19.4233 164.514 19.5181 164.37 19.6444C164.226 19.7707 164.111 19.9255 164.032 20.0989C163.901 20.3591 163.858 20.654 163.909 20.9404C163.909 21.0557 163.956 21.1371 163.977 21.205C164.026 21.459 163.98 21.7221 163.847 21.9446C163.697 22.2839 163.239 22.6232 162.836 22.4739L162.678 22.406L161.619 21.9514L158.202 20.4721L156.76 23.7428L156.193 25.032C156.212 25.0926 156.244 25.1485 156.287 25.1963C156.329 25.2441 156.381 25.2829 156.439 25.3102C156.705 25.4256 156.78 25.4188 156.794 25.412C156.902 25.3796 157.011 25.3547 157.122 25.3374C157.587 25.2544 158.067 25.3404 158.473 25.5796C158.88 25.8188 159.186 26.1953 159.336 26.6402C159.503 27.2022 159.479 27.8031 159.268 28.3502C159.255 28.3788 159.243 28.4083 159.234 28.4384L159.186 28.547C158.93 29.1037 158.491 29.558 157.942 29.8362C157.509 30.0273 157.022 30.0592 156.567 29.9262C156.113 29.7932 155.721 29.5039 155.461 29.1102C155.403 29.0162 155.35 28.9188 155.304 28.8184C155.304 28.8184 155.249 28.7437 154.983 28.6284C154.864 28.5829 154.733 28.5829 154.614 28.6284L153.062 32.1704L162.665 36.3232C162.989 36.4461 163.347 36.4422 163.668 36.3125C163.989 36.1827 164.249 35.9367 164.394 35.6243Z" fill="white"/>
<path d="M149.229 25.2346C149.229 24.7935 149.748 24.556 150.124 24.5153C150.381 24.4919 150.638 24.554 150.855 24.6917L151.074 24.8614C151.358 25.0467 151.7 25.1247 152.038 25.0811C152.375 25.0375 152.685 24.8753 152.912 24.6239C153.208 24.257 153.373 23.804 153.384 23.3346V23.1243C153.36 22.6812 153.198 22.2566 152.919 21.9097C152.79 21.7671 152.634 21.652 152.459 21.5716C152.284 21.4911 152.094 21.4468 151.901 21.4414C151.607 21.4281 151.318 21.509 151.074 21.6722L150.855 21.8418C150.638 21.9795 150.381 22.0416 150.124 22.0182C149.748 22.0182 149.229 21.74 149.229 21.3397V16.3251H144.219C144.17 16.3661 144.131 16.417 144.104 16.4744C144.077 16.5317 144.063 16.5943 144.062 16.6576C144.062 16.9426 144.096 17.0105 144.11 17.0241C144.123 17.0376 144.226 17.1666 144.308 17.2819C144.568 17.6743 144.679 18.1455 144.621 18.6115C144.564 19.0775 144.341 19.5081 143.994 19.8265C143.539 20.1987 142.976 20.4153 142.388 20.444H142.169C141.551 20.435 140.954 20.2145 140.481 19.8197C140.28 19.6437 140.119 19.4276 140.008 19.1856C139.898 18.9435 139.84 18.6809 139.838 18.4151C139.821 18.012 139.936 17.6143 140.166 17.2819C140.248 17.1598 140.317 17.0783 140.365 17.0173C140.412 16.9562 140.419 16.9358 140.412 16.6509C140.409 16.5259 140.358 16.4069 140.269 16.3184H137.426V27.7859C137.426 28.1459 137.57 28.491 137.826 28.7455C138.082 29.0001 138.43 29.143 138.793 29.143H149.256V25.2821L149.229 25.2346Z" fill="white"/>
<path d="M43.0029 15.5713C42.873 15.3813 42.4698 14.9606 43.0029 14.6009C43.536 14.2413 44.028 14.1327 44.1579 14.3227L46.837 18.2109C46.9805 18.4144 46.6729 18.8487 46.1535 19.1948C45.6341 19.5408 45.1215 19.663 44.9848 19.4594L42.996 15.5713H43.0029Z" fill="white"/>
<path d="M42.668 23.1258C42.668 19.292 45.8391 16.2656 50.0012 16.2656C54.1634 16.2656 57.314 19.2988 57.314 23.1258C57.314 26.9529 54.177 29.9792 50.0012 29.9792C45.8254 29.9792 42.668 26.98 42.668 23.1258ZM55.0655 23.1258C55.0845 22.1256 54.803 21.1424 54.2568 20.3018C53.7107 19.4611 52.9247 18.801 51.9991 18.4057C51.0735 18.0104 50.0503 17.8978 49.06 18.0823C48.0697 18.2668 47.1572 18.7401 46.4389 19.4416C45.7207 20.1432 45.2292 21.0413 45.0272 22.0214C44.8252 23.0015 44.9218 24.0191 45.3048 24.9444C45.6877 25.8697 46.3396 26.6608 47.1773 27.2167C48.015 27.7727 49.0005 28.0682 50.0081 28.0657C50.6686 28.0774 51.3248 27.9583 51.9383 27.7152C52.5519 27.4721 53.1105 27.11 53.5814 26.65C54.0523 26.19 54.4261 25.6414 54.681 25.0363C54.9358 24.4312 55.0665 23.7817 55.0655 23.1258Z" fill="white"/>
<path d="M2.22117 27.6722V28.6357C2.19922 28.9132 2.0727 29.1723 1.86685 29.3613C1.66099 29.5502 1.39094 29.6552 1.11058 29.6552C0.830225 29.6552 0.560173 29.5502 0.354318 29.3613C0.148463 29.1723 0.0219425 28.9132 0 28.6357V12.2011C0.0219425 11.9236 0.148463 11.6645 0.354318 11.4756C0.560173 11.2866 0.830225 11.1816 1.11058 11.1816C1.39094 11.1816 1.66099 11.2866 1.86685 11.4756C2.0727 11.6645 2.19922 11.9236 2.22117 12.2011V18.1046C3.61275 16.7699 5.48072 16.0378 7.41528 16.0689C8.34759 16.0277 9.27865 16.1744 10.1523 16.5003C11.0259 16.8261 11.824 17.3243 12.4984 17.9647C13.1729 18.6052 13.7096 19.3746 14.0763 20.2267C14.443 21.0787 14.6321 21.9957 14.6321 22.9223C14.6321 23.8489 14.443 24.7658 14.0763 25.6179C13.7096 26.4699 13.1729 27.2394 12.4984 27.8798C11.824 28.5203 11.0259 29.0185 10.1523 29.3443C9.27865 29.6701 8.34759 29.8169 7.41528 29.7757C6.45165 29.7889 5.49519 29.6095 4.60285 29.2482C3.71051 28.8868 2.90054 28.3508 2.22117 27.6722ZM12.3633 22.9223C12.3635 22.2643 12.2313 21.613 11.9744 21.0065C11.7176 20.3999 11.3413 19.8505 10.8676 19.3903C10.394 18.9302 9.83252 18.5686 9.21619 18.3268C8.59987 18.085 7.94112 17.9679 7.27859 17.9824C6.6321 17.9634 5.9882 18.0714 5.38381 18.3C4.77942 18.5286 4.22644 18.8735 3.75658 19.3148C3.28672 19.7561 2.90922 20.2851 2.64574 20.8716C2.38226 21.458 2.23797 22.0904 2.22117 22.7323V23.1259C2.26227 24.42 2.81697 25.6455 3.76433 26.5352C4.71169 27.425 5.9749 27.9068 7.27859 27.8757C7.94676 27.8902 8.61108 27.7718 9.23246 27.5275C9.85383 27.2832 10.4197 26.9179 10.8967 26.4531C11.3737 25.9884 11.7522 25.4336 12.01 24.8214C12.2677 24.2091 12.3995 23.5519 12.3975 22.8884L12.3633 22.9223Z" fill="white"/>
<path d="M15.8164 23.1258C15.8164 19.292 18.9876 16.2656 23.1497 16.2656C27.3118 16.2656 30.4624 19.2988 30.4624 23.1258C30.4624 26.9529 27.3186 29.9792 23.1497 29.9792C18.9807 29.9792 15.8164 26.98 15.8164 23.1258ZM28.2071 23.1258C28.2261 22.1256 27.9446 21.1424 27.3984 20.3018C26.8523 19.4611 26.0663 18.801 25.1407 18.4057C24.2151 18.0104 23.1919 17.8978 22.2016 18.0823C21.2113 18.2668 20.2988 18.7401 19.5805 19.4416C18.8623 20.1432 18.3708 21.0413 18.1688 22.0214C17.9668 23.0015 18.0634 24.0191 18.4464 24.9444C18.8293 25.8697 19.4812 26.6608 20.3189 27.2167C21.1566 27.7727 22.1421 28.0682 23.1497 28.0657C23.8085 28.0747 24.4625 27.9535 25.0736 27.7092C25.6848 27.4649 26.241 27.1023 26.7097 26.6426C27.1784 26.1829 27.5504 25.6353 27.8039 25.0315C28.0575 24.4278 28.1876 23.78 28.1866 23.1258H28.2071Z" fill="white"/>
<path d="M38.2305 17.3766C38.2305 17.0851 38.3471 16.8055 38.5548 16.5993C38.7624 16.3932 39.044 16.2773 39.3376 16.2773C39.6313 16.2773 39.9129 16.3932 40.1205 16.5993C40.3282 16.8055 40.4448 17.0851 40.4448 17.3766V28.912C40.4448 29.2036 40.3282 29.4832 40.1205 29.6893C39.9129 29.8955 39.6313 30.0113 39.3376 30.0113C39.044 30.0113 38.7624 29.8955 38.5548 29.6893C38.3471 29.4832 38.2305 29.2036 38.2305 28.912V17.3766Z" fill="white"/>
<path d="M59.5547 20.4515C59.5547 17.2148 61.8374 15.4302 64.6736 15.4302C66.4779 15.4302 67.8994 16.0476 68.7059 17.3165C69.1537 16.6884 69.7566 16.1851 70.4567 15.8547C71.1568 15.5244 71.9306 15.3782 72.704 15.4302C75.5676 15.4302 77.8503 17.2148 77.8503 20.4515V28.0309C77.8283 28.3084 77.7018 28.5675 77.4959 28.7565C77.2901 28.9454 77.02 29.0504 76.7397 29.0504C76.4593 29.0504 76.1893 28.9454 75.9834 28.7565C75.7776 28.5675 75.651 28.3084 75.6291 28.0309V20.4108C75.6291 18.3751 74.3511 17.3301 72.7108 17.3301C71.0706 17.3301 69.8062 18.3751 69.8062 20.4108V28.0174C69.7843 28.2949 69.6578 28.5539 69.4519 28.7429C69.2461 28.9319 68.976 29.0368 68.6956 29.0368C68.4153 29.0368 68.1452 28.9319 67.9394 28.7429C67.7335 28.5539 67.607 28.2949 67.5851 28.0174V20.4108C67.5851 18.3751 66.307 17.3301 64.6668 17.3301C63.0265 17.3301 61.7759 18.3683 61.7759 20.4108V28.0174C61.7539 28.2949 61.6274 28.5539 61.4215 28.7429C61.2157 28.9319 60.9456 29.0368 60.6653 29.0368C60.3849 29.0368 60.1149 28.9319 59.909 28.7429C59.7031 28.5539 59.5766 28.2949 59.5547 28.0174V20.4515Z" fill="white"/>
<path d="M92.2623 27.0751C91.5774 27.7439 90.7656 28.2712 89.8741 28.6265C88.9825 28.9817 88.0288 29.1578 87.0682 29.1447C86.143 29.1736 85.2214 29.0176 84.3581 28.6861C83.4948 28.3545 82.7073 27.854 82.0426 27.2145C81.3778 26.5749 80.8493 25.8092 80.4884 24.9629C80.1274 24.1166 79.9414 23.207 79.9414 22.2879C79.9414 21.3689 80.1274 20.4592 80.4884 19.6129C80.8493 18.7666 81.3778 18.0009 82.0426 17.3614C82.7073 16.7218 83.4948 16.2214 84.3581 15.8898C85.2214 15.5582 86.143 15.4022 87.0682 15.4311C89.0078 15.4154 90.8749 16.1618 92.2623 17.5075V16.5236C92.2843 16.2461 92.4108 15.987 92.6166 15.798C92.8225 15.6091 93.0926 15.5041 93.3729 15.5041C93.6533 15.5041 93.9233 15.6091 94.1292 15.798C94.335 15.987 94.4616 16.2461 94.4835 16.5236V28.059C94.4616 28.3365 94.335 28.5956 94.1292 28.7846C93.9233 28.9735 93.6533 29.0785 93.3729 29.0785C93.0926 29.0785 92.8225 28.9735 92.6166 28.7846C92.4108 28.5956 92.2843 28.3365 92.2623 28.059V27.0751ZM92.2623 22.4949V22.081C92.2125 20.7898 91.6551 19.5695 90.7097 18.6816C89.7643 17.7936 88.5061 17.3088 87.2049 17.3311C86.5438 17.3239 85.8877 17.4462 85.2742 17.691C84.6607 17.9358 84.1019 18.2983 83.6296 18.7578C83.1573 19.2172 82.7809 19.7646 82.5219 20.3686C82.2629 20.9726 82.1264 21.6213 82.1201 22.2777C82.1561 23.5727 82.6928 24.8042 83.6188 25.7168C84.5447 26.6294 85.789 27.1532 87.0935 27.1793C88.398 27.2055 89.6626 26.7322 90.625 25.8574C91.5873 24.9827 92.1737 23.7737 92.2623 22.4813V22.4949Z" fill="white"/>
<path d="M96.3701 16.6452C96.379 16.3836 96.4919 16.1361 96.6839 15.9569C96.876 15.7776 97.1317 15.6811 97.3953 15.6884H98.8715V13.361C98.8715 13.0694 98.9881 12.7898 99.1958 12.5837C99.4034 12.3775 99.685 12.2617 99.9787 12.2617C100.272 12.2617 100.554 12.3775 100.762 12.5837C100.969 12.7898 101.086 13.0694 101.086 13.361V15.6613H104.756C104.89 15.6501 105.024 15.6666 105.151 15.7098C105.279 15.753 105.395 15.8219 105.494 15.9121C105.593 16.0024 105.672 16.112 105.726 16.2341C105.78 16.3562 105.808 16.4881 105.808 16.6214C105.808 16.7548 105.78 16.8867 105.726 17.0088C105.672 17.1309 105.593 17.2405 105.494 17.3307C105.395 17.421 105.279 17.4899 105.151 17.5331C105.024 17.5762 104.89 17.5928 104.756 17.5816H101.086V23.4239C101.086 25.8328 102.562 27.1221 104.756 27.1221C104.892 27.1108 105.028 27.1276 105.157 27.1714C105.286 27.2153 105.404 27.2852 105.504 27.3767C105.604 27.4682 105.684 27.5794 105.739 27.7031C105.794 27.8269 105.822 27.9606 105.822 28.0958C105.822 28.231 105.794 28.3647 105.739 28.4884C105.684 28.6122 105.604 28.7234 105.504 28.8149C105.404 28.9064 105.286 28.9763 105.157 29.0201C105.028 29.0639 104.892 29.0808 104.756 29.0695C101.339 29.0695 98.8647 26.8914 98.8647 23.4239V17.5816H97.3953C97.1309 17.5854 96.8755 17.487 96.6829 17.3072C96.4903 17.1274 96.3757 16.8802 96.3633 16.618L96.3701 16.6452Z" fill="white"/>
<path d="M105.973 22.2899C105.973 18.4561 109.144 15.4298 113.306 15.4298C114.316 15.406 115.319 15.5916 116.252 15.9749C117.185 16.3581 118.028 16.9305 118.726 17.6554C118.918 17.8518 119.037 18.1083 119.06 18.3815C119.056 18.5187 119.022 18.6534 118.963 18.7772C118.903 18.9011 118.818 19.0113 118.714 19.1011C118.609 19.1909 118.487 19.2584 118.355 19.2992C118.223 19.34 118.084 19.3533 117.946 19.3382C117.588 19.3119 117.252 19.1548 117.003 18.8972C116.319 18.1761 115.432 17.6758 114.458 17.461C113.484 17.2461 112.467 17.3267 111.539 17.6923C110.612 18.0579 109.816 18.6916 109.256 19.5114C108.695 20.3311 108.395 21.2991 108.395 22.2899C108.395 23.2808 108.695 24.2488 109.256 25.0685C109.816 25.8883 110.612 26.522 111.539 26.8876C112.467 27.2532 113.484 27.3338 114.458 27.1189C115.432 26.9041 116.319 26.4038 117.003 25.6827C117.246 25.4129 117.583 25.2454 117.946 25.2145C118.086 25.2024 118.226 25.2187 118.358 25.2623C118.491 25.3059 118.613 25.3759 118.717 25.468C118.821 25.5601 118.906 25.6724 118.965 25.798C119.024 25.9236 119.056 26.0599 119.06 26.1984C119.027 26.4551 118.909 26.6936 118.726 26.877C118.031 27.6082 117.19 28.1865 116.257 28.5746C115.323 28.9626 114.318 29.1518 113.306 29.1298C109.137 29.1434 105.973 26.117 105.973 22.2899Z" fill="white"/>
<path d="M120.379 11.5898C120.401 11.3123 120.527 11.0532 120.733 10.8642C120.939 10.6753 121.209 10.5703 121.489 10.5703C121.77 10.5703 122.04 10.6753 122.246 10.8642C122.452 11.0532 122.578 11.3123 122.6 11.5898V17.0182C123.15 16.4929 123.799 16.0805 124.51 15.8046C125.22 15.5286 125.979 15.3945 126.742 15.4101C129.995 15.4101 132.578 17.6357 132.578 21.3881V28.0108C132.556 28.2883 132.43 28.5474 132.224 28.7364C132.018 28.9253 131.748 29.0303 131.468 29.0303C131.187 29.0303 130.917 28.9253 130.711 28.7364C130.506 28.5474 130.379 28.2883 130.357 28.0108V21.361C130.357 18.6943 128.635 17.3507 126.461 17.3507C124.288 17.3507 122.6 18.6671 122.6 21.361V28.0312C122.578 28.3087 122.452 28.5678 122.246 28.7567C122.04 28.9457 121.77 29.0506 121.489 29.0506C121.209 29.0506 120.939 28.9457 120.733 28.7567C120.527 28.5678 120.401 28.3087 120.379 28.0312V11.5898Z" fill="white"/>
<path d="M42.668 36.1386C42.668 32.3115 45.8391 29.2852 50.0012 29.2852C54.1634 29.2852 57.314 32.3115 57.314 36.1386C57.314 39.9656 54.177 42.9987 50.0012 42.9987C45.8254 42.9987 42.668 39.9656 42.668 36.1386ZM55.0655 36.1386C55.0831 35.1386 54.8004 34.1561 54.2534 33.3163C53.7065 32.4765 52.92 31.8174 51.9942 31.4232C51.0685 31.029 50.0455 30.9174 49.0556 31.1027C48.0658 31.288 47.1539 31.7617 46.4363 32.4636C45.7187 33.1655 45.2279 34.0636 45.0265 35.0435C44.8251 36.0234 44.9221 37.0407 45.3053 37.9656C45.6885 38.8905 46.3404 39.6812 47.178 40.2368C48.0155 40.7924 49.0008 41.0878 50.0081 41.0852C50.6694 41.0979 51.3266 40.9792 51.941 40.736C52.5554 40.4928 53.1147 40.1301 53.5859 39.6692C54.0571 39.2084 54.4307 38.6586 54.6848 38.0523C54.9389 37.4459 55.0683 36.7953 55.0655 36.1386Z" fill="white"/>
<path d="M32.457 12.4648C32.479 12.1873 32.6055 11.9282 32.8114 11.7392C33.0172 11.5503 33.2873 11.4453 33.5676 11.4453C33.848 11.4453 34.118 11.5503 34.3239 11.7392C34.5297 11.9282 34.6563 12.1873 34.6782 12.4648V28.8926C34.6563 29.1701 34.5297 29.4292 34.3239 29.6182C34.118 29.8071 33.848 29.9121 33.5676 29.9121C33.2873 29.9121 33.0172 29.8071 32.8114 29.6182C32.6055 29.4292 32.479 29.1701 32.457 28.8926V12.4648Z" fill="white"/>
</g>
<defs>
<clipPath id="clip0_764_14203">
<rect width="169" height="43" fill="white"/>
</clipPath>
</defs>
</svg>
