<svg width="254" height="63" viewBox="0 0 254 63" fill="none" xmlns="http://www.w3.org/2000/svg">
<g clip-path="url(#clip0_290_1752)">
<path d="M77.6371 12.8954C77.4027 12.5482 76.6747 11.7794 77.6371 11.1223C78.5996 10.4651 79.488 10.2667 79.7224 10.6139L84.5593 17.7186C84.8185 18.0906 84.2632 18.8841 83.3254 19.5165C82.3877 20.1489 81.4622 20.372 81.2154 20.0001L77.6248 12.8954H77.6371Z" fill="white"/>
<path d="M77.0332 26.6957C77.0332 19.6902 82.7586 14.1602 90.2731 14.1602C97.7876 14.1602 103.476 19.7026 103.476 26.6957C103.476 33.6888 97.8122 39.2188 90.2731 39.2188C82.7339 39.2188 77.0332 33.7384 77.0332 26.6957ZM99.4163 26.6957C99.4506 24.868 98.9423 23.0715 97.9563 21.5353C96.9703 19.9992 95.5512 18.793 93.8801 18.0707C92.209 17.3483 90.3616 17.1426 88.5737 17.4798C86.7857 17.817 85.1383 18.6817 83.8415 19.9637C82.5447 21.2456 81.6573 22.8868 81.2926 24.6776C80.9279 26.4685 81.1024 28.328 81.7938 30.0188C82.4852 31.7096 83.6622 33.1552 85.1746 34.171C86.687 35.1868 88.4662 35.7269 90.2854 35.7222C91.4779 35.7437 92.6626 35.5259 93.7704 35.0818C94.8781 34.6376 95.8866 33.9759 96.7369 33.1354C97.5871 32.2949 98.262 31.2925 98.722 30.1867C99.1821 29.081 99.4181 27.8942 99.4163 26.6957Z" fill="white"/>
<path d="M4.0102 35.002V36.7627C3.97059 37.2698 3.74215 37.7432 3.37049 38.0885C2.99883 38.4338 2.51127 38.6256 2.0051 38.6256C1.49893 38.6256 1.01137 38.4338 0.639708 38.0885C0.268047 37.7432 0.0396161 37.2698 0 36.7627V6.73202C0.0396161 6.22494 0.268047 5.75153 0.639708 5.40623C1.01137 5.06093 1.49893 4.86914 2.0051 4.86914C2.51127 4.86914 2.99883 5.06093 3.37049 5.40623C3.74215 5.75153 3.97059 6.22494 4.0102 6.73202V17.5193C6.52263 15.0805 9.89516 13.7428 13.3879 13.7995C15.0712 13.7243 16.7521 13.9924 18.3294 14.5878C19.9067 15.1832 21.3477 16.0935 22.5653 17.2638C23.7829 18.4341 24.752 19.8401 25.414 21.397C26.0761 22.954 26.4174 24.6295 26.4174 26.3227C26.4174 28.0158 26.0761 29.6914 25.414 31.2483C24.752 32.8052 23.7829 34.2112 22.5653 35.3815C21.3477 36.5518 19.9067 37.4621 18.3294 38.0575C16.7521 38.6529 15.0712 38.9211 13.3879 38.8458C11.6481 38.87 9.92129 38.5422 8.31021 37.8819C6.69914 37.2215 5.23677 36.2421 4.0102 35.002ZM22.3214 26.3227C22.3217 25.1204 22.083 23.9302 21.6192 22.8219C21.1555 21.7136 20.4761 20.7096 19.621 19.8687C18.7658 19.0279 17.7521 18.3672 16.6394 17.9254C15.5266 17.4836 14.3373 17.2697 13.1411 17.2961C11.9739 17.2614 10.8114 17.4586 9.72019 17.8764C8.629 18.2942 7.63062 18.9244 6.78231 19.7307C5.934 20.5371 5.25245 21.5038 4.77674 22.5754C4.30104 23.647 4.04055 24.8025 4.0102 25.9755V26.6946C4.08442 29.0593 5.08589 31.2987 6.7963 32.9245C8.50672 34.5503 10.7874 35.4308 13.1411 35.374C14.3475 35.4005 15.5469 35.1842 16.6687 34.7377C17.7906 34.2913 18.8122 33.6238 19.6734 32.7746C20.5347 31.9253 21.2181 30.9115 21.6834 29.7928C22.1488 28.6741 22.3867 27.4731 22.3831 26.2607L22.3214 26.3227Z" fill="white"/>
<path d="M28.5527 26.6957C28.5527 19.6902 34.2781 14.1602 41.7926 14.1602C49.3071 14.1602 54.9954 19.7026 54.9954 26.6957C54.9954 33.6888 49.3194 39.2188 41.7926 39.2188C34.2657 39.2188 28.5527 33.7384 28.5527 26.6957ZM50.9235 26.6957C50.9578 24.868 50.4495 23.0715 49.4635 21.5353C48.4775 19.9992 47.0584 18.793 45.3873 18.0707C43.7161 17.3483 41.8688 17.1426 40.0809 17.4798C38.2929 17.817 36.6455 18.6817 35.3487 19.9637C34.0519 21.2456 33.1645 22.8868 32.7998 24.6776C32.4351 26.4685 32.6096 28.328 33.301 30.0188C33.9924 31.7096 35.1694 33.1552 36.6818 34.171C38.1942 35.1868 39.9734 35.7269 41.7926 35.7222C42.982 35.7387 44.1628 35.5173 45.2662 35.0708C46.3697 34.6244 47.3737 33.9619 48.22 33.1219C49.0663 32.2819 49.7378 31.2812 50.1956 30.178C50.6534 29.0747 50.8882 27.891 50.8865 26.6957H50.9235Z" fill="white"/>
<path d="M69.0244 16.1942C69.0244 15.6615 69.235 15.1506 69.6099 14.7739C69.9848 14.3972 70.4932 14.1855 71.0233 14.1855C71.5535 14.1855 72.0619 14.3972 72.4368 14.7739C72.8117 15.1506 73.0223 15.6615 73.0223 16.1942V37.2727C73.0223 37.8055 72.8117 38.3164 72.4368 38.6931C72.0619 39.0698 71.5535 39.2814 71.0233 39.2814C70.4932 39.2814 69.9848 39.0698 69.6099 38.6931C69.235 38.3164 69.0244 37.8055 69.0244 37.2727V16.1942Z" fill="white"/>
<path d="M107.522 21.8093C107.522 15.8949 111.644 12.634 116.764 12.634C120.022 12.634 122.588 13.7623 124.044 16.0809C124.853 14.9331 125.942 14.0134 127.206 13.4098C128.469 12.8062 129.867 12.539 131.263 12.634C136.433 12.634 140.554 15.8949 140.554 21.8093V35.6591C140.515 36.1662 140.286 36.6396 139.914 36.9849C139.543 37.3302 139.055 37.522 138.549 37.522C138.043 37.522 137.555 37.3302 137.184 36.9849C136.812 36.6396 136.584 36.1662 136.544 35.6591V21.7349C136.544 18.0152 134.237 16.1057 131.275 16.1057C128.314 16.1057 126.031 18.0152 126.031 21.7349V35.6343C125.991 36.1414 125.763 36.6148 125.391 36.9601C125.02 37.3054 124.532 37.4972 124.026 37.4972C123.52 37.4972 123.032 37.3054 122.661 36.9601C122.289 36.6148 122.06 36.1414 122.021 35.6343V21.7349C122.021 18.0152 119.713 16.1057 116.752 16.1057C113.791 16.1057 111.533 18.0028 111.533 21.7349V35.6343C111.493 36.1414 111.265 36.6148 110.893 36.9601C110.521 37.3054 110.034 37.4972 109.528 37.4972C109.021 37.4972 108.534 37.3054 108.162 36.9601C107.79 36.6148 107.562 36.1414 107.522 35.6343V21.8093Z" fill="white"/>
<path d="M166.578 33.912C165.341 35.1341 163.876 36.0976 162.266 36.7467C160.656 37.3959 158.934 37.7178 157.2 37.6937C155.53 37.7466 153.866 37.4616 152.307 36.8557C150.748 36.2498 149.327 35.3353 148.127 34.1667C146.926 32.998 145.972 31.5989 145.32 30.0525C144.669 28.506 144.333 26.8438 144.333 25.1644C144.333 23.4851 144.669 21.8228 145.32 20.2764C145.972 18.7299 146.926 17.3309 148.127 16.1622C149.327 14.9935 150.748 14.0791 152.307 13.4732C153.866 12.8673 155.53 12.5823 157.2 12.6351C160.702 12.6063 164.073 13.9702 166.578 16.4292V14.6314C166.617 14.1243 166.846 13.6509 167.218 13.3056C167.589 12.9603 168.077 12.7685 168.583 12.7685C169.089 12.7685 169.577 12.9603 169.948 13.3056C170.32 13.6509 170.548 14.1243 170.588 14.6314V35.7099C170.548 36.217 170.32 36.6904 169.948 37.0357C169.577 37.381 169.089 37.5728 168.583 37.5728C168.077 37.5728 167.589 37.381 167.218 37.0357C166.846 36.6904 166.617 36.217 166.578 35.7099V33.912ZM166.578 25.5426V24.7863C166.488 22.427 165.481 20.1971 163.775 18.5746C162.068 16.9521 159.796 16.0662 157.447 16.1069C156.253 16.0938 155.069 16.3173 153.961 16.7646C152.853 17.2119 151.844 17.8743 150.992 18.7138C150.139 19.5533 149.46 20.5535 148.992 21.6572C148.524 22.7609 148.278 23.9463 148.267 25.1458C148.332 27.5121 149.3 29.7624 150.972 31.43C152.644 33.0976 154.891 34.0546 157.246 34.1024C159.601 34.1503 161.884 33.2853 163.622 31.6869C165.359 30.0886 166.418 27.8795 166.578 25.5178V25.5426Z" fill="white"/>
<path d="M173.994 14.8536C174.01 14.3756 174.214 13.9234 174.56 13.5959C174.907 13.2683 175.369 13.0919 175.845 13.1053H178.51V8.8524C178.51 8.31967 178.72 7.80877 179.095 7.43207C179.47 7.05538 179.979 6.84375 180.509 6.84375C181.039 6.84375 181.547 7.05538 181.922 7.43207C182.297 7.80877 182.508 8.31967 182.508 8.8524V13.0557H189.134C189.375 13.0353 189.619 13.0655 189.848 13.1444C190.078 13.2233 190.288 13.3491 190.467 13.5141C190.645 13.679 190.788 13.8793 190.885 14.1024C190.983 14.3255 191.033 14.5665 191.033 14.8102C191.033 15.0538 190.983 15.2949 190.885 15.518C190.788 15.7411 190.645 15.9414 190.467 16.1063C190.288 16.2712 190.078 16.3971 189.848 16.476C189.619 16.5549 189.375 16.5851 189.134 16.5647H182.508V27.2403C182.508 31.642 185.173 33.9978 189.134 33.9978C189.379 33.9773 189.625 34.008 189.858 34.0881C190.09 34.1682 190.304 34.2959 190.485 34.4631C190.666 34.6303 190.81 34.8335 190.909 35.0596C191.008 35.2858 191.059 35.5301 191.059 35.7771C191.059 36.0241 191.008 36.2684 190.909 36.4946C190.81 36.7208 190.666 36.9239 190.485 37.0912C190.304 37.2584 190.09 37.3861 189.858 37.4661C189.625 37.5462 189.379 37.577 189.134 37.5564C182.964 37.5564 178.498 33.5763 178.498 27.2403V16.5647H175.845C175.367 16.5716 174.906 16.3918 174.558 16.0632C174.211 15.7347 174.004 15.2831 173.981 14.804L173.994 14.8536Z" fill="white"/>
<path d="M191.33 25.1701C191.33 18.1646 197.055 12.6346 204.57 12.6346C206.393 12.5911 208.204 12.9304 209.889 13.6306C211.574 14.3309 213.095 15.3768 214.355 16.7015C214.703 17.0603 214.916 17.5291 214.959 18.0282C214.951 18.2789 214.891 18.5251 214.783 18.7513C214.675 18.9776 214.522 19.1791 214.333 19.3432C214.145 19.5073 213.924 19.6305 213.686 19.7051C213.447 19.7796 213.196 19.8039 212.948 19.7765C212.301 19.7283 211.694 19.4412 211.245 18.9705C210.01 17.653 208.409 16.7387 206.65 16.3461C204.891 15.9536 203.055 16.1009 201.38 16.7689C199.706 17.4369 198.269 18.5949 197.257 20.0928C196.245 21.5907 195.704 23.3596 195.704 25.1701C195.704 26.9806 196.245 28.7494 197.257 30.2473C198.269 31.7453 199.706 32.9032 201.38 33.5713C203.055 34.2393 204.891 34.3866 206.65 33.994C208.409 33.6015 210.01 32.6872 211.245 31.3697C211.684 30.8767 212.293 30.5706 212.948 30.5141C213.199 30.4921 213.452 30.5218 213.691 30.6014C213.931 30.6811 214.151 30.809 214.34 30.9773C214.528 31.1456 214.68 31.3508 214.787 31.5803C214.893 31.8099 214.952 32.0588 214.959 32.312C214.899 32.781 214.687 33.2169 214.355 33.5519C213.101 34.888 211.583 35.9448 209.897 36.6539C208.212 37.363 206.397 37.7086 204.57 37.6684C197.043 37.6932 191.33 32.1632 191.33 25.1701Z" fill="white"/>
<path d="M217.341 5.61678C217.38 5.10971 217.609 4.63629 217.981 4.291C218.352 3.9457 218.84 3.75391 219.346 3.75391C219.852 3.75391 220.34 3.9457 220.711 4.291C221.083 4.63629 221.311 5.10971 221.351 5.61678V15.5361C222.344 14.5762 223.515 13.8226 224.798 13.3184C226.082 12.8141 227.451 12.5692 228.829 12.5975C234.702 12.5975 239.366 16.6644 239.366 23.5211V35.6227C239.326 36.1298 239.098 36.6032 238.726 36.9485C238.355 37.2938 237.867 37.4856 237.361 37.4856C236.855 37.4856 236.367 37.2938 235.996 36.9485C235.624 36.6032 235.396 36.1298 235.356 35.6227V23.4715C235.356 18.5987 232.246 16.1437 228.323 16.1437C224.399 16.1437 221.351 18.5491 221.351 23.4715V35.6599C221.311 36.167 221.083 36.6404 220.711 36.9857C220.34 37.331 219.852 37.5228 219.346 37.5228C218.84 37.5228 218.352 37.331 217.981 36.9857C217.609 36.6404 217.38 36.167 217.341 35.6599V5.61678Z" fill="white"/>
<path d="M77.0332 50.4762C77.0332 43.4831 82.7586 37.9531 90.2731 37.9531C97.7876 37.9531 103.476 43.4831 103.476 50.4762C103.476 57.4694 97.8122 63.0118 90.2731 63.0118C82.7339 63.0118 77.0332 57.4694 77.0332 50.4762ZM99.4163 50.4762C99.4482 48.649 98.9378 46.8537 97.9502 45.3192C96.9626 43.7846 95.5427 42.5803 93.8713 41.8599C92.1999 41.1395 90.3529 40.9356 88.5658 41.2742C86.7786 41.6128 85.1323 42.4785 83.8368 43.7611C82.5412 45.0436 81.6551 46.6847 81.2914 48.4753C80.9278 50.2659 81.103 52.1247 81.7948 53.8148C82.4866 55.5049 83.6636 56.9497 85.1758 57.9649C86.688 58.9802 88.4668 59.5199 90.2854 59.5152C91.4794 59.5384 92.6659 59.3214 93.7752 58.8771C94.8845 58.4327 95.8943 57.77 96.745 56.9278C97.5957 56.0857 98.2703 55.0811 98.729 53.9731C99.1878 52.8652 99.4215 51.6762 99.4163 50.4762Z" fill="white"/>
<path d="M58.5986 7.21639C58.6382 6.70932 58.8667 6.2359 59.2383 5.8906C59.61 5.54531 60.0976 5.35352 60.6037 5.35352C61.1099 5.35352 61.5975 5.54531 61.9691 5.8906C62.3408 6.2359 62.5692 6.70932 62.6088 7.21639V37.2347C62.5692 37.7418 62.3408 38.2152 61.9691 38.5605C61.5975 38.9058 61.1099 39.0976 60.6037 39.0976C60.0976 39.0976 59.61 38.9058 59.2383 38.5605C58.8667 38.2152 58.6382 37.7418 58.5986 37.2347V7.21639Z" fill="white"/>
<path d="M245.721 16.2295C245.492 16.2264 245.267 16.1668 245.067 16.0559C244.845 15.9443 244.746 15.6343 244.746 15.1508V9.26119H238.934C238.658 9.27662 238.384 9.198 238.157 9.03799C238.048 8.9438 237.964 8.82491 237.91 8.6912C237.856 8.55748 237.835 8.41282 237.848 8.26925C237.829 8.13509 237.842 7.99834 237.885 7.86995C237.928 7.74157 238.001 7.6251 238.097 7.52989C238.193 7.43468 238.309 7.36337 238.438 7.32166C238.566 7.27996 238.702 7.26903 238.836 7.28973H244.795V1.40014C244.795 0.904174 244.894 0.606588 245.116 0.482597C245.318 0.368529 245.545 0.308594 245.776 0.308594C246.008 0.308594 246.235 0.368529 246.436 0.482597C246.646 0.606588 246.757 0.904174 246.757 1.40014V7.28973H252.618C252.893 7.27857 253.164 7.35213 253.396 7.50051C253.501 7.59656 253.583 7.71609 253.634 7.84958C253.686 7.98306 253.705 8.12678 253.692 8.26925C253.706 8.4118 253.687 8.55583 253.636 8.68947C253.584 8.82312 253.502 8.94256 253.396 9.03799C253.169 9.198 252.895 9.27662 252.618 9.26119H246.757V15.1508C246.757 15.6343 246.646 15.9443 246.436 16.0559C246.217 16.1766 245.97 16.2365 245.721 16.2295Z" fill="white" stroke="white" stroke-width="0.5" stroke-miterlimit="10"/>
</g>
<defs>
<clipPath id="clip0_290_1752">
<rect width="254" height="63" fill="white"/>
</clipPath>
</defs>
</svg>
