<svg width="507" height="393" viewBox="0 0 507 393" fill="none" xmlns="http://www.w3.org/2000/svg">
<g clip-path="url(#clip0_1315_2954)">
<path d="M268.518 86.4509C291.044 109.305 234.729 134.81 234.729 99.3687C235.076 95.5644 236.471 91.9362 238.755 88.8981C241.038 85.8599 244.117 83.5344 247.641 82.1872C251.165 80.84 254.991 80.5256 258.682 81.2795C262.374 82.0334 265.782 83.8254 268.518 86.4509Z" fill="black"/>
<path d="M239.625 33.1222C227.872 19.7076 245.175 -10.2684 266.232 4.13993C287.289 18.5483 256.764 52.8302 239.625 33.1222Z" fill="black"/>
<path d="M232.28 122.886C267.212 121.229 246.318 180.85 220.364 153.193C218.135 150.666 216.645 147.558 216.062 144.219C215.479 140.88 215.827 137.442 217.065 134.293C218.303 131.143 220.384 128.406 223.072 126.391C225.76 124.376 228.949 123.162 232.28 122.886Z" fill="black"/>
<path d="M219.548 46.7035C222.914 43.4314 227.384 41.5869 232.045 41.5475C236.706 41.5081 241.206 43.2767 244.625 46.4915C248.043 49.7062 250.123 54.1245 250.438 58.8429C250.752 63.5614 249.279 68.2236 246.318 71.8765C230.648 91.9157 203.388 62.9336 219.548 46.7035Z" fill="black"/>
<path d="M268.355 42.2307C290.228 36.103 301.002 70.5504 282.556 77.0093C278.102 78.4811 273.265 78.1945 269.01 76.2062C264.755 74.218 261.395 70.6747 259.602 66.2838C257.809 61.8928 257.715 56.9773 259.337 52.5186C260.96 48.06 264.18 44.3861 268.355 42.2307Z" fill="black"/>
<path d="M264.11 125.701C292.349 116.095 304.102 152.033 277.495 158.824C255.949 165.614 250.725 130.338 264.11 125.701Z" fill="black"/>
<path d="M180.371 54.6522C192.287 42.0656 221.179 62.2705 207.141 79.8255C205.559 81.7784 203.599 83.3821 201.383 84.5387C199.167 85.6952 196.741 86.38 194.255 86.5507C191.769 86.7215 189.274 86.3748 186.925 85.5318C184.575 84.6888 182.421 83.3674 180.593 81.6487C178.765 79.9301 177.303 77.8502 176.296 75.5373C175.29 73.2244 174.76 70.7273 174.739 68.199C174.718 65.6707 175.207 63.1647 176.176 60.8352C177.144 58.5056 178.572 56.4015 180.371 54.6522Z" fill="black"/>
<path d="M213.344 86.1187C231.136 84.4626 240.604 125.866 209.1 121.394C186.574 118.082 194.083 87.7749 213.344 86.1187Z" fill="black"/>
<path d="M199.961 36.7662C196.876 33.5335 195.054 29.2731 194.835 24.7788C194.616 20.2845 196.015 15.8627 198.771 12.3371C201.527 8.81155 205.452 6.42264 209.815 5.6154C214.178 4.80817 218.682 5.63769 222.487 7.94939C242.401 20.2048 218.569 52.9963 199.961 36.7662Z" fill="black"/>
<path d="M291.533 86.1189C315.854 81.4817 320.752 130.503 287.942 120.566C269.66 114.936 278.311 88.6031 291.533 86.1189Z" fill="black"/>
<path d="M307.531 54.3212C337.729 45.2125 341.483 89.9281 310.795 85.6221C307.432 84.8903 304.382 83.0989 302.081 80.5038C299.781 77.9087 298.347 74.6426 297.985 71.1716C297.623 67.7007 298.351 64.2027 300.065 61.1766C301.78 58.1505 304.392 55.7511 307.531 54.3212Z" fill="black"/>
<path d="M282.229 36.7663C269.497 25.5046 284.188 -4.63706 304.755 7.94954C325.322 20.5361 298.552 51.1747 282.229 36.7663Z" fill="black"/>
<path d="M190.656 137.624C212.366 132.325 220.038 166.938 200.776 172.403C176.618 179.028 172.211 142.096 190.656 137.624Z" fill="black"/>
<path d="M141.686 74.5263C143.988 72.1899 146.868 70.5259 150.022 69.7093C153.177 68.8926 156.491 68.9536 159.614 69.8857C162.738 70.8177 165.556 72.5865 167.773 75.006C169.99 77.4255 171.522 80.4065 172.211 83.6351C176.945 119.904 119.324 96.0561 141.686 74.5263Z" fill="black"/>
<path d="M311.284 138.12C333.321 136.133 334.3 171.243 314.223 173.065C309.777 173.237 305.438 171.665 302.104 168.677C298.771 165.688 296.701 161.512 296.322 157.015C295.944 152.518 297.288 148.046 300.074 144.527C302.86 141.009 306.875 138.715 311.284 138.12Z" fill="black"/>
<path d="M252.52 161.97C274.556 159.983 275.536 195.093 255.621 196.914C251.15 197.153 246.761 195.625 243.378 192.649C239.994 189.673 237.88 185.483 237.478 180.958C237.076 176.433 238.419 171.927 241.225 168.386C244.03 164.845 248.078 162.545 252.52 161.97Z" fill="black"/>
<path d="M186.737 105.992C188.795 108.473 190.206 111.438 190.841 114.615C191.476 117.793 191.315 121.081 190.373 124.179C189.431 127.277 187.738 130.086 185.449 132.348C183.16 134.61 180.347 136.254 177.27 137.127C144.46 142.096 159.967 88.7681 186.737 105.992Z" fill="black"/>
<path d="M347.195 132.491C344.761 134.619 341.837 136.088 338.695 136.765C335.552 137.442 332.292 137.303 329.216 136.362C326.14 135.421 323.348 133.708 321.098 131.381C318.848 129.054 317.213 126.189 316.344 123.051C311.447 89.7629 364.171 105.496 347.195 132.491Z" fill="black"/>
<path d="M166.496 18.5494C168.979 17.4765 171.684 17.0448 174.372 17.2926C177.059 17.5405 179.643 18.4603 181.894 19.9698C184.145 21.4793 185.992 23.5312 187.27 25.9423C188.548 28.3533 189.217 31.0482 189.217 33.7857C189.217 36.5233 188.548 39.2184 187.27 41.6295C185.992 44.0405 184.145 46.0924 181.894 47.6019C179.643 49.1114 177.059 50.0312 174.372 50.2791C171.684 50.5269 168.979 50.0953 166.496 49.0224C163.552 47.7497 161.041 45.6268 159.276 42.9178C157.511 40.2087 156.57 37.033 156.57 33.7857C156.57 30.5385 157.511 27.363 159.276 24.654C161.041 21.945 163.552 19.822 166.496 18.5494Z" fill="black"/>
<path d="M499.49 205.692C515.814 222.253 483.167 249.745 470.925 224.572C462.6 207.017 487.085 193.436 499.49 205.692Z" fill="black"/>
<path d="M33.6255 205.692C49.9487 222.253 17.3022 249.745 4.89656 224.572C-3.4283 207.017 21.2198 193.436 33.6255 205.692Z" fill="black"/>
<path d="M326.954 18.3836C348.501 10.931 359.601 39.7477 343.277 47.6972C341.38 48.7846 339.291 49.4823 337.128 49.7504C334.965 50.0185 332.771 49.8517 330.672 49.2596C328.573 48.6676 326.609 47.6616 324.893 46.2995C323.176 44.9374 321.741 43.2457 320.67 41.3209C319.598 39.3961 318.91 37.2762 318.646 35.0819C318.382 32.8875 318.546 30.6617 319.13 28.5317C319.713 26.4018 320.705 24.4094 322.047 22.6682C323.39 20.927 325.057 19.471 326.954 18.3836Z" fill="black"/>
<path d="M346.706 70.0543C368.905 63.9266 380.332 103.177 349.644 101.687C328.097 100.527 333.647 73.6978 346.706 70.0543Z" fill="black"/>
<path d="M4.24356 271.275C-8.81504 258.523 11.0993 232.687 28.7284 248.42C46.3575 264.154 21.7094 288.499 4.24356 271.275Z" fill="black"/>
<path d="M435.504 231.858C413.468 212.15 457.377 184.327 461.948 215.297C462.775 218.7 462.516 222.281 461.208 225.526C459.901 228.77 457.613 231.51 454.673 233.351C451.733 235.192 448.293 236.04 444.849 235.772C441.404 235.503 438.133 234.133 435.504 231.858Z" fill="black"/>
<path d="M503.898 271.606C496.39 283.695 464.886 271.606 474.843 252.395C484.8 233.184 517.12 250.573 503.898 271.606Z" fill="black"/>
<path d="M155.071 134.147C171.394 152.365 136.952 174.722 126.341 153.027C117.527 134.644 144.46 122.058 155.071 134.147Z" fill="black"/>
<path d="M397.635 98.3745C417.386 118.248 375.925 140.275 368.906 113.28C365.315 99.3681 386.535 86.9472 397.635 98.3745Z" fill="black"/>
<path d="M110.019 124.209C97.94 113.61 110.019 86.1181 128.465 95.2268C150.011 105.992 127.975 140.274 110.019 124.209Z" fill="black"/>
<path d="M147.072 38.7537C155.887 47.8624 151.806 69.889 135.972 67.5704C101.856 62.602 129.443 20.3706 147.072 38.7537Z" fill="black"/>
<path d="M360.581 38.7542C378.537 19.7086 404.654 64.2586 373.313 65.9147C353.889 66.2459 349.481 49.6846 360.581 38.7542Z" fill="black"/>
<path d="M72.6378 205.691C94.6742 228.214 40.9705 249.744 46.194 214.8C46.4884 211.828 47.6195 209.005 49.4518 206.667C51.2842 204.329 53.7407 202.576 56.5283 201.615C59.3158 200.655 62.3167 200.529 65.1731 201.252C68.0295 201.974 70.6209 203.515 72.6378 205.691Z" fill="black"/>
<path d="M352.746 134.146C354.763 131.97 357.354 130.429 360.211 129.707C363.067 128.984 366.068 129.11 368.856 130.071C371.643 131.031 374.1 132.784 375.932 135.122C377.765 137.46 378.895 140.283 379.19 143.254C384.413 178.199 330.71 156.669 352.746 134.146Z" fill="black"/>
<path d="M438.768 271.274C436.772 268.843 435.504 265.882 435.114 262.743C434.725 259.604 435.229 256.417 436.568 253.56C437.908 250.703 440.026 248.295 442.672 246.62C445.318 244.946 448.382 244.076 451.5 244.113C480.882 243.782 459.988 292.306 438.768 271.274Z" fill="black"/>
<path d="M203.387 204.202C195.552 199.068 196.694 172.073 215.956 173.895C245.501 176.379 223.301 217.285 203.387 204.202Z" fill="black"/>
<path d="M417.223 205.692C438.117 227.222 390.126 248.255 390.453 218.61C390.416 215.446 391.274 212.338 392.924 209.653C394.574 206.969 396.948 204.82 399.764 203.461C402.58 202.102 405.721 201.59 408.815 201.985C411.909 202.381 414.827 203.667 417.223 205.692Z" fill="black"/>
<path d="M355.031 196.253C334.627 209.336 313.08 168.43 342.625 165.945C361.723 164.124 363.029 191.119 355.031 196.253Z" fill="black"/>
<path d="M174.332 169.919C195.063 191.449 147.236 212.481 147.562 182.837C147.526 179.673 148.383 176.565 150.034 173.88C151.684 171.195 154.057 169.046 156.873 167.687C159.69 166.329 162.831 165.816 165.925 166.212C169.019 166.607 171.936 167.894 174.332 169.919Z" fill="black"/>
<path d="M291.697 173.893C293.722 173.643 295.777 173.806 297.74 174.371C299.703 174.936 301.536 175.893 303.13 177.185C304.724 178.478 306.048 180.08 307.024 181.898C308.001 183.716 308.61 185.713 308.816 187.773C309.023 189.833 308.822 191.914 308.226 193.894C307.63 195.874 306.65 197.714 305.345 199.305C304.039 200.897 302.434 202.208 300.623 203.162C298.812 204.117 296.832 204.695 294.798 204.863C292.772 205.113 290.718 204.951 288.754 204.386C286.791 203.821 284.959 202.864 283.365 201.571C281.771 200.279 280.446 198.677 279.47 196.859C278.494 195.04 277.884 193.043 277.678 190.983C277.472 188.923 277.673 186.842 278.269 184.862C278.865 182.882 279.844 181.043 281.15 179.451C282.455 177.86 284.06 176.548 285.871 175.594C287.682 174.64 289.663 174.062 291.697 173.893Z" fill="black"/>
<path d="M112.304 231.859C87.1665 248.42 72.9653 195.259 105.449 202.711C120.303 206.189 118.344 228.05 112.304 231.859Z" fill="black"/>
<path d="M82.5954 130.171C95.654 116.591 121.445 138.618 103.326 153.357C100.204 154.711 96.7439 155.043 93.4271 154.308C90.1104 153.573 87.1022 151.807 84.8212 149.256C82.5402 146.704 81.1 143.495 80.701 140.075C80.302 136.654 80.9643 133.192 82.5954 130.171Z" fill="black"/>
<path d="M48.8056 244.941C75.5757 235.667 75.4125 271.771 59.2524 275.745C43.0924 279.72 35.2573 249.579 48.8056 244.941Z" fill="black"/>
<path d="M409.224 125.701C425.547 121.395 433.219 151.868 419.671 156.505C392.901 165.613 393.064 129.675 409.224 125.701Z" fill="black"/>
<path d="M423.099 115.929C410.53 102.845 429.301 80.4876 443.992 92.743C462.111 107.979 436.32 129.675 423.099 115.929Z" fill="black"/>
<path d="M397.307 62.1045C424.077 52.9957 429.954 89.5962 404.653 89.7618C401.398 89.8431 398.211 88.8126 395.602 86.836C392.994 84.8594 391.115 82.0511 390.268 78.8616C389.421 75.6722 389.654 72.2864 390.931 69.2477C392.207 66.2089 394.453 63.6934 397.307 62.1045Z" fill="black"/>
<path d="M112.303 62.1049C117.363 65.4171 121.771 93.9026 99.4078 89.2654C69.5363 82.8065 95.1637 51.0088 112.303 62.1049Z" fill="black"/>
<path d="M486.759 285.684C503.082 285.684 506.184 311.354 494.104 315.494C466.355 324.934 466.845 285.684 486.759 285.684Z" fill="black"/>
<path d="M358.296 205.194C392.738 193.436 381.312 252.228 353.562 228.546C351.984 226.843 350.832 224.78 350.204 222.531C349.576 220.282 349.49 217.913 349.955 215.623C350.419 213.334 351.419 211.191 352.871 209.376C354.323 207.561 356.184 206.126 358.296 205.194Z" fill="black"/>
<path d="M20.8932 285.684C37.2164 285.684 40.1545 311.354 28.0753 315.494C0.325823 324.934 0.815606 285.684 20.8932 285.684Z" fill="black"/>
<path d="M421.14 271.274C406.449 286.345 386.535 256.369 402.531 246.266C405.765 245.191 409.249 245.169 412.495 246.202C415.742 247.234 418.59 249.271 420.64 252.026C422.69 254.781 423.841 258.118 423.93 261.569C424.02 265.02 423.044 268.413 421.14 271.274Z" fill="black"/>
<path d="M134.994 205.194C138.235 204.36 141.65 204.556 144.777 205.755C147.905 206.954 150.594 209.098 152.481 211.898C154.369 214.698 155.363 218.019 155.33 221.411C155.297 224.803 154.238 228.102 152.297 230.864C131.729 245.438 118.344 210.825 134.994 205.194Z" fill="black"/>
<path d="M127.975 192.277C117.855 198.736 92.0636 186.149 104.633 170.582C121.119 150.377 141.686 183.003 127.975 192.277Z" fill="black"/>
<path d="M68.5583 89.9273C86.8403 85.2901 91.7372 117.585 75.0875 120.566C58.4378 123.547 50.7659 94.3989 68.5583 89.9273Z" fill="black"/>
<path d="M468.15 328.41C496.389 318.97 496.879 361.533 472.231 355.074C460.642 351.762 456.071 332.385 468.15 328.41Z" fill="black"/>
<path d="M386.534 165.614C406.122 159.818 408.244 184.991 399.756 191.118C398.093 192.529 396.141 193.545 394.041 194.091C391.941 194.636 389.747 194.699 387.62 194.272C385.494 193.846 383.488 192.942 381.75 191.628C380.013 190.313 378.587 188.62 377.578 186.674C376.569 184.727 376.002 182.576 375.919 180.378C375.836 178.181 376.238 175.992 377.097 173.973C377.956 171.953 379.249 170.155 380.882 168.708C382.515 167.262 384.446 166.205 386.534 165.614Z" fill="black"/>
<path d="M109.039 248.419C118.833 264.152 94.3482 284.854 84.0646 267.795C73.781 250.737 101.367 237.654 109.039 248.419Z" fill="black"/>
<path d="M41.7876 328.411C52.8874 335.698 41.7875 365.508 22.6893 353.915C3.59108 342.323 26.2805 318.474 41.7876 328.411Z" fill="black"/>
<path d="M52.7248 288.663C54.5128 287.624 56.4999 286.988 58.5517 286.797C60.6034 286.606 62.6716 286.866 64.6158 287.558C66.5601 288.249 68.335 289.357 69.82 290.806C71.3049 292.255 72.4653 294.011 73.2223 295.955C73.9793 297.9 74.3153 299.986 74.2074 302.074C74.0995 304.161 73.5502 306.201 72.5969 308.054C71.6436 309.907 70.3084 311.53 68.6822 312.814C67.056 314.097 65.1766 315.011 63.1717 315.492C48.1543 319.301 38.8501 293.3 52.7248 288.663Z" fill="black"/>
<path d="M182.166 205.194C197.184 201.385 206.488 227.386 192.613 232.023C190.825 233.062 188.838 233.699 186.787 233.889C184.735 234.08 182.667 233.821 180.722 233.129C178.778 232.437 177.003 231.329 175.518 229.88C174.033 228.431 172.873 226.675 172.116 224.731C171.359 222.787 171.023 220.7 171.131 218.613C171.239 216.525 171.788 214.486 172.742 212.632C173.695 210.779 175.03 209.156 176.656 207.873C178.282 206.589 180.162 205.676 182.166 205.194Z" fill="black"/>
<path d="M319.12 205.194C334.137 201.385 343.441 227.386 329.566 232.023C327.779 233.062 325.791 233.699 323.74 233.889C321.688 234.08 319.62 233.821 317.675 233.129C315.731 232.437 313.957 231.329 312.472 229.88C310.987 228.431 309.826 226.675 309.069 224.731C308.312 222.787 307.976 220.7 308.084 218.613C308.192 216.525 308.741 214.486 309.695 212.632C310.648 210.779 311.983 209.156 313.609 207.873C315.235 206.589 317.115 205.676 319.12 205.194Z" fill="black"/>
<path d="M456.888 288.664C458.671 291.068 459.775 293.92 460.081 296.913C460.387 299.905 459.883 302.926 458.625 305.65C457.366 308.374 455.4 310.699 452.937 312.375C450.474 314.051 447.608 315.014 444.646 315.162C420.814 313.506 436.974 275.912 456.888 288.664Z" fill="black"/>
<path d="M284.188 235.502C273.578 246.101 253.174 234.011 259.54 220.597C268.681 201.386 300.021 219.603 284.188 235.502Z" fill="black"/>
<path d="M147.563 248.419C149.488 251.584 150.308 255.314 149.889 259.009C149.471 262.703 147.839 266.147 145.257 268.787C142.675 271.426 139.292 273.106 135.653 273.557C132.015 274.009 128.333 273.204 125.2 271.274C107.244 260.344 138.422 234.011 147.563 248.419Z" fill="black"/>
<path d="M445.135 188.302C438.279 199.233 412.489 188.303 419.997 172.901C429.465 153.358 455.909 170.747 445.135 188.302Z" fill="black"/>
<path d="M84.8815 188.302C78.0258 199.233 52.2349 188.303 59.7436 172.901C69.2111 153.358 95.6549 170.747 84.8815 188.302Z" fill="black"/>
<path d="M245.502 235.998C243.3 237.675 240.715 238.759 237.989 239.15C235.263 239.54 232.484 239.225 229.91 238.234C227.336 237.242 225.052 235.606 223.268 233.478C221.485 231.35 220.261 228.798 219.711 226.061C217.752 198.735 258.56 215.296 245.502 235.998Z" fill="black"/>
<path d="M61.5378 149.051C55.4982 157.994 27.4223 151.204 36.4001 133.483C46.5205 112.782 69.6994 136.796 61.5378 149.051Z" fill="black"/>
<path d="M381.965 249.413C394.86 262.331 375.109 279.223 363.193 270.611C348.502 260.012 366.784 234.011 381.965 249.413Z" fill="black"/>
<path d="M446.277 129.674C456.235 113.113 484.8 139.114 465.376 151.204C449.379 160.975 439.585 140.273 446.277 129.674Z" fill="black"/>
<path d="M395.838 311.022C383.106 298.104 402.531 281.212 414.61 289.989C426.689 298.767 410.366 325.762 395.838 311.022Z" fill="black"/>
<path d="M466.192 187.805C451.175 171.244 476.476 153.854 487.086 168.594C497.696 183.333 476.312 198.735 466.192 187.805Z" fill="black"/>
<path d="M39.0122 391.014C25.1375 382.236 46.8472 352.591 60.2322 371.306C70.5159 385.714 49.9488 397.472 39.0122 391.014Z" fill="black"/>
<path d="M112.303 311.519C105.284 322.947 79.6567 307.213 91.083 291.977C102.509 276.741 121.281 296.78 112.303 311.519Z" fill="black"/>
<path d="M164.049 248.42C169.273 239.643 196.696 251.567 185.596 268.128C174.496 284.69 155.398 263.657 164.049 248.42Z" fill="black"/>
<path d="M468.151 367.992C476.803 373.292 465.05 401.115 448.726 389.688C432.403 378.26 454.113 359.215 468.151 367.992Z" fill="black"/>
<path d="M334.138 245.439C346.543 246.267 350.461 279.556 326.629 271.937C313.407 267.466 321.242 244.446 334.138 245.439Z" fill="black"/>
<path d="M287.451 248.42C290.268 247.018 293.497 246.721 296.517 247.585C299.537 248.449 302.135 250.414 303.815 253.104C305.494 255.793 306.136 259.017 305.616 262.156C305.096 265.296 303.453 268.13 301 270.116C284.023 282.537 272.271 253.72 287.451 248.42Z" fill="black"/>
<path d="M68.2304 328.245C71.0474 326.842 74.2755 326.545 77.2954 327.409C80.3153 328.273 82.9144 330.239 84.5937 332.928C86.2731 335.617 86.9146 338.841 86.395 341.98C85.8755 345.12 84.2316 347.954 81.7787 349.94C64.8025 362.03 53.213 333.213 68.2304 328.245Z" fill="black"/>
<path d="M209.263 248.42C212.069 247.14 215.237 246.933 218.181 247.839C221.125 248.745 223.647 250.701 225.279 253.347C226.911 255.993 227.544 259.149 227.061 262.232C226.577 265.314 225.01 268.115 222.649 270.116C205.672 282.537 194.083 253.72 209.263 248.42Z" fill="black"/>
<path d="M25.1386 165.614C27.9556 164.211 31.1837 163.914 34.2036 164.778C37.2235 165.643 39.8226 167.608 41.502 170.297C43.1813 172.986 43.8228 176.21 43.3032 179.35C42.7837 182.489 41.1398 185.324 38.6869 187.309C21.7108 198.736 10.1212 170.251 25.1386 165.614Z" fill="black"/>
<path d="M428.486 328.245C431.303 326.842 434.531 326.545 437.551 327.409C440.571 328.273 443.17 330.239 444.849 332.928C446.529 335.617 447.17 338.841 446.651 341.98C446.131 345.12 444.487 347.954 442.034 349.94C425.058 362.03 413.469 333.213 428.486 328.245Z" fill="black"/>
<path d="M362.212 288.665C378.535 284.69 379.841 308.042 368.905 311.685C348.827 318.31 346.542 292.805 362.212 288.665Z" fill="black"/>
<path d="M151.644 311.684C136.79 322.449 123.241 292.473 138.422 288.167C153.603 283.861 159.805 305.722 151.644 311.684Z" fill="black"/>
<path d="M248.277 248.42C270.313 241.465 268.681 269.453 255.296 271.606C245.665 273.593 235.218 252.892 248.277 248.42Z" fill="black"/>
<path d="M379.515 347.787C367.272 327.914 406.774 318.308 398.45 345.8C395.838 354.081 381.31 350.271 379.515 347.787Z" fill="black"/>
</g>
<defs>
<clipPath id="clip0_1315_2954">
<rect width="507" height="393" fill="white"/>
</clipPath>
</defs>
</svg>
