<svg width="33" height="31" viewBox="0 0 33 31" fill="none" xmlns="http://www.w3.org/2000/svg">
<path d="M28.5616 29.5289C28.4212 29.3648 28.316 29.1737 28.2523 28.9673C28.1887 28.7609 28.168 28.5436 28.1916 28.3289C28.1912 27.2464 28.1311 26.1648 28.0116 25.0889C27.8583 24.4282 27.8694 23.74 28.0437 23.0845C28.218 22.429 28.5503 21.8262 29.0116 21.3289C30.792 19.3762 31.7828 16.8314 31.7916 14.1889C31.8493 12.3417 31.4795 10.5061 30.7111 8.82531C29.9426 7.1445 28.7963 5.6639 27.3616 4.49893C24.0097 1.74045 19.7545 0.322097 15.418 0.51787C11.0814 0.713643 6.97125 2.50966 3.88159 5.55894C2.54632 6.88018 1.55829 8.5109 1.00525 10.3061C0.452204 12.1013 0.351375 14.0053 0.711666 15.8489C1.07216 17.8301 1.8935 19.6987 3.10949 21.3039C4.32549 22.909 5.90205 24.2056 7.71167 25.0889C10.4703 26.5839 13.5754 27.3222 16.7117 27.2289C18.5081 27.1876 20.2854 26.8497 21.9717 26.2289C22.2427 26.1024 22.5421 26.0488 22.8402 26.0734C23.1383 26.0979 23.4249 26.1998 23.6716 26.3689C24.8316 27.0889 25.9516 27.8789 27.1316 28.5589C27.4383 28.7229 27.7844 28.799 28.1316 28.7789" stroke="white" stroke-linecap="round" stroke-linejoin="round"/>
</svg>
