<svg width="88" height="77" viewBox="0 0 88 77" fill="none" xmlns="http://www.w3.org/2000/svg">
<g clip-path="url(#clip0_410_7061)">
<path d="M77.2607 20.7256C77.3521 20.9496 77.484 21.1553 77.6498 21.3323C78.3644 21.9906 79.0028 22.726 79.5531 23.5248C79.6378 23.6747 79.7681 23.7941 79.9253 23.8659C80.0826 23.9377 80.2587 23.9583 80.4284 23.9247C81.6093 23.7593 82.7903 23.5524 83.9712 23.4283L84.7075 23.318C84.8236 23.2875 84.9447 23.281 85.0633 23.2989C85.182 23.3168 85.2957 23.3588 85.3973 23.4221C85.4989 23.4855 85.5863 23.5689 85.6541 23.6673C85.7219 23.7656 85.7685 23.8767 85.7912 23.9937C86.1941 25.2623 86.6248 26.5171 86.9999 27.772C86.9999 27.9926 87.1666 28.1994 87.2222 28.4201C87.3889 29.0268 87.3056 29.2336 86.7499 29.537L83.4016 31.2883L83.1932 31.3986C82.9257 31.4788 82.6972 31.6537 82.5512 31.8901C82.4052 32.1266 82.3518 32.408 82.4012 32.681C82.4358 33.6058 82.3612 34.5313 82.179 35.4389C82.1371 35.5823 82.1413 35.7351 82.1911 35.876C82.2409 36.0169 82.3338 36.1389 82.4568 36.2249C83.5961 37.1074 84.7631 37.9623 85.9301 38.8311C86.4859 39.2585 86.5553 39.5343 86.2219 40.21C85.5411 41.52 84.8326 42.8438 84.1935 44.1676C83.86 44.8019 83.6378 44.9536 82.8042 44.7191C81.4148 44.2917 80.0255 43.8366 78.6362 43.4367C78.5389 43.4367 78.4417 43.4367 78.4556 43.2575" stroke="white" stroke-linecap="round" stroke-linejoin="round"/>
<path d="M62.6308 11.79C62.6308 11.859 62.6308 11.9141 62.5336 11.9417C60.9775 12.383 59.4493 12.9208 57.9071 13.4172C57.7676 13.4366 57.6344 13.4872 57.5174 13.5651C57.4005 13.6431 57.3029 13.7463 57.232 13.8672C57.1611 13.988 57.1187 14.1232 57.1081 14.2626C57.0975 14.402 57.1189 14.542 57.1708 14.672C57.303 15.3377 57.4004 16.0096 57.4625 16.6853C57.5459 17.3747 57.6292 18.0642 57.7404 18.7537C57.7791 18.9188 57.762 19.092 57.6917 19.2465C57.6214 19.401 57.5018 19.5283 57.3514 19.6086C56.5294 20.17 55.7743 20.8223 55.1007 21.5529C54.9708 21.6958 54.7986 21.7941 54.6089 21.8337C54.4192 21.8734 54.2217 21.8523 54.0448 21.7736C52.6555 21.3323 51.3495 20.9738 50.0296 20.5187C49.7999 20.478 49.5647 20.478 49.335 20.5187" stroke="white" stroke-linecap="round" stroke-linejoin="round"/>
<path d="M63.1035 48.0836C64.3463 48.3038 65.6062 48.4145 66.8686 48.4146C67.2437 48.4146 67.4104 48.6904 67.5633 48.9662C68.0634 49.8763 68.5497 50.8001 69.0359 51.724C69.2166 52.0826 69.3972 52.4273 69.5917 52.7582C69.7862 53.0892 70.1057 53.3512 70.6337 53.1857C72.1758 52.7307 73.7041 52.2205 75.2323 51.724C75.4657 51.6482 75.6595 51.4839 75.7714 51.267C75.8833 51.05 75.9043 50.798 75.8298 50.5657C75.5936 49.3936 75.4824 48.1939 75.3157 47.0081C75.3236 46.9071 75.3236 46.8057 75.3157 46.7047C75.2319 46.483 75.2306 46.2389 75.3121 46.0164C75.3936 45.7939 75.5526 45.6077 75.7603 45.4912C76.5226 44.9918 77.2222 44.4039 77.8443 43.74C78.0237 43.5339 78.2606 43.3851 78.5251 43.3125" stroke="white" stroke-linecap="round" stroke-linejoin="round"/>
<path d="M4.20964 6.49512C3.97732 6.58207 3.78806 6.75509 3.68169 6.97775C3.26489 7.87406 2.75084 8.729 2.29236 9.6391C2.09786 10.0942 2.09786 10.232 2.47298 10.5354C3.13985 11.0732 3.8623 11.5834 4.51529 12.0798C4.72148 12.1981 4.87992 12.3837 4.96354 12.605C5.04716 12.8264 5.05077 13.0696 4.97377 13.2933C4.87373 13.8017 4.8364 14.3203 4.86262 14.8377C4.8768 14.9783 4.84709 15.1199 4.77751 15.2432C4.70793 15.3666 4.60184 15.4657 4.47361 15.5272C3.6678 15.9684 2.8342 16.3683 2.04229 16.8096C1.52823 17.0992 1.48655 17.2508 1.63938 17.8024C1.90335 18.7401 2.27847 19.6502 2.52855 20.5603C2.53766 20.6474 2.56566 20.7316 2.61064 20.8069C2.65562 20.8823 2.7165 20.9471 2.7891 20.9969C2.86171 21.0466 2.94431 21.0802 3.03124 21.0953C3.11817 21.1104 3.20736 21.1067 3.29268 21.0843C4.20964 20.9878 5.1127 20.8637 6.07134 20.712C6.21111 20.6706 6.36023 20.6721 6.4991 20.7164C6.63797 20.7607 6.76008 20.8457 6.84936 20.9602C7.26977 21.5113 7.73439 22.0278 8.23868 22.5046C8.39151 22.6425 8.36373 22.808 8.37762 22.9734" stroke="white" stroke-linecap="round" stroke-linejoin="round"/>
<path d="M17.936 4.30234C17.936 4.20582 17.936 4.15066 17.7971 4.13687C17.1815 4.04018 16.5584 3.99864 15.9354 4.01277C15.7352 4.03621 15.5328 3.99353 15.3595 3.89133C15.1862 3.78914 15.0517 3.63311 14.9767 3.4474C14.5877 2.70277 14.1987 1.94436 13.768 1.21352C13.3373 0.48268 13.3095 0.592995 12.7399 0.786047L10.0446 1.64099C9.94267 1.65686 9.84523 1.69383 9.75861 1.74948C9.67199 1.80513 9.59812 1.87823 9.54179 1.96405C9.48546 2.04986 9.44793 2.14646 9.43164 2.24759C9.41534 2.34872 9.42064 2.45212 9.4472 2.55109C9.53056 3.37845 9.66949 4.20582 9.79453 5.03318C9.84951 5.20972 9.84538 5.39919 9.78277 5.5732C9.72015 5.74721 9.60242 5.89641 9.4472 5.99844C8.93532 6.36017 8.46479 6.77632 8.04398 7.23949C7.95948 7.34725 7.84082 7.42357 7.70719 7.4561C7.57357 7.48863 7.4328 7.47547 7.30764 7.41875L4.62624 6.5638C4.5012 6.5638 4.26501 6.67412 4.27891 6.38454" stroke="white" stroke-linecap="round" stroke-linejoin="round"/>
<path d="M26.9389 14.1338C27.7308 13.6787 28.5505 13.265 29.3702 12.8514C29.9259 12.5618 30.1204 12.4653 29.8703 11.6379C29.6203 10.8105 29.3424 9.88665 29.009 9.01791C28.8283 8.5215 28.6199 8.39739 28.1059 8.46634C27.2445 8.59044 26.3692 8.67318 25.5078 8.83865C25.3691 8.88822 25.2183 8.89361 25.0763 8.85406C24.9344 8.81451 24.8084 8.732 24.7159 8.61802C24.3243 8.02756 23.8573 7.4899 23.3266 7.01845C23.2521 6.94682 23.2005 6.85501 23.1783 6.75446C23.1561 6.65391 23.1642 6.54909 23.2016 6.45309C23.4378 5.40509 23.8684 4.41225 24.1185 3.36426C24.1185 3.36426 24.1185 3.36426 24.2436 3.36426" stroke="white" stroke-linecap="round" stroke-linejoin="round"/>
<path d="M62.6729 11.9141C62.8312 11.9406 62.9807 12.0046 63.1089 12.1006C63.2371 12.1966 63.3401 12.3218 63.4092 12.4656C64.0344 13.6653 64.6874 14.8512 65.2987 16.0509C65.3939 16.2975 65.5712 16.5044 65.8011 16.6374C66.0311 16.7703 66.2999 16.8212 66.563 16.7817C67.4685 16.7473 68.3746 16.8308 69.2583 17.0299C69.4083 17.0702 69.5672 17.064 69.7137 17.0122C69.8602 16.9605 69.9872 16.8657 70.078 16.7404C71.0088 15.5958 71.8563 14.4099 72.7594 13.2516C72.8163 13.145 72.8953 13.0515 72.9913 12.9774C73.0872 12.9032 73.1979 12.8501 73.316 12.8214C73.4341 12.7928 73.557 12.7893 73.6765 12.8111C73.7961 12.833 73.9097 12.8797 74.0098 12.9483C75.3991 13.6929 76.7884 14.3272 78.1778 15.0994C78.2801 15.1382 78.3733 15.1978 78.4513 15.2742C78.5293 15.3506 78.5905 15.4422 78.631 15.5433C78.6715 15.6445 78.6904 15.7528 78.6865 15.8615C78.6826 15.9702 78.656 16.077 78.6084 16.175C78.1777 17.6505 77.6637 19.1121 77.2191 20.6014C77.2191 20.6979 77.1358 20.6979 77.0663 20.6841" stroke="white" stroke-linecap="round" stroke-linejoin="round"/>
<path d="M20.6174 1.13086C20.6082 1.16379 20.6116 1.19896 20.627 1.22953C20.6424 1.26011 20.6687 1.28391 20.7008 1.29633C21.715 1.7238 22.6736 2.27538 23.6461 2.75801C23.7744 2.79889 23.8896 2.87272 23.9798 2.97201C24.0701 3.0713 24.1323 3.19252 24.1602 3.32337" stroke="white" stroke-linecap="round" stroke-linejoin="round"/>
<path d="M20.6175 1.25488C20.1312 1.37899 19.9506 1.82025 19.6588 2.16498C19.1865 2.73035 18.7836 3.36466 18.2695 3.91624C18.1723 4.01276 18.1167 4.13687 17.9639 4.13687" stroke="white" stroke-linecap="round" stroke-linejoin="round"/>
<path d="M26.105 19.3191C25.1325 19.4708 24.9936 19.6639 24.7991 20.8636C24.6045 22.0632 24.41 23.0699 24.2155 24.173C24.0905 24.8901 23.9238 25.552 23.8404 26.3242C23.8269 26.5025 23.7583 26.6724 23.6439 26.8106C23.5296 26.9488 23.375 27.0486 23.2013 27.0964C21.7355 27.5561 20.313 28.1421 18.95 28.8476C18.7756 28.9302 18.5802 28.9587 18.3893 28.9291C18.1984 28.8996 18.021 28.8135 17.8802 28.6822C16.2686 27.5376 14.6292 26.4207 13.0314 25.29C12.915 25.1897 12.7797 25.1133 12.6333 25.0653C12.487 25.0172 12.3325 24.9984 12.1787 25.0099C12.025 25.0215 11.8751 25.0631 11.7377 25.1325C11.6003 25.2019 11.4781 25.2976 11.3782 25.4141C9.87768 26.9309 8.33552 28.4202 6.83505 29.9232C6.70065 30.0162 6.58863 30.1375 6.507 30.2785C6.42537 30.4195 6.37616 30.5767 6.36288 30.7388C6.3496 30.9008 6.3726 31.0638 6.4302 31.216C6.48781 31.3683 6.57862 31.506 6.69611 31.6193C7.83536 33.1913 8.93293 34.8046 10.0861 36.3766C10.2371 36.5752 10.3188 36.8173 10.3188 37.0661C10.3188 37.3149 10.2371 37.557 10.0861 37.7556C9.43763 38.8938 8.93364 40.1073 8.5856 41.3684C8.53119 41.6558 8.37839 41.9158 8.15306 42.1042C7.92774 42.2927 7.64373 42.3981 7.3491 42.4026C5.95977 42.6094 4.48709 42.8714 3.06997 43.1472C2.52813 43.2438 1.9863 43.2989 1.45835 43.423C1.21328 43.4727 0.994849 43.6093 0.84396 43.8072C0.693072 44.0052 0.620078 44.251 0.638649 44.4986V51.1175C0.618636 51.3847 0.702523 51.6494 0.87307 51.8572C1.04362 52.0649 1.28786 52.1999 1.5556 52.2344C2.45867 52.4137 3.37562 52.524 4.33426 52.7171C5.2929 52.9101 6.43214 53.1032 7.50193 53.2549C7.79072 53.282 8.0622 53.4038 8.27351 53.6011C8.48483 53.7983 8.62396 54.0598 8.66896 54.3442C9.04466 55.6088 9.55705 56.8294 10.1972 57.9846C10.326 58.1611 10.3954 58.3734 10.3954 58.5914C10.3954 58.8093 10.326 59.0216 10.1972 59.1981C9.04408 60.7563 7.9743 62.3697 6.83505 63.9279C6.66293 64.0913 6.54142 64.3001 6.48481 64.5297C6.4282 64.7593 6.43885 65.0002 6.51551 65.2241C6.60254 65.4031 6.72545 65.5626 6.87673 65.6929L11.4615 70.2434C11.5513 70.3654 11.6666 70.4666 11.7996 70.5402C11.9325 70.6139 12.0799 70.6581 12.2316 70.6699C12.3834 70.6816 12.5359 70.6607 12.6788 70.6085C12.8216 70.5564 12.9514 70.4741 13.0592 70.3675C14.7125 69.223 16.3658 68.0923 17.9913 66.9339C18.1592 66.7917 18.3687 66.7069 18.5889 66.692C18.809 66.6771 19.0282 66.7329 19.214 66.8512C20.4946 67.5454 21.845 68.1046 23.243 68.5197C23.4275 68.5587 23.5941 68.6567 23.7171 68.7987C23.8401 68.9407 23.9127 69.1188 23.9238 69.3057C24.021 70.0228 24.1739 70.6847 24.2989 71.4431C24.4517 72.3808 24.6184 73.3184 24.7991 74.201C24.8685 74.5595 24.9102 74.918 24.9797 75.2765C25.1464 76.0763 25.5215 76.2556 26.2717 76.2556H32.6349C32.7884 76.281 32.9456 76.2741 33.0963 76.2353C33.247 76.1966 33.3878 76.1269 33.5096 76.0307C33.6314 75.9345 33.7315 75.8139 33.8034 75.6769C33.8753 75.5399 33.9174 75.3894 33.9269 75.2352C34.177 73.9941 34.3854 72.7393 34.5938 71.4982C34.7189 70.7122 34.8578 69.94 35.0245 69.1678C35.0445 69.0008 35.117 68.8443 35.2317 68.7205C35.3464 68.5967 35.4976 68.512 35.6636 68.4784C37.1048 68.0537 38.5008 67.4902 39.8316 66.7961C39.9896 66.6838 40.1791 66.6234 40.3734 66.6234C40.5678 66.6234 40.7572 66.6838 40.9153 66.7961L45.5556 70.2434L46.0002 70.5468C46.1533 70.6453 46.3318 70.6977 46.5142 70.6977C46.6967 70.6977 46.8752 70.6453 47.0283 70.5468C47.0283 70.5468 47.1394 70.4227 47.2089 70.3675C48.8854 68.7312 50.5433 67.0856 52.1827 65.4309C52.3191 65.2603 52.3933 65.0489 52.3933 64.8311C52.3933 64.6133 52.3191 64.4019 52.1827 64.2312C51.1129 62.6454 49.9876 61.0183 48.8483 59.4601C48.7372 59.3084 48.6538 59.1705 48.5427 59.0326C48.4475 58.8997 48.3964 58.7406 48.3964 58.5776C48.3964 58.4145 48.4475 58.2555 48.5427 58.1225C49.2726 56.7869 49.8549 55.3767 50.2793 53.9167C50.4321 53.3376 50.9879 53.2962 51.4463 53.2273C52.5717 53.0618 53.6971 52.855 54.8224 52.6619C55.5588 52.5378 56.2951 52.3861 57.0315 52.2896C57.1842 52.2826 57.334 52.2455 57.4721 52.1805C57.6103 52.1154 57.734 52.0238 57.8361 51.9109C57.9383 51.798 58.0168 51.666 58.067 51.5227C58.1173 51.3794 58.1384 51.2276 58.129 51.0761C58.129 48.8974 58.129 46.7187 58.129 44.54C58.1538 44.2803 58.0788 44.0209 57.9191 43.8138C57.7594 43.6066 57.5267 43.4671 57.2676 43.423C56.5084 43.2373 55.7381 43.0992 54.9613 43.0093C54.2389 42.8714 53.572 42.7335 52.8079 42.6232L51.0296 42.3199C50.853 42.2985 50.6874 42.2234 50.5556 42.1049C50.4237 41.9864 50.3321 41.8303 50.2932 41.658C49.8676 40.2247 49.2949 38.8385 48.5843 37.5212C48.4747 37.3707 48.4157 37.1897 48.4157 37.0041C48.4157 36.8184 48.4747 36.6374 48.5843 36.4869C49.7653 34.846 50.9045 33.1775 52.0854 31.5366C52.1921 31.4286 52.274 31.299 52.3255 31.1566C52.3769 31.0143 52.3967 30.8626 52.3835 30.7119C52.3703 30.5613 52.3244 30.4153 52.249 30.2839C52.1736 30.1525 52.0704 30.0388 51.9465 29.9508L47.3201 25.3451C47.2277 25.2332 47.1135 25.141 46.9844 25.0739C46.8553 25.0068 46.7139 24.9663 46.5686 24.9547C46.4233 24.9431 46.2772 24.9607 46.139 25.0065C46.0007 25.0522 45.8732 25.1252 45.764 25.221C44.1663 26.3793 42.513 27.4687 40.9153 28.6132C40.7294 28.784 40.4904 28.8867 40.2377 28.9042C39.9851 28.9218 39.7339 28.8532 39.5259 28.7097C38.2405 28.0326 36.891 27.483 35.4969 27.0688C35.336 27.0301 35.1909 26.9432 35.0816 26.8198C34.9722 26.6965 34.9038 26.5427 34.8856 26.3793C34.4966 24.2971 34.1631 22.2425 33.7602 20.1465C33.7243 19.9223 33.6099 19.7178 33.4371 19.569C33.2643 19.4202 33.0442 19.3366 32.8155 19.3329C30.5787 19.2364 28.3418 19.3329 26.105 19.3329" stroke="white" stroke-linecap="round" stroke-linejoin="round"/>
<path d="M15.3796 8.6183C14.187 8.71988 13.0467 9.14968 12.0869 9.85935C10.8644 10.7789 10.028 12.1149 9.73889 13.6101C9.44158 15.0984 9.71169 16.6433 10.4968 17.9452C11.282 19.2471 12.5263 20.2133 13.9884 20.6564C15.4505 21.0995 17.0263 20.9879 18.4102 20.3433C19.7942 19.6987 20.8877 18.5671 21.4787 17.1677C22.1221 15.6803 22.1472 14.0008 21.5487 12.4951C20.9502 10.9893 19.7765 9.77929 18.2832 9.12851C17.3799 8.74755 16.4017 8.57318 15.4212 8.6183" stroke="white" stroke-linecap="round" stroke-linejoin="round"/>
<path d="M65.7848 23.6074C64.6763 23.7076 63.5945 24.0017 62.5893 24.4762C61.4867 24.9922 60.5024 25.7271 59.6971 26.6354C58.8918 27.5438 58.2827 28.6063 57.9073 29.7575C57.4743 30.9963 57.3271 32.3157 57.4766 33.6185C57.6189 34.8538 58.0186 36.0462 58.6502 37.12C59.2819 38.1937 60.1317 39.1252 61.1456 39.8554C62.1596 40.5855 63.3155 41.0983 64.5399 41.3611C65.7643 41.6239 67.0305 41.631 68.2578 41.382C70.0763 41.0509 71.741 40.1523 73.0093 38.8171C73.8464 37.9503 74.5004 36.9261 74.9328 35.8047C75.3653 34.6834 75.5673 33.4875 75.5272 32.2874C75.4871 31.0874 75.2055 29.9074 74.6992 28.817C74.1928 27.7265 73.4718 26.7476 72.5786 25.9378C71.2763 24.7705 69.6493 24.0207 67.9104 23.7867C67.2158 23.6902 66.5211 23.7039 65.8265 23.6764" stroke="white" stroke-linecap="round" stroke-linejoin="round"/>
<path d="M28.7175 35.5625C27.6852 35.6286 26.6641 35.8137 25.6749 36.1141C24.0106 36.6549 22.4778 37.533 21.1734 38.6927C19.4224 40.2334 18.15 42.2377 17.5056 44.4705C17.0237 46.0556 16.891 47.7251 17.1166 49.3657C17.5138 52.4782 19.1009 55.3201 21.5496 57.304C23.9984 59.2879 27.1216 60.262 30.2735 60.0249C32.451 59.8834 34.547 59.1486 36.331 57.9013C37.7408 56.9327 38.9319 55.6833 39.8286 54.2327C40.7253 52.7821 41.3078 51.1621 41.5391 49.4759C41.7705 47.7896 41.6455 46.074 41.1722 44.4383C40.6989 42.8026 39.8877 41.2826 38.7901 39.9751C37.5702 38.5199 36.0235 37.3689 34.2742 36.6146C32.5248 35.8602 30.6217 35.5235 28.7175 35.6314" stroke="white" stroke-linecap="round" stroke-linejoin="round"/>
</g>
<defs>
<clipPath id="clip0_410_7061">
<rect width="88" height="77" fill="white"/>
</clipPath>
</defs>
</svg>
