<svg width="35" height="35" viewBox="0 0 35 35" fill="none" xmlns="http://www.w3.org/2000/svg">
<g clip-path="url(#clip0_370_1927)">
<path d="M25.6212 11.5602C28.4123 11.5602 30.6749 9.26836 30.6749 6.44123C30.6749 3.6141 28.4123 1.32227 25.6212 1.32227C22.83 1.32227 20.5674 3.6141 20.5674 6.44123C20.5674 9.26836 22.83 11.5602 25.6212 11.5602Z" stroke="white" stroke-linecap="round" stroke-linejoin="round"/>
<path d="M25.6212 32.6774C28.4123 32.6774 30.6749 30.3855 30.6749 27.5584C30.6749 24.7313 28.4123 22.4395 25.6212 22.4395C22.83 22.4395 20.5674 24.7313 20.5674 27.5584C20.5674 30.3855 22.83 32.6774 25.6212 32.6774Z" stroke="white" stroke-linecap="round" stroke-linejoin="round"/>
<path d="M8.37312 21.6305C11.1642 21.6305 13.4269 19.3387 13.4269 16.5115C13.4269 13.6844 11.1642 11.3926 8.37312 11.3926C5.58199 11.3926 3.31934 13.6844 3.31934 16.5115C3.31934 19.3387 5.58199 21.6305 8.37312 21.6305Z" stroke="white" stroke-linecap="round" stroke-linejoin="round"/>
<path d="M12.8975 13.5836L20.9503 8.88477" stroke="white" stroke-linecap="round" stroke-linejoin="round"/>
<path d="M12.4375 19.5566L21.0902 25.2961" stroke="white" stroke-linecap="round" stroke-linejoin="round"/>
</g>
<defs>
<clipPath id="clip0_370_1927">
<rect width="35" height="35" fill="white"/>
</clipPath>
</defs>
</svg>
